<svg width="74" height="81" fill="none" xmlns="http://www.w3.org/2000/svg"><g clip-path="url(#clip0_1_1217)"><mask id="a" fill="#fff"><path d="M63.663 52.435a311.78 311.78 0 002.683-11.314c.862-3.963 1.41-8.06 2.365-11.998.063-.233.054-.385-.002-.55.194-1.096-.364-1.995-.745-2.995-.526-1.39-.994-2.813-1.461-4.236-.824-2.518-1.295-5.79-2.756-7.978-.034-.06-.055-.165-.09-.224-.71-.89-1.819-1.037-2.878-1.37a111.59 111.59 0 00-3.854-1.083 32.572 32.572 0 01-2.083-.608c-.314-.134-.64-.221-.966-.309a117.611 117.611 0 00-3.947-1.107L45.63 7.56l-4.274-1.195a109.44 109.44 0 00-3.879-.99 7.211 7.211 0 00-.99-.215 32.585 32.585 0 00-2.109-.515c-1.304-.35-2.609-.7-3.879-.99-1.037-.228-2.118-.667-3.178-.252a.376.376 0 00-.236.136c-2.36 1.166-4.403 3.763-6.375 5.532-1.116.999-2.22 1.951-3.383 2.938-.83.676-1.763 1.175-2.19 2.209a.971.971 0 00-.277.475c-1.142 3.888-2.715 7.71-3.95 11.573a311.723 311.723 0 00-3.334 11.14 259.403 259.403 0 00-3.031 11.87c-.806 3.378-1.91 7.127-1.992 10.6-.141 1.46.811 2.564 1.695 3.55 1.068 1.234 2.312 2.366 3.724 3.244 2.651 1.66 5.654 2.564 8.636 3.362 2.71.877 5.53 1.532 8.28 2.269l3.167.849 3.168.848c2.748.737 5.518 1.579 8.304 2.176 2.981.799 6.034 1.517 9.16 1.405 1.615-.066 3.259-.424 4.847-.948 1.259-.411 2.694-.925 3.243-2.226 1.678-3.095 2.583-6.847 3.575-10.176a259.43 259.43 0 003.31-11.795zM29.942 5.554l3.866 1.036c2.609.699 5.183 1.339 7.792 2.038l3.506.89 3.482.982c2.596.746 5.158 1.432 7.767 2.131 1.304.35 2.596.746 3.866 1.036l.606.162c-1.548.934-2.917 2.314-4.555 3.024-1.25.564-2.554.214-3.812-.123-1.27-.29-2.574-.64-3.832-.977-1.643-.39-3.273-.827-4.916-1.217-1.618-.484-3.249-.92-4.867-1.404-1.257-.337-2.55-.733-3.807-1.07-1.199-.371-2.515-.674-3.362-1.8-1.064-1.433-1.559-3.313-2.433-4.895l.699.187zm28.896 57.621c-.945 3.341-2.313 6.77-2.932 10.199-1.159.038-2.26.792-3.366 1.195-1.6.57-3.253.775-4.903.783-3.896.004-7.814-1.395-11.541-2.394-2.469-.661-4.95-1.276-7.42-1.938-2.468-.661-4.925-1.37-7.394-2.031-3.714-1.045-7.82-1.746-11.191-3.698-1.425-.83-2.754-1.836-3.855-3.13-.757-.901-1.32-2.15-2.317-2.718 1.178-3.279 1.72-6.978 2.56-10.298.951-3.739 1.916-7.525 2.961-11.239a311.58 311.58 0 013.334-11.14c1.117-3.794 2.178-7.754 3.748-11.377l.1-.373c.848-.372 1.623-1.213 2.335-1.82a61.77 61.77 0 003.337-2.951c1.07-1.012 2.186-2.01 3.235-3.128.429-.484.892-.909 1.287-1.452.06-.034.097-.174.18-.301.298 1.128.912 2.191 1.386 3.217.52 1.038.979 2.31 1.795 3.177 1.436 1.533 3.38 2.104 5.337 2.628 1.686.602 3.493.936 5.124 1.373l2.609.7 2.608.698c1.63.437 3.376 1.005 5.124 1.373 1.957.525 3.88.99 5.937.393 1.14-.344 2.16-1.169 3.143-1.854.97-.64 1.986-1.265 2.807-2.094.01.152.019.305.006.351.083.622.26 1.268.39 1.902.314 1.432.77 2.902 1.237 4.326.42 1.41.934 2.846 1.414 4.223.223.66.455 1.47.771 2.154-4.976-2.482-10.486-3.908-15.902-5.31-5.963-1.597-11.97-2.658-18.035-3.684-.34-.04-.476.472-.15.56 5.792 1.302 11.472 3.023 17.177 4.652 5.704 1.628 11.319 3.781 17.09 4.978-.44 3.877-1.477 7.743-2.289 11.52a311.57 311.57 0 01-2.682 11.314c-.905 3.752-1.963 7.512-3.055 11.214z"/></mask><path d="M63.663 52.435a311.78 311.78 0 002.683-11.314c.862-3.963 1.41-8.06 2.365-11.998.063-.233.054-.385-.002-.55.194-1.096-.364-1.995-.745-2.995-.526-1.39-.994-2.813-1.461-4.236-.824-2.518-1.295-5.79-2.756-7.978-.034-.06-.055-.165-.09-.224-.71-.89-1.819-1.037-2.878-1.37a111.59 111.59 0 00-3.854-1.083 32.572 32.572 0 01-2.083-.608c-.314-.134-.64-.221-.966-.309a117.611 117.611 0 00-3.947-1.107L45.63 7.56l-4.274-1.195a109.44 109.44 0 00-3.879-.99 7.211 7.211 0 00-.99-.215 32.585 32.585 0 00-2.109-.515c-1.304-.35-2.609-.7-3.879-.99-1.037-.228-2.118-.667-3.178-.252a.376.376 0 00-.236.136c-2.36 1.166-4.403 3.763-6.375 5.532-1.116.999-2.22 1.951-3.383 2.938-.83.676-1.763 1.175-2.19 2.209a.971.971 0 00-.277.475c-1.142 3.888-2.715 7.71-3.95 11.573a311.723 311.723 0 00-3.334 11.14 259.403 259.403 0 00-3.031 11.87c-.806 3.378-1.91 7.127-1.992 10.6-.141 1.46.811 2.564 1.695 3.55 1.068 1.234 2.312 2.366 3.724 3.244 2.651 1.66 5.654 2.564 8.636 3.362 2.71.877 5.53 1.532 8.28 2.269l3.167.849 3.168.848c2.748.737 5.518 1.579 8.304 2.176 2.981.799 6.034 1.517 9.16 1.405 1.615-.066 3.259-.424 4.847-.948 1.259-.411 2.694-.925 3.243-2.226 1.678-3.095 2.583-6.847 3.575-10.176a259.43 259.43 0 003.31-11.795zM29.942 5.554l3.866 1.036c2.609.699 5.183 1.339 7.792 2.038l3.506.89 3.482.982c2.596.746 5.158 1.432 7.767 2.131 1.304.35 2.596.746 3.866 1.036l.606.162c-1.548.934-2.917 2.314-4.555 3.024-1.25.564-2.554.214-3.812-.123-1.27-.29-2.574-.64-3.832-.977-1.643-.39-3.273-.827-4.916-1.217-1.618-.484-3.249-.92-4.867-1.404-1.257-.337-2.55-.733-3.807-1.07-1.199-.371-2.515-.674-3.362-1.8-1.064-1.433-1.559-3.313-2.433-4.895l.699.187zm28.896 57.621c-.945 3.341-2.313 6.77-2.932 10.199-1.159.038-2.26.792-3.366 1.195-1.6.57-3.253.775-4.903.783-3.896.004-7.814-1.395-11.541-2.394-2.469-.661-4.95-1.276-7.42-1.938-2.468-.661-4.925-1.37-7.394-2.031-3.714-1.045-7.82-1.746-11.191-3.698-1.425-.83-2.754-1.836-3.855-3.13-.757-.901-1.32-2.15-2.317-2.718 1.178-3.279 1.72-6.978 2.56-10.298.951-3.739 1.916-7.525 2.961-11.239a311.58 311.58 0 013.334-11.14c1.117-3.794 2.178-7.754 3.748-11.377l.1-.373c.848-.372 1.623-1.213 2.335-1.82a61.77 61.77 0 003.337-2.951c1.07-1.012 2.186-2.01 3.235-3.128.429-.484.892-.909 1.287-1.452.06-.034.097-.174.18-.301.298 1.128.912 2.191 1.386 3.217.52 1.038.979 2.31 1.795 3.177 1.436 1.533 3.38 2.104 5.337 2.628 1.686.602 3.493.936 5.124 1.373l2.609.7 2.608.698c1.63.437 3.376 1.005 5.124 1.373 1.957.525 3.88.99 5.937.393 1.14-.344 2.16-1.169 3.143-1.854.97-.64 1.986-1.265 2.807-2.094.01.152.019.305.006.351.083.622.26 1.268.39 1.902.314 1.432.77 2.902 1.237 4.326.42 1.41.934 2.846 1.414 4.223.223.66.455 1.47.771 2.154-4.976-2.482-10.486-3.908-15.902-5.31-5.963-1.597-11.97-2.658-18.035-3.684-.34-.04-.476.472-.15.56 5.792 1.302 11.472 3.023 17.177 4.652 5.704 1.628 11.319 3.781 17.09 4.978-.44 3.877-1.477 7.743-2.289 11.52a311.57 311.57 0 01-2.682 11.314c-.905 3.752-1.963 7.512-3.055 11.214z" fill="#fff" fill-opacity=".6"/><path d="M63.663 52.435l.388.1v-.001l-.388-.099zm2.683-11.314l-.391-.085v.001l.39.084zm2.365-11.998l-.386-.103-.002.009.389.094zm-.002-.55l-.394-.07-.018.102.033.096.38-.128zm-.745-2.995l-.374.142.374-.142zm-1.461-4.236l-.38.124.38-.124zm-2.756-7.978l-.346.2.006.011.008.01.332-.221zm-.09-.224l.347-.2-.015-.026-.019-.024-.312.25zm-2.878-1.37l.12-.382h-.002l-.118.382zm-5.937-1.691l-.157.368.013.006.015.005.129-.38zm-.966-.309l-.117.383.013.003.104-.386zm-3.947-1.107l.103-.387h-.004l-.1.387zM45.63 7.56l-.108.385.008.002.1-.387zm-4.274-1.195l.108-.385-.004-.001-.104.386zm-3.879-.99l-.103.387.007.002.007.001.09-.39zm-.99-.215l-.104.386.028.008.028.003.048-.397zm-2.109-.515l-.103.386.012.004.013.002.078-.392zm-3.879-.99l.09-.39h-.004l-.086.39zm-3.178-.252l.08.392.034-.007.032-.012-.146-.373zm-.236.136l.177.36.07-.036.052-.058-.299-.266zM20.71 9.071l.267.298-.267-.298zm-3.383 2.938l.252.31.006-.005-.258-.305zm-2.19 2.209l.264.3.07-.061.036-.086-.37-.153zm-.277.475l.384.113.002-.01-.386-.103zm-3.95 11.573l.38.123-.38-.123zm-3.334 11.14l-.385-.109.385.109zm-3.031 11.87l.39.092v-.003l-.39-.09zm-1.992 10.6l.399.038V59.9l.001-.015-.4-.01zm1.695 3.55l.303-.262-.005-.006-.298.267zm3.724 3.244l.213-.339h-.001l-.212.34zm8.636 3.362l.123-.38-.01-.003-.01-.003-.103.386zm22.919 6.142l.104-.387-.01-.002-.01-.002-.084.39zm9.16 1.405l.014.4h.002l-.016-.4zm4.847-.948l-.124-.38h-.001l.125.38zm3.243-2.226l-.352-.19-.01.017-.007.017.369.156zm3.575-10.176l-.382-.117-.001.003.383.114zM41.6 8.628l-.103.386.005.001.098-.387zm3.506.89l.11-.386-.011-.002-.099.387zm3.482.982l.11-.384h-.002l-.108.384zm11.633 3.167l.104-.386-.008-.002-.007-.002-.089.39zm.606.162l.206.343.806-.486-.909-.243-.103.386zm-4.555 3.024l-.16-.367-.005.002.165.365zm-3.812-.123l.104-.386-.007-.002-.008-.002-.089.39zm-3.832-.977l.103-.386-.01-.003-.093.39zm-4.916-1.217l-.115.383.011.003.011.003.093-.39zm-4.867-1.404l.115-.383-.011-.003-.104.386zm-3.807-1.07l-.118.382.007.002.008.002.103-.386zm-3.362-1.8l-.321.239.001.002.32-.24zm-2.433-4.895l.104-.387-.909-.243.455.823.35-.193zm29.595 57.808l-.383-.113-.002.004.385.109zm-2.932 10.199l.014.4.322-.012.058-.317-.394-.071zm-3.366 1.195l.134.376h.003l-.137-.376zm-4.903.783v.4h.002l-.002-.4zm-26.355-6.363l-.108.385.005.001.103-.386zm-11.191-3.698l-.202.346h.001l.2-.346zm-3.855-3.13l-.306.258.001.002.305-.26zm-2.317-2.718l-.377-.135-.114.317.293.166.198-.347zm2.56-10.298l-.388-.099v.001l.387.098zm6.295-22.378l.381.122.003-.01-.384-.112zm3.748-11.378l.367.159.012-.027.007-.029-.386-.103zm.1-.373l-.16-.366-.177.077-.05.185.387.104zm2.335-1.82l-.253-.31-.007.005.26.304zm6.572-6.079l.291.274.008-.008-.3-.266zm1.287-1.452l-.2-.346-.073.042-.05.069.323.235zm.18-.301l.388-.102-.228-.865-.493.747.334.22zm1.386 3.217l-.364.168.006.011.358-.18zm1.795 3.177l.291-.273v-.001l-.291.274zm5.337 2.628l.134-.377-.015-.005-.016-.004-.103.386zm15.465 4.144l.104-.386-.01-.003-.011-.002-.083.391zm5.937.393l.111.384.004-.001-.115-.383zm3.143-1.854l-.22-.334-.01.006.23.328zm2.807-2.094l.4-.024-.054-.893-.63.636.284.281zm.006.351l-.386-.103-.02.077.01.08.396-.054zm.39 1.902l-.393.08.002.006.39-.086zm1.237 4.326l.383-.115-.003-.01-.38.125zm1.414 4.223l.38-.128-.002-.004-.378.132zm.771 2.154l-.178.358 1.02.508-.479-1.034-.363.168zm-15.902-5.31l-.104.387h.004l.1-.387zm-18.035-3.684l.066-.394-.01-.002h-.009l-.047.396zm-.15.56l-.104.386.008.002.008.002.088-.39zm34.266 9.63l.397.045.042-.362-.358-.075-.08.392zm-4.97 22.834l-.388-.099v.005l.388.094zm2.158.573a311.941 311.941 0 002.686-11.329l-.783-.168c-.81 3.77-1.727 7.563-2.678 11.3l.775.197zm2.685-11.328c.433-1.99.787-4.014 1.151-6.022.364-2.012.739-4.01 1.213-5.966l-.777-.19c-.48 1.982-.859 4.001-1.223 6.014-.365 2.015-.716 4.021-1.145 5.994l.781.17zm2.362-11.98c.08-.3.074-.533-.01-.78l-.758.255c.028.082.04.153-.005.319l.773.207zm.005-.583c.113-.637.003-1.207-.172-1.73a10.33 10.33 0 00-.294-.756c-.105-.247-.207-.48-.3-.722l-.747.285c.099.26.21.513.31.75.103.242.197.47.273.697.15.45.223.877.142 1.337l.788.139zm-.765-3.207c-.523-1.38-.987-2.794-1.455-4.22l-.76.25c.467 1.422.937 2.854 1.467 4.253l.748-.283zm-1.455-4.219c-.41-1.256-.72-2.653-1.134-4.098-.406-1.414-.903-2.829-1.669-3.977l-.665.444c.694 1.04 1.164 2.356 1.565 3.754.392 1.367.73 2.865 1.142 4.126l.76-.249zm-2.79-8.053c.007.011.008.016.004.005a1.169 1.169 0 01-.016-.045l-.026-.076a.764.764 0 00-.051-.108l-.693.4c-.006-.011-.007-.016-.003-.005l.016.045.026.076c.011.027.027.067.051.108l.693-.4zm-.123-.274c-.416-.52-.942-.813-1.478-1.017a9.623 9.623 0 00-.807-.258c-.271-.077-.528-.146-.785-.227l-.24.763c.272.086.55.16.807.233.262.075.508.148.74.236.46.176.843.401 1.138.77l.625-.5zm-3.073-1.503c-1.3-.398-2.611-.75-3.868-1.086l-.207.772c1.259.338 2.556.685 3.84 1.08l.235-.766zm-3.868-1.086c-.7-.188-1.387-.372-2.058-.6l-.258.756c.7.24 1.412.43 2.109.616l.207-.772zm-2.03-.59c-.344-.147-.698-.241-1.02-.327l-.207.772c.33.09.63.17.913.29l.314-.735zm-1.006-.323a117.321 117.321 0 00-3.96-1.112l-.208.773c1.305.35 2.603.697 3.934 1.104l.234-.765zm-3.965-1.113L45.73 7.173l-.199.775L49.83 9.05l.198-.775zm-4.29-1.1l-4.273-1.194-.215.77 4.273 1.195.215-.77zM41.461 5.98c-1.303-.35-2.615-.701-3.893-.993l-.179.78c1.262.288 2.56.635 3.865.985l.207-.772zm-3.879-.99c-.322-.086-.675-.181-1.046-.226l-.096.794c.306.037.604.116.935.205l.207-.773zm-.99-.215a33.101 33.101 0 00-2.135-.522l-.156.785a32.22 32.22 0 012.083.51l.207-.773zm-2.11-.516c-1.302-.349-2.614-.7-3.893-.993l-.178.78c1.262.289 2.559.636 3.864.986l.208-.773zm-3.896-.993c-.251-.055-.502-.123-.773-.191a9.777 9.777 0 00-.83-.18c-.57-.093-1.184-.107-1.806.137l.291.745c.438-.172.893-.173 1.387-.093.249.04.5.1.762.166.256.065.53.138.797.197l.172-.781zm-3.344-.254a.82.82 0 00-.25.092.822.822 0 00-.205.171l.598.53a.167.167 0 01.015-.014l-.009.006-.008.004.02-.005-.16-.784zm-.333.17c-1.238.611-2.375 1.588-3.434 2.61-1.081 1.044-2.047 2.1-3.031 2.982l.534.596c.988-.886 2.03-2.014 3.053-3.002 1.046-1.01 2.11-1.915 3.232-2.469l-.354-.717zm-6.465 5.592a167.517 167.517 0 01-3.375 2.93l.517.61a168.081 168.081 0 003.392-2.944l-.534-.596zm-3.37 2.926c-.199.162-.404.314-.619.475-.21.158-.429.323-.636.503-.416.361-.805.793-1.05 1.388l.739.306c.18-.439.472-.774.835-1.09.184-.159.381-.31.592-.467.207-.156.43-.32.645-.495l-.505-.62zm-2.2 2.219a1.371 1.371 0 00-.4.671l.773.207a.578.578 0 01.155-.278l-.528-.6zm-.397.662c-.567 1.932-1.242 3.85-1.933 5.774-.689 1.921-1.394 3.85-2.014 5.79l.762.244c.615-1.923 1.314-3.836 2.005-5.764.69-1.925 1.373-3.862 1.948-5.818l-.768-.226zM10.53 26.145a312.07 312.07 0 00-3.338 11.153l.77.217a311.381 311.381 0 013.33-11.125l-.762-.245zM7.192 37.299a259.762 259.762 0 00-3.036 11.888l.78.18a258.68 258.68 0 013.026-11.852l-.77-.216zM4.157 49.184c-.798 3.345-1.92 7.155-2.002 10.683l.8.02c.08-3.419 1.167-7.105 1.98-10.518l-.778-.185zm-2 10.654c-.162 1.66.93 2.892 1.795 3.856l.595-.535c-.904-1.008-1.717-1.984-1.594-3.244l-.797-.077zm1.79 3.85c1.088 1.259 2.362 2.42 3.815 3.323l.423-.68c-1.372-.852-2.587-1.956-3.633-3.166l-.605.523zM7.76 67.01c2.707 1.694 5.761 2.61 8.744 3.41l.207-.773c-2.98-.798-5.93-1.69-8.526-3.315l-.425.678zm8.725 3.404c2.723.88 5.568 1.543 8.299 2.274l.207-.773c-2.766-.74-5.562-1.39-8.26-2.262l-.246.761zm8.299 2.274l.006.002.006.002.006.001.007.002.006.002.006.001.007.002.006.002.006.001.006.002.007.002.006.001.006.002.006.002.007.001.006.002.006.002.007.001.006.002.006.002c.002 0 .004 0 .006.002l.006.001.007.002.006.001.006.002.007.002.006.002.006.001.006.002.006.002.007.001.006.002.006.002.006.001.007.002.006.002.006.001.007.002.006.002.006.001.006.002.006.002.007.001.006.002.006.002.006.001.007.002.006.002.006.001.006.002.007.002.006.001.006.002.006.002.006.001.007.002.006.002.006.001.006.002.007.002.006.001.006.002.006.002.006.001.007.002.006.002.006.001.006.002.006.002.007.001.006.002.006.002.006.001.007.002.006.002.006.001.006.002.006.002.007.001.006.002.006.002.006.001.006.002.007.002.006.001.006.002.006.002.006.001.007.002.006.002.006.001.006.002.006.002.007.001.006.002.006.002.006.001.006.002.007.001.006.002.006.002c.002 0 .004 0 .006.002l.006.001.007.002c.002 0 .004 0 .006.002l.006.001.006.002.006.001.006.002.007.002.006.001.006.002.006.002.006.001.007.002.006.002.006.001.006.002.006.002.007.001.006.002.006.002.006.001.006.002.006.002.007.001.006.002.006.002.006.001.006.002.006.001.007.002.006.002c.002 0 .004 0 .006.002l.006.001.006.002.007.001.006.002.006.002.006.001.006.002.006.002.006.001.007.002.006.002.006.001.006.002.006.002.006.001.007.002.006.002.006.001.006.002.006.002.006.001.007.002c.002 0 .004 0 .006.002l.006.001.006.002.006.001.007.002.006.002.006.001.006.002.006.002.006.001.006.002.007.002.006.001.006.002.006.002.006.001.006.002.006.002.007.001.006.002.006.002.006.001.006.002.006.001.007.002.006.002.006.001.006.002.006.002.006.001.007.002.006.002.006.001.006.002.006.002.006.001.006.002.007.001.006.002.006.002c.002 0 .004 0 .006.002l.006.001.006.002.006.001.007.002.006.002.006.001.006.002.006.002.006.001.006.002.007.002.006.001.006.002.006.001.006.002.006.002.006.001.007.002.006.002.006.001.006.002.006.002.006.001.007.002.006.002.006.001.006.002.006.002.006.001.006.002.006.002.007.001.006.002c.002 0 .004 0 .006.002l.006.001.006.002.006.001.006.002.007.002.006.001.006.002.006.002.006.001.006.002.006.002.007.001.006.002.006.001.006.002.006.002.006.001.007.002.006.002.006.001.006.002.006.002.006.001.006.002.007.002.006.001.006.002.006.002.006.001.006.002c.002 0 .004 0 .006.002l.006.001.007.002.006.001.006.002.006.002.006.001.006.002.006.002.007.001.006.002.006.002.006.001.006.002.006.001.006.002.007.002.006.001.006.002.006.002.006.001.006.002.007.002.006.001.006.002.006.002.006.001.006.002.006.002.006.001.007.002c.002 0 .004 0 .006.002l.006.001.006.002.006.001.006.002.006.002.007.001.006.002.006.002.006.001.006.002.006.002.006.001.007.002.006.002.006.001.006.002.006.001.006.002.007.002.006.001.006.002.006.002.006.001.006.002.007.002.006.001.006.002.006.002.006.001.006.002.006.002.006.001.007.002c.002 0 .004 0 .006.002l.006.001.006.002.006.001.006.002.007.002.006.001.006.002.006.002.006.001.006.002.006.002.007.001.006.002.006.002.006.001.006.002.006.001.007.002.006.002c.002 0 .004 0 .006.002l.006.001.006.002.006.001.006.002.007.002.006.001.006.002.006.002.006.001.006.002.007.002.006.001.006.002.006.002.006.001.006.002.007.002.006.001.006.002.006.002.006.001.007.002.006.001.006.002.006.002.006.001.006.002.006.002.007.001.006.002.006.002.006.001.006.002.006.002.007.001.006.002.006.002.006.001.006.002.007.002.006.001.006.002.006.002.006.001.006.002.007.001.006.002.006.002c.002 0 .004 0 .006.002l.006.001.007.002c.002 0 .004 0 .006.002l.006.001.006.002.006.001.006.002.007.002.006.001.006.002.006.002.006.001.007.002.006.002.006.001.006.002.006.002.007.001.006.002.006.002.006.001.006.002.007.002.006.001.006.002.006.002.006.001.007.002.006.002.006.001.006.002.006.002.007.001.006.002.006.002.006.001.006.002.007.002.006.001.006.002.006.002.006.001.007.002.006.001.006.002.006.002.006.001.007.002.006.002.006.002.006.001.007.002.006.001.006.002.006.002.006.001.007.002.006.002.006.002.006.001.007.002.006.002.006.001.006.002.007.001.006.002.006.002.006.002.006.001.007.002.006.002.006.001.006.002.007.002.006.001.006.002.006.002.007.001.006.002.006.002.006.001.006.002.007.002.006.001.006.002.007.002.006.001.006.002.006.002.006.001.007.002.006.002.006.001.006.002.007.002.006.001.006.002.007.002.006.001.006.002.006.002.007.001.006.002.006.002c.002 0 .004 0 .006.002l.007.001.006.002.006.001.006.002.007.002.006.002.006.001.006.002.007.002.006.001.006.002.207-.773-.006-.001-.006-.002-.006-.002c-.002 0-.005 0-.007-.002a.147.147 0 01-.006-.001l-.006-.002-.006-.002-.007-.001-.006-.002a.147.147 0 01-.006-.002l-.007-.001a.197.197 0 00-.006-.002l-.006-.002-.006-.001-.007-.002-.006-.002-.006-.001-.006-.002-.007-.002-.006-.001a.147.147 0 00-.006-.002l-.006-.002-.007-.001a.147.147 0 01-.006-.002l-.006-.002-.006-.001-.007-.002-.006-.002-.006-.001-.007-.002-.006-.002-.006-.001a.147.147 0 00-.006-.002l-.006-.002-.007-.001-.006-.002-.006-.002-.006-.001a.112.112 0 01-.007-.002l-.006-.002c-.002 0-.004 0-.006-.002l-.006-.001-.007-.002a.197.197 0 00-.006-.001l-.006-.002a.197.197 0 01-.006-.002l-.006-.001-.007-.002-.006-.002-.006-.002-.007-.001-.006-.002-.006-.002a.197.197 0 00-.006-.001l-.006-.002-.007-.001-.006-.002-.006-.002-.006-.002a.112.112 0 00-.006-.001l-.007-.002-.006-.002a.197.197 0 00-.006-.001l-.006-.002-.007-.001-.006-.002-.006-.002-.006-.002-.006-.001-.007-.002-.006-.002a.112.112 0 00-.006-.001l-.006-.002-.006-.001-.007-.002-.006-.002-.006-.002-.006-.001a.112.112 0 01-.006-.002l-.007-.002-.006-.001-.006-.002-.006-.001-.007-.002-.006-.002-.006-.001-.006-.002a.112.112 0 00-.006-.002c-.002 0-.005 0-.007-.002l-.006-.001-.006-.002-.006-.001-.006-.002-.007-.002-.006-.001-.006-.002a.197.197 0 01-.006-.002l-.006-.001-.006-.002-.007-.002-.006-.001a.112.112 0 01-.006-.002l-.006-.002-.006-.001-.007-.002-.006-.002-.006-.001-.006-.002-.006-.002-.007-.001-.006-.002-.006-.002-.006-.001-.006-.002-.006-.002-.007-.001-.006-.002-.006-.002-.006-.001-.006-.002-.007-.001-.006-.002-.006-.002-.006-.001-.006-.002-.007-.002c-.002 0-.004 0-.006-.002l-.006-.001-.006-.002-.006-.001-.006-.002-.007-.002-.006-.001a.112.112 0 01-.006-.002l-.006-.002-.006-.001-.006-.002-.007-.002-.006-.001-.006-.002-.006-.002-.006-.001-.006-.002-.007-.002-.006-.001-.006-.002-.006-.002-.006-.001-.006-.002c-.003 0-.005 0-.007-.002l-.006-.001a.139.139 0 00-.006-.002l-.006-.001-.006-.002-.006-.002-.007-.001-.006-.002-.006-.002-.006-.001-.006-.002-.006-.002-.007-.001-.006-.002-.006-.002-.006-.001-.006-.002-.006-.002-.007-.001-.006-.002-.006-.002-.006-.001-.006-.002-.006-.001-.006-.002-.007-.002-.006-.001-.006-.002-.006-.002-.006-.001-.006-.002-.006-.002-.007-.001-.006-.002a.141.141 0 01-.006-.002l-.006-.001-.006-.002-.006-.001-.007-.002-.006-.002c-.002 0-.004 0-.006-.002l-.006-.001-.006-.002-.006-.001-.007-.002-.006-.002-.006-.001-.006-.002-.006-.002-.006-.001-.006-.002-.007-.002-.006-.001-.006-.002-.006-.002-.006-.001a.141.141 0 00-.006-.002l-.006-.001-.007-.002-.006-.002-.006-.001-.006-.002-.006-.002-.006-.001-.006-.002-.007-.002-.006-.001-.006-.002-.006-.002-.006-.001-.006-.002-.006-.002-.007-.001-.006-.002c-.002 0-.004 0-.006-.002l-.006-.001-.006-.002-.006-.001-.007-.002-.006-.002-.006-.001-.006-.002-.006-.002-.006-.001-.006-.002-.006-.002-.007-.001-.006-.002-.006-.001-.006-.002-.006-.002-.006-.001-.006-.002-.007-.002-.006-.001a.141.141 0 00-.006-.002l-.006-.002-.006-.001-.006-.002-.006-.002-.007-.001-.006-.002-.006-.002-.006-.001-.006-.002-.006-.002-.006-.001a.141.141 0 01-.007-.002l-.006-.001-.006-.002-.006-.002-.006-.001-.006-.002-.006-.002-.007-.001-.006-.002-.006-.002-.006-.001-.006-.002-.006-.001-.006-.002-.006-.002-.007-.001-.006-.002-.006-.002-.006-.001-.006-.002-.006-.002-.006-.001-.007-.002-.006-.002-.006-.001-.006-.002-.006-.002-.006-.001-.006-.002-.007-.002-.006-.001-.006-.002c-.002 0-.004 0-.006-.002l-.006-.001-.006-.002-.006-.001-.007-.002-.006-.002-.006-.001-.006-.002-.006-.002-.006-.001-.007-.002-.006-.002-.006-.001-.006-.002-.006-.001-.006-.002-.006-.002c-.002 0-.005 0-.007-.002l-.006-.001-.006-.002-.006-.001-.006-.002-.006-.002-.006-.001-.007-.002-.006-.002-.006-.001-.006-.002-.006-.002-.006-.001-.006-.002-.007-.002-.006-.001-.006-.002-.006-.001-.006-.002-.006-.002-.007-.001-.006-.002-.006-.002-.006-.001a.141.141 0 01-.006-.002l-.006-.002-.006-.001-.007-.002-.006-.002-.006-.001-.006-.002-.006-.001-.006-.002-.007-.002c-.002 0-.004 0-.006-.002l-.006-.001-.006-.002-.006-.001-.006-.002-.006-.002-.007-.001-.006-.002-.006-.002-.006-.001-.006-.002-.007-.002-.006-.001-.006-.002-.006-.002-.006-.001-.006-.002-.006-.001-.007-.002-.006-.002-.006-.002-.006-.001-.006-.002c-.002 0-.004 0-.006-.002l-.007-.001-.006-.002-.006-.001-.006-.002-.006-.002-.006-.001-.007-.002-.006-.002-.006-.001-.006-.002-.006-.002-.006-.001-.007-.002-.006-.002-.006-.001a.197.197 0 00-.006-.002l-.006-.002-.006-.001-.007-.002-.006-.002-.006-.001-.006-.002-.006-.001-.006-.002-.007-.002-.006-.001-.006-.002-.006-.002-.006-.001-.007-.002-.006-.002-.006-.001-.006-.002-.006-.002-.006-.001-.007-.002-.006-.002-.006-.001-.006-.002-.006-.002-.007-.001-.006-.002-.006-.002-.006-.001-.006-.002-.006-.002-.007-.001-.006-.002-.006-.002-.006-.001-.007-.002-.006-.001-.006-.002-.006-.002-.006-.001-.006-.002-.007-.002a.112.112 0 00-.006-.002l-.006-.001-.006-.002-.006-.001a.197.197 0 01-.007-.002l-.006-.002-.006-.001-.006-.002-.006-.002c-.003 0-.005 0-.007-.002l-.006-.001-.006-.002c-.002 0-.004 0-.006-.002l-.006-.001-.007-.002-.006-.001-.006-.002-.006-.002-.007-.001-.006-.002-.006-.002-.006-.001-.006-.002-.007-.002-.006-.001-.006-.002a.197.197 0 01-.006-.002l-.006-.001-.007-.002a.112.112 0 01-.006-.002l-.006-.001-.006-.002-.007-.002-.006-.001-.006-.002-.006-.002-.006-.001-.007-.002a.112.112 0 01-.006-.002l-.006-.001L25.31 72l-.007-.002-.006-.001-.006-.002-.006-.002-.007-.001-.006-.002-.006-.002a.147.147 0 01-.006-.002l-.006-.001-.007-.002-.006-.001-.006-.002-.006-.002-.007-.001-.006-.002-.006-.002c-.002 0-.004 0-.006-.002l-.007-.001a.197.197 0 01-.006-.002l-.006-.001-.006-.002-.007-.002-.006-.001-.006-.002-.006-.002-.007-.002-.006-.001-.006-.002-.006-.002-.007-.001a.197.197 0 01-.006-.002l-.006-.002-.006-.001-.007-.002-.006-.002-.006-.001-.006-.002-.007-.002-.006-.001a.147.147 0 01-.006-.002l-.006-.002-.007-.001-.006-.002-.006-.002a.197.197 0 01-.007-.002l-.006-.001a.147.147 0 00-.006-.002l-.006-.001-.007-.002-.006-.002-.006-.002-.207.773zm3.167.849l.007.002.006.001.006.002.006.002.007.001.006.002.006.002.007.001.006.002.006.002.006.001.007.002.006.002c.002 0 .004 0 .006.002l.006.001.007.002.006.002.006.001.006.002.007.002.006.001.006.002.006.002.007.001.006.002.006.002.007.001.006.002.006.002.006.001.006.002.007.002.006.001.006.002.007.002.006.001.006.002.006.002.006.001.007.002.006.002.006.001.006.002.007.002.006.001.006.002.006.002.007.001.006.002.006.002.006.001.006.002.007.002.006.001.006.002.006.002.007.001.006.002.006.002.006.001.006.002.007.002.006.001.006.002.006.002.007.001.006.002.006.002.006.001.006.002.007.002.006.001.006.002.006.002.006.001.007.002.006.002.006.001.006.002.006.002.007.001.006.002.006.002.006.001.007.002.006.002.006.001.006.002.006.002.007.001.006.002.006.002.006.001.006.002.006.002.007.001.006.002.006.002.006.001.007.002.006.002.006.001.006.002.006.002.006.001.007.002.006.002.006.001.006.002.006.002.007.001.006.002.006.001.006.002.006.002c.002 0 .004 0 .006.002l.007.001.006.002.006.001.006.002.006.002.007.001.006.002.006.002.006.001.006.002.006.002.007.001.006.002.006.002.006.001.006.002.006.002.007.001.006.002.006.002.006.001.006.002.007.002.006.001.006.002.006.001.006.002.006.002.007.001.006.002.006.002.006.001.006.002.006.002.007.001.006.002.006.002.006.001.006.002.006.002.006.001.007.002.006.002.006.001.006.002.006.001.007.002.006.002.006.001.006.002.006.002.006.001.006.002.007.002.006.001.006.002.006.002.006.001.006.002.006.002.007.001.006.002.006.002.006.001.006.002.006.002.007.001.006.002.006.001.006.002.006.002.006.001.007.002.006.002.006.001.006.002.006.002.006.001.006.002.007.002.006.001.006.002.006.002.006.001.006.002c.002 0 .004 0 .006.002l.007.001.006.002.006.001.006.002.006.002.006.001.006.002.007.002.006.001.006.002.006.002.006.001.006.002.007.001.006.002.006.002.006.001.006.002.006.002.006.001.006.002.007.002.006.001.006.002.006.002.006.001.006.002.006.002.007.001.006.002.006.002.006.001.006.002.006.001.006.002.007.002.006.001.006.002.006.002.006.001.006.002.006.002.007.001.006.002.006.002.006.001.006.002.006.001.007.002.006.002.006.001.006.002.006.002.006.001.006.002.006.002.007.001.006.002.006.002.006.001.006.002.006.002.006.001.007.002c.002 0 .004 0 .006.002l.006.001.006.002.006.001.006.002.006.002.007.001.006.002.006.002.006.001.006.002.006.002.006.001.007.002.006.001.006.002.006.002.006.001.006.002.007.002.006.001.006.002.006.002.006.001.006.002.006.002.006.001.007.002.006.002.006.001.006.002.006.002.006.001.006.002.007.001.006.002.006.002.006.001.006.002.006.002.006.001.007.002.006.002.006.001.006.002.006.002.006.001.006.002.007.001.006.002.006.002.006.001.006.002.006.002.007.001.006.002.006.002.006.001.006.002.006.002.006.001.007.002.006.002.006.001.006.002.006.002.006.001.007.002.006.001.006.002.006.002.006.001.006.002.006.002.007.001.006.002.006.002.006.001.006.002.006.002.007.001.006.002.006.002.006.001.006.002.006.002.007.001.006.002.006.001.006.002.006.002.006.001.006.002.007.002.006.001.006.002.006.002.006.001.006.002.007.002.006.001.006.002.006.002.006.001.007.002.006.002.006.001.006.002.006.001.006.002.006.002.007.001.006.002.006.002.006.001.006.002.007.002.006.001.006.002.006.002.006.001.007.002.006.002.006.001.006.002.006.002.006.001.006.002.007.002.006.001.006.002.006.002.006.001.007.002.006.002.006.001.006.002.006.002.007.001.006.002.006.001.006.002.006.002c.002 0 .005 0 .006.002l.007.001.006.002.006.001.006.002.006.002.007.001.006.002.006.002.006.001.007.002.006.002.006.001.006.002.006.002.006.001.007.002.006.002.006.001.006.002.006.002.007.001.006.002.006.002.006.001.007.002.006.002.006.001.006.002.006.002.006.001.007.002.006.002.006.001.006.002.007.002.006.001.006.002.006.002.007.001.006.002.006.002.006.001.006.002.007.002.006.001.006.002.006.002.006.001.007.002.006.002.006.001.006.002.007.002.006.001.006.002.006.002.007.001.006.002.006.002.006.001.006.002.007.002.006.001.006.002.006.002.007.001.006.002.006.002.006.001.007.002.006.002.006.001.006.002.007.002.006.001.006.002.006.002c.002 0 .005 0 .007.002l.006.001.006.002.006.001.007.002.006.002.006.002.006.001.007.002.006.002.006.001.006.002.007.002.006.001.006.002.007.002.006.001.006.002.006.002.007.001.006.002.006.002.007.001.006.002.006.002.207-.773a.147.147 0 01-.006-.002l-.006-.001a.147.147 0 00-.007-.002l-.006-.002-.006-.001a.112.112 0 01-.006-.002l-.007-.002-.006-.001-.006-.002-.007-.002a.147.147 0 01-.006-.002l-.006-.001a.112.112 0 00-.006-.002l-.007-.001-.006-.002-.006-.002-.006-.001-.007-.002-.006-.002-.006-.002-.007-.001-.006-.002-.006-.002-.006-.001-.006-.002a.147.147 0 00-.007-.002l-.006-.001-.006-.002-.007-.002-.006-.001-.006-.002-.006-.002-.006-.001-.007-.002-.006-.002a.112.112 0 01-.006-.001l-.006-.002-.007-.002-.006-.001-.006-.002-.006-.002-.007-.001-.006-.002-.006-.002-.006-.001-.007-.002-.006-.002a.147.147 0 00-.006-.001l-.006-.002a.112.112 0 01-.006-.002l-.007-.001-.006-.002a.112.112 0 01-.006-.002l-.006-.001-.007-.002-.006-.002-.006-.001-.006-.002-.007-.002-.006-.001-.006-.002-.006-.002-.007-.001-.006-.002-.006-.002-.006-.001-.006-.002-.006-.002-.007-.001-.006-.002-.006-.002-.006-.001-.007-.002-.006-.002-.006-.001-.006-.002-.006-.002-.007-.001-.006-.002-.006-.002-.006-.001-.006-.002-.007-.002-.006-.001-.006-.002-.006-.002-.006-.001-.007-.002-.006-.002-.006-.001-.006-.002-.007-.002-.006-.001-.006-.002-.006-.002-.006-.001-.006-.002-.007-.002-.006-.001a.139.139 0 01-.006-.002l-.006-.002-.006-.001-.007-.002-.006-.002-.006-.001-.006-.002-.006-.002-.007-.001-.006-.002-.006-.001-.006-.002-.006-.002-.006-.002-.007-.001-.006-.002c-.002 0-.004 0-.006-.002l-.006-.001-.006-.002-.007-.001a.112.112 0 00-.006-.002l-.006-.002-.006-.001-.006-.002-.007-.002-.006-.001-.006-.002-.006-.002-.006-.001-.006-.002-.006-.002-.007-.001-.006-.002-.006-.002-.006-.001-.006-.002-.007-.002-.006-.001-.006-.002-.006-.001-.006-.002-.006-.002c-.003 0-.005 0-.007-.002l-.006-.001-.006-.002c-.002 0-.004 0-.006-.002l-.006-.001-.006-.002-.007-.001-.006-.002-.006-.002-.006-.001-.006-.002-.006-.002-.007-.001-.006-.002-.006-.002-.006-.001-.006-.002-.006-.002-.006-.001-.007-.002-.006-.001-.006-.002-.006-.002c-.002 0-.004 0-.006-.002l-.006-.001-.007-.002-.006-.001-.006-.002-.006-.002-.006-.001-.006-.002-.007-.002-.006-.001-.006-.002-.006-.002-.006-.001-.006-.002-.006-.002-.007-.001-.006-.002-.006-.001-.006-.002-.006-.002c-.002 0-.004 0-.006-.002l-.007-.001-.006-.002-.006-.001-.006-.002-.006-.002-.006-.001-.006-.002-.007-.002-.006-.001-.006-.002-.006-.002-.006-.001-.006-.002-.007-.002-.006-.001-.006-.002-.006-.001-.006-.002-.006-.002-.006-.001-.007-.002-.006-.002-.006-.001-.006-.002-.006-.002-.006-.001a.141.141 0 00-.006-.002l-.007-.002-.006-.001-.006-.002-.006-.002-.006-.001-.006-.002c-.002 0-.004 0-.006-.002l-.007-.001-.006-.002-.006-.001-.006-.002-.006-.002-.006-.001-.007-.002-.006-.002-.006-.001-.006-.002-.006-.002-.006-.001-.006-.002-.006-.001-.007-.002-.006-.002-.006-.001-.006-.002a.141.141 0 00-.006-.002l-.006-.001-.006-.002-.007-.002-.006-.001-.006-.002-.006-.002-.006-.001-.006-.002-.006-.002-.007-.001-.006-.002a.141.141 0 01-.006-.002l-.006-.001-.006-.002-.006-.001-.006-.002-.007-.002-.006-.001-.006-.002-.006-.002-.006-.001-.006-.002-.006-.002-.007-.001-.006-.002-.006-.002-.006-.001-.006-.002-.006-.001-.006-.002-.007-.002-.006-.001-.006-.002-.006-.002-.006-.001-.006-.002-.006-.002-.007-.001-.006-.002-.006-.002-.006-.001-.006-.002-.006-.002-.006-.001-.007-.002c-.002 0-.004 0-.006-.002a.141.141 0 01-.006-.001l-.006-.002-.006-.001-.006-.002-.006-.002-.007-.001-.006-.002-.006-.002-.006-.001-.006-.002-.006-.002-.006-.001-.007-.002-.006-.001-.006-.002-.006-.002-.006-.001-.006-.002-.006-.002-.007-.001-.006-.002-.006-.002-.006-.001-.006-.002-.006-.002-.006-.001-.007-.002-.006-.002-.006-.001-.006-.002c-.002 0-.004 0-.006-.002l-.006-.001-.006-.002-.007-.001-.006-.002-.006-.002-.006-.001-.006-.002-.006-.002-.007-.001-.006-.002-.006-.002-.006-.001-.006-.002-.006-.002-.007-.001-.006-.002-.006-.001-.006-.002-.006-.002c-.002 0-.004 0-.006-.002l-.006-.001-.007-.002-.006-.001-.006-.002-.006-.002-.006-.001-.006-.002-.006-.002-.007-.001-.006-.002-.006-.002-.006-.001-.006-.002-.006-.002-.007-.001-.006-.002-.006-.001-.006-.002-.006-.002c-.002 0-.004 0-.006-.002l-.007-.001-.006-.002-.006-.001-.006-.002-.006-.002-.006-.001-.007-.002-.006-.002-.006-.001-.006-.002-.006-.002-.006-.001-.006-.002-.007-.002-.006-.001-.006-.002-.006-.001-.006-.002-.007-.002-.006-.001-.006-.002-.006-.002c-.002 0-.004 0-.006-.002l-.006-.001-.007-.002-.006-.001-.006-.002-.006-.002-.006-.001a.197.197 0 01-.006-.002l-.007-.002-.006-.001-.006-.002-.006-.002-.006-.001-.006-.002-.007-.002-.006-.001-.006-.002-.006-.002-.006-.001-.007-.002-.006-.002-.006-.001-.006-.002-.006-.001a.139.139 0 00-.006-.002l-.007-.002-.006-.001-.006-.002-.006-.002c-.002 0-.004 0-.006-.002a.197.197 0 01-.007-.001l-.006-.002c-.002 0-.004 0-.006-.002l-.006-.001-.006-.002-.007-.001-.006-.002-.006-.002-.006-.001-.006-.002-.007-.002-.006-.001-.006-.002-.006-.002-.006-.001-.007-.002-.006-.002-.006-.001-.006-.002-.006-.002-.007-.001-.006-.002-.006-.002-.006-.001-.006-.002-.007-.002-.006-.001-.006-.002-.006-.002-.006-.001-.007-.002-.006-.002-.006-.001-.006-.002-.007-.002-.006-.001-.006-.002-.006-.002a.147.147 0 00-.006-.001l-.007-.002-.006-.002-.006-.001-.006-.002-.006-.002a.112.112 0 00-.007-.001l-.006-.002-.006-.002a.197.197 0 00-.006-.001l-.007-.002-.006-.002-.006-.001-.006-.002-.006-.002-.007-.001-.006-.002a.147.147 0 01-.006-.002l-.006-.001-.007-.002-.006-.002-.006-.001-.006-.002-.007-.002-.006-.001-.006-.002-.006-.002-.006-.001-.007-.002a.112.112 0 00-.006-.002l-.006-.001-.007-.002-.006-.002-.006-.001-.006-.002-.006-.002a.112.112 0 00-.007-.001l-.006-.002-.006-.002-.007-.001a.112.112 0 00-.006-.002l-.006-.002-.006-.001-.006-.002a.112.112 0 00-.007-.002c-.002 0-.004 0-.006-.002l-.006-.001-.006-.002-.007-.002-.006-.001-.006-.002-.007-.002-.006-.001a.147.147 0 00-.006-.002l-.006-.002-.007-.001-.006-.002-.006-.002-.006-.001-.007-.002-.006-.002a.147.147 0 01-.006-.001l-.006-.002a.147.147 0 00-.007-.002l-.006-.001-.006-.002-.007-.002-.207.773zm3.168.849c2.73.732 5.525 1.58 8.324 2.18l.168-.782c-2.773-.594-5.519-1.43-8.285-2.171l-.207.773zm8.304 2.175c2.983.8 6.087 1.533 9.278 1.42l-.029-.8c-3.06.109-6.062-.594-9.041-1.393l-.208.773zm9.28 1.42c1.662-.07 3.343-.437 4.956-.969l-.25-.76c-1.563.516-3.17.864-4.739.929l.033.8zm4.955-.968c.627-.206 1.34-.448 1.966-.815.632-.37 1.203-.882 1.521-1.637l-.737-.31c-.23.545-.65.942-1.188 1.256-.544.319-1.179.539-1.81.745l.248.76zm3.47-2.416c1.704-3.143 2.625-6.956 3.608-10.253l-.767-.228c-1.002 3.36-1.892 7.052-3.544 10.1l.703.38zm3.607-10.25a260.58 260.58 0 003.315-11.813l-.775-.198a258.929 258.929 0 01-3.305 11.777l.765.234zM29.838 5.94l.008.002.008.002.007.002.008.002.007.002.008.002.008.003c.002 0 .005 0 .007.002l.008.002.008.002.007.002.008.002.008.002.007.002.008.002.008.002.007.002.008.002.007.002.008.002.008.002.007.002.008.002.008.002.007.002.008.002.008.002.007.003c.003 0 .005 0 .008.002l.008.002.007.002.008.002.007.002.008.002.008.002.007.002.008.002.008.002.007.002.008.002.008.002.007.002.008.002.007.002.008.002.008.002.007.002.008.002.008.003c.002 0 .005 0 .007.002.003 0 .005 0 .008.002l.008.002.007.002.008.002.008.002.007.002.008.002.007.002.008.002.008.002.007.002.008.002.008.002.007.002.008.002.008.002.007.002.008.002.007.002.008.003c.003 0 .005 0 .008.002.002 0 .005 0 .007.002l.008.002.008.002.007.002.008.002.008.002.007.002.008.002.007.002.008.002.008.002.007.002.008.002.008.002.007.002.008.002.008.002.007.002.008.002.007.002.008.003c.003 0 .005 0 .008.002.002 0 .005 0 .007.002l.008.002.008.002.007.002.008.002.008.002.007.002.008.002.007.002.008.002.008.002.007.002.008.002.008.002.007.002.008.002.007.002.008.002.008.002.007.002.008.003c.003 0 .005 0 .008.002.002 0 .005 0 .007.002l.008.002.008.002.007.002.008.002.007.002.008.002.008.002.007.002.008.002.008.002.007.002.008.002.007.002.008.002.008.002.007.002.008.002.008.002.007.002.008.002.007.003c.003 0 .005 0 .008.002.003 0 .005 0 .008.002l.007.002.008.002.008.002.007.002.008.002.007.002.008.002.008.002.007.002.008.002.007.002.008.002.008.002.007.002.008.002.008.002.007.002.008.002.007.002.008.002.008.002.007.003c.003 0 .005 0 .008.002.002 0 .005 0 .007.002l.008.002.008.002.007.002.008.002.008.002.007.002.008.002.007.002.008.002.008.002.007.002.008.002.007.002.008.002.008.002.007.002.008.002.008.002.007.002.008.002.007.002.008.002.008.003c.002 0 .005 0 .007.002.003 0 .005 0 .008.002.002 0 .005 0 .007.002l.008.002.008.002.007.002.008.002.007.002.008.002a.796.796 0 01.053.014l.008.002.007.002a.796.796 0 01.03.008l.008.002a.796.796 0 01.046.013c.002 0 .005 0 .007.002l.008.002.008.002.007.002.008.002a.582.582 0 00.038.01l.007.002.008.002.008.002.007.002.008.002.007.002a.8.8 0 00.008.002l.008.002.007.002a.8.8 0 01.008.002l.007.002.008.002.008.002.007.002a.8.8 0 01.008.002l.007.002.008.002.007.002.008.003a.8.8 0 01.015.004.8.8 0 00.023.006l.007.002.008.002.008.002a.582.582 0 00.015.004l.007.002.008.002a.8.8 0 00.008.002l.007.002a.8.8 0 01.008.002l.007.002a.8.8 0 00.015.004l.008.002.008.002a2.085 2.085 0 00.015.004l.007.002.008.002.007.002.008.002.007.002.008.002.008.002.007.002a.8.8 0 01.008.002l.007.002.008.002.007.003c.003 0 .005 0 .008.002.002 0 .005 0 .008.002.002 0 .005 0 .007.002a.8.8 0 01.015.004l.008.002.007.002.008.002.007.002.008.002.008.002.007.002.008.002a.8.8 0 01.007.002l.008.002.007.002.008.002.007.002a.8.8 0 00.008.002l.008.002.007.002.008.002.007.002.008.002.007.002.008.002.007.002.008.002.007.002.008.002.008.002.007.002.008.002a1.286 1.286 0 00.03.008l.007.002a1.286 1.286 0 00.023.006l.008.002.007.002.008.002.007.003c.003 0 .005 0 .008.002.002 0 .005 0 .007.002a2.083 2.083 0 01.015.004c.003 0 .005 0 .008.002l.007.002.008.002.007.002.008.002.007.002.008.002.007.002.008.002.008.002.007.002a2.083 2.083 0 00.038.01l.007.002.008.002.007.002.008.002.007.002.008.002.007.002.008.002.007.002.008.002.007.002a2.083 2.083 0 00.015.004l.008.002.007.002.008.002.007.002.008.002.007.002.008.002.007.002.008.002.007.002.008.002.007.002.008.002.007.002.008.002.007.002.008.002.007.002.008.002.007.002.008.002.007.002.008.002a10925857551.195 10925857551.195 0 01.015.004l.007.002.008.002a7450840950.842 7450840950.842 0 00.015.004l.007.002.008.002.007.002a10925857551.195 10925857551.195 0 01.015.004l.008.002.007.002.008.002a7450840950.842 7450840950.842 0 00.022.006l.008.002.007.002.008.002.007.002.008.002.007.002.008.002.007.002.007.002a2.079 2.079 0 00.03.008l.008.002.007.002.008.002.007.002.008.002.007.002.008.002.007.002.008.002.007.002.007.002.008.002.007.002.008.002.007.002.008.002.007.002.008.002.007.002.008.002.007.002.007.002.008.002.007.002.008.002.007.002.008.002.007.002.008.002.007.002.007.002.008.002a2.076 2.076 0 01.015.004l.007.002.008.002.007.002.008.002a.55.55 0 00.007.002l.007.002.008.002.007.002.008.002.007.002.008.002a.754.754 0 00.014.004l.008.002.007.002.008.002.007.002.007.002a2.076 2.076 0 01.015.004l.008.002.007.002a.55.55 0 01.008.002l.007.002a.55.55 0 00.007.002l.008.002.007.002.008.002a.55.55 0 01.007.002l.007.002.008.002.007.002.008.002.007.002a.757.757 0 00.015.004l.007.002.008.002.007.002a.757.757 0 00.03.008l.007.002.008.002.007.002.007.002.008.002.007.002.007.002.008.002.007.002c.003 0 .005 0 .008.002.002 0 .005 0 .007.002.002 0 .005 0 .007.002.003 0 .005 0 .008.002.002 0 .005 0 .007.002l.008.001.007.002.007.002.008.002.007.002.007.002.008.002.007.002.008.002.007.002.007.002.008.002.207-.773c-.003 0-.005 0-.008-.002l-.007-.001-.007-.002-.008-.002-.007-.002-.008-.002-.007-.002-.007-.002-.008-.002a.757.757 0 00-.007-.002l-.007-.002-.008-.002-.007-.002-.008-.002-.007-.002a.757.757 0 00-.007-.002l-.008-.002-.007-.002-.008-.002-.007-.002-.007-.002-.008-.002-.007-.002a.757.757 0 00-.008-.002l-.007-.002-.007-.002-.008-.002a.754.754 0 00-.015-.004l-.007-.002a.757.757 0 00-.007-.002l-.008-.002-.007-.002-.008-.002-.007-.002-.007-.002-.008-.002-.007-.002-.008-.002-.007-.002a.757.757 0 01-.015-.004l-.007-.002a.55.55 0 00-.008-.002l-.007-.002-.007-.002-.008-.002a.754.754 0 01-.015-.004c-.002 0-.005 0-.007-.002-.003 0-.005 0-.008-.002-.002 0-.004 0-.007-.002-.002 0-.005 0-.007-.002-.003 0-.005 0-.008-.002a.754.754 0 00-.007-.002c-.003 0-.005 0-.008-.002a.754.754 0 01-.007-.002c-.003 0-.005 0-.008-.002a.754.754 0 00-.014-.003l-.008-.002-.007-.002-.008-.002-.007-.002-.008-.002-.007-.002-.007-.002-.008-.002-.007-.002-.008-.002-.007-.002-.008-.002a.754.754 0 00-.007-.002l-.007-.002-.008-.002-.007-.002-.008-.002-.007-.002-.008-.002-.007-.002-.008-.002-.007-.002a2.079 2.079 0 01-.015-.004l-.007-.002-.008-.002-.007-.002-.008-.002-.007-.002a.548.548 0 01-.008-.002l-.007-.002-.008-.002a.548.548 0 00-.007-.002l-.008-.002-.007-.002-.007-.002-.008-.002-.007-.002-.008-.002-.007-.002-.008-.002L33.155 6l-.008-.002a.548.548 0 00-.007-.002l-.008-.002-.007-.002-.008-.002-.007-.002-.008-.002-.007-.002-.007-.002-.008-.002-.007-.002-.008-.002-.007-.002-.008-.002-.007-.002-.008-.002-.007-.002-.008-.002-.007-.002-.008-.002-.007-.002-.008-.002-.007-.002-.008-.002a.548.548 0 00-.007-.002l-.008-.002-.007-.002-.008-.002-.007-.002-.008-.002a7450840950.842 7450840950.842 0 00-.015-.004l-.007-.002-.008-.002-.007-.002-.008-.003c-.002 0-.005 0-.007-.002-.003 0-.005 0-.008-.002a23426313087.835 23426313087.835 0 00-.015-.004c-.002 0-.005 0-.007-.002-.003 0-.005 0-.008-.002-.002 0-.005 0-.007-.002-.003 0-.005 0-.008-.002-.002 0-.005 0-.007-.002-.003 0-.005 0-.008-.002l-.007-.002-.008-.002-.007-.002-.008-.002-.007-.002-.008-.002-.007-.002-.008-.002-.007-.002-.008-.002-.007-.002a10925857551.195 10925857551.195 0 01-.015-.004l-.008-.002-.007-.002-.008-.002-.007-.002-.008-.002-.007-.002-.008-.002-.007-.002-.008-.002-.007-.002-.008-.002-.007-.002-.008-.002-.008-.002-.007-.002-.008-.002-.007-.002-.008-.002-.007-.002-.008-.002a.583.583 0 00-.007-.002l-.008-.002-.007-.002-.008-.002-.007-.002-.008-.002-.007-.002a.583.583 0 01-.008-.002l-.007-.002-.008-.002a.806.806 0 01-.008-.002l-.007-.002a.583.583 0 00-.023-.006l-.007-.002-.008-.002-.007-.002-.008-.002-.007-.002-.008-.002-.007-.002-.008-.003c-.003 0-.005 0-.008-.002-.002 0-.005 0-.007-.002-.003 0-.005 0-.008-.002-.002 0-.005 0-.007-.002a.583.583 0 01-.008-.002l-.007-.002-.008-.002-.007-.002-.008-.002-.007-.002-.008-.002-.008-.002-.007-.002-.008-.002a.8.8 0 01-.007-.002l-.008-.002a.8.8 0 01-.007-.002l-.008-.002a2.083 2.083 0 00-.015-.004l-.008-.002-.007-.002-.008-.002a.8.8 0 01-.007-.002l-.008-.002-.007-.002a.8.8 0 00-.008-.002l-.007-.002a.8.8 0 01-.008-.002l-.008-.002-.007-.002-.008-.002-.007-.002-.008-.002-.007-.002-.008-.002-.008-.002a.8.8 0 00-.007-.002l-.008-.002-.007-.002a.582.582 0 00-.008-.003c-.002 0-.005 0-.007-.002a.8.8 0 01-.008-.002c-.002 0-.005 0-.008-.002l-.007-.002-.008-.002-.007-.002a.582.582 0 00-.008-.002l-.007-.002a.8.8 0 01-.008-.002l-.008-.002a.8.8 0 00-.007-.002l-.008-.002a.8.8 0 01-.007-.002l-.008-.002-.007-.002-.008-.002a.8.8 0 01-.007-.002l-.008-.002a.8.8 0 00-.008-.002l-.007-.002a.8.8 0 01-.008-.002l-.007-.002-.008-.002a.796.796 0 00-.008-.002l-.007-.002a2.085 2.085 0 01-.015-.004l-.008-.002-.008-.002-.007-.002-.008-.002a.8.8 0 01-.007-.003c-.003 0-.005 0-.008-.002-.002 0-.005 0-.007-.002-.003 0-.005 0-.008-.002a.8.8 0 00-.008-.002l-.007-.002-.008-.002-.007-.002-.008-.002-.008-.002-.007-.002-.008-.002-.007-.002-.008-.002a.796.796 0 00-.008-.002l-.007-.002a.796.796 0 00-.015-.004L31.7 5.61a.796.796 0 01-.007-.002l-.008-.002a.796.796 0 01-.008-.002l-.007-.002a.796.796 0 01-.008-.002l-.007-.002-.008-.002-.008-.002-.007-.002-.008-.002-.007-.002-.008-.003c-.003 0-.005 0-.008-.002-.002 0-.005 0-.007-.002l-.008-.002-.007-.002-.008-.002-.008-.002-.007-.002-.008-.002-.007-.002-.008-.002-.008-.002-.007-.002-.008-.002a.796.796 0 01-.038-.01l-.008-.002-.007-.002a.796.796 0 00-.023-.006l-.008-.002-.007-.002-.008-.003c-.002 0-.005 0-.007-.002a.796.796 0 01-.015-.004l-.008-.002-.008-.002-.007-.002-.008-.002-.008-.002-.007-.002-.008-.002-.007-.002-.008-.002-.008-.002-.007-.002-.008-.002-.008-.002-.007-.002-.008-.002-.007-.002-.008-.002-.008-.002-.007-.002-.008-.002-.007-.002-.008-.003c-.003 0-.005 0-.008-.002-.002 0-.005 0-.007-.002-.003 0-.005 0-.008-.002l-.008-.002-.007-.002-.008-.002-.007-.002-.008-.002-.008-.002-.007-.002-.008-.002-.008-.002-.007-.002-.008-.002-.007-.002-.008-.002-.008-.002-.007-.002a.579.579 0 01-.008-.002l-.008-.002-.007-.002-.008-.002-.007-.002-.008-.003c-.003 0-.005 0-.008-.002-.002 0-.005 0-.007-.002l-.008-.002-.008-.002L31 5.423l-.008-.002-.007-.002a.579.579 0 00-.008-.002l-.008-.002-.007-.002-.008-.002-.008-.002-.007-.002-.008-.002-.007-.002-.008-.002-.008-.002-.007-.002-.008-.002-.008-.002-.007-.002-.008-.002-.007-.003c-.003 0-.005 0-.008-.002-.003 0-.005 0-.008-.002l-.007-.002-.008-.002-.008-.002-.007-.002-.008-.002-.008-.002-.007-.002-.008-.002-.007-.002-.008-.002-.008-.002-.007-.002-.008-.002-.008-.002-.007-.002-.008-.002-.007-.002-.008-.002-.008-.002-.007-.003c-.003 0-.005 0-.008-.002-.003 0-.005 0-.008-.002a.796.796 0 01-.007-.002l-.008-.002-.008-.002-.007-.002-.008-.002-.007-.002-.008-.002-.008-.002-.007-.002-.008-.002-.008-.002a.796.796 0 01-.007-.002l-.008-.002-.007-.002-.008-.002-.008-.002-.007-.002-.008-.002-.008-.003a.796.796 0 01-.007-.002c-.003 0-.005 0-.008-.002l-.008-.002-.007-.002-.008-.002-.008-.002-.007-.002-.008-.002-.008-.002-.007-.002-.008-.002-.007-.002-.008-.002-.008-.002-.007-.002-.008-.002-.008-.002-.007-.002-.008-.002-.008-.002-.007-.002-.008-.003c-.002 0-.005 0-.007-.002-.003 0-.006 0-.008-.002l-.008-.002-.007-.002-.008-.002-.008-.002-.007-.002-.008-.002-.008-.002-.007-.002-.008-.002-.008-.002-.007-.002-.008-.002-.007-.002-.008-.002-.008-.002-.007-.002-.008-.002-.008-.002-.007-.003c-.003 0-.005 0-.008-.002-.002 0-.005 0-.008-.002l-.007-.002-.008-.002-.008-.002-.007-.002-.008-.002-.007-.002-.008-.002-.008-.002-.007-.002-.008-.002-.008-.002-.007-.002-.008-.002-.008-.002-.007-.002-.008-.002-.008-.002-.007-.002a.796.796 0 01-.008-.003l-.207.773zm3.867 1.036c1.306.35 2.604.685 3.9 1.02 1.295.335 2.59.67 3.892 1.018l.207-.773c-1.307-.35-2.604-.685-3.9-1.02-1.296-.334-2.59-.669-3.892-1.018l-.207.773zm7.797 2.04l3.506.889.197-.775-3.506-.89-.197.775zm3.496.886l3.481.983.217-.77-3.481-.983-.217.77zm3.48.982c2.6.747 5.165 1.435 7.773 2.133l.207-.772c-2.609-.7-5.168-1.385-7.76-2.13l-.22.77zm7.773 2.133c1.285.345 2.602.748 3.88 1.04l.18-.78c-1.263-.288-2.529-.677-3.853-1.032l-.207.773zm3.867 1.037h.004l.001.001h.003l.001.001h.002a.016.016 0 01.002.001.016.016 0 00.003.001h.003l.002.001h.002v.001h.004l.001.001h.003v.001h.002l.002.001h.003l.002.001h.002v.001h.003l.001.001h.003v.001h.004l.001.001h.003v.001h.003l.001.001h.002l.002.001h.003l.001.001h.002l.002.001h.002l.001.001h.002l.002.001h.003l.001.001h.003a.016.016 0 01.002.002h.005v.001h.003l.001.001h.003l.002.001h.002l.001.001h.002l.002.001h.002l.001.001h.002l.002.001h.004v.001h.003a295940410.533 295940410.533 0 01.004.002 295940410.533 295940410.533 0 01.004.001h.002l.002.001h.002l.001.001h.002l.002.001h.004v.001h.003l.001.001h.002l.002.001h.002l.002.001h.002l.001.001h.003v.001h.003l.001.001h.002l.002.001h.002l.002.001h.003l.001.001h.002l.002.001h.003v.001h.003l.001.001h.002l.002.001h.002l.002.001h.002l.001.001h.002l.002.001h.002l.002.001a.026.026 0 00.002 0l.001.001h.003v.001h.003l.002.001h.002l.001.001h.003v.001h.005v.001h.003l.001.001h.002l.002.001h.003v.001h.003l.001.001h.002l.002.001h.003v.001h.003l.001.001h.002a.026.026 0 00.002.001h.003v.001h.003l.001.001h.002l.002.001h.003v.001h.003l.002.001h.002l.001.001h.003v.001h.003l.002.001h.002l.001.001h.002l.002.001h.002l.002.001h.002a.026.026 0 01.002.001h.002l.001.001h.002l.002.001a.026.026 0 01.003.001h.004l.001.001a.026.026 0 01.004.001h.002l.002.001h.002l.001.001h.002l.002.001h.002l.002.001a.026.026 0 01.003.001h.002l.002.001h.002l.002.001h.002l.001.001h.002a295940410.528 295940410.528 0 01.003.002h.005l.001.001h.002l.002.001h.001a.026.026 0 01.004.001h.001l.001.001h.002l.002.001h.003v.001h.003l.001.001h.002l.002.001h.004v.001h.003l.002.001h.002l.001.001h.003a295940410.533 295940410.533 0 01.006.002 295940410.528 295940410.528 0 01.006.002h.002l.001.001h.002l.002.001h.002l.002.001h.002l.001.001h.003v.001h.004l.002.001h.002l.001.001h.003v.001h.003l.001.001h.002l.002.001h.002l.002.001h.002l.001.001h.003v.001h.004l.001.001h.002l.002.001h.002l.002.001h.002l.001.001h.002l.002.001h.002l.001.001h.003l.002.001h.001a295940410.533 295940410.533 0 01.005.002h.003a.016.016 0 00.003.001l.002.001h.002l.001.001h.002a295940410.533 295940410.533 0 00.004.002h.005l.001.001h.002l.002.001h.003l.001.001h.002l.002.001h.002l.001.001h.002l.002.001h.002l.002.001h.002l.002.001a.016.016 0 00.002 0v.001h.003l.001.001h.003l.002.001h.002l.001.001h.003v.001h.004l.001.001h.002l.001.001h.002l.002.001h.003l.001.001h.002l.002.001a.016.016 0 00.002 0v.001h.004l.001.001h.003v.001h.002a.016.016 0 00.003.001.016.016 0 00.002 0l.207-.772h-.003l-.001-.001h-.002l-.002-.001h-.002l-.002-.001h-.002l-.001-.001h-.004v-.001h-.002l-.002-.001h-.002l-.001-.001h-.003l-.002-.001h-.002l-.001-.001h-.002l-.002-.001h-.002l-.002-.001h-.002l-.001-.001h-.002l-.002-.001h-.002l-.001-.001h-.003l-.002-.001a.016.016 0 00-.002 0l-.001-.001h-.003v-.001h-.002l-.002-.001h-.004v-.001h-.003l-.001-.001h-.002l-.002-.001h-.002l-.001-.001h-.004v-.001h-.003l-.001-.001h-.003v-.001h-.003l-.001-.001h-.003v-.001h-.004l-.001-.001h-.002l-.002-.001h-.002l-.001-.001h-.002l-.002-.001h-.002l-.002-.001h-.002l-.001-.001h-.004v-.001H60.8l-.001-.001h-.002l-.002-.001h-.002l-.002-.001h-.002l-.001-.001h-.002l-.002-.001h-.002l-.001-.001h-.003l-.002-.001h-.002l-.002-.001h-.002l-.001-.001h-.003v-.001h-.003l-.001-.001h-.002l-.002-.001h-.002l-.002-.001h-.002l-.001-.001h-.003v-.001h-.003l-.002-.001h-.003l-.001-.001h-.002l-.002-.001h-.002l-.002-.001h-.002l-.001-.001h-.002l-.002-.001h-.002l-.002-.001h-.002l-.001-.001h-.003v-.001h-.003l-.002-.001h-.002l-.001-.001h-.003v-.001H60.7l-.002-.001h-.002l-.001-.001h-.003v-.001h-.003l-.002-.001h-.003l-.001-.001h-.002l-.002-.001h-.003v-.001h-.003l-.001-.001h-.002l-.002-.001h-.003v-.001h-.003l-.001-.001h-.002l-.002-.001h-.003v-.001h-.003l-.002-.001h-.002l-.001-.001h-.003v-.001h-.003l-.002-.001h-.002l-.001-.001h-.003v-.001h-.003l-.002-.001h-.002l-.001-.001h-.002l-.002-.001h-.002l-.002-.001h-.002l-.001-.001h-.002l-.002-.001h-.003v-.001h-.003l-.001-.001H60.6l-.002-.001h-.003v-.001h-.004l-.002-.001h-.002l-.001-.001h-.002l-.002-.001h-.002l-.002-.001h-.002l-.001-.001h-.002l-.002-.001h-.003v-.001h-.003l-.001-.001h-.002l-.002-.001h-.003v-.001h-.003l-.001-.001h-.002l-.002-.001h-.002l-.002-.001h-.002l-.001-.001h-.002l-.002-.001h-.002l-.002-.001h-.002l-.001-.001h-.002l-.002-.001h-.004v-.001h-.003l-.001-.001h-.002l-.002-.001h-.003v-.001h-.003l-.001-.001h-.002l-.002-.001h-.002l-.002-.001h-.002l-.001-.001h-.003v-.001h-.003l-.001-.001h-.002l-.002-.001h-.004v-.001h-.003l-.001-.001h-.002a295940410.528 295940410.528 0 01-.003-.002h-.005l-.001-.001h-.003v-.001h-.003l-.001-.001h-.003v-.001h-.004l-.002-.001h-.002l-.001-.001h-.003v-.001h-.003l-.001-.001h-.003v-.001h-.003l-.001-.001h-.003l-.002-.001h-.002l-.002-.001h-.002l-.001-.001h-.002l-.002-.001h-.002l-.001-.001h-.001a295940410.528 295940410.528 0 01-.004-.001h-.002l-.001-.001h-.002l-.002-.001H60.4V13.3h-.006l-.002-.001h-.002l-.002-.001h-.002l-.001-.001h-.003l-.002-.001h-.002l-.001-.001h-.002l-.001-.001h-.002l-.002-.001h-.003l-.001-.001h-.003v-.001h-.002l-.002-.001h-.003l-.002-.001h-.002v-.001h-.003l-.001-.001h-.004v-.001h-.002a.016.016 0 00-.002-.001h-.002l-.001-.001h-.003l-.002-.001h-.002l-.001-.001h-.003l-.001-.001-.207.772zm.502-.567c-.796.48-1.55 1.077-2.276 1.617-.737.549-1.458 1.047-2.231 1.382l.318.734c.864-.374 1.648-.921 2.39-1.474.755-.561 1.46-1.12 2.212-1.574l-.413-.685zm-4.513 3.001c-1.098.496-2.258.2-3.543-.144l-.207.773c1.23.33 2.678.733 4.08.1l-.33-.729zm-3.557-.148c-1.262-.288-2.56-.636-3.819-.973l-.206.773c1.256.336 2.568.688 3.846.98l.178-.78zm-3.83-.976c-.818-.194-1.633-.4-2.452-.607a177.22 177.22 0 00-2.464-.61l-.185.778c.819.194 1.634.4 2.453.607.818.207 1.639.415 2.463.61l.185-.778zm-4.894-1.211c-.812-.243-1.627-.474-2.438-.704-.813-.23-1.622-.46-2.428-.7l-.23.766c.813.243 1.628.474 2.44.704.812.23 1.621.46 2.427.7l.23-.766zm-4.877-1.407c-.625-.168-1.259-.35-1.897-.533-.636-.183-1.277-.368-1.91-.537l-.208.772c.625.168 1.26.35 1.897.534.637.183 1.278.367 1.91.537l.208-.773zm-3.793-1.066c-1.25-.387-2.41-.66-3.16-1.658l-.64.48c.942 1.253 2.416 1.587 3.564 1.942l.236-.764zm-3.159-1.656c-.502-.677-.877-1.468-1.242-2.312-.358-.831-.712-1.725-1.162-2.539l-.7.387c.425.769.755 1.606 1.128 2.469.367.85.772 1.715 1.334 2.472l.642-.477zm-2.858-4.271h.004l.001.001h.002l.002.001h.001l.002.001h.003l.002.001h.001l.002.001h.002a.026.026 0 00.003.001.026.026 0 00.003.001.026.026 0 00.003.001h.002a.056.056 0 00.005.002h.001a.036.036 0 01.003.001h.002l.002.001h.003l.001.001h.002a.056.056 0 00.005.002h.003l.001.001h.002l.001.001h.003l.002.001h.002l.001.001h.002l.001.001h.003l.002.001h.001l.002.001h.003l.002.001h.001l.002.001h.003l.001.001h.002l.001.001h.002l.001.001h.003l.002.001h.001l.002.001h.003l.001.001h.002a.083.083 0 01.007.003.083.083 0 01.003 0h.002l.001.001h.002a.083.083 0 01.003.001h.001l.002.001h.001l.002.001h.002l.002.001h.003l.001.001h.002l.001.001h.003l.002.001h.001l.002.001h.002l.002.001h.001a.026.026 0 01.003.001h.002l.001.001h.003l.001.001h.002l.001.001h.003l.002.001h.001l.001.001h.003l.002.001h.003v.001h.002l.002.001h.003l.001.001a.027.027 0 01.003 0l.001.001a.042.042 0 00.003.001h.002a.042.042 0 00.002.001h.003l.002.001a.027.027 0 00.002.001h.002a.027.027 0 00.002.001h.002a.027.027 0 01.003.001h.001l.001.001h.003l.002.001h.002l.002.001h.001l.001.001h.003l.002.001h.002l.002.001h.001l.001.001h.003l.002.001h.002l.002.001h.002l.002.001h.001l.001.001h.003l.002.001h.002l.002.001h.002l.002.001.002.001h.002l.002.001h.003l.001.001h.003l.001.001h.003l.001.001h.002l.001.001h.003l.001.001h.003l.001.001h.003l.001.001h.003v.001h.002l.002.001h.002l.002.001h.002l.002.001h.002l.001.001h.003l.001.001h.003l.001.001a.023.023 0 01.003 0l.001.001h.002v.001h.003l.002.001h.002l.002.001h.002l.002.001h.002l.002.001h.002l.001.001h.003l.001.001h.002v.001h.002a.023.023 0 00.003.001h.002l.002.001h.002l.002.001h.002l.001.001h.003l.001.001h.002l.002.001h.003l.001.001h.003v.001h.003l.002.001h.001l.001.001h.002l.002.001h.003v.001h.004v.001h.003l.002.001h.002l.002.001h.002l.001.001h.002l.002.001h.003l.001.001h.003v.001a.023.023 0 00.003 0l.002.001h.002l.001.001h.002l.001.001h.003v.001h.003l.002.001h.002l.002.001a.054.054 0 00.002 0l.001.001h.002l.002.001h.003a.054.054 0 00.002.001h.002v.001h.003l.002.001a.054.054 0 00.002 0l.001.001h.002l.002.001h.002l.002.001h.003v.001h.003l.002.001h.001l.001.001h.002l.002.001h.003v.001h.003l.002.001h.002l.002.001h.002l.001.001h.002l.002.001h.002l.002.001h.003v.001h.004v.001h.003l.002.001a.023.023 0 00.002 0l.001.001h.002l.001.001h.003v.001h.003l.002.001h.002l.002.001h.002l.001.001h.003l.001.001h.002l.002.001h.002l.002.001h.003v.001h.004v.001h.002l.001.001h.003l.001.001h.002l.002.001h.002l.002.001h.003l.001.001h.003v.001h.004v.001h.002l.002.001h.002l.001.001h.003l.001.001h.002l.002.001h.002l.002.001h.002l.002.001h.002v.001h.003l.002.001h.002l.002.001h.002l.002.001h.002l.002.001h.002l.002.001h.001l.001.001h.003l.001.001h.003l.001.001h.003l.001.001h.003l.002.001.002.001h.002l.002.001h.002l.002.001h.003l.001.001h.002l.001.001h.003l.001.001h.002l.002.001.207-.773h-.003l-.002-.001h-.002l-.002-.001h-.003l-.001-.001h-.003l-.001-.001h-.002l-.001-.001h-.002l-.002-.001h-.002l-.002-.001h-.002l-.002-.001h-.002l-.002-.001h-.002v-.001h-.004v-.001h-.005v-.001h-.004v-.001h-.004v-.001h-.002l-.002-.001h-.002l-.002-.001h-.002l-.002-.001h-.002l-.001-.001h-.003a.023.023 0 00-.003-.002h-.002a.023.023 0 01-.003-.001h-.003v-.001h-.004v-.001h-.003l-.002-.001a.023.023 0 01-.002 0l-.002-.001h-.002l-.002-.001-.002-.001h-.001a.023.023 0 01-.003-.001h-.003v-.001a.023.023 0 01-.003 0l-.002-.001h-.002l-.002-.001h-.002l-.002-.001h-.002l-.002-.001h-.002l-.001-.001h-.002v-.001h-.004V5.13h-.003l-.002-.001h-.002l-.002-.001h-.002l-.001-.001h-.002l-.002-.001h-.002l-.002-.001h-.003v-.001h-.004a.023.023 0 00-.002-.002h-.005l-.001-.001h-.002l-.001-.001h-.006l-.002-.001h-.002l-.002-.001h-.002l-.001-.001h-.002l-.002-.001h-.003l-.001-.001h-.003v-.001h-.003a.054.054 0 00-.003-.002h-.005l-.001-.001h-.002l-.002-.001h-.003v-.001h-.004v-.001h-.002l-.001-.001h-.002l-.002-.001h-.003v-.001h-.004v-.001h-.003l-.002-.001h-.002l-.001-.001h-.002l-.002-.001h-.002l-.002-.001h-.003v-.001h-.003l-.002-.001h-.002l-.002-.001h-.002l-.001-.001h-.002l-.002-.001h-.002v-.001h-.003l-.002-.001h-.002l-.001-.001h-.003l-.001-.001a.023.023 0 00-.003 0l-.001-.001h-.003l-.001-.001h-.003v-.001h-.003l-.002-.001h-.002l-.002-.001h-.002l-.001-.001h-.003l-.001-.001h-.002v-.001h-.003l-.002-.001h-.002l-.002-.001h-.002l-.002-.001h-.002l-.001-.001a.023.023 0 00-.003 0l-.001-.001h-.002a.023.023 0 01-.002-.001h-.003l-.001-.001h-.003l-.001-.001a.023.023 0 00-.003-.001h-.002l-.002-.001h-.002l-.001-.001h-.003l-.001-.001a.023.023 0 01-.003 0l-.001-.001h-.002l-.002-.001h-.002v-.001h-.003l-.002-.001h-.002l-.002-.001h-.002l-.002-.001h-.002l-.002-.001h-.002l-.002-.001h-.001l-.001-.001h-.002l-.002-.001h-.002l-.002-.001h-.002l-.002-.001h-.003l-.001-.001h-.002l-.001-.001h-.003l-.001-.001h-.003l-.001-.001h-.003l-.001-.001h-.001l-.002-.001h-.003v-.001h-.004V5.05h-.004l-.001-.001h-.001l-.002-.001H29.6l-.002-.001h-.003v-.001h-.004l-.001-.001h-.001l-.002-.001h-.003v-.001h-.004l-.001-.001h-.003l-.001-.001h-.002V5.04h-.004l-.001-.001h-.002l-.002-.001h-.002l-.001-.001h-.002l-.002-.001h-.003l-.002-.001-.002-.001h-.003l-.001-.001h-.002a.027.027 0 01-.003-.001h-.001l-.002-.001h-.002l-.002-.001a.082.082 0 00-.003-.001h-.003l-.001-.001h-.003l-.001-.001h-.002l-.001-.001h-.003l-.001-.001h-.002l-.001-.001h-.003l-.002-.001h-.003l-.001-.001h-.001l-.002-.001h-.003l-.001-.001h-.002l-.001-.001h-.003l-.002-.001a.026.026 0 01-.002-.001h-.004v-.001h-.002l-.002-.001h-.003l-.001-.001h-.003l-.002-.001h-.001l-.002-.001h-.001a.083.083 0 00-.005-.002h-.003l-.001-.001h-.003l-.002-.001h-.001l-.002-.001h-.003l-.001-.001h-.002l-.001-.001h-.003l-.002-.001h-.001l-.002-.001h-.003l-.002-.001h-.001l-.002-.001h-.003V5h-.005l-.001-.001h-.004l-.001-.001h-.002l-.001-.001h-.003l-.002-.001a.084.084 0 01-.003-.001h-.002l-.001-.001h-.003l-.002-.001h-.002l-.001-.001h-.002l-.001-.001h-.003l-.002-.001h-.002l-.001-.001h-.002l-.001-.001a.056.056 0 00-.004 0l-.001-.001h-.002l-.001-.001h-.002l-.002-.001a.035.035 0 01-.003 0l-.002-.001h-.001l-.002-.001h-.001l-.002-.001h-.003l-.002-.001h-.002l-.207.772zm29.314 57.313c-.47 1.663-1.043 3.34-1.585 5.055-.538 1.707-1.041 3.441-1.356 5.181l.788.142c.305-1.688.795-3.383 1.331-5.082.534-1.69 1.118-3.4 1.592-5.078l-.77-.218zm-2.56 9.908c-.658.022-1.28.245-1.85.494-.597.26-1.098.528-1.64.725l.274.752c.565-.206 1.168-.517 1.686-.744.547-.238 1.055-.41 1.556-.428l-.026-.8zm-3.487 1.218c-1.547.55-3.153.753-4.77.76l.003.8c1.681-.008 3.381-.218 5.035-.807l-.268-.753zm-4.77.76c-3.825.004-7.663-1.369-11.437-2.38l-.207.773c3.68.986 7.68 2.412 11.646 2.407l-.001-.8zM36.2 72.572a413.814 413.814 0 00-3.713-.97c-1.238-.32-2.473-.638-3.706-.968l-.207.773c1.237.331 2.476.65 3.713.97 1.238.319 2.474.638 3.706.968l.208-.773zm-7.419-1.938a405.09 405.09 0 01-3.693-1.015 406.987 406.987 0 00-3.701-1.016l-.207.772c1.232.33 2.462.672 3.693 1.015 1.231.342 2.465.685 3.701 1.017l.207-.773zm-7.39-2.03c-.934-.263-1.893-.504-2.851-.747a93.175 93.175 0 01-2.87-.761c-1.9-.546-3.733-1.199-5.378-2.15l-.4.691c1.726 1 3.631 1.674 5.556 2.228.963.276 1.936.525 2.896.767.961.244 1.909.483 2.831.742l.217-.77zm-11.098-3.658c-1.397-.816-2.687-1.794-3.751-3.044l-.61.519c1.139 1.337 2.506 2.369 3.958 3.216l.403-.691zm-3.75-3.042c-.369-.44-.663-.928-1.051-1.462-.368-.506-.799-1.019-1.375-1.346l-.395.695c.42.24.77.635 1.123 1.12.332.459.698 1.045 1.086 1.508l.612-.515zM4.295 59.58c.598-1.664 1.032-3.43 1.421-5.183.39-1.763.732-3.5 1.15-5.153l-.775-.196c-.422 1.667-.771 3.44-1.156 5.176-.387 1.746-.812 3.47-1.393 5.085l.753.27zm2.571-10.335c.952-3.74 1.915-7.521 2.959-11.23l-.77-.216c-1.047 3.72-2.012 7.51-2.964 11.248l.775.198zm2.959-11.23a311.258 311.258 0 013.33-11.125l-.761-.245a312.05 312.05 0 00-3.34 11.154l.771.216zm3.333-11.134c1.121-3.81 2.173-7.738 3.731-11.332l-.734-.318c-1.583 3.652-2.652 7.644-3.765 11.424l.768.226zm3.75-11.388v-.001l.001-.001v-.003l.001-.001v-.003h.001v-.003l.001-.002v-.002h.001v-.004l.001-.001v-.003l.001-.001v-.002l.001-.001v-.004h.001v-.002l.001-.002v-.003h.001v-.003l.001-.001v-.003l.001-.001v-.003l.001-.001v-.003h.001v-.003l.001-.002v-.002h.001v-.004h.001v-.004l.001-.001v-.002l.001-.001v-.003l.001-.001v-.003h.001v-.004h.001v-.004h.001v-.003h.001v-.004h.001v-.003l.001-.001v-.003l.001-.001v-.003l.001-.001v-.002l.001-.001v-.003l.001-.001v-.003l.001-.001v-.003h.001v-.004h.001v-.004h.001v-.003l.001-.001v-.003h.001v-.004h.001v-.004h.001v-.003l.001-.001v-.003h.001v-.004h.001v-.003l.001-.001v-.003l.001-.001v-.003a.007.007 0 00.001-.002v-.001l.001-.001v-.003h.001v-.004h.001v-.003l.001-.002v-.003h.001v-.003l.001-.001v-.003l.001-.001v-.003h.001v-.003h.001v-.003l.001-.002v-.003h.001v-.003l.001-.001v-.003h.001v-.003l.001-.002v-.003h.001v-.003l.001-.002v-.003h.001v-.003h.001v-.003l.001-.002v-.002l.001-.001v-.003h.001v-.004l.001-.001v-.002l.001-.002v-.002l.001-.001v-.002l.001-.002v-.003h.001v-.004h.001v-.003h.001v-.004h.001v-.003l.001-.001v-.003l.001-.001v-.003h.001v-.004h.001v-.006h.001v-.004h.001v-.004h.001v-.002l.001-.001v-.003l.001-.001v-.004h.001v-.003l.001-.001v-.002l.001-.001v-.003l.001-.001v-.003h.001v-.003l.001-.002v-.003h.001v-.003l.001-.001v-.003H17v-.003h.001v-.003l.001-.001v-.003l.001-.001v-.003h.001v-.004h.001v-.003l.001-.001v-.004h.001v-.003h.001v-.001l-.773-.207v.005h-.001v.003l-.001.001v.002l-.001.001v.003l-.001.001v.003h-.001v.004l-.001.001v.002l-.001.002v.003h-.001v.003h-.001v.004l-.001.001v.003h-.001v.003l-.001.001v.004h-.001v.002l-.001.001v.004h-.001v.003l-.001.001v.003h-.001v.004h-.001v.003l-.001.001v.003l-.001.001v.003l-.001.001v.002l-.001.001V15l-.001.002v.002h-.001v.004l-.001.001v.002l-.001.001v.003h-.001v.004l-.001.001v.002l-.001.002v.003h-.001v.004h-.001v.003h-.001v.003l-.001.001v.004H16.2v.007h-.001v.003l-.001.002v.003h-.001v.003h-.001v.003l-.001.002v.003h-.001v.003h-.001v.003l-.001.002v.003h-.001v.003l-.001.001v.003h-.001v.003l-.001.002v.003h-.001v.004h-.001v.003l-.001.001v.003h-.001v.004h-.001v.003l-.001.002v.001l-.001.002v.002l-.001.002v.003h-.001v.004h-.001v.003l-.001.001v.003h-.001v.003l-.001.001v.003l-.001.001v.003l-.001.001v.002l-.001.001v.003l-.001.001v.003l-.001.001v.003l-.001.001v.002l-.001.001v.003l-.001.001v.003l-.001.001v.003h-.001v.004h-.001v.004h-.001v.002l-.001.002v.002l-.001.002v.003h-.001v.003l-.001.001v.003l-.001.001v.002l-.001.001v.003l-.001.001v.003l-.001.001v.002l-.001.002v.002l-.001.002v.002h-.001v.004l-.001.001v.003l-.001.001v.002l-.001.001v.003l-.001.001v.002l-.001.002v.002l-.001.002v.002l-.001.001v.003l-.001.001v.003l-.001.001v.003h-.001v.004h-.001v.003h-.001v.004h-.001v.003l-.001.001v.003l-.001.001v.003l-.001.001v.001l.772.207zm-.126-.11c.48-.21.921-.544 1.319-.884.2-.171.395-.35.58-.519.187-.171.364-.333.536-.48l-.52-.608c-.184.157-.371.329-.556.498-.187.17-.372.34-.56.501-.38.326-.75.598-1.12.76l.321.732zm2.428-1.877a62.206 62.206 0 003.359-2.97l-.55-.58a61.359 61.359 0 01-3.315 2.93l.506.62zm3.359-2.97c1.06-1.001 2.192-2.015 3.251-3.144l-.583-.547c-1.037 1.105-2.138 2.089-3.218 3.11l.55.582zm3.259-3.152c.392-.442.904-.921 1.312-1.483l-.647-.47c-.382.525-.797.896-1.264 1.422l.599.53zm1.188-1.372a.53.53 0 00.176-.17c.028-.042.05-.086.064-.114.035-.07.05-.106.075-.143l-.668-.44a1.436 1.436 0 00-.077.133l-.047.095-.015.03a.305.305 0 01.092-.082l.4.691zm-.406-.545c.309 1.173.956 2.303 1.409 3.283l.726-.336c-.496-1.072-1.076-2.068-1.361-3.15l-.774.203zm1.414 3.294c.127.253.25.52.38.801.129.278.263.568.408.853.288.569.627 1.143 1.073 1.618l.583-.548c-.37-.393-.667-.888-.943-1.431a25.285 25.285 0 01-.395-.828c-.128-.277-.257-.557-.39-.823l-.716.358zm1.86 3.271c1.525 1.628 3.58 2.22 5.526 2.742l.207-.773c-1.966-.527-3.8-1.076-5.148-2.515l-.584.546zm5.495 2.732c1.704.608 3.57.958 5.155 1.383l.207-.773c-1.674-.449-3.425-.768-5.093-1.364l-.269.754zm5.155 1.383l.005.001.006.002h.005a.1.1 0 00.01.004l.005.001.006.001.005.002.005.001a.1.1 0 01.01.003l.006.001.005.002.005.001.005.002h.005l.006.002.005.002.005.001.005.002h.005l.005.002.006.002a.1.1 0 00.01.002l.005.002.005.001.005.002.006.001.005.001a.1.1 0 01.005.002l.005.001a.079.079 0 00.01.003l.006.001.005.002.005.001a.1.1 0 01.005.002h.006l.005.002.005.002.005.001.005.001.006.002.005.001.005.002.005.001.005.001.005.002.006.001a.1.1 0 00.005.002h.005l.005.002.005.002.005.001.006.002a.1.1 0 01.005 0l.005.002.005.002.005.001.006.001.005.002.005.001.005.002a.097.097 0 01.01.002.1.1 0 01.006.002l.005.001a.079.079 0 00.01.003l.005.001.006.002.005.001.005.002h.005l.005.002.006.002a.1.1 0 00.005.001l.005.001.005.002.005.001.005.002a.1.1 0 01.006.001l.005.001.005.002.005.001.005.002h.005l.006.002a.097.097 0 01.01.003l.005.001a.079.079 0 00.01.003l.006.002.005.001.005.001.005.002.005.001.006.002a.079.079 0 00.01.002l.005.002.005.001.005.002h.006l.005.002a.1.1 0 00.005.002l.005.001.005.001.005.002.006.001.005.002.005.001.005.001a.1.1 0 00.005.002l.006.001.005.002h.005l.005.002.005.002.005.001a.1.1 0 00.006.001l.005.002.005.001.005.002.005.001.005.001a.1.1 0 00.006.002l.005.001.005.002h.005l.005.002.005.002.006.001a.079.079 0 00.01.003l.005.001.005.002.005.001.006.001.005.002.005.001.005.002h.005a.097.097 0 01.01.004l.006.001.005.001.005.002.005.001.005.002.006.001.005.001a.1.1 0 00.005.002l.005.001.005.002h.005l.006.002a.1.1 0 00.005.002l.005.001.005.001.005.002.005.001.005.002h.006l.005.002.005.002.005.001.005.002h.005a.1.1 0 00.006.002l.005.002.005.001.005.001.005.002.005.001.005.002h.006l.005.002.005.002.005.001.005.001.005.002.006.001.005.002h.005l.005.002.005.002.005.001.005.001.006.002.005.001.005.002.005.001.005.001.005.002.006.001.005.002a.1.1 0 01.005 0l.005.002.005.002.005.001.005.001.005.002.006.001.005.002h.005l.005.002.005.002.005.001.005.001.006.002.005.001.005.002h.005l.005.002.005.002.005.001.006.001.005.002.005.001.005.002h.005l.005.002.005.002.006.001.005.001.005.002.005.001.005.002h.005l.005.002.005.002.006.001.005.001.005.002.005.001.005.002h.005l.005.002.005.002.006.001.005.001.005.002.005.001.005.002h.005l.005.002.005.002.006.001.005.001.005.002.005.001.005.002h.005l.005.002.005.002.005.001.006.001.005.002.005.001.005.002h.005l.005.002.005.002h.005l.005.002.006.002.005.001a.1.1 0 00.005.001l.005.002.005.001.005.002h.005l.005.002.006.002.005.001.005.001.005.002.005.001.005.002h.005l.005.002.005.002h.005l.005.002.006.002.005.001.005.001.005.002.005.001.005.002h.005l.005.002.005.002.005.001.006.001.005.002.005.001.005.001.005.002.005.001.005.002h.005l.005.002.005.002.005.001.006.001.005.002.005.001.005.001.005.002.005.001.005.002h.005l.005.002.005.002h.005l.005.002.006.002.005.001.005.001.005.002.005.001.005.002h.005l.005.002.005.002h.005l.005.002.005.002.005.001.006.001.005.002.005.001.005.001.005.002.005.001.005.002h.005l.005.002.005.002h.005l.005.002.005.002.005.001.005.001.006.002.005.001.005.001.005.002.005.001.005.002h.005l.005.002.005.002h.005l.005.002.005.002h.005l.005.002.005.002.005.001.005.001.005.002.005.001.005.001.006.002.005.001.005.002h.005l.005.002.005.002h.005l.005.002.005.002h.005l.005.002.005.002.005.001.005.001.005.002.005.001.005.001.005.002.005.001.005.001.005.002.005.001.005.002h.005l.005.002.005.002h.005l.005.002.005.002h.006l.005.002.005.002h.005l.005.002.005.002h.005l.005.002.005.002.005.001.005.001.005.002.005.001.005.001.005.002.005.001.005.001.005.002.005.001.005.001.005.002.005.001.005.001.005.002.005.001.005.001.005.002.005.001.005.002h.005l.005.002.005.002h.005l.005.002.005.002h.005l.005.002.005.002h.005l.005.002.005.002h.005l.005.002.005.002h.005l.005.002.005.002h.005l.005.002.005.002h.005l.005.002.004.002h.005l.005.002.005.002h.005l.005.002.005.002h.005l.005.002.005.002h.005l.005.002.005.002h.005l.005.002.005.002h.005l.005.002.005.002h.005l.005.002.005.002h.005l.005.002.005.001.005.002.005.001.004.001.005.002.005.001.005.001.005.002.005.001.005.001.005.002.005.001.005.001.005.002.005.001.005.001.005.002.005.001a.07.07 0 01.005.001l.005.002h.004l.005.002.005.002h.005l.005.002.005.002h.005l.005.002.005.002h.005a.07.07 0 00.005.002l.005.001.005.002a.07.07 0 01.004.001l.005.001.005.002.005.001.005.001.005.002.207-.773a.07.07 0 01-.005-.001l-.005-.002-.005-.001a.07.07 0 00-.005-.001l-.005-.002-.004-.001-.005-.001-.005-.002a.07.07 0 00-.005 0l-.005-.002-.005-.002h-.005l-.005-.002-.005-.002h-.005l-.005-.002-.005-.002h-.005l-.005-.002-.004-.002h-.005l-.005-.002-.005-.001-.005-.002-.005-.001-.005-.001-.005-.002-.005-.001-.005-.001-.005-.002-.005-.001-.005-.001-.005-.002-.005-.001-.005-.001-.005-.002-.004-.001-.005-.001-.005-.002-.005-.001-.005-.001-.005-.002h-.005l-.005-.002-.005-.002h-.005l-.005-.002-.005-.002h-.005l-.005-.002-.005-.002h-.005l-.005-.002-.005-.002h-.005l-.005-.002-.005-.002h-.005l-.005-.002-.005-.002h-.005l-.005-.002-.005-.002h-.005l-.004-.002-.005-.002h-.005l-.005-.002-.005-.002h-.005l-.005-.002-.005-.002h-.005l-.005-.002-.005-.002h-.005l-.005-.002-.005-.002h-.005l-.005-.002-.005-.002h-.005l-.005-.002-.005-.002h-.005l-.005-.002-.005-.002-.005-.001-.005-.001-.005-.002-.005-.001-.005-.001-.005-.002-.005-.001-.005-.001-.005-.002-.005-.001-.005-.001-.005-.002-.005-.001-.005-.001-.005-.002-.005-.001-.005-.001-.005-.002-.005-.001-.005-.001-.005-.002-.005-.001-.005-.002h-.005l-.005-.002-.005-.002h-.005l-.005-.002-.006-.002h-.005l-.005-.002-.005-.002h-.005l-.005-.002-.005-.002-.005-.001-.005-.001-.005-.002-.005-.001-.005-.001-.005-.002-.005-.001-.005-.001-.005-.002-.005-.001-.005-.002h-.005l-.005-.002-.005-.002h-.005l-.005-.002-.005-.002h-.005l-.005-.002-.005-.002-.005-.001-.005-.001-.006-.002-.005-.001-.005-.001-.005-.002-.005-.001-.005-.001-.005-.002-.005-.001-.005-.002h-.005l-.005-.002-.005-.002h-.005l-.005-.002-.005-.002-.005-.001-.005-.001-.005-.002-.005-.001-.005-.001-.005-.002-.006-.001-.005-.002h-.005l-.005-.002-.005-.002h-.005l-.005-.002-.005-.002-.005-.001-.005-.001-.005-.002-.005-.001-.005-.001-.005-.002-.006-.001-.005-.002h-.005l-.005-.002-.005-.002h-.005l-.005-.002-.005-.002-.005-.001-.005-.001-.005-.002-.005-.001-.005-.001-.005-.002-.006-.001-.005-.002h-.005l-.005-.002a.097.097 0 00-.005-.002l-.005-.001-.005-.001-.005-.002-.005-.001-.005-.001-.005-.002-.005-.001a.097.097 0 00-.006-.002h-.005l-.005-.002-.005-.002-.005-.001-.005-.001-.005-.002-.005-.001-.005-.001-.005-.002-.006-.001-.005-.002h-.005l-.005-.002-.005-.002-.005-.001-.005-.001a.097.097 0 00-.005-.002l-.005-.001-.005-.001-.005-.002-.006-.001-.005-.002h-.005l-.005-.002-.005-.002a.097.097 0 00-.005-.001l-.005-.001-.005-.002-.005-.001-.005-.002h-.006l-.005-.002-.005-.002-.005-.001-.005-.001-.005-.002-.005-.001-.005-.001-.005-.002-.006-.001a.1.1 0 01-.005-.002h-.005l-.005-.002-.005-.002-.005-.001-.005-.001-.005-.002-.006-.001-.005-.002h-.005l-.005-.002-.005-.002-.005-.001-.005-.001-.005-.002a.097.097 0 00-.005-.001l-.006-.002h-.005l-.005-.002-.005-.002-.005-.001-.005-.001-.005-.002-.005-.001-.006-.002h-.005l-.005-.002-.005-.002-.005-.001-.005-.001a.097.097 0 00-.005-.002l-.006-.001-.005-.002h-.005l-.005-.002-.005-.002a.1.1 0 01-.005-.001l-.005-.001-.005-.002-.006-.001-.005-.002H41.9a.1.1 0 00-.005-.002l-.005-.002-.005-.001-.005-.001a.097.097 0 00-.005-.002l-.006-.001-.005-.002h-.005a.079.079 0 00-.005-.002l-.005-.002-.005-.001a.1.1 0 01-.006-.001l-.005-.002a.097.097 0 00-.005-.001l-.005-.002h-.005l-.005-.002-.005-.002-.006-.001-.005-.001-.005-.002-.005-.001-.005-.002h-.005l-.005-.002-.005-.002a.097.097 0 00-.006-.001l-.005-.001-.005-.002-.005-.001-.005-.002h-.005l-.005-.002-.006-.002-.005-.001-.005-.001a.1.1 0 00-.005-.002l-.005-.001-.005-.002-.005-.001-.006-.001-.005-.002-.005-.001-.005-.002h-.005l-.005-.002-.006-.002-.005-.001-.005-.001-.005-.002-.005-.001a.1.1 0 00-.005-.002h-.005l-.006-.002-.005-.002-.005-.001-.005-.001-.005-.002-.005-.001-.006-.002a.1.1 0 01-.005-.001l-.005-.001-.005-.002-.005-.001-.005-.002h-.006l-.005-.002-.005-.002a.079.079 0 00-.005-.001l-.005-.001-.005-.002a.097.097 0 01-.01-.003h-.006l-.005-.002-.005-.002-.005-.001a.097.097 0 01-.01-.003l-.006-.001-.005-.002-.005-.001-.005-.001-.005-.002a.1.1 0 01-.006-.001l-.005-.002h-.005a.1.1 0 00-.005-.002l-.005-.002-.006-.001a.1.1 0 01-.005-.002h-.005l-.005-.002a.1.1 0 00-.005-.002l-.005-.001-.005-.001-.006-.002-.005-.001-.005-.002h-.005l-.005-.002-.005-.002-.006-.001a.1.1 0 01-.01-.003l-.005-.001a.1.1 0 00-.005-.002l-.006-.001-.005-.001-.005-.002a.1.1 0 01-.005-.001l-.005-.002h-.005l-.006-.002a.1.1 0 00-.005-.002l-.005-.001-.005-.002h-.005l-.005-.002-.006-.002-.005-.001a.1.1 0 00-.005-.001l-.005-.002-.005-.001-.005-.002a.1.1 0 01-.01-.002l-.006-.002-.005-.001-.005-.002h-.006l-.005-.002-.005-.002-.005-.001a.1.1 0 01-.005-.002h-.006l-.005-.002-.005-.002-.005-.001-.005-.001-.005-.002-.005-.001-.006-.002h-.005a.1.1 0 00-.005-.002l-.005-.002-.005-.001-.006-.002h-.005a.1.1 0 01-.005-.002l-.005-.002-.005-.001-.006-.001a.1.1 0 00-.01-.003l-.005-.002-.005-.001-.005-.001-.006-.002a.1.1 0 01-.005-.001l-.005-.002h-.005a.097.097 0 00-.005-.002l-.005-.002-.006-.001-.005-.002h-.005l-.005-.002-.005-.002-.006-.001a.1.1 0 00-.01-.003l-.005-.001-.005-.002-.005-.001-.006-.001a.1.1 0 01-.01-.003l-.005-.002h-.006l-.005-.002-.005-.002-.005-.001-.005-.002h-.005l-.006-.002-.005-.002-.005-.001-.005-.001a.1.1 0 00-.005-.002l-.005-.001-.006-.002-.005-.001-.005-.001a.079.079 0 01-.01-.003l-.006-.002h-.005l-.005-.002a.097.097 0 00-.005-.002l-.005-.001-.005-.002h-.006a.1.1 0 01-.005-.002l-.005-.002-.005-.001-.005-.001-.006-.002-.005-.001-.005-.002-.005-.001-.005-.001-.006-.002-.005-.001-.005-.002h-.005a.1.1 0 00-.01-.004l-.006-.001-.005-.002h-.005l-.005-.002a.079.079 0 01-.01-.003l-.208.773zm2.609.699l.005.001a.1.1 0 01.005.002h.006l.005.002.005.002.005.001.005.001.005.002.006.001a.1.1 0 01.005.002l.005.001.005.001.005.002.006.001.005.002h.005l.005.002.005.002.006.001.005.002h.005l.005.002a.1.1 0 00.01.003l.006.001.005.002.005.001.005.002a.079.079 0 01.01.002l.006.002a.079.079 0 00.01.002l.005.002.005.001.006.002.005.001.005.002h.005l.005.002.006.002.005.001a.1.1 0 00.005.001l.005.002.005.001.006.002.005.001.005.001a.1.1 0 01.005.002l.005.001.005.002h.006l.005.002.005.002.005.001a.1.1 0 01.005.002h.006l.005.002.005.002.005.001a.1.1 0 00.005.001l.005.002.006.001.005.002.005.001a.1.1 0 01.005.001l.005.002.006.001.005.002h.005l.005.002.005.002.006.001.005.002h.005l.005.002a.1.1 0 00.01.003l.006.001.005.002.005.001a.1.1 0 01.005.002l.005.001.005.001.006.002.005.001.005.002h.005l.005.002.005.002a.1.1 0 01.006.001l.005.001.005.002.005.001.005.002.006.001.005.001.005.002.005.001.005.002h.005l.006.002.005.002.005.001.005.002h.005l.005.002a.1.1 0 00.01.003l.006.001.005.002.005.001.005.002h.006a.1.1 0 00.01.004l.005.001.005.002h.006l.005.002.005.002a.1.1 0 00.01.002l.005.002.006.001.005.002.005.001.005.001a.1.1 0 00.01.003l.006.002h.005l.005.002.005.002.005.001.005.001.006.002.005.001.005.002.005.001.005.001a.079.079 0 00.01.003l.006.002h.005l.005.002.005.002.005.001.006.001.005.002.005.001a.1.1 0 01.005.002h.005l.005.002a.1.1 0 00.006.002l.005.001.005.002h.005l.005.002a.1.1 0 00.005.002l.006.001.005.001.005.002.005.001.005.002h.005l.005.002.006.002.005.001.005.001.005.002.005.001.005.002.006.001.005.001.005.002.005.001.005.002h.005l.005.002.006.002.005.001.005.001.005.002.005.001.005.002h.006l.005.002.005.002.005.001.005.001.005.002.005.001.006.002.005.001.005.001.005.002.005.001.005.002h.006l.005.002.005.002.005.001.005.001.005.002.005.001.006.002h.005l.005.002.005.002.005.001.005.001.005.002.005.001.006.002h.005l.005.002.005.002.005.001.005.001.005.002.006.001a.1.1 0 00.005.002h.005l.005.002.005.002.005.001.005.001.006.002.005.001.005.002h.005l.005.002.005.002.005.001.005.001.005.002.006.001.005.002h.005l.005.002.005.002.005.001.005.001.005.002.006.001.005.002h.005l.005.002.005.002.005.001a.1.1 0 01.005.001l.005.002.006.001.005.002h.005l.005.002.005.002.005.001.005.001.005.002.005.001.006.001.005.002.005.001.005.002h.005l.005.002.005.002.005.001.005.001.006.002.005.001.005.002h.005l.005.002.005.002.005.001.005.001.005.002.006.001.005.002h.005l.005.002.005.002h.005l.005.002.005.002.005.001.005.001.006.002.005.001.005.002h.005l.005.002.005.002h.005l.005.002.005.002.006.001.005.001.005.002.005.001.005.002h.005l.005.002.005.002.005.001.005.001.005.002.005.001.006.001.005.002.005.001.005.002h.005l.005.002.005.002h.005l.005.002.005.002.005.001.005.001.006.002.005.001.005.002h.005l.005.002.005.002h.005l.005.002.005.002.005.001.005.001.005.002.005.001.005.001.005.002.006.001.005.002h.005l.005.002.005.002h.005l.005.002.005.002.005.001.005.001.005.002.005.001.005.001.005.002.005.001.006.002h.005l.005.002.005.002h.005l.005.002.005.002h.005l.005.002.005.002.005.001.005.001.005.002.005.001.005.001.005.002.005.001.005.002h.005l.005.002.006.002h.005l.005.002.005.002h.005l.005.002.005.002.005.001.005.001.005.002.005.001.005.001.005.002.005.001.005.001.005.002.005.001.005.001.005.002.005.001.005.002h.005l.005.002.005.002h.005l.005.002.005.002h.005l.005.002.005.002h.005l.005.002.005.002.005.001.005.001.005.002.005.001.005.001.005.002.005.001.005.001.005.002.005.001.005.001.005.002.006.001.005.001.005.002.005.001.005.001.005.002.005.001.005.002h.005l.005.002.004.002h.005l.005.002.005.002h.005l.005.002.005.002h.005l.005.002.005.002h.005l.005.002.005.002h.005l.005.002.005.001.005.002.005.001.005.002h.005l.005.002.005.002h.005l.005.002.005.002h.005l.005.002.005.002h.005l.005.002.005.002h.005l.005.002.005.002h.005l.005.002.005.002h.005l.005.002.005.001.005.002.004.001.005.002h.005l.005.002.005.001.005.002.005.001.005.001.005.002.005.001.005.001.005.002.005.001.005.001.005.002.005.001.005.001.005.002a.12.12 0 01.005.001l.004.001.005.002.005.001.005.001.005.002h.005l.005.002.005.002h.005l.005.002.005.002h.005l.005.002.005.002h.004l.005.002a.07.07 0 00.005.001l.005.002a.07.07 0 01.005.001l.005.001.005.002a.07.07 0 00.005.001l.005.001.005.002.207-.773-.005-.001-.005-.002-.005-.001-.005-.001-.005-.002a.07.07 0 01-.005-.001l-.005-.001-.005-.002h-.005l-.004-.002a.07.07 0 01-.005-.002H45.9l-.005-.002-.005-.002h-.005l-.005-.002-.005-.002h-.005l-.005-.002-.005-.002a.07.07 0 01-.005 0l-.005-.002-.005-.001-.005-.002a.12.12 0 01-.004-.001l-.005-.001-.005-.002-.005-.001-.005-.001-.005-.002-.005-.001-.005-.001-.005-.002-.005-.001-.005-.001-.005-.002-.005-.001-.005-.001-.005-.002-.005-.001-.005-.001-.005-.002h-.005l-.004-.002-.005-.002h-.005l-.005-.002-.005-.002h-.005l-.005-.002-.005-.002h-.005l-.005-.002-.005-.002h-.005l-.005-.002-.005-.002h-.005l-.005-.002-.005-.002h-.005l-.005-.002-.005-.002h-.005l-.005-.002-.005-.002h-.005l-.005-.002-.005-.002h-.005l-.005-.002-.005-.002h-.005l-.005-.002-.005-.002h-.005l-.005-.002-.005-.002h-.005l-.005-.002-.005-.002h-.005l-.005-.002-.005-.002h-.005l-.005-.002-.004-.002-.005-.001-.006-.001-.005-.002-.005-.001-.005-.001-.005-.002-.005-.001-.005-.001-.005-.002-.005-.001-.005-.001-.005-.002-.005-.001-.005-.001-.005-.002-.005-.001-.005-.001-.005-.002-.005-.001-.005-.002h-.005l-.005-.002-.005-.002h-.005l-.005-.002-.005-.002h-.005l-.005-.002-.005-.002h-.005l-.005-.002-.005-.002h-.005l-.005-.002-.005-.002-.005-.001-.005-.001-.005-.002-.005-.001-.005-.001-.005-.002-.005-.001-.005-.001-.005-.002-.005-.001-.005-.002h-.005l-.005-.002-.005-.002h-.005l-.005-.002-.005-.002h-.006l-.005-.002-.005-.002-.005-.001-.005-.001-.005-.002-.005-.001-.005-.001-.005-.002-.005-.001-.005-.001-.005-.002-.005-.001-.005-.002h-.005l-.005-.002-.005-.002h-.005l-.006-.002-.005-.002-.005-.001-.005-.001-.005-.002-.005-.001-.005-.001-.005-.002-.005-.001-.005-.002h-.005l-.005-.002-.005-.002h-.005l-.005-.002-.005-.002-.005-.001-.006-.001-.005-.002-.005-.001-.005-.001-.005-.002-.005-.001-.005-.002h-.005l-.005-.002-.005-.002h-.005l-.005-.002-.005-.002-.005-.001-.005-.001-.006-.002-.005-.001-.005-.001a.073.073 0 00-.005-.002l-.005-.001-.005-.002h-.005l-.005-.002-.005-.002-.005-.001-.005-.001-.005-.002-.006-.001-.005-.001-.005-.002a.13.13 0 01-.005-.001l-.005-.002h-.005l-.005-.002a.097.097 0 00-.005-.002l-.005-.001-.005-.001-.005-.002-.006-.001-.005-.001-.005-.002a.13.13 0 01-.005-.001l-.005-.002h-.005l-.005-.002-.005-.002-.005-.001-.005-.001-.005-.002-.006-.001-.005-.002h-.005l-.005-.002-.005-.002h-.005l-.005-.002-.005-.002-.005-.001-.006-.001-.005-.002-.005-.001-.005-.002h-.005l-.005-.002-.005-.002-.005-.001-.005-.001-.006-.002-.005-.001-.005-.001-.005-.002-.005-.001-.005-.002h-.005l-.005-.002-.005-.002-.006-.001-.005-.001-.005-.002-.005-.001-.005-.002h-.005l-.005-.002-.005-.002-.005-.001-.006-.001-.005-.002-.005-.001-.005-.002h-.005l-.005-.002a.097.097 0 00-.005-.002l-.005-.001a.1.1 0 01-.006-.001l-.005-.002-.005-.001-.005-.002a.1.1 0 01-.005 0l-.005-.002-.005-.002-.005-.001-.006-.001a.097.097 0 00-.005-.002l-.005-.001-.005-.002h-.005l-.005-.002-.005-.002-.006-.001-.005-.001-.005-.002-.005-.001-.005-.002h-.005l-.005-.002-.005-.002-.005-.001-.006-.001-.005-.002-.005-.001-.005-.002h-.005l-.005-.002-.006-.002-.005-.001-.005-.001-.005-.002-.005-.001-.005-.002h-.005l-.006-.002-.005-.002-.005-.001-.005-.001-.005-.002-.005-.001-.005-.002h-.005l-.006-.002-.005-.002-.005-.001-.005-.001-.005-.002-.005-.001-.005-.002a.079.079 0 00-.006 0l-.005-.002-.005-.002-.005-.001-.005-.001-.005-.002-.005-.001-.006-.002-.005-.001-.005-.001a.097.097 0 00-.005-.002l-.005-.001-.005-.002h-.006l-.005-.002-.005-.002-.005-.001-.005-.001a.1.1 0 01-.005-.002l-.005-.001a.1.1 0 00-.01-.003l-.006-.001-.005-.002-.005-.001-.005-.001-.006-.002-.005-.001-.005-.002-.005-.001-.005-.001a.097.097 0 00-.01-.003l-.006-.002h-.005l-.005-.002-.005-.002a.1.1 0 00-.005-.001l-.005-.001-.006-.002-.005-.001-.005-.002h-.005a.097.097 0 00-.005-.002l-.005-.002-.006-.001-.005-.002h-.005l-.005-.002-.005-.002-.005-.001-.006-.001-.005-.002a.1.1 0 01-.005-.001l-.005-.002h-.005a.1.1 0 00-.006-.002l-.005-.002-.005-.001a.1.1 0 01-.005-.002h-.005l-.005-.002a.1.1 0 00-.006-.002l-.005-.001-.005-.001-.005-.002-.005-.001-.005-.002h-.005a.1.1 0 00-.006-.002l-.005-.002-.005-.001-.005-.002h-.005l-.005-.002-.006-.002a.1.1 0 00-.005-.001l-.005-.001-.005-.002-.005-.001-.006-.002-.005-.001-.005-.001a.1.1 0 00-.005-.002l-.005-.001-.005-.002h-.006a.1.1 0 01-.005-.002l-.005-.002-.005-.001-.005-.001a.1.1 0 00-.005-.002l-.006-.001-.005-.002-.005-.001a.1.1 0 01-.005-.001l-.005-.002a.097.097 0 00-.005-.001l-.006-.002h-.005l-.005-.002-.005-.002-.005-.001-.006-.002h-.005l-.005-.002a.097.097 0 00-.005-.002l-.005-.001-.005-.001-.006-.002-.005-.001-.005-.002h-.005a.1.1 0 00-.005-.002l-.006-.002-.005-.001-.005-.002h-.005l-.005-.002-.006-.002-.005-.001-.005-.001-.005-.002a.1.1 0 00-.005-.001l-.005-.002-.006-.001-.005-.001a.079.079 0 01-.01-.003l-.005-.002a.079.079 0 00-.01-.002l-.006-.002-.005-.001-.005-.002h-.005l-.006-.002-.005-.002-.005-.001-.005-.001a.1.1 0 00-.005-.002l-.005-.001-.006-.002-.005-.001-.005-.001-.005-.002a.1.1 0 01-.005-.001l-.006-.002h-.005l-.005-.002-.005-.002-.005-.001-.006-.002h-.005l-.005-.002-.005-.002-.005-.001-.005-.001-.006-.002a.1.1 0 00-.005-.001l-.005-.002-.005-.001-.005-.001-.005-.002-.006-.001a.1.1 0 01-.005-.002h-.005l-.005-.002-.005-.002-.006-.001-.005-.002h-.005l-.005-.002a.1.1 0 01-.005-.002l-.006-.001-.005-.001a.097.097 0 00-.005-.002l-.005-.001-.005-.002-.006-.001-.005-.001-.005-.002-.005-.001a.097.097 0 01-.01-.003l-.006-.001a.1.1 0 00-.01-.003l-.005-.002h-.005l-.005-.002-.006-.002-.005-.001-.207.773zm2.609.699c1.6.429 3.384 1.006 5.145 1.378l.165-.783c-1.736-.366-3.443-.923-5.103-1.368l-.207.773zm5.124 1.373c1.95.522 3.974 1.022 6.151.39l-.223-.768c-1.937.562-3.758.13-5.721-.395l-.207.773zm6.155.389c1.22-.368 2.313-1.251 3.256-1.91l-.457-.655c-1.022.712-1.968 1.479-3.03 1.799l.231.766zm3.248-1.903c.952-.628 2.014-1.28 2.871-2.146l-.568-.563c-.784.79-1.756 1.39-2.743 2.04l.44.669zM62.467 15c.005.078.009.147.01.203l.001.058v.003c0-.002.002-.018.008-.04l.773.207a.644.644 0 00.019-.144v-.108a7.872 7.872 0 00-.012-.227l-.799.048zm.009.38c.085.638.271 1.333.393 1.929l.784-.16c-.137-.672-.303-1.27-.384-1.875l-.793.106zm.395 1.935c.32 1.453.78 2.939 1.248 4.364l.76-.25c-.467-1.42-.916-2.874-1.227-4.286l-.781.172zm1.244 4.354c.425 1.422.943 2.87 1.42 4.24l.756-.263c-.481-1.381-.992-2.806-1.409-4.206l-.767.229zm1.42 4.237c.213.632.458 1.484.786 2.194l.726-.336c-.304-.658-.523-1.428-.755-2.114l-.758.256zm1.328 1.668c-5.021-2.504-10.572-3.94-15.98-5.339l-.201.775c5.423 1.403 10.891 2.82 15.824 5.28l.357-.716zm-15.977-5.338c-5.983-1.603-12.007-2.666-18.073-3.692l-.133.789c6.066 1.026 12.056 2.084 17.998 3.676l.208-.773zM32.794 18.54c-.416-.05-.684.25-.758.525a.692.692 0 00.036.47c.079.17.228.296.421.348l.207-.773c.011.003.03.01.051.028a.176.176 0 01.047.06c.018.04.013.067.01.074a.07.07 0 01-.026.037.12.12 0 01-.083.025l.095-.794zm-.285 1.347c5.778 1.299 11.441 3.015 17.155 4.646l.22-.769c-5.697-1.626-11.393-3.352-17.2-4.658l-.175.78zm17.155 4.646c5.654 1.614 11.333 3.786 17.118 4.986l.162-.784c-5.756-1.193-11.305-3.328-17.06-4.971l-.22.77zm16.802 4.55c-.437 3.85-1.464 7.676-2.282 11.48l.782.168c.807-3.75 1.852-7.656 2.294-11.559l-.794-.09zm-2.282 11.48c-.81 3.77-1.727 7.563-2.678 11.3l.775.197a311.941 311.941 0 002.685-11.33l-.782-.167zm-2.68 11.304c-.903 3.742-1.958 7.496-3.05 11.195l.768.226c1.093-3.704 2.152-7.472 3.06-11.233l-.778-.188z" fill="#7BC8FC" mask="url(#a)"/></g><defs><clipPath id="clip0_1_1217"><path fill="#fff" transform="rotate(15 8.8 66.841)" d="M0 0h58.114v68H0z"/></clipPath></defs></svg>