<svg width="69" height="21" fill="none" xmlns="http://www.w3.org/2000/svg"><path d="M51.664 19.054a14.911 14.911 0 002.299-1.861c.712-.712 1.313-1.478 1.751-2.353.055-.11-.054-.165-.164-.11-.602.766-1.204 1.533-1.86 2.19a18.205 18.205 0 01-2.135 1.97c-.11.11 0 .273.11.164zM63.322 6.028c-.329 1.478-1.204 2.791-2.299 3.776-.055.055 0 .165.11.11 1.313-.876 2.134-2.299 2.408-3.831.054-.164-.165-.22-.22-.055zm-2.299 13.628c.328-.328.711-.602 1.04-.93.328-.329.711-.602.985-.986.055-.054 0-.218-.11-.164-.383.274-.71.602-1.04.93l-.984.986c-.055.164.054.273.11.164zm4.652-5.473c.328-.383.657-.821.93-1.26.11-.218.274-.437.383-.656.11-.219.274-.492.22-.711 0-.055-.11-.11-.165-.055-.219.11-.273.383-.383.602l-.328.657a16.29 16.29 0 01-.766 1.313c-.11.055 0 .164.109.11zm.165-2.573c.109-.218.218-.492.328-.711l.164-.328c.054-.11.11-.274.11-.383 0-.055-.11-.11-.165-.055-.11.11-.164.219-.219.328-.055.11-.11.22-.164.383-.11.22-.22.493-.329.712 0 .055 0 .11.055.164.164-.055.22-.055.22-.11zm-5.036-5.746a8.19 8.19 0 01.547-.93c.11-.164.165-.274.274-.438.055-.164.164-.274.219-.438 0-.055-.055-.11-.11-.055-.164.11-.218.274-.273.383-.11.165-.164.329-.274.438-.164.329-.328.602-.492.93-.164.11 0 .22.11.11zm3.558 3.393c.164-.273.328-.492.492-.766a.882.882 0 00.219-.383c.055-.11.164-.274.219-.438 0-.11-.11-.164-.164-.11-.11.11-.22.22-.274.33-.11.109-.164.273-.274.382a12.66 12.66 0 00-.437.766c-.055.22.109.329.219.22zm-9.359-3.831a6.2 6.2 0 001.313-1.642c.164-.328.329-.602.493-.93.11-.274.328-.657.328-.985 0-.11-.11-.165-.164-.055-.219.219-.274.602-.438.875-.164.329-.273.657-.492.93a12.062 12.062 0 01-1.15 1.752c-.054.055.055.11.11.055zm2.517-1.423c.164-.219.383-.492.548-.711.11-.11.164-.22.273-.383.11-.11.164-.274.22-.383 0-.055-.056-.165-.11-.11-.22.164-.438.438-.602.657-.164.219-.329.492-.548.711-.054.164.165.329.22.22zm-3.502-.985c.164-.274.273-.547.438-.82.054-.11.164-.275.218-.384.055-.164.11-.274.165-.438.054-.11-.11-.164-.165-.055-.054.055-.109.11-.109.165-.055.054-.055.109-.11.218-.054.165-.164.274-.218.438-.11.274-.274.548-.384.821-.164.055.055.164.165.055zm13.299 14.448c.11-.11.164-.219.274-.328.054-.055.109-.11.109-.164.055-.055.11-.11.11-.22.054-.054-.055-.109-.11-.054a254.12 254.12 0 01-.328.329c-.11.109-.165.218-.274.328-.055.055-.055.11 0 .164.11 0 .164 0 .219-.055zM30.32 13.58c.328.603.711 1.095 1.259 1.533.273.22.547.383.82.548.274.11.603.273.931.273.11 0 .164-.164.055-.219-.11-.054-.274-.11-.383-.164-.165-.055-.274-.11-.438-.164-.274-.11-.547-.274-.821-.438-.493-.383-.93-.82-1.259-1.368-.11-.164-.274-.11-.164 0zM29.554 19c.383.327.766.601 1.204.875.438.219.875.492 1.368.492.11 0 .11-.11.055-.164-.383-.273-.821-.383-1.259-.602-.438-.219-.821-.438-1.204-.766-.11-.055-.274.055-.164.164zm8.702-15.216c.164.493.328.93.547 1.423.11.22.164.438.274.712.11.219.164.492.328.657.055.054.164 0 .164-.055 0-.219-.11-.493-.219-.712-.11-.218-.219-.492-.328-.711-.219-.438-.438-.93-.657-1.368.055-.164-.11-.055-.11.054zm4.706-1.642c.164.274.274.493.383.767.055.164.11.273.165.437 0 .055.054.11.054.22 0 .054.055.163.11.218 0 .055.164.055.11-.055v-.218c0-.11 0-.165-.055-.22-.055-.164-.11-.273-.165-.437a5.954 5.954 0 00-.438-.821c-.054-.11-.273 0-.164.11zM47.724.938l.492 1.15c.055.164.11.383.165.547.054.219.109.383.218.602.055.11.165.055.165-.055 0-.219-.055-.438-.11-.602a2.664 2.664 0 00-.219-.602 10.944 10.944 0 00-.547-1.15c-.055-.109-.219 0-.164.11zM37.052 4.715l.328.82c.055.165.11.274.164.438.055.055.055.165.11.22.054.054.11.109.11.218.054.11.218.055.163-.054 0-.055 0-.165-.054-.22a.415.415 0 00-.11-.218c-.055-.165-.11-.274-.164-.438a5.516 5.516 0 00-.383-.821c0-.164-.22-.055-.164.055zM46.027.993c.055.328.164.657.274.985l.164.493c.055.11.055.328.219.383.055.055.164 0 .164-.055.055-.164-.055-.328-.11-.492l-.163-.493c-.11-.328-.274-.602-.438-.93-.055 0-.165.054-.11.109zm-5.801 2.08c.055.164.11.328.219.493 0 .054.055.054.055.109s0 .11.054.164c.055.055.11.164.164.22h.055l.055-.056c0-.11-.055-.164-.055-.273 0-.055 0-.11-.055-.164 0-.055-.054-.055-.054-.11-.11-.164-.164-.328-.22-.492-.054-.11-.273 0-.218.109zm2.517 13.956c0-.547-.054-1.04-.109-1.587-.055-.274-.11-.548-.164-.767-.055-.219-.11-.492-.22-.656-.054-.055-.108 0-.108 0 0 .11 0 .219.054.328 0 .11.055.274.11.383.054.22.11.493.164.712.11.492.164 1.04.164 1.587-.055.055.11.11.11 0zm5.419-.274c.11-.383.11-.82.054-1.204-.054-.438-.11-.82-.328-1.204-.055-.11-.219-.055-.219.11.11.382.164.766.219 1.149.055.383.055.766.055 1.15.054.108.219.108.219 0zm2.9-2.901v-1.04c0-.109 0-.218-.054-.328 0-.055-.11-.055-.11 0 0 .11-.055.219-.055.329v1.039c.055.11.22.11.22 0zm1.697-1.368c.055-.492 0-.985-.11-1.478-.054-.218-.164-.492-.218-.711-.11-.219-.274-.438-.384-.602-.054-.11-.164 0-.164.11.11.218.164.437.274.656.055.22.164.438.219.657.11.438.164.93.164 1.368-.055.164.164.164.219 0zm-12.041 4.105c0-.274 0-.547-.054-.821 0-.274-.055-.547-.11-.82-.054-.11-.219-.11-.219.054-.054.274 0 .547.055.82.055.274.11.548.11.822 0 .11.218.054.218-.055zm8.265 1.916c.219-.165.438-.274.602-.438.219-.165.438-.274.602-.438.11-.11 0-.219-.11-.164-.219.11-.438.273-.602.383-.219.164-.383.273-.602.438-.055.054-.11.11-.055.164.055.055.11.11.165.055zm-14.066-4.543c.274-.164.547-.329.766-.493.22-.164.438-.383.602-.656.055-.055-.054-.165-.11-.11-.218.164-.437.383-.656.602-.219.164-.438.329-.711.493-.164.054-.055.219.11.164z" fill="#fff" fill-opacity=".6"/><path d="M32.728 31.806c.93 1.641 2.463 2.572 4.16 3.229 2.025.766 4.214 1.204 6.348 1.477 4.543.602 9.25.274 13.518-1.423 3.722-1.477 7.06-3.94 9.25-7.388 2.134-3.339 3.174-7.389 2.845-11.329C68.083 8.491 61.953 1.923 54.182.446c-4.378-.821-9.304-.548-13.464 1.15-3.447 1.422-6.403 3.83-8.592 6.895-4.597 6.403-4.652 15.27-.438 21.892.493.82 1.095 1.587 1.697 2.298.383.438 1.094-.219.657-.656-4.871-5.638-6.02-14.066-2.463-20.688 1.642-3.065 4.16-5.692 7.115-7.498C42.25 1.705 46.41.993 50.515 1.157c3.995.164 7.936 1.314 11.11 3.886 2.737 2.244 4.761 5.309 5.692 8.702.93 3.612.602 7.498-.821 10.891-1.478 3.558-4.16 6.458-7.498 8.374-3.612 2.08-7.826 2.955-11.93 2.9-2.245 0-4.489-.328-6.678-.766-1.86-.383-3.721-.82-5.363-1.806-.767-.493-1.478-.985-2.08-1.751-.11-.055-.328.11-.219.219z" fill="#fff" fill-opacity=".6"/><path d="M29.444 21.188c3.996 2.463 8.593 4.214 13.135 5.418a58.595 58.595 0 0014.175 1.916c1.368 0 2.737 0 4.105-.11 1.313-.054 2.682-.11 3.94-.492.383-.11.329-.657-.11-.712-1.148-.054-2.298.11-3.447.22-1.15.054-2.299.109-3.503.109-2.298 0-4.652-.11-6.95-.383-4.652-.548-9.25-1.588-13.683-3.175-2.572-.875-4.98-2.08-7.443-3.229-.273-.055-.438.274-.219.438z" fill="#fff" fill-opacity=".6"/><path d="M29.28 16.098c.985.876 2.19 1.478 3.339 2.08 1.204.602 2.353 1.204 3.612 1.751 2.408 1.095 4.925 2.08 7.498 2.846 5.144 1.642 10.508 2.573 15.871 2.846 1.423.055 2.791.11 4.16-.11 1.094-.163 2.736-.547 3.338-1.641.164-.274-.11-.547-.383-.493-.547.11-1.04.438-1.587.602-.548.22-1.095.329-1.697.438-1.204.219-2.463.164-3.667.11a61.535 61.535 0 01-7.717-.821 66.523 66.523 0 01-14.831-4.215c-1.368-.602-2.737-1.204-4.105-1.915-1.259-.602-2.463-1.423-3.721-1.916-.11 0-.274.274-.11.438zm1.752-3.612c3.447 3.12 8.264 4.16 12.642 5.254 5.144 1.314 10.344 2.354 15.652 2.573 1.533.054 3.065.054 4.543-.055 1.368-.11 2.955-.055 4.16-.712.218-.109.218-.547-.055-.602-1.204-.164-2.518.165-3.722.22-1.259.109-2.517.109-3.776.109a62.888 62.888 0 01-7.826-.657c-4.871-.766-9.742-1.806-14.504-3.229-2.463-.711-4.816-1.751-6.896-3.284-.164-.164-.438.22-.218.383z" fill="#fff" fill-opacity=".6"/><path d="M46.684 17.96c1.423-.767 2.682-1.916 3.886-2.956 1.258-1.095 2.463-2.299 3.612-3.503a67.204 67.204 0 003.174-3.722l1.478-1.97c.438-.602 1.094-1.313 1.259-2.08.054-.273-.274-.656-.548-.437-.602.438-.93 1.149-1.313 1.751-.438.657-.93 1.314-1.423 1.97a52.78 52.78 0 01-3.23 3.886 49.576 49.576 0 01-3.392 3.393c-1.204 1.15-2.627 2.135-3.777 3.339-.219.164 0 .492.274.328zm9.468 1.531c.547-.164 1.04-.601 1.478-.93.438-.328.93-.711 1.313-1.095a38.77 38.77 0 002.627-2.572c.821-.875 1.533-1.806 2.244-2.736.383-.493.766-1.04 1.095-1.533.273-.383.766-.93.602-1.423-.055-.109-.164-.218-.329-.164-.492.11-.711.766-.985 1.15-.328.492-.657.985-1.04 1.477a38.401 38.401 0 01-2.243 2.791 35.501 35.501 0 01-2.463 2.518c-.438.383-.821.766-1.259 1.15-.438.382-.93.71-1.259 1.203-.054.055.055.22.22.164zm7.498.164c.492-.273.93-.711 1.313-1.094.438-.383.821-.821 1.205-1.259.383-.438.711-.875 1.094-1.313.329-.493.766-.93.985-1.478.11-.274-.328-.493-.492-.274-.383.383-.657.93-.986 1.368-.328.438-.71.93-1.04 1.369-.382.438-.71.82-1.094 1.259-.383.437-.82.82-1.15 1.258-.163.055-.054.274.165.165zM35.629 4.879c1.149 3.667 2.298 7.334 3.174 11.11.11.438.766.273.657-.164-.93-3.777-2.025-7.498-3.558-11.056-.054-.219-.328-.054-.273.11zm4.98-2.846c.274 1.314.985 2.518 1.423 3.776.438 1.204.876 2.463 1.204 3.722.712 2.572 1.204 5.144 1.642 7.826.055.438.876.383.82-.11-.273-2.681-.93-5.363-1.641-7.935a45.12 45.12 0 00-1.314-3.831c-.437-1.204-.875-2.627-1.696-3.667-.11-.219-.493-.11-.438.219z" fill="#fff" fill-opacity=".6"/><path d="M44.604 1.157c.274 1.095.876 2.19 1.368 3.284.493 1.094.93 2.244 1.314 3.393.82 2.299 1.368 4.597 1.86 6.95.11.493.822.274.767-.218-.438-2.409-1.204-4.871-2.025-7.17-.383-1.094-.876-2.244-1.313-3.338-.438-1.04-.93-2.19-1.697-3.065-.11-.11-.328 0-.274.164zm5.309-.273c.219.875.657 1.696 1.04 2.462.383.876.711 1.806 1.04 2.682.328.876.602 1.751.875 2.627.11.438.22.821.383 1.259.11.383.11.876.438 1.15.164.163.383.054.438-.11.164-.383-.055-.876-.164-1.26-.11-.492-.274-.93-.438-1.422-.273-.876-.602-1.751-.93-2.627-.329-.821-.657-1.697-1.04-2.518-.383-.82-.766-1.75-1.368-2.462-.11-.165-.329 0-.274.219zM31.633 11.83c.985-.438 1.916-1.04 2.792-1.697.437-.329.82-.657 1.204-1.04.219-.164.383-.383.602-.602.164-.164.438-.383.438-.657 0-.11-.11-.219-.22-.219-.273 0-.437.22-.601.438-.165.219-.384.383-.548.547-.383.383-.766.712-1.204 1.095-.82.711-1.696 1.313-2.572 1.915-.11.11 0 .274.11.22z" fill="#fff" fill-opacity=".6"/><path d="M51.5 2.58c.22-.274.438-.492.657-.766.11-.11.219-.219.328-.383.11-.11.274-.274.274-.438 0-.11-.055-.219-.164-.164-.164.054-.274.219-.383.383-.11.11-.22.274-.329.438-.219.273-.383.547-.602.82-.11.055.11.274.22.11z" fill="#fff" fill-opacity=".6"/></svg>