<svg width="94" height="106" fill="none" xmlns="http://www.w3.org/2000/svg"><g clip-path="url(#clip0_1_1213)" fill="#fff"><mask id="a"><path d="M87.567 69.487c-.234-.163-.47-.135-.604-.047-.118.014-.162.043-.296.13l-.088.06-.042-.354C83.31 63.59 79.374 58.182 75.703 52.79c-3.54-5.289-6.915-10.812-10.899-15.809-.248-.28-.497-.562-.7-.872.105-.324-.23-.737-.555-.65-2.967-3.255-6.572-5.835-10.761-7.27-2.264-.733-4.604-1.29-6.99-1.435-2.004-.143-4.288-.228-6.253.366-.132-.104-.337-.223-.529-.224a10.91 10.91 0 00-3.172.308c-1.163-.124-2.012-.835-2.251-2.264-.154-1.105-.13-2.327-1.066-3.171-.907-.8-1.936-1.203-3.113-1.444-.81-.166-1.574-.362-2.338-.748-.529-.224-.82-.667-1.111-1.11.402-.455.613-1.101.75-1.572.243-.985-.16-2.18-.862-2.86-.79-.814-1.789-1.172-2.97-1.031-.442.1-.974.26-1.374.523-.4.263-.757.688-.981 1.025-.583.954-.695 2.043-.232 3.135.347.914 1.283 1.758 2.284 1.925.515.106 1.237.14 1.74-.064.291.443.538.915.578 1.46.023.81-.146 1.619-.24 2.443-.202 1.147-.284 2.28.09 3.43.403 1.195 1.505 1.613 2.488 2.236 1.29.802 1.562 1.893 1.184 2.966a10.91 10.91 0 00-1.54 2.789.773.773 0 00-.005.574c-1.324 1.569-2.167 3.773-2.816 5.595-.814 2.248-1.23 4.616-1.456 6.985-.39 4.444.549 8.777 2.388 12.836-.044.029-.044.029-.06.102-.148.162-.003.383.233.355l.045-.03c.217.429.464.901.682 1.33 2.961 5.668 6.737 10.928 10.187 16.275 3.567 5.525 6.897 11.269 10.835 16.486.087.133.19.193.308.178l-.089.059c-.089.058-.149.161-.238.22-.177.116-.297.322-.196.573.271 1.09 1.222 2.052 2.235 2.529.529.223 1.131.462 1.735.51.103.058.25.089.384.001.044-.03.073.015.118-.014.424.355 1.056.638 1.496.92.029.045.087.133.16.148.103.06.235.164.338.223.293.252.57.577.863.829.716.799 1.476 1.568 2.598 1.338 1.078-.2 1.968-.976 2.828-1.605 1.023-.672 2.016-1.388 3.039-2.06 1.393-.979 2.771-1.885 4.135-2.908.356-.234.712-.468 1.052-.628 1.792-1.05 3.497-2.234 5.23-3.374a243.396 243.396 0 005.172-3.462l1.867-1.227a144.257 144.257 0 004.104-2.57c1.023-.672 2.074-1.3 3.097-1.972.889-.584 1.954-1.094 2.595-1.96.656-.938.207-1.912-.198-2.915-.115-.369-.303-.753-.418-1.121a2.559 2.559 0 01-.07-.398c.014-.074-.044-.162-.073-.207-.084-.515-.138-1.178-.251-1.738.044-.03.015-.074.06-.103a.36.36 0 00.15-.352c.196-.574.216-1.221.22-1.795-.197-1.076-.703-2.33-1.597-3.012zm-49.63 9.329c-2.752-4.284-5.637-8.48-8.255-12.851.932-.422 1.82-1.007 2.71-1.59 2.94 4.666 5.984 9.202 8.969 13.84l5.11 7.873c.845 1.285 1.6 2.629 2.519 3.93-.934.613-1.867 1.226-2.64 1.988-2.66-4.534-5.604-8.818-8.414-13.19zm-7.663-20.474c.977-.643 2.03-1.27 3.007-1.913a151.428 151.428 0 002.649 4.224l-2.98 1.957-.133.088c-.814-1.432-1.701-2.88-2.544-4.356zm40.736 17.14c-1.835-2.792-3.788-5.57-5.578-8.39-3.014-4.683-6.131-9.234-9.234-13.858a80.166 80.166 0 00-2.025-2.984l3.468-2.279.755-.497.903 1.374 9.087 13.827 4.544 6.913 2.126 3.236c-.09.058-.223.145-.311.204a62.81 62.81 0 01-3.735 2.454zm-15.826 10.4c-.177.118-.355.234-.533.351l-2.097-3.19-4.544-6.914-9.086-13.827-.962-1.462.09-.058c1.377-.906 2.785-1.767 4.163-2.673.67 1.02 1.34 2.038 1.965 3.087 3.014 4.682 5.954 9.35 9.056 13.974 1.88 2.763 3.626 5.613 5.46 8.405l-3.512 2.308zM33.071 32.96l.4-.263c.988 1.89 2.27 3.649 3.436 5.421 1.543 2.349 3.013 4.683 4.557 7.032l2.01 3.057-4.135 2.717c-.596-1.004-1.221-2.052-1.773-3.086a84.467 84.467 0 01-3.612-7.335c-.97-2.155-1.704-4.337-2.557-6.506.608-.335 1.14-.686 1.674-1.036zm3.305-2.235c1.653 1.643 3.394 3.227 4.958 4.928a84.487 84.487 0 015.3 6.225c.73.917 1.444 1.907 2.13 2.853l-4.18 2.746-1.718-2.615c-1.543-2.349-3.102-4.624-4.69-6.943-1.253-1.906-2.474-3.959-3.949-5.718l.534-.35a25.03 25.03 0 001.615-1.126zm8.966 17.904l4.223-2.775c.919 1.3 1.866 2.645 2.74 3.974l-4.313 2.834-2.65-4.033zm-1.067.701l2.65 4.033-4.267 2.805c-.903-1.374-1.732-2.733-2.59-4.136 1.407-.861 2.785-1.767 4.207-2.702zM58.54 81.012a380.694 380.694 0 00-4.192-6.573 1629.402 1629.402 0 00-8.765-13.53 106.584 106.584 0 01-2.228-3.486c1.423-.935 2.89-1.9 4.342-2.79l2.708 4.122c2.97 4.52 5.986 9.011 8.928 13.487 1.689 2.57 3.378 5.14 5.112 7.682l-4.668 3.067a35.754 35.754 0 00-1.237-1.979zm2.137-9.146L51.794 58.35l-3-4.565 4.312-2.834c.758 1.152 1.486 2.26 2.287 3.383 2.986 4.447 5.957 8.967 8.943 13.414a380.697 380.697 0 014.37 6.456l1.253 1.906-4.58 3.009c-1.527-2.422-3.1-4.816-4.702-7.253zm13.57-3.08c-1.601-2.438-3.232-4.92-4.79-7.386l-9.624-14.743-.059-.088 2.757-1.812.355-.233c3.103 4.624 6.19 9.321 9.293 13.945 1.63 2.482 3.277 4.89 4.908 7.372.844 1.285 1.674 2.644 2.621 3.988l-.044.03-3.335 2.19c-.654-1.092-1.382-2.2-2.081-3.264zm3.98-3.631l-5.17-7.77c-3.015-4.492-5.942-9.041-9.001-13.503.889-.584 1.807-1.124 2.594-1.768 2.87 4.078 5.52 8.302 8.302 12.439 2.898 4.314 5.664 8.715 8.74 12.912-.976.451-1.88 1.11-2.814 1.723-.859-1.403-1.806-2.748-2.65-4.033zm-13.575-25.79c.452.591.831 1.168 1.283 1.759-.903.466-1.763 1.095-2.652 1.68l-.757-1.153-2.056-2.837c.845-.555 1.719-1.066 2.46-1.68.585.694 1.154 1.463 1.722 2.231zm-2.51 4.124c-1.05.628-2.073 1.3-3.14 2.001-.874-1.33-1.777-2.703-2.74-3.974l2.801-1.84.178-.118c1.08 1.257 2.028 2.602 2.902 3.931zm-4.43 2.848l-.31.205c-1.334.876-2.623 1.724-3.986 2.556a145.967 145.967 0 00-2.74-3.975l3.602-2.366.666-.438c.992 1.315 1.895 2.689 2.769 4.018zm-3.718-4.98c-1.378.906-2.756 1.811-4.119 2.643-.802-1.123-1.619-2.172-2.465-3.266-2.961-3.828-6.305-7.85-10.292-10.624.282-.248.52-.468.831-.672 4.56 1.127 8.302 3.237 11.68 6.537 1.698 1.614 3.172 3.373 4.543 5.265l-.178.117zM37.37 28.169c-.624.6-1.277 1.156-1.96 1.668-.755.496-1.437 1.008-2.164 1.55-.785.451-1.525.875-2.28 1.371a21 21 0 01-2.31 1.137c.316-.779.706-1.543 1.256-2.158.655-.747 1.412-1.435 2.17-2.123.96-.378 1.892-.8 2.809-1.15.812-.216 1.668-.27 2.479-.295zm-6.831 6.265c.993 4.805 3.374 9.396 5.669 13.662a102.442 102.442 0 001.99 3.514c-1.288.848-2.578 1.695-3.867 2.542l-.4.263c-1.119-1.993-2.178-4.09-3.001-6.213-1.645-4.44-2.142-8.683-1.367-13.316.369-.116.665-.247.976-.452zm4.076 21.118c1.422-.935 2.874-1.825 4.296-2.76.859 1.403 1.688 2.762 2.591 4.135l-3.734 2.455-.534.35c-.902-1.374-1.805-2.748-2.62-4.18zm12.939 29.762c-1.631-2.482-3.189-4.949-4.82-7.43-3.072-4.772-6.188-9.513-9.23-14.24 1.022-.672 2.118-1.33 3.14-2.001l.117.177 9.714 14.684c1.601 2.438 3.232 4.92 4.879 7.327.699 1.064 1.398 2.128 2.141 3.162l-3.067 2.016-.267.175c-.889-1.256-1.807-2.556-2.607-3.87zm3.188 4.948c1.111-.73 2.296-1.446 3.408-2.176.437.665.873 1.33 1.444 1.906l-3.735 2.454c-.303-.752-.725-1.49-1.117-2.184zm4.608-2.965c.044-.03.044-.03.089-.058 1.334-.877 2.696-1.71 4.03-2.586.437.665.844 1.286 1.326 1.921l-2.8 1.84-1.468.965c-.303-.753-.74-1.417-1.177-2.082zm5.141-3.316c1.556-1.022 3.112-2.045 4.742-3.052.437.665.918 1.3 1.355 1.965l-.222.146a61.987 61.987 0 00-2.652 1.68l-1.956 1.285c-.467-.71-.83-1.359-1.267-2.023zm5.675-3.666l4.624-3.038c.407.62.815 1.24 1.267 1.832l-1.956 1.286c-.889.584-1.704 1.183-2.594 1.768l-.133.087c-.378-.576-.77-1.27-1.208-1.935zm5.602-3.68l3.378-2.221.756-.497c.407.62.815 1.241 1.356 1.774l-1.467.964-2.8 1.84c-.423-.546-.787-1.196-1.224-1.86zm5.319-3.433l2.845-1.87.533-.35c.453.59.905 1.182 1.446 1.715l-3.734 2.454c-.275-.708-.683-1.329-1.09-1.949zm4.49-2.95c.933-.614 1.911-1.257 2.787-1.96.423.548.816 1.05 1.24 1.597.087.133.19.193.308.178L82.666 72.2c-.363-.65-.682-1.328-1.09-1.949zM45.434 27.944c2.505.13 4.918.703 7.225 1.598 3.762 1.462 6.764 3.803 9.395 6.644-.83.481-1.6 1.051-2.445 1.607-2.35-2.898-5.042-5.444-8.284-7.375-2.025-1.144-4.36-2.083-6.82-2.435.28-.057.59-.07.93-.039zm5.997 3.991c2.758 1.678 5.039 3.986 7.082 6.514a80.402 80.402 0 00-3.008 1.913c-1.706-2.305-3.59-4.494-5.771-6.36-2.693-2.355-6.259-4.39-9.88-5.056 4.13-.303 7.94.747 11.577 2.99zM21.481 16.97c-.185-.766-.03-1.693.652-2.205l.133-.087.134-.088c.71-.467 1.652-.197 2.282.277.66.519.8 1.314.632 2.123-.108.515-.523.851-.704 1.351-.486-.061-.96.186-1.52.11-.72-.225-1.394-.67-1.609-1.48zm5.635 10.512c-2.42-1.456-.734-4.023-.893-6.203-.028-.236-.04-.545-.142-.796.235.163.47.327.675.445 1.893 1.04 4.963.482 5.339 3.282.224 1.502.346 2.754 1.8 3.513.073.015.102.059.176.074a7.47 7.47 0 00-2.223 1.46 7.47 7.47 0 00-2.223 1.462c.016-.074-.013-.118.002-.192-.09-1.59-1.22-2.244-2.51-3.045zm1.27 9.001c-.825 3.588-.327 7.64.721 11.075.848 2.743 2.125 5.267 3.52 7.777l-2.979 1.957c-1.48-2.834-2.695-5.843-3.185-9.011-.541-4.214.006-8.127 1.922-11.798zm-4.49 11.961c.094-2.473.497-4.959 1.4-7.265.135-.28.197-.574.332-.853-.61 2.367-.718 4.914-.471 7.227.457 3.697 1.726 7.178 3.424 10.44-.8.526-1.645 1.081-2.416 1.652-1.49-3.527-2.403-7.241-2.268-11.2zm5.266 10.627c.581 1.078 1.236 2.17 1.861 3.22l.699 1.063c-.889.584-1.778 1.168-2.535 1.857-.364-.65-.742-1.226-1.106-1.876a31.177 31.177 0 01-1.451-2.79c.887-.393 1.732-.948 2.532-1.474zm18.655 35.65c-.392-.694-.755-1.343-1.148-2.037 1.05-.436 1.984-1.05 2.917-1.664.51.68.992 1.316 1.518 1.922l-3.245 2.133c.03-.147.016-.265-.042-.354zm39.914-21.79c-.003.384-.08.751-.127 1.163-2.175 1.05-4.281 2.687-6.282 4.002-2.356 1.548-4.493 3.333-6.746 4.941-.045.03.014.118.058.089 2.399-1.386 4.944-2.551 7.329-4.055 1.852-1.154 3.953-2.218 5.689-3.548.01.5.08 1.09.15 1.487.027.236.1.443.127.678.014.118.057.28.1.442.085.325.216.62.361.841.26.59.448 1.166.06 1.738-.64.865-2.105 1.447-2.994 2.03-1.022.673-2.074 1.3-3.096 1.972-2.03 1.27-3.957 2.6-5.928 3.96l-2.134 1.402-1.778 1.169-3.779 2.483c-2.074 1.3-4.074 2.614-6.12 3.958-1.022.672-2.015 1.388-3.037 2.06-.89.585-2.004 1.698-3.052 1.943-.65.173-1.133-.271-1.572-.745a2.478 2.478 0 00-.628-.665c-.132-.104-.235-.163-.366-.267-.235-.163-.44-.282-.572-.386-.337-.222-.806-.549-1.306-.728 1.91-1.065 3.72-2.572 5.514-3.814 2.327-1.593 4.405-3.467 6.63-5.119.044-.029-.014-.118-.059-.088-2.37 1.43-4.856 2.683-7.212 4.232-2 1.315-4.34 2.598-6.165 4.179-.397-.12-.765-.196-1.118-.345-.808-.357-1.32-.846-1.816-1.408L59.02 89.2c1.911-1.256 3.778-2.483 5.66-3.784.801-.525 1.882-1.109 2.757-1.811.963-.57 1.927-1.33 2.756-1.811a291.91 291.91 0 005.72-3.696l11.158-7.333c.452.592.697 1.255.66 2.168z"/></mask><path d="M87.567 69.487c-.234-.163-.47-.135-.604-.047-.118.014-.162.043-.296.13l-.088.06-.042-.354C83.31 63.59 79.374 58.182 75.703 52.79c-3.54-5.289-6.915-10.812-10.899-15.809-.248-.28-.497-.562-.7-.872.105-.324-.23-.737-.555-.65-2.967-3.255-6.572-5.835-10.761-7.27-2.264-.733-4.604-1.29-6.99-1.435-2.004-.143-4.288-.228-6.253.366-.132-.104-.337-.223-.529-.224a10.91 10.91 0 00-3.172.308c-1.163-.124-2.012-.835-2.251-2.264-.154-1.105-.13-2.327-1.066-3.171-.907-.8-1.936-1.203-3.113-1.444-.81-.166-1.574-.362-2.338-.748-.529-.224-.82-.667-1.111-1.11.402-.455.613-1.101.75-1.572.243-.985-.16-2.18-.862-2.86-.79-.814-1.789-1.172-2.97-1.031-.442.1-.974.26-1.374.523-.4.263-.757.688-.981 1.025-.583.954-.695 2.043-.232 3.135.347.914 1.283 1.758 2.284 1.925.515.106 1.237.14 1.74-.064.291.443.538.915.578 1.46.023.81-.146 1.619-.24 2.443-.202 1.147-.284 2.28.09 3.43.403 1.195 1.505 1.613 2.488 2.236 1.29.802 1.562 1.893 1.184 2.966a10.91 10.91 0 00-1.54 2.789.773.773 0 00-.005.574c-1.324 1.569-2.167 3.773-2.816 5.595-.814 2.248-1.23 4.616-1.456 6.985-.39 4.444.549 8.777 2.388 12.836-.044.029-.044.029-.06.102-.148.162-.003.383.233.355l.045-.03c.217.429.464.901.682 1.33 2.961 5.668 6.737 10.928 10.187 16.275 3.567 5.525 6.897 11.269 10.835 16.486.087.133.19.193.308.178l-.089.059c-.089.058-.149.161-.238.22-.177.116-.297.322-.196.573.271 1.09 1.222 2.052 2.235 2.529.529.223 1.131.462 1.735.51.103.058.25.089.384.001.044-.03.073.015.118-.014.424.355 1.056.638 1.496.92.029.045.087.133.16.148.103.06.235.164.338.223.293.252.57.577.863.829.716.799 1.476 1.568 2.598 1.338 1.078-.2 1.968-.976 2.828-1.605 1.023-.672 2.016-1.388 3.039-2.06 1.393-.979 2.771-1.885 4.135-2.908.356-.234.712-.468 1.052-.628 1.792-1.05 3.497-2.234 5.23-3.374a243.396 243.396 0 005.172-3.462l1.867-1.227a144.257 144.257 0 004.104-2.57c1.023-.672 2.074-1.3 3.097-1.972.889-.584 1.954-1.094 2.595-1.96.656-.938.207-1.912-.198-2.915-.115-.369-.303-.753-.418-1.121a2.559 2.559 0 01-.07-.398c.014-.074-.044-.162-.073-.207-.084-.515-.138-1.178-.251-1.738.044-.03.015-.074.06-.103a.36.36 0 00.15-.352c.196-.574.216-1.221.22-1.795-.197-1.076-.703-2.33-1.597-3.012zm-49.63 9.329c-2.752-4.284-5.637-8.48-8.255-12.851.932-.422 1.82-1.007 2.71-1.59 2.94 4.666 5.984 9.202 8.969 13.84l5.11 7.873c.845 1.285 1.6 2.629 2.519 3.93-.934.613-1.867 1.226-2.64 1.988-2.66-4.534-5.604-8.818-8.414-13.19zm-7.663-20.474c.977-.643 2.03-1.27 3.007-1.913a151.428 151.428 0 002.649 4.224l-2.98 1.957-.133.088c-.814-1.432-1.701-2.88-2.544-4.356zm40.736 17.14c-1.835-2.792-3.788-5.57-5.578-8.39-3.014-4.683-6.131-9.234-9.234-13.858a80.166 80.166 0 00-2.025-2.984l3.468-2.279.755-.497.903 1.374 9.087 13.827 4.544 6.913 2.126 3.236c-.09.058-.223.145-.311.204a62.81 62.81 0 01-3.735 2.454zm-15.826 10.4c-.177.118-.355.234-.533.351l-2.097-3.19-4.544-6.914-9.086-13.827-.962-1.462.09-.058c1.377-.906 2.785-1.767 4.163-2.673.67 1.02 1.34 2.038 1.965 3.087 3.014 4.682 5.954 9.35 9.056 13.974 1.88 2.763 3.626 5.613 5.46 8.405l-3.512 2.308zM33.071 32.96l.4-.263c.988 1.89 2.27 3.649 3.436 5.421 1.543 2.349 3.013 4.683 4.557 7.032l2.01 3.057-4.135 2.717c-.596-1.004-1.221-2.052-1.773-3.086a84.467 84.467 0 01-3.612-7.335c-.97-2.155-1.704-4.337-2.557-6.506.608-.335 1.14-.686 1.674-1.036zm3.305-2.235c1.653 1.643 3.394 3.227 4.958 4.928a84.487 84.487 0 015.3 6.225c.73.917 1.444 1.907 2.13 2.853l-4.18 2.746-1.718-2.615c-1.543-2.349-3.102-4.624-4.69-6.943-1.253-1.906-2.474-3.959-3.949-5.718l.534-.35a25.03 25.03 0 001.615-1.126zm8.966 17.904l4.223-2.775c.919 1.3 1.866 2.645 2.74 3.974l-4.313 2.834-2.65-4.033zm-1.067.701l2.65 4.033-4.267 2.805c-.903-1.374-1.732-2.733-2.59-4.136 1.407-.861 2.785-1.767 4.207-2.702zM58.54 81.012a380.694 380.694 0 00-4.192-6.573 1629.402 1629.402 0 00-8.765-13.53 106.584 106.584 0 01-2.228-3.486c1.423-.935 2.89-1.9 4.342-2.79l2.708 4.122c2.97 4.52 5.986 9.011 8.928 13.487 1.689 2.57 3.378 5.14 5.112 7.682l-4.668 3.067a35.754 35.754 0 00-1.237-1.979zm2.137-9.146L51.794 58.35l-3-4.565 4.312-2.834c.758 1.152 1.486 2.26 2.287 3.383 2.986 4.447 5.957 8.967 8.943 13.414a380.697 380.697 0 014.37 6.456l1.253 1.906-4.58 3.009c-1.527-2.422-3.1-4.816-4.702-7.253zm13.57-3.08c-1.601-2.438-3.232-4.92-4.79-7.386l-9.624-14.743-.059-.088 2.757-1.812.355-.233c3.103 4.624 6.19 9.321 9.293 13.945 1.63 2.482 3.277 4.89 4.908 7.372.844 1.285 1.674 2.644 2.621 3.988l-.044.03-3.335 2.19c-.654-1.092-1.382-2.2-2.081-3.264zm3.98-3.631l-5.17-7.77c-3.015-4.492-5.942-9.041-9.001-13.503.889-.584 1.807-1.124 2.594-1.768 2.87 4.078 5.52 8.302 8.302 12.439 2.898 4.314 5.664 8.715 8.74 12.912-.976.451-1.88 1.11-2.814 1.723-.859-1.403-1.806-2.748-2.65-4.033zm-13.575-25.79c.452.591.831 1.168 1.283 1.759-.903.466-1.763 1.095-2.652 1.68l-.757-1.153-2.056-2.837c.845-.555 1.719-1.066 2.46-1.68.585.694 1.154 1.463 1.722 2.231zm-2.51 4.124c-1.05.628-2.073 1.3-3.14 2.001-.874-1.33-1.777-2.703-2.74-3.974l2.801-1.84.178-.118c1.08 1.257 2.028 2.602 2.902 3.931zm-4.43 2.848l-.31.205c-1.334.876-2.623 1.724-3.986 2.556a145.967 145.967 0 00-2.74-3.975l3.602-2.366.666-.438c.992 1.315 1.895 2.689 2.769 4.018zm-3.718-4.98c-1.378.906-2.756 1.811-4.119 2.643-.802-1.123-1.619-2.172-2.465-3.266-2.961-3.828-6.305-7.85-10.292-10.624.282-.248.52-.468.831-.672 4.56 1.127 8.302 3.237 11.68 6.537 1.698 1.614 3.172 3.373 4.543 5.265l-.178.117zM37.37 28.169c-.624.6-1.277 1.156-1.96 1.668-.755.496-1.437 1.008-2.164 1.55-.785.451-1.525.875-2.28 1.371a21 21 0 01-2.31 1.137c.316-.779.706-1.543 1.256-2.158.655-.747 1.412-1.435 2.17-2.123.96-.378 1.892-.8 2.809-1.15.812-.216 1.668-.27 2.479-.295zm-6.831 6.265c.993 4.805 3.374 9.396 5.669 13.662a102.442 102.442 0 001.99 3.514c-1.288.848-2.578 1.695-3.867 2.542l-.4.263c-1.119-1.993-2.178-4.09-3.001-6.213-1.645-4.44-2.142-8.683-1.367-13.316.369-.116.665-.247.976-.452zm4.076 21.118c1.422-.935 2.874-1.825 4.296-2.76.859 1.403 1.688 2.762 2.591 4.135l-3.734 2.455-.534.35c-.902-1.374-1.805-2.748-2.62-4.18zm12.939 29.762c-1.631-2.482-3.189-4.949-4.82-7.43-3.072-4.772-6.188-9.513-9.23-14.24 1.022-.672 2.118-1.33 3.14-2.001l.117.177 9.714 14.684c1.601 2.438 3.232 4.92 4.879 7.327.699 1.064 1.398 2.128 2.141 3.162l-3.067 2.016-.267.175c-.889-1.256-1.807-2.556-2.607-3.87zm3.188 4.948c1.111-.73 2.296-1.446 3.408-2.176.437.665.873 1.33 1.444 1.906l-3.735 2.454c-.303-.752-.725-1.49-1.117-2.184zm4.608-2.965c.044-.03.044-.03.089-.058 1.334-.877 2.696-1.71 4.03-2.586.437.665.844 1.286 1.326 1.921l-2.8 1.84-1.468.965c-.303-.753-.74-1.417-1.177-2.082zm5.141-3.316c1.556-1.022 3.112-2.045 4.742-3.052.437.665.918 1.3 1.355 1.965l-.222.146a61.987 61.987 0 00-2.652 1.68l-1.956 1.285c-.467-.71-.83-1.359-1.267-2.023zm5.675-3.666l4.624-3.038c.407.62.815 1.24 1.267 1.832l-1.956 1.286c-.889.584-1.704 1.183-2.594 1.768l-.133.087c-.378-.576-.77-1.27-1.208-1.935zm5.602-3.68l3.378-2.221.756-.497c.407.62.815 1.241 1.356 1.774l-1.467.964-2.8 1.84c-.423-.546-.787-1.196-1.224-1.86zm5.319-3.433l2.845-1.87.533-.35c.453.59.905 1.182 1.446 1.715l-3.734 2.454c-.275-.708-.683-1.329-1.09-1.949zm4.49-2.95c.933-.614 1.911-1.257 2.787-1.96.423.548.816 1.05 1.24 1.597.087.133.19.193.308.178L82.666 72.2c-.363-.65-.682-1.328-1.09-1.949zM45.434 27.944c2.505.13 4.918.703 7.225 1.598 3.762 1.462 6.764 3.803 9.395 6.644-.83.481-1.6 1.051-2.445 1.607-2.35-2.898-5.042-5.444-8.284-7.375-2.025-1.144-4.36-2.083-6.82-2.435.28-.057.59-.07.93-.039zm5.997 3.991c2.758 1.678 5.039 3.986 7.082 6.514a80.402 80.402 0 00-3.008 1.913c-1.706-2.305-3.59-4.494-5.771-6.36-2.693-2.355-6.259-4.39-9.88-5.056 4.13-.303 7.94.747 11.577 2.99zM21.481 16.97c-.185-.766-.03-1.693.652-2.205l.133-.087.134-.088c.71-.467 1.652-.197 2.282.277.66.519.8 1.314.632 2.123-.108.515-.523.851-.704 1.351-.486-.061-.96.186-1.52.11-.72-.225-1.394-.67-1.609-1.48zm5.635 10.512c-2.42-1.456-.734-4.023-.893-6.203-.028-.236-.04-.545-.142-.796.235.163.47.327.675.445 1.893 1.04 4.963.482 5.339 3.282.224 1.502.346 2.754 1.8 3.513.073.015.102.059.176.074a7.47 7.47 0 00-2.223 1.46 7.47 7.47 0 00-2.223 1.462c.016-.074-.013-.118.002-.192-.09-1.59-1.22-2.244-2.51-3.045zm1.27 9.001c-.825 3.588-.327 7.64.721 11.075.848 2.743 2.125 5.267 3.52 7.777l-2.979 1.957c-1.48-2.834-2.695-5.843-3.185-9.011-.541-4.214.006-8.127 1.922-11.798zm-4.49 11.961c.094-2.473.497-4.959 1.4-7.265.135-.28.197-.574.332-.853-.61 2.367-.718 4.914-.471 7.227.457 3.697 1.726 7.178 3.424 10.44-.8.526-1.645 1.081-2.416 1.652-1.49-3.527-2.403-7.241-2.268-11.2zm5.266 10.627c.581 1.078 1.236 2.17 1.861 3.22l.699 1.063c-.889.584-1.778 1.168-2.535 1.857-.364-.65-.742-1.226-1.106-1.876a31.177 31.177 0 01-1.451-2.79c.887-.393 1.732-.948 2.532-1.474zm18.655 35.65c-.392-.694-.755-1.343-1.148-2.037 1.05-.436 1.984-1.05 2.917-1.664.51.68.992 1.316 1.518 1.922l-3.245 2.133c.03-.147.016-.265-.042-.354zm39.914-21.79c-.003.384-.08.751-.127 1.163-2.175 1.05-4.281 2.687-6.282 4.002-2.356 1.548-4.493 3.333-6.746 4.941-.045.03.014.118.058.089 2.399-1.386 4.944-2.551 7.329-4.055 1.852-1.154 3.953-2.218 5.689-3.548.01.5.08 1.09.15 1.487.027.236.1.443.127.678.014.118.057.28.1.442.085.325.216.62.361.841.26.59.448 1.166.06 1.738-.64.865-2.105 1.447-2.994 2.03-1.022.673-2.074 1.3-3.096 1.972-2.03 1.27-3.957 2.6-5.928 3.96l-2.134 1.402-1.778 1.169-3.779 2.483c-2.074 1.3-4.074 2.614-6.12 3.958-1.022.672-2.015 1.388-3.037 2.06-.89.585-2.004 1.698-3.052 1.943-.65.173-1.133-.271-1.572-.745a2.478 2.478 0 00-.628-.665c-.132-.104-.235-.163-.366-.267-.235-.163-.44-.282-.572-.386-.337-.222-.806-.549-1.306-.728 1.91-1.065 3.72-2.572 5.514-3.814 2.327-1.593 4.405-3.467 6.63-5.119.044-.029-.014-.118-.059-.088-2.37 1.43-4.856 2.683-7.212 4.232-2 1.315-4.34 2.598-6.165 4.179-.397-.12-.765-.196-1.118-.345-.808-.357-1.32-.846-1.816-1.408L59.02 89.2c1.911-1.256 3.778-2.483 5.66-3.784.801-.525 1.882-1.109 2.757-1.811.963-.57 1.927-1.33 2.756-1.811a291.91 291.91 0 005.72-3.696l11.158-7.333c.452.592.697 1.255.66 2.168z" fill-opacity=".6" stroke="#7BC8FC" stroke-width=".8" mask="url(#a)"/></g><defs><clipPath id="clip0_1_1213"><path fill="#fff" transform="rotate(-33.313 45.675 11.979)" d="M0 0h49.259v94.235H0z"/></clipPath></defs></svg>