<?xml version="1.0" encoding="UTF-8"?>
<svg xmlns="http://www.w3.org/2000/svg" xmlns:xlink="http://www.w3.org/1999/xlink" width="0" height="0">
<symbol id="youtube" viewBox="0 0 16 16" fill="none">
<g clip-path="url(#clip0_1_26)">
<path d="M8.051 1.99902H8.14C8.962 2.00202 13.127 2.03202 14.25 2.33402C14.5895 2.42619 14.8989 2.60585 15.1472 2.85503C15.3955 3.10422 15.574 3.41421 15.665 3.75402C15.766 4.13402 15.837 4.63702 15.885 5.15602L15.895 5.26002L15.917 5.52002L15.925 5.62402C15.99 6.53802 15.998 7.39402 15.999 7.58102V7.65602C15.998 7.85002 15.989 8.76402 15.917 9.71602L15.909 9.82102L15.9 9.92502C15.85 10.497 15.776 11.065 15.665 11.483C15.5743 11.823 15.3958 12.1331 15.1475 12.3823C14.8991 12.6316 14.5896 12.8111 14.25 12.903C13.09 13.215 8.681 13.237 8.07 13.238H7.928C7.619 13.238 6.341 13.232 5.001 13.186L4.831 13.18L4.744 13.176L4.573 13.169L4.402 13.162C3.292 13.113 2.235 13.034 1.748 12.902C1.40849 12.8102 1.09907 12.6308 0.850724 12.3818C0.602384 12.1327 0.423847 11.8228 0.333 11.483C0.222 11.066 0.148 10.497 0.098 9.92502L0.09 9.82002L0.082 9.71602C0.0326476 9.03842 0.00529987 8.3594 0 7.68002L0 7.55702C0.002 7.34202 0.01 6.59902 0.064 5.77902L0.071 5.67602L0.074 5.62402L0.082 5.52002L0.104 5.26002L0.114 5.15602C0.162 4.63702 0.233 4.13302 0.334 3.75402C0.424694 3.41407 0.603162 3.10393 0.851513 2.85471C1.09986 2.60548 1.40937 2.42592 1.749 2.33402C2.236 2.20402 3.293 2.12402 4.403 2.07402L4.573 2.06702L4.745 2.06102L4.831 2.05802L5.002 2.05102C5.95371 2.0204 6.90581 2.0034 7.858 2.00002L8.051 1.99902ZM6.4 5.20902V10.027L10.557 7.61902L6.4 5.20902Z" fill="#FF7D01"/>
</g>
<defs>
<clipPath>
<rect width="16" height="16" fill="white"/>
</clipPath>
</defs>
</symbol>

<symbol id="arrow" viewBox="0 0 12 9">
<path d="M11.8536 4.85355C12.0488 4.65829 12.0488 4.34171 11.8536 4.14645L8.67157 0.964466C8.47631 0.769204 8.15973 0.769204 7.96447 0.964466C7.7692 1.15973 7.7692 1.47631 7.96447 1.67157L10.7929 4.5L7.96447 7.32843C7.7692 7.52369 7.7692 7.84027 7.96447 8.03553C8.15973 8.2308 8.47631 8.2308 8.67157 8.03553L11.8536 4.85355ZM0.5 5H11.5V4H0.5V5Z" fill="blue"/>
</symbol>

<symbol id="facebook" viewBox="0 0 24 24" fill="none">
<path d="M13.6 13.2H15.6L16.4 10H13.6V8.4C13.6 7.576 13.6 6.8 15.2 6.8H16.4V4.112C16.1392 4.0776 15.1544 4 14.1144 4C11.9424 4 10.4 5.3256 10.4 7.76V10H8V13.2H10.4V20H13.6V13.2Z" fill="#FF7D01"/>
</symbol>

<symbol id="glass" viewBox="0 0 22 22" fill="none">
<path fill-rule="evenodd" clip-rule="evenodd" d="M13.7019 15.1607C12.3059 16.1891 10.5729 16.652 8.84998 16.4568C7.1271 16.2615 5.54163 15.4224 4.4112 14.1077C3.28076 12.7929 2.68886 11.0996 2.75407 9.36693C2.81929 7.63425 3.53679 5.99019 4.76285 4.76413C5.98891 3.53808 7.63296 2.82057 9.36565 2.75536C11.0983 2.69014 12.7917 3.28205 14.1064 4.41248C15.4212 5.54291 16.2602 7.12838 16.4555 8.85126C16.6507 10.5741 16.1878 12.3072 15.1594 13.7032L18.9475 17.4899C19.0488 17.5843 19.1301 17.6982 19.1865 17.8247C19.2428 17.9512 19.2731 18.0877 19.2756 18.2262C19.278 18.3647 19.2526 18.5022 19.2007 18.6306C19.1488 18.759 19.0716 18.8757 18.9737 18.9736C18.8758 19.0715 18.7591 19.1487 18.6307 19.2006C18.5023 19.2525 18.3648 19.2779 18.2263 19.2755C18.0878 19.273 17.9513 19.2427 17.8248 19.1864C17.6983 19.13 17.5844 19.0487 17.49 18.9474L13.7019 15.1607ZM14.4375 9.62492C14.4375 10.9013 13.9305 12.1254 13.028 13.0279C12.1254 13.9304 10.9014 14.4374 9.62501 14.4374C8.34866 14.4374 7.12458 13.9304 6.22206 13.0279C5.31954 12.1254 4.81251 10.9013 4.81251 9.62492C4.81251 8.34856 5.31954 7.12449 6.22206 6.22197C7.12458 5.31945 8.34866 4.81242 9.62501 4.81242C10.9014 4.81242 12.1254 5.31945 13.028 6.22197C13.9305 7.12449 14.4375 8.34856 14.4375 9.62492Z" fill="white"/>
</symbol>

<symbol id="heart" viewBox="0 0 20 20" fill="none">
<path d="M18.0273 5.53908C17.7655 4.9329 17.3881 4.38359 16.916 3.92189C16.4436 3.45881 15.8866 3.09082 15.2754 2.8379C14.6416 2.57461 13.9617 2.43984 13.2754 2.44142C12.3125 2.44142 11.373 2.70509 10.5566 3.20314C10.3613 3.32228 10.1758 3.45314 10 3.59572C9.82422 3.45314 9.63867 3.32228 9.44336 3.20314C8.62695 2.70509 7.6875 2.44142 6.72461 2.44142C6.03125 2.44142 5.35937 2.57423 4.72461 2.8379C4.11133 3.09181 3.55859 3.45705 3.08398 3.92189C2.61132 4.38306 2.23375 4.93251 1.97266 5.53908C1.70117 6.16994 1.5625 6.83986 1.5625 7.52931C1.5625 8.1797 1.69531 8.85744 1.95898 9.54689C2.17969 10.1231 2.49609 10.7207 2.90039 11.3242C3.54102 12.2793 4.42187 13.2754 5.51562 14.2852C7.32812 15.959 9.12305 17.1152 9.19922 17.1621L9.66211 17.459C9.86719 17.5899 10.1309 17.5899 10.3359 17.459L10.7988 17.1621C10.875 17.1133 12.668 15.959 14.4824 14.2852C15.5762 13.2754 16.457 12.2793 17.0977 11.3242C17.502 10.7207 17.8203 10.1231 18.0391 9.54689C18.3027 8.85744 18.4355 8.1797 18.4355 7.52931C18.4375 6.83986 18.2988 6.16994 18.0273 5.53908ZM10 15.9141C10 15.9141 3.04687 11.459 3.04687 7.52931C3.04687 5.53908 4.69336 3.92579 6.72461 3.92579C8.15234 3.92579 9.39062 4.72267 10 5.88673C10.6094 4.72267 11.8477 3.92579 13.2754 3.92579C15.3066 3.92579 16.9531 5.53908 16.9531 7.52931C16.9531 11.459 10 15.9141 10 15.9141Z" fill="#1D1D1D"/>
<path d="M13.2754 3.92578C11.8477 3.92578 10.6094 4.72266 10 5.88672C9.39062 4.72266 8.15234 3.92578 6.72461 3.92578C4.69336 3.92578 3.04688 5.53906 3.04688 7.5293C3.04688 11.459 10 15.9141 10 15.9141C10 15.9141 16.9531 11.459 16.9531 7.5293C16.9531 5.53906 15.3066 3.92578 13.2754 3.92578Z" fill="#535353" fill-opacity="0.2"/>
</symbol>

<symbol id="instagram" viewBox="0 0 24 24" fill="none">
<path d="M12.2714 4.00092C12.8187 3.99882 13.366 4.00432 13.9132 4.01742L14.0587 4.02267C14.2267 4.02867 14.3924 4.03617 14.5927 4.04517C15.3907 4.08267 15.9352 4.20867 16.4129 4.39392C16.9079 4.58442 17.3249 4.84242 17.7419 5.25942C18.1232 5.63413 18.4183 6.08738 18.6067 6.58767C18.7919 7.06542 18.9179 7.61067 18.9554 8.40867C18.9644 8.60817 18.9719 8.77467 18.9779 8.94267L18.9824 9.08817C18.9958 9.63507 19.0015 10.1821 18.9997 10.7292L19.0004 11.2887V12.2712C19.0023 12.8185 18.9965 13.3658 18.9832 13.9129L18.9787 14.0584C18.9727 14.2264 18.9652 14.3922 18.9562 14.5924C18.9187 15.3904 18.7912 15.9349 18.6067 16.4127C18.4189 16.9135 18.1238 17.3671 17.7419 17.7417C17.3669 18.1229 16.9134 18.418 16.4129 18.6064C15.9352 18.7917 15.3907 18.9177 14.5927 18.9552C14.3924 18.9642 14.2267 18.9717 14.0587 18.9777L13.9132 18.9822C13.366 18.9955 12.8187 19.0013 12.2714 18.9994L11.7119 19.0002H10.7302C10.1829 19.002 9.63558 18.9963 9.08843 18.9829L8.94293 18.9784C8.76489 18.972 8.58689 18.9645 8.40893 18.9559C7.61093 18.9184 7.06643 18.7909 6.58793 18.6064C6.08745 18.4184 5.63411 18.1233 5.25968 17.7417C4.87797 17.3669 4.5826 16.9133 4.39418 16.4127C4.20893 15.9349 4.08293 15.3904 4.04543 14.5924C4.03708 14.4145 4.02958 14.2365 4.02293 14.0584L4.01918 13.9129C4.00536 13.3658 3.9991 12.8185 4.00043 12.2712V10.7292C3.99834 10.1821 4.00384 9.63507 4.01693 9.08817L4.02218 8.94267C4.02818 8.77467 4.03568 8.60817 4.04468 8.40867C4.08218 7.60992 4.20818 7.06617 4.39343 6.58767C4.58196 6.08714 4.87791 5.63401 5.26043 5.26017C5.6346 4.87824 6.08765 4.5826 6.58793 4.39392C7.06643 4.20867 7.61018 4.08267 8.40893 4.04517L8.94293 4.02267L9.08843 4.01892C9.63532 4.0051 10.1824 3.99885 10.7294 4.00017L12.2714 4.00092ZM11.5004 7.75092C11.0036 7.7439 10.5103 7.83569 10.0492 8.02097C9.58808 8.20626 9.16842 8.48133 8.81457 8.83021C8.46072 9.1791 8.17973 9.59483 7.98795 10.0532C7.79616 10.5117 7.6974 11.0036 7.6974 11.5005C7.6974 11.9975 7.79616 12.4894 7.98795 12.9479C8.17973 13.4063 8.46072 13.822 8.81457 14.1709C9.16842 14.5198 9.58808 14.7948 10.0492 14.9801C10.5103 15.1654 11.0036 15.2572 11.5004 15.2502C12.495 15.2502 13.4488 14.8551 14.1521 14.1518C14.8553 13.4486 15.2504 12.4947 15.2504 11.5002C15.2504 10.5056 14.8553 9.55178 14.1521 8.84852C13.4488 8.14526 12.495 7.75092 11.5004 7.75092ZM11.5004 9.25092C11.7993 9.24542 12.0963 9.29952 12.374 9.41008C12.6518 9.52064 12.9047 9.68543 13.118 9.89483C13.3313 10.1042 13.5008 10.354 13.6165 10.6297C13.7322 10.9053 13.7918 11.2012 13.7919 11.5002C13.7919 11.7991 13.7324 12.095 13.6168 12.3707C13.5012 12.6464 13.3318 12.8963 13.1186 13.1057C12.9053 13.3152 12.6524 13.4801 12.3747 13.5907C12.097 13.7014 11.8001 13.7556 11.5012 13.7502C10.9044 13.7502 10.3321 13.5131 9.91019 13.0912C9.48824 12.6692 9.25118 12.0969 9.25118 11.5002C9.25118 10.9034 9.48824 10.3311 9.91019 9.90918C10.3321 9.48723 10.9044 9.25017 11.5012 9.25017L11.5004 9.25092ZM15.4379 6.62592C15.196 6.63561 14.9672 6.73854 14.7994 6.91315C14.6316 7.08777 14.5379 7.32052 14.5379 7.56267C14.5379 7.80482 14.6316 8.03758 14.7994 8.21219C14.9672 8.38681 15.196 8.48974 15.4379 8.49942C15.6866 8.49942 15.925 8.40065 16.1008 8.22484C16.2767 8.04902 16.3754 7.81056 16.3754 7.56192C16.3754 7.31328 16.2767 7.07483 16.1008 6.89901C15.925 6.7232 15.6866 6.62442 15.4379 6.62442V6.62592Z" fill="#FF7D01"/>
</symbol>

<symbol id="linkedin" viewBox="0 0 16 17" fill="none">
<path d="M3.64795 2.49151C3.64775 2.90896 3.48172 3.30922 3.18639 3.60425C2.89107 3.89928 2.49063 4.06491 2.07319 4.0647C1.65575 4.06449 1.25548 3.89846 0.960451 3.60314C0.66542 3.30781 0.499791 2.90738 0.5 2.48994C0.500209 2.07249 0.666238 1.67223 0.961564 1.3772C1.25689 1.08217 1.65732 0.91654 2.07476 0.916748C2.49221 0.916957 2.89247 1.08299 3.1875 1.37831C3.48253 1.67364 3.64816 2.07407 3.64795 2.49151ZM3.69517 5.23023H0.547219V15.0833H3.69517V5.23023ZM8.66894 5.23023H5.53673V15.0833H8.63746V9.91281C8.63746 7.03244 12.3914 6.76486 12.3914 9.91281V15.0833H15.5V8.84251C15.5 3.98679 9.94386 4.1678 8.63746 6.55237L8.66894 5.23023Z" fill="#FF7D01"/>
</symbol>

<symbol id="phone" viewBox="0 0 19 19" fill="none">
<g clip-path="url(#clip0_1_1637)">
<path d="M17.833 15.1836L15.4161 17.5812C15.0593 17.9471 14.5864 18.071 14.1258 18.0716C12.0891 18.0106 10.1639 17.0101 8.58326 15.9828C5.98866 14.0952 3.60801 11.7547 2.11386 8.92631C1.54081 7.74027 0.868406 6.22697 0.932649 4.90312C0.938378 4.40512 1.07258 3.91637 1.42331 3.59537L3.84025 1.17964C4.34213 0.752737 4.82749 0.900337 5.14866 1.39759L7.09311 5.08477C7.29776 5.52158 7.18036 5.98961 6.87502 6.30174L5.98456 7.19174C5.92959 7.26704 5.89459 7.35275 5.89371 7.44604C6.23516 8.76778 7.26961 9.98603 8.18343 10.8244C9.09725 11.6628 10.0795 12.7987 11.3545 13.0676C11.5121 13.1115 11.7052 13.127 11.8179 13.0222L12.8538 11.9687C13.2109 11.698 13.7264 11.5658 14.1077 11.7871H14.1258L17.6331 13.8577C18.148 14.1804 18.2017 14.8041 17.833 15.1836Z" fill="#FF7D01"/>
</g>
<defs>
<clipPath>
<rect width="17.1429" height="17.1429" fill="white" transform="translate(0.928558 0.928711)"/>
</clipPath>
</defs>
</symbol>

<symbol id="scales" viewBox="0 0 20 20" fill="none">
<path opacity="0.2" d="M4.375 6.875L6.875 13.125C6.875 14.5055 5.3125 15 4.375 15C3.4375 15 1.875 14.5055 1.875 13.125L4.375 6.875ZM15.625 4.375L13.125 10.625C13.125 12.0055 14.6875 12.5 15.625 12.5C16.5625 12.5 18.125 12.0055 18.125 10.625L15.625 4.375Z" fill="#1D1D1D"/>
<path d="M18.7055 10.3906L16.2055 4.14062C16.1504 4.00296 16.0482 3.88934 15.9171 3.82008C15.786 3.75081 15.6346 3.7304 15.4899 3.7625L10.625 4.84375V3.125C10.625 2.95924 10.5592 2.80027 10.442 2.68306C10.3247 2.56585 10.1658 2.5 10 2.5C9.83425 2.5 9.67528 2.56585 9.55807 2.68306C9.44086 2.80027 9.37501 2.95924 9.37501 3.125V5.12344L4.23907 6.26484C4.14005 6.28672 4.04784 6.33236 3.97039 6.39783C3.89295 6.46329 3.83259 6.54662 3.79454 6.64062V6.64531L1.29454 12.8906C1.26464 12.9651 1.24951 13.0447 1.25001 13.125C1.25001 14.9461 3.1672 15.625 4.37501 15.625C5.58282 15.625 7.50001 14.9461 7.50001 13.125C7.50051 13.0447 7.48539 12.9651 7.45548 12.8906L5.22814 7.32578L9.37501 6.40625V16.25H8.12501C7.95925 16.25 7.80028 16.3158 7.68307 16.4331C7.56586 16.5503 7.50001 16.7092 7.50001 16.875C7.50001 17.0408 7.56586 17.1997 7.68307 17.3169C7.80028 17.4342 7.95925 17.5 8.12501 17.5H11.875C12.0408 17.5 12.1997 17.4342 12.317 17.3169C12.4342 17.1997 12.5 17.0408 12.5 16.875C12.5 16.7092 12.4342 16.5503 12.317 16.4331C12.1997 16.3158 12.0408 16.25 11.875 16.25H10.625V6.12656L14.6094 5.24219L12.5445 10.3906C12.5146 10.4651 12.4995 10.5447 12.5 10.625C12.5 12.4461 14.4172 13.125 15.625 13.125C16.8328 13.125 18.75 12.4461 18.75 10.625C18.7505 10.5447 18.7354 10.4651 18.7055 10.3906ZM4.37501 14.375C3.78673 14.375 2.59689 14.093 2.50548 13.2312L4.37501 8.55781L6.24454 13.2312C6.15314 14.093 4.96329 14.375 4.37501 14.375ZM15.625 11.875C15.0367 11.875 13.8469 11.593 13.7555 10.7312L15.625 6.05781L17.4945 10.7312C17.4031 11.593 16.2133 11.875 15.625 11.875Z" fill="#1D1D1D"/>
</symbol>

<symbol id="solar" viewBox="0 0 32 32" fill="none">
<path opacity="0.5" d="M13.364 2.6665C12.7452 2.6665 12.1517 2.91234 11.7141 3.34992C11.2765 3.78751 11.0307 4.381 11.0307 4.99984C11.0307 5.61868 11.2765 6.21217 11.7141 6.64975C12.1517 7.08734 12.7452 7.33317 13.364 7.33317H18.6973C19.3162 7.33317 19.9097 7.08734 20.3473 6.64975C20.7848 6.21217 21.0307 5.61868 21.0307 4.99984C21.0307 4.381 20.7848 3.78751 20.3473 3.34992C19.9097 2.91234 19.3162 2.6665 18.6973 2.6665H13.364ZM5.18268 21.6065C4.03868 17.0305 3.46668 14.7438 4.66668 13.2052C5.86668 11.6665 8.22668 11.6665 12.944 11.6665H19.1173C23.8347 11.6665 26.192 11.6665 27.3933 13.2052C28.5947 14.7425 28.0227 17.0318 26.8787 21.6065C26.1507 24.5172 25.788 25.9718 24.7027 26.8198C23.6173 27.6665 22.1173 27.6665 19.1173 27.6665H12.944C9.94401 27.6665 8.44401 27.6665 7.35868 26.8198C6.27335 25.9718 5.90935 24.5172 5.18268 21.6065Z" fill="#FF7D01"/>
<path d="M20.8053 6.0028C20.9548 5.69048 21.0327 5.3487 21.0331 5.00243C21.0336 4.65617 20.9567 4.31418 20.808 4.00146C21.7187 4.00813 22.4293 4.04947 23.0627 4.29747C23.8203 4.59383 24.4792 5.09748 24.964 5.7508C25.4533 6.40947 25.684 7.25346 26 8.41613L26.0613 8.6428L26.7453 12.5935C26.2 12.2175 25.4973 11.9935 24.588 11.8601L24.108 9.07747C23.728 7.6908 23.5907 7.2548 23.3587 6.9428C23.0976 6.59094 22.7427 6.31971 22.3347 6.16013C22.0413 6.04546 21.688 6.01346 20.8053 6.0028ZM11.2547 4.00146C11.106 4.31418 11.0291 4.65617 11.0295 5.00243C11.03 5.3487 11.1078 5.69048 11.2573 6.0028C10.3747 6.01213 10.0213 6.04546 9.72799 6.16013C9.31994 6.31971 8.96507 6.59094 8.70399 6.9428C8.47199 7.2548 8.33466 7.6908 7.95599 9.07613L7.47466 11.8615C6.56532 11.9948 5.86266 12.2175 5.31732 12.5921L6.00132 8.6428L6.06266 8.41613C6.37866 7.25346 6.60932 6.40946 7.09866 5.74946C7.58381 5.09713 8.24268 4.59443 8.99999 4.2988C9.63332 4.0508 10.344 4.00947 11.2547 4.0028" fill="#FF7D01"/>
</symbol>

<symbol id="twitter" viewBox="0 0 22 22" fill="none">
<g filter="url(#filter0_d_1_23)">
<path d="M17.8087 3.77062C17.2997 3.99575 16.76 4.1436 16.2074 4.20928C16.7894 3.86071 17.2249 3.31244 17.4327 2.66662C16.886 2.99195 16.2867 3.21995 15.6627 3.34328C15.2431 2.89434 14.6869 2.59659 14.0807 2.49634C13.4744 2.39609 12.852 2.49895 12.3102 2.78892C11.7684 3.07889 11.3376 3.53974 11.0848 4.09981C10.8319 4.65989 10.7712 5.2878 10.912 5.88595C9.80331 5.83048 8.71867 5.54244 7.72852 5.04053C6.73836 4.53862 5.86485 3.83406 5.16469 2.97262C4.91688 3.39825 4.78666 3.8821 4.78736 4.37462C4.78736 5.34128 5.28002 6.19528 6.02736 6.69528C5.5847 6.68132 5.15179 6.56178 4.76469 6.34662V6.38062C4.76467 7.02453 4.98738 7.64863 5.39504 8.14707C5.80271 8.6455 6.37023 8.98758 7.00136 9.11528C6.59045 9.22676 6.15955 9.24317 5.74136 9.16328C5.9193 9.71755 6.26616 10.2023 6.73335 10.5496C7.20054 10.8968 7.76466 11.0893 8.34669 11.1C7.76826 11.5543 7.10595 11.8901 6.39763 12.0882C5.68931 12.2863 4.94888 12.3429 4.21869 12.2546C5.49317 13.0742 6.97676 13.5093 8.49202 13.5079C13.6214 13.5079 16.4254 9.25928 16.4254 5.57462C16.4254 5.45462 16.4227 5.33328 16.4174 5.21395C16.963 4.81952 17.4339 4.33099 17.808 3.77128" fill="#FF7D01"/>
</g>
<defs>
<filter x="-1" y="0" filterUnits="userSpaceOnUse" color-interpolation-filters="sRGB">
<feFlood flood-opacity="0" result="BackgroundImageFix"/>
<feColorMatrix in="SourceAlpha" type="matrix" values="0 0 0 0 0 0 0 0 0 0 0 0 0 0 0 0 0 0 127 0" result="hardAlpha"/>
<feOffset dy="4"/>
<feGaussianBlur stdDeviation="2"/>
<feComposite in2="hardAlpha" operator="out"/>
<feColorMatrix type="matrix" values="0 0 0 0 0 0 0 0 0 0 0 0 0 0 0 0 0 0 0.25 0"/>
<feBlend mode="normal" in2="BackgroundImageFix" result="effect1_dropShadow_1_23"/>
<feBlend mode="normal" in="SourceGraphic" in2="effect1_dropShadow_1_23" result="shape"/>
</filter>
</defs>
</symbol>

<symbol id="user" viewBox="0 0 32 32" fill="none">
<path opacity="0.2" d="M23.9999 12C23.9999 13.5823 23.5308 15.129 22.6517 16.4446C21.7726 17.7602 20.5232 18.7855 19.0614 19.391C17.5996 19.9965 15.9911 20.155 14.4392 19.8463C12.8874 19.5376 11.4619 18.7757 10.3431 17.6569C9.22427 16.538 8.46234 15.1126 8.15366 13.5607C7.84498 12.0089 8.00341 10.4003 8.60891 8.93853C9.21441 7.47672 10.2398 6.22729 11.5554 5.34824C12.871 4.46919 14.4177 4 15.9999 4C18.1217 4 20.1565 4.84285 21.6568 6.34315C23.1571 7.84344 23.9999 9.87827 23.9999 12Z" fill="#FF7D01"/>
<path d="M28.865 26.5C26.9612 23.2087 24.0275 20.8487 20.6037 19.73C22.2973 18.7218 23.613 17.1856 24.349 15.3572C25.0849 13.5289 25.2004 11.5095 24.6775 9.60918C24.1547 7.70887 23.0226 6.03272 21.4549 4.83814C19.8873 3.64355 17.9709 2.99658 16 2.99658C14.0291 2.99658 12.1126 3.64355 10.545 4.83814C8.97737 6.03272 7.84522 7.70887 7.3224 9.60918C6.79958 11.5095 6.91501 13.5289 7.65096 15.3572C8.38691 17.1856 9.70268 18.7218 11.3962 19.73C7.97247 20.8475 5.03872 23.2075 3.13497 26.5C3.06516 26.6138 3.01885 26.7405 2.99878 26.8725C2.97872 27.0045 2.98529 27.1392 3.01813 27.2687C3.05096 27.3981 3.10939 27.5197 3.18996 27.6262C3.27053 27.7326 3.37162 27.8219 3.48725 27.8887C3.60289 27.9555 3.73073 27.9985 3.86323 28.015C3.99574 28.0316 4.13022 28.0215 4.25875 27.9853C4.38728 27.949 4.50725 27.8874 4.61158 27.8041C4.71592 27.7207 4.8025 27.6173 4.86622 27.5C7.22122 23.43 11.3837 21 16 21C20.6162 21 24.7787 23.43 27.1337 27.5C27.1974 27.6173 27.284 27.7207 27.3884 27.8041C27.4927 27.8874 27.6127 27.949 27.7412 27.9853C27.8697 28.0215 28.0042 28.0316 28.1367 28.015C28.2692 27.9985 28.3971 27.9555 28.5127 27.8887C28.6283 27.8219 28.7294 27.7326 28.81 27.6262C28.8906 27.5197 28.949 27.3981 28.9818 27.2687C29.0147 27.1392 29.0212 27.0045 29.0012 26.8725C28.9811 26.7405 28.9348 26.6138 28.865 26.5ZM8.99997 12C8.99997 10.6155 9.41051 9.26214 10.1797 8.11099C10.9489 6.95985 12.0421 6.06264 13.3212 5.53283C14.6003 5.00301 16.0077 4.86439 17.3656 5.13449C18.7235 5.40458 19.9708 6.07127 20.9497 7.05023C21.9287 8.0292 22.5954 9.27648 22.8655 10.6344C23.1356 11.9922 22.9969 13.3997 22.4671 14.6788C21.9373 15.9578 21.0401 17.0511 19.889 17.8203C18.7378 18.5894 17.3844 19 16 19C14.1441 18.998 12.3647 18.2599 11.0524 16.9475C9.74009 15.6352 9.00196 13.8559 8.99997 12Z" fill="#FF7D01"/>
</symbol>

</svg>
