<svg width="22" height="22" viewBox="0 0 22 22" fill="none" xmlns="http://www.w3.org/2000/svg">
<path fill-rule="evenodd" clip-rule="evenodd" d="M13.7019 15.1607C12.3059 16.1891 10.5729 16.652 8.84998 16.4568C7.1271 16.2615 5.54163 15.4224 4.4112 14.1077C3.28076 12.7929 2.68886 11.0996 2.75407 9.36693C2.81929 7.63425 3.53679 5.99019 4.76285 4.76413C5.98891 3.53808 7.63296 2.82057 9.36565 2.75536C11.0983 2.69014 12.7917 3.28205 14.1064 4.41248C15.4212 5.54291 16.2602 7.12838 16.4555 8.85126C16.6507 10.5741 16.1878 12.3072 15.1594 13.7032L18.9475 17.4899C19.0488 17.5843 19.1301 17.6982 19.1865 17.8247C19.2428 17.9512 19.2731 18.0877 19.2756 18.2262C19.278 18.3647 19.2526 18.5022 19.2007 18.6306C19.1488 18.759 19.0716 18.8757 18.9737 18.9736C18.8758 19.0715 18.7591 19.1487 18.6307 19.2006C18.5023 19.2525 18.3648 19.2779 18.2263 19.2755C18.0878 19.273 17.9513 19.2427 17.8248 19.1864C17.6983 19.13 17.5844 19.0487 17.49 18.9474L13.7019 15.1607ZM14.4375 9.62492C14.4375 10.9013 13.9305 12.1254 13.028 13.0279C12.1254 13.9304 10.9014 14.4374 9.62501 14.4374C8.34866 14.4374 7.12458 13.9304 6.22206 13.0279C5.31954 12.1254 4.81251 10.9013 4.81251 9.62492C4.81251 8.34856 5.31954 7.12449 6.22206 6.22197C7.12458 5.31945 8.34866 4.81242 9.62501 4.81242C10.9014 4.81242 12.1254 5.31945 13.028 6.22197C13.9305 7.12449 14.4375 8.34856 14.4375 9.62492Z" fill="white"/>
</svg>
