<svg width="25" height="16" viewBox="0 0 25 16" fill="none" xmlns="http://www.w3.org/2000/svg">
<path d="M23.1667 15.9H1.83333C1.15523 15.9 0.6 15.3448 0.6 14.6667C0.6 13.9886 1.15523 13.4333 1.83333 13.4333H23.1667C23.8448 13.4333 24.4 13.9886 24.4 14.6667C24.4 15.3448 23.8448 15.9 23.1667 15.9ZM23.1667 9.23333H1.83333C1.15523 9.23333 0.6 8.67811 0.6 8C0.6 7.3219 1.15523 6.76667 1.83333 6.76667H23.1667C23.8448 6.76667 24.4 7.3219 24.4 8C24.4 8.67811 23.8448 9.23333 23.1667 9.23333ZM1.83333 2.56667C1.15523 2.56667 0.6 2.01144 0.6 1.33333C0.6 0.655228 1.15523 0.1 1.83333 0.1H23.1667C23.8448 0.1 24.4 0.655228 24.4 1.33333C24.4 2.01144 23.8448 2.56667 23.1667 2.56667H1.83333Z" fill="#1B1B1B" stroke="#EEEEEE" stroke-width="0.2"/>
</svg>
