<svg width="24" height="24" viewBox="0 0 24 24" fill="none" xmlns="http://www.w3.org/2000/svg">
<path d="M12.2714 4.00092C12.8187 3.99882 13.366 4.00432 13.9132 4.01742L14.0587 4.02267C14.2267 4.02867 14.3924 4.03617 14.5927 4.04517C15.3907 4.08267 15.9352 4.20867 16.4129 4.39392C16.9079 4.58442 17.3249 4.84242 17.7419 5.25942C18.1232 5.63413 18.4183 6.08738 18.6067 6.58767C18.7919 7.06542 18.9179 7.61067 18.9554 8.40867C18.9644 8.60817 18.9719 8.77467 18.9779 8.94267L18.9824 9.08817C18.9958 9.63507 19.0015 10.1821 18.9997 10.7292L19.0004 11.2887V12.2712C19.0023 12.8185 18.9965 13.3658 18.9832 13.9129L18.9787 14.0584C18.9727 14.2264 18.9652 14.3922 18.9562 14.5924C18.9187 15.3904 18.7912 15.9349 18.6067 16.4127C18.4189 16.9135 18.1238 17.3671 17.7419 17.7417C17.3669 18.1229 16.9134 18.418 16.4129 18.6064C15.9352 18.7917 15.3907 18.9177 14.5927 18.9552C14.3924 18.9642 14.2267 18.9717 14.0587 18.9777L13.9132 18.9822C13.366 18.9955 12.8187 19.0013 12.2714 18.9994L11.7119 19.0002H10.7302C10.1829 19.002 9.63558 18.9963 9.08843 18.9829L8.94293 18.9784C8.76489 18.972 8.58689 18.9645 8.40893 18.9559C7.61093 18.9184 7.06643 18.7909 6.58793 18.6064C6.08745 18.4184 5.63411 18.1233 5.25968 17.7417C4.87797 17.3669 4.5826 16.9133 4.39418 16.4127C4.20893 15.9349 4.08293 15.3904 4.04543 14.5924C4.03708 14.4145 4.02958 14.2365 4.02293 14.0584L4.01918 13.9129C4.00536 13.3658 3.9991 12.8185 4.00043 12.2712V10.7292C3.99834 10.1821 4.00384 9.63507 4.01693 9.08817L4.02218 8.94267C4.02818 8.77467 4.03568 8.60817 4.04468 8.40867C4.08218 7.60992 4.20818 7.06617 4.39343 6.58767C4.58196 6.08714 4.87791 5.63401 5.26043 5.26017C5.6346 4.87824 6.08765 4.5826 6.58793 4.39392C7.06643 4.20867 7.61018 4.08267 8.40893 4.04517L8.94293 4.02267L9.08843 4.01892C9.63532 4.0051 10.1824 3.99885 10.7294 4.00017L12.2714 4.00092ZM11.5004 7.75092C11.0036 7.7439 10.5103 7.83569 10.0492 8.02097C9.58808 8.20626 9.16842 8.48133 8.81457 8.83021C8.46072 9.1791 8.17973 9.59483 7.98795 10.0532C7.79616 10.5117 7.6974 11.0036 7.6974 11.5005C7.6974 11.9975 7.79616 12.4894 7.98795 12.9479C8.17973 13.4063 8.46072 13.822 8.81457 14.1709C9.16842 14.5198 9.58808 14.7948 10.0492 14.9801C10.5103 15.1654 11.0036 15.2572 11.5004 15.2502C12.495 15.2502 13.4488 14.8551 14.1521 14.1518C14.8553 13.4486 15.2504 12.4947 15.2504 11.5002C15.2504 10.5056 14.8553 9.55178 14.1521 8.84852C13.4488 8.14526 12.495 7.75092 11.5004 7.75092ZM11.5004 9.25092C11.7993 9.24542 12.0963 9.29952 12.374 9.41008C12.6518 9.52064 12.9047 9.68543 13.118 9.89483C13.3313 10.1042 13.5008 10.354 13.6165 10.6297C13.7322 10.9053 13.7918 11.2012 13.7919 11.5002C13.7919 11.7991 13.7324 12.095 13.6168 12.3707C13.5012 12.6464 13.3318 12.8963 13.1186 13.1057C12.9053 13.3152 12.6524 13.4801 12.3747 13.5907C12.097 13.7014 11.8001 13.7556 11.5012 13.7502C10.9044 13.7502 10.3321 13.5131 9.91019 13.0912C9.48824 12.6692 9.25118 12.0969 9.25118 11.5002C9.25118 10.9034 9.48824 10.3311 9.91019 9.90918C10.3321 9.48723 10.9044 9.25017 11.5012 9.25017L11.5004 9.25092ZM15.4379 6.62592C15.196 6.63561 14.9672 6.73854 14.7994 6.91315C14.6316 7.08777 14.5379 7.32052 14.5379 7.56267C14.5379 7.80482 14.6316 8.03758 14.7994 8.21219C14.9672 8.38681 15.196 8.48974 15.4379 8.49942C15.6866 8.49942 15.925 8.40065 16.1008 8.22484C16.2767 8.04902 16.3754 7.81056 16.3754 7.56192C16.3754 7.31328 16.2767 7.07483 16.1008 6.89901C15.925 6.7232 15.6866 6.62442 15.4379 6.62442V6.62592Z" fill="#FF7D01"/>
</svg>
