<svg width="32.000000" height="32.000000" viewBox="0 0 32 32" fill="none" xmlns="http://www.w3.org/2000/svg" xmlns:xlink="http://www.w3.org/1999/xlink">
	<defs>
		<clipPath id="clip1_3648">
			<rect id="material-symbols:call-outline" width="32.000000" height="32.000000" fill="white" fill-opacity="0"/>
		</clipPath>
	</defs>
	<rect id="material-symbols:call-outline" width="32.000000" height="32.000000" fill="#FFFFFF" fill-opacity="0"/>
	<g clip-path="url(#clip1_3648)">
		<path id="Vector 1" d="M5.5 6L11 6L11.5 9.5L8.5 13.5L6 10.5L5.5 6Z" fill="#BBBBBB" fill-opacity="1.000000" fill-rule="evenodd"/>
		<path id="Vector 2" d="M18 24L22 20.5L27 21.5L26.5 27L21.5 26L18 24Z" fill="#BBBBBB" fill-opacity="1.000000" fill-rule="evenodd"/>
		<path id="Vector" d="M26.6 28C23.73 28 20.93 27.36 18.21 26.08C15.49 24.8 13.08 23.11 10.98 21.01C8.88 18.91 7.19 16.5 5.91 13.78C4.64 11.06 4 8.26 4 5.39C4 5 4.13 4.66 4.4 4.39C4.66 4.13 5 4 5.4 4L10.8 4C11.11 4 11.38 4.1 11.63 4.29C11.87 4.5 12.02 4.75 12.06 5.06L12.93 9.73C12.97 10.04 12.97 10.32 12.91 10.58C12.86 10.83 12.73 11.06 12.53 11.26L9.3 14.53C10.23 16.13 11.4 17.63 12.81 19.03C14.22 20.43 15.77 21.64 17.46 22.66L20.6 19.53C20.8 19.33 21.06 19.18 21.38 19.08C21.7 18.98 22.02 18.95 22.33 19L26.93 19.93C27.24 20 27.5 20.15 27.7 20.38C27.9 20.61 28 20.88 28 21.2L28 26.6C28 27 27.86 27.33 27.6 27.6C27.33 27.86 27 28 26.6 28ZM8.03 12L10.23 9.79L9.66 6.66L6.69 6.66C6.81 7.57 6.96 8.47 7.16 9.36C7.36 10.25 7.65 11.13 8.03 12ZM19.96 23.93C20.83 24.31 21.71 24.61 22.61 24.83C23.51 25.05 24.42 25.2 25.33 25.26L25.33 22.33L22.2 21.7L19.96 23.93Z" fill="#1B1B1B" fill-opacity="1.000000" fill-rule="nonzero"/>
		<path id="Vector" d="M12.06 5.06C12.02 4.75 11.87 4.5 11.63 4.29C11.38 4.1 11.11 4 10.8 4L5.4 4Q5.04 4 4.75 4.14Q4.56 4.24 4.4 4.39Q4.23 4.56 4.14 4.75Q4 5.04 4 5.39Q4 6.46 4.11 7.51Q4.47 10.71 5.91 13.78Q7.07 16.25 8.68 18.38Q9.74 19.77 10.98 21.01Q12.22 22.26 13.62 23.31Q15.74 24.92 18.21 26.08Q21.27 27.51 24.45 27.87L24.45 27.87Q25.52 28 26.6 28C27 28 27.33 27.86 27.6 27.6C27.86 27.33 28 27 28 26.6L28 21.2C28 20.88 27.9 20.61 27.7 20.38C27.5 20.15 27.24 20 26.93 19.93L22.33 19C22.02 18.95 21.7 18.98 21.38 19.08C21.06 19.18 20.8 19.33 20.6 19.53L17.46 22.66Q16.53 22.1 15.66 21.46Q14.15 20.36 12.81 19.03Q10.7 16.93 9.3 14.53L12.53 11.26C12.73 11.06 12.86 10.83 12.91 10.58C12.97 10.32 12.97 10.04 12.93 9.73L12.06 5.06ZM12.63 9.78Q12.69 10.19 12.62 10.52Q12.6 10.58 12.58 10.64Q12.5 10.86 12.32 11.05L8.92 14.48L9.04 14.68Q10.46 17.11 12.6 19.24Q13.95 20.58 15.47 21.7Q16.36 22.35 17.31 22.92L17.51 23.04L20.81 19.74Q21.05 19.49 21.47 19.36Q21.86 19.24 22.23 19.28Q22.25 19.29 22.28 19.29L26.87 20.22Q27.08 20.27 27.25 20.38Q27.37 20.46 27.47 20.57Q27.58 20.7 27.63 20.85Q27.7 21.01 27.7 21.2L27.7 26.6Q27.7 26.89 27.57 27.13Q27.5 27.27 27.38 27.38Q27.27 27.5 27.13 27.57Q26.89 27.7 26.6 27.7Q25.55 27.7 24.51 27.58Q21.37 27.23 18.34 25.81Q15.9 24.66 13.79 23.06Q12.42 22.03 11.19 20.8Q9.97 19.57 8.93 18.21Q7.33 16.1 6.18 13.65Q4.76 10.61 4.41 7.45Q4.3 6.43 4.3 5.39Q4.3 5.1 4.42 4.86Q4.49 4.72 4.61 4.61Q4.72 4.49 4.86 4.42Q5.1 4.29 5.4 4.29L10.8 4.29Q10.96 4.29 11.11 4.34Q11.28 4.4 11.44 4.53Q11.58 4.64 11.66 4.79Q11.74 4.93 11.76 5.1L11.77 5.11L12.63 9.78ZM7.93 12.52L10.55 9.9L10.52 9.74L9.91 6.36L6.36 6.36L6.4 6.7Q6.57 8.08 6.87 9.43Q7.18 10.79 7.75 12.12L7.93 12.52ZM10.23 9.79L8.03 12Q7.96 11.85 7.9 11.7Q7.43 10.54 7.16 9.36Q6.89 8.17 6.73 6.96Q6.71 6.81 6.69 6.66L9.66 6.66L10.23 9.79ZM19.84 24.2Q21.17 24.78 22.54 25.12Q23.92 25.46 25.31 25.56L25.63 25.58L25.63 22.08L22.1 21.37L19.44 24.03L19.84 24.2ZM25.03 25.24C24.22 25.16 23.41 25.03 22.61 24.83C21.81 24.63 21.03 24.37 20.26 24.05C20.16 24.01 20.06 23.97 19.96 23.93L22.2 21.7L25.33 22.33L25.33 25.26C25.23 25.25 25.13 25.25 25.03 25.24Z" fill="#FFFFFF" fill-opacity="1.000000" fill-rule="evenodd"/>
	</g>
</svg>
