<svg width="33" height="32" viewBox="0 0 33 32" fill="none" xmlns="http://www.w3.org/2000/svg">
<path d="M11.5 6H6L6.5 10.5L9 13.5L12 9.5L11.5 6Z" fill="#BBBBBB"/>
<path d="M22.5 20.5L18.5 24L22 26L27 27L27.5 21.5L22.5 20.5Z" fill="#BBBBBB"/>
<path d="M12.418 5.0879L12.4182 5.08788C12.3791 4.81419 12.2539 4.59242 12.0383 4.41609C11.8203 4.23766 11.5759 4.15 11.3 4.15H5.9C5.5371 4.15 5.24276 4.26937 5.00607 4.50607C4.76938 4.74275 4.65001 5.03708 4.65 5.39995L12.418 5.0879ZM12.418 5.0879L12.4192 5.09406M12.418 5.0879L12.4192 5.09406M12.4192 5.09406L13.2853 9.75759C13.3272 10.0532 13.3208 10.3173 13.2695 10.5519C13.2201 10.7778 13.1077 10.9802 12.9273 11.1606L12.9267 11.1611M12.4192 5.09406L12.9267 11.1611M12.9267 11.1611L9.69339 14.4278L9.61248 14.5096M12.9267 11.1611L9.61248 14.5096M9.61248 14.5096L9.67043 14.6089M9.61248 14.5096L9.67043 14.6089M9.67043 14.6089C10.6108 16.221 11.7915 17.7313 13.2117 19.1398C14.6316 20.5481 16.1908 21.7666 17.889 22.795L17.9896 22.8559M9.67043 14.6089L17.9896 22.8559M17.9896 22.8559L18.0727 22.7727M17.9896 22.8559L18.0727 22.7727M18.0727 22.7727L21.2061 19.6394C21.3858 19.4596 21.6246 19.3205 21.9286 19.2259C22.2301 19.132 22.5226 19.1068 22.8076 19.1478L27.4019 20.08C27.4022 20.0801 27.4024 20.0801 27.4027 20.0802C27.6824 20.1403 27.9083 20.2738 28.086 20.4815C28.2626 20.6879 28.35 20.9252 28.35 21.2V26.6C28.35 26.9629 28.2306 27.2572 27.9939 27.4939C27.7572 27.7306 27.4629 27.85 27.1 27.85C24.2565 27.85 21.4839 27.2162 18.7811 25.9469M18.0727 22.7727L18.7811 25.9469M18.7811 25.9469C16.0748 24.676 13.6781 22.997 11.59 20.9099M18.7811 25.9469L11.59 20.9099M11.59 20.9099C9.50206 18.8228 7.82317 16.4261 6.55313 13.719M11.59 20.9099L6.55313 13.719M6.55313 13.719C5.28468 11.0152 4.65089 8.24267 4.65 5.4L6.55313 13.719ZM8.39583 12.0599L8.48377 12.2617L8.6394 12.1061L10.8394 9.90607L10.8949 9.85056L10.8809 9.77331L10.3143 6.63997L10.292 6.51667H10.1667H7.2H7.0306L7.0511 6.68482C7.16282 7.60086 7.31922 8.50579 7.52033 9.39959C7.72249 10.2981 8.0144 11.1849 8.39583 12.0599ZM20.3606 23.8273L20.205 23.9829L20.4067 24.0708C21.281 24.4519 22.1726 24.7547 23.0814 24.979C23.9899 25.2032 24.9036 25.349 25.8224 25.4163L25.9833 25.4281V25.2667V22.3333V22.2106L25.8631 22.1863L22.7297 21.553L22.6508 21.537L22.5939 21.5939L20.3606 23.8273Z" fill="#1B1B1B" stroke="white" stroke-width="0.3"/>
</svg>
