<svg width="33" height="32" viewBox="0 0 33 32" fill="none" xmlns="http://www.w3.org/2000/svg">
<path opacity="0.1" d="M24.5 12C24.5 13.5823 24.0308 15.129 23.1518 16.4446C22.2727 17.7602 21.0233 18.7855 19.5615 19.391C18.0997 19.9965 16.4911 20.155 14.9393 19.8463C13.3874 19.5376 11.962 18.7757 10.8431 17.6569C9.72433 16.538 8.9624 15.1126 8.65372 13.5607C8.34504 12.0089 8.50347 10.4003 9.10897 8.93853C9.71447 7.47672 10.7398 6.22729 12.0554 5.34824C13.371 4.46919 14.9178 4 16.5 4C18.6217 4 20.6566 4.84285 22.1569 6.34315C23.6571 7.84344 24.5 9.87827 24.5 12Z" fill="#BBBBBB"/>
<path d="M29.365 26.5C27.4612 23.2087 24.5275 20.8487 21.1037 19.73C22.7973 18.7218 24.113 17.1856 24.849 15.3572C25.5849 13.5289 25.7004 11.5095 25.1775 9.60918C24.6547 7.70887 23.5226 6.03272 21.9549 4.83814C20.3873 3.64355 18.4709 2.99658 16.5 2.99658C14.5291 2.99658 12.6126 3.64355 11.045 4.83814C9.47737 6.03272 8.34522 7.70887 7.8224 9.60918C7.29958 11.5095 7.41501 13.5289 8.15096 15.3572C8.88691 17.1856 10.2027 18.7218 11.8962 19.73C8.47247 20.8475 5.53872 23.2075 3.63497 26.5C3.56516 26.6138 3.51885 26.7405 3.49878 26.8725C3.47872 27.0045 3.48529 27.1392 3.51813 27.2687C3.55096 27.3981 3.60939 27.5197 3.68996 27.6262C3.77053 27.7326 3.87162 27.8219 3.98725 27.8887C4.10289 27.9555 4.23073 27.9985 4.36323 28.015C4.49574 28.0316 4.63022 28.0215 4.75875 27.9853C4.88728 27.949 5.00725 27.8874 5.11158 27.8041C5.21592 27.7207 5.3025 27.6173 5.36622 27.5C7.72122 23.43 11.8837 21 16.5 21C21.1162 21 25.2787 23.43 27.6337 27.5C27.6974 27.6173 27.784 27.7207 27.8884 27.8041C27.9927 27.8874 28.1127 27.949 28.2412 27.9853C28.3697 28.0215 28.5042 28.0316 28.6367 28.015C28.7692 27.9985 28.8971 27.9555 29.0127 27.8887C29.1283 27.8219 29.2294 27.7326 29.31 27.6262C29.3906 27.5197 29.449 27.3981 29.4818 27.2687C29.5147 27.1392 29.5212 27.0045 29.5012 26.8725C29.4811 26.7405 29.4348 26.6138 29.365 26.5ZM9.49997 12C9.49997 10.6155 9.91051 9.26214 10.6797 8.11099C11.4489 6.95985 12.5421 6.06264 13.8212 5.53283C15.1003 5.00301 16.5077 4.86439 17.8656 5.13449C19.2235 5.40458 20.4708 6.07127 21.4497 7.05023C22.4287 8.0292 23.0954 9.27648 23.3655 10.6344C23.6356 11.9922 23.4969 13.3997 22.9671 14.6788C22.4373 15.9578 21.5401 17.0511 20.389 17.8203C19.2378 18.5894 17.8844 19 16.5 19C14.6441 18.998 12.8647 18.2599 11.5524 16.9475C10.2401 15.6352 9.50196 13.8559 9.49997 12Z" fill="#1B1B1B"/>
</svg>
