<svg width="33" height="32" viewBox="0 0 33 32" fill="none" xmlns="http://www.w3.org/2000/svg">
<path opacity="0.3" d="M13.864 2.6665C13.2451 2.6665 12.6516 2.91234 12.214 3.34992C11.7765 3.78751 11.5306 4.381 11.5306 4.99984C11.5306 5.61868 11.7765 6.21217 12.214 6.64975C12.6516 7.08734 13.2451 7.33317 13.864 7.33317H19.1973C19.8161 7.33317 20.4096 7.08734 20.8472 6.64975C21.2848 6.21217 21.5306 5.61868 21.5306 4.99984C21.5306 4.381 21.2848 3.78751 20.8472 3.34992C20.4096 2.91234 19.8161 2.6665 19.1973 2.6665H13.864ZM5.68262 21.6065C4.53862 17.0305 3.96662 14.7438 5.16662 13.2052C6.36662 11.6665 8.72662 11.6665 13.444 11.6665H19.6173C24.3346 11.6665 26.692 11.6665 27.8933 13.2052C29.0946 14.7425 28.5226 17.0318 27.3786 21.6065C26.6506 24.5172 26.288 25.9718 25.2026 26.8198C24.1173 27.6665 22.6173 27.6665 19.6173 27.6665H13.444C10.444 27.6665 8.94395 27.6665 7.85862 26.8198C6.77329 25.9718 6.40929 24.5172 5.68262 21.6065Z" fill="#1B1B1B"/>
<path d="M21.3054 6.0028C21.4549 5.69048 21.5327 5.3487 21.5332 5.00243C21.5336 4.65617 21.4567 4.31418 21.3081 4.00146C22.2187 4.00813 22.9294 4.04947 23.5627 4.29747C24.3204 4.59383 24.9793 5.09748 25.4641 5.7508C25.9534 6.40947 26.184 7.25346 26.5 8.41613L26.5614 8.6428L27.2454 12.5935C26.7 12.2175 25.9974 11.9935 25.0881 11.8601L24.608 9.07747C24.2281 7.6908 24.0907 7.2548 23.8587 6.9428C23.5976 6.59094 23.2428 6.31971 22.8347 6.16013C22.5414 6.04546 22.188 6.01346 21.3054 6.0028ZM11.7547 4.00146C11.606 4.31418 11.5291 4.65617 11.5296 5.00243C11.53 5.3487 11.6079 5.69048 11.7574 6.0028C10.8747 6.01213 10.5214 6.04546 10.228 6.16013C9.82 6.31971 9.46513 6.59094 9.20405 6.9428C8.97205 7.2548 8.83472 7.6908 8.45605 9.07613L7.97472 11.8615C7.06538 11.9948 6.36272 12.2175 5.81738 12.5921L6.50138 8.6428L6.56272 8.41613C6.87872 7.25346 7.10938 6.40946 7.59872 5.74946C8.08387 5.09713 8.74274 4.59443 9.50005 4.2988C10.1334 4.0508 10.844 4.00947 11.7547 4.0028" fill="#1B1B1B"/>
</svg>
