<svg width="19" height="19" viewBox="0 0 19 19" fill="none" xmlns="http://www.w3.org/2000/svg">
<g clip-path="url(#clip0_1_1637)">
<path d="M17.833 15.1836L15.4161 17.5812C15.0593 17.9471 14.5864 18.071 14.1258 18.0716C12.0891 18.0106 10.1639 17.0101 8.58326 15.9828C5.98866 14.0952 3.60801 11.7547 2.11386 8.92631C1.54081 7.74027 0.868406 6.22697 0.932649 4.90312C0.938378 4.40512 1.07258 3.91637 1.42331 3.59537L3.84025 1.17964C4.34213 0.752737 4.82749 0.900337 5.14866 1.39759L7.09311 5.08477C7.29776 5.52158 7.18036 5.98961 6.87502 6.30174L5.98456 7.19174C5.92959 7.26704 5.89459 7.35275 5.89371 7.44604C6.23516 8.76778 7.26961 9.98603 8.18343 10.8244C9.09725 11.6628 10.0795 12.7987 11.3545 13.0676C11.5121 13.1115 11.7052 13.127 11.8179 13.0222L12.8538 11.9687C13.2109 11.698 13.7264 11.5658 14.1077 11.7871H14.1258L17.6331 13.8577C18.148 14.1804 18.2017 14.8041 17.833 15.1836Z" fill="#FF7D01"/>
</g>
<defs>
<clipPath id="clip0_1_1637">
<rect width="17.1429" height="17.1429" fill="white" transform="translate(0.928558 0.928711)"/>
</clipPath>
</defs>
</svg>
