<svg width="20" height="20" viewBox="0 0 20 20" fill="none" xmlns="http://www.w3.org/2000/svg">
<path opacity="0.2" d="M4.375 6.875L6.875 13.125C6.875 14.5055 5.3125 15 4.375 15C3.4375 15 1.875 14.5055 1.875 13.125L4.375 6.875ZM15.625 4.375L13.125 10.625C13.125 12.0055 14.6875 12.5 15.625 12.5C16.5625 12.5 18.125 12.0055 18.125 10.625L15.625 4.375Z" fill="#1D1D1D"/>
<path d="M18.7055 10.3906L16.2055 4.14062C16.1504 4.00296 16.0482 3.88934 15.9171 3.82008C15.786 3.75081 15.6346 3.7304 15.4899 3.7625L10.625 4.84375V3.125C10.625 2.95924 10.5592 2.80027 10.442 2.68306C10.3247 2.56585 10.1658 2.5 10 2.5C9.83425 2.5 9.67528 2.56585 9.55807 2.68306C9.44086 2.80027 9.37501 2.95924 9.37501 3.125V5.12344L4.23907 6.26484C4.14005 6.28672 4.04784 6.33236 3.97039 6.39783C3.89295 6.46329 3.83259 6.54662 3.79454 6.64062V6.64531L1.29454 12.8906C1.26464 12.9651 1.24951 13.0447 1.25001 13.125C1.25001 14.9461 3.1672 15.625 4.37501 15.625C5.58282 15.625 7.50001 14.9461 7.50001 13.125C7.50051 13.0447 7.48539 12.9651 7.45548 12.8906L5.22814 7.32578L9.37501 6.40625V16.25H8.12501C7.95925 16.25 7.80028 16.3158 7.68307 16.4331C7.56586 16.5503 7.50001 16.7092 7.50001 16.875C7.50001 17.0408 7.56586 17.1997 7.68307 17.3169C7.80028 17.4342 7.95925 17.5 8.12501 17.5H11.875C12.0408 17.5 12.1997 17.4342 12.317 17.3169C12.4342 17.1997 12.5 17.0408 12.5 16.875C12.5 16.7092 12.4342 16.5503 12.317 16.4331C12.1997 16.3158 12.0408 16.25 11.875 16.25H10.625V6.12656L14.6094 5.24219L12.5445 10.3906C12.5146 10.4651 12.4995 10.5447 12.5 10.625C12.5 12.4461 14.4172 13.125 15.625 13.125C16.8328 13.125 18.75 12.4461 18.75 10.625C18.7505 10.5447 18.7354 10.4651 18.7055 10.3906ZM4.37501 14.375C3.78673 14.375 2.59689 14.093 2.50548 13.2312L4.37501 8.55781L6.24454 13.2312C6.15314 14.093 4.96329 14.375 4.37501 14.375ZM15.625 11.875C15.0367 11.875 13.8469 11.593 13.7555 10.7312L15.625 6.05781L17.4945 10.7312C17.4031 11.593 16.2133 11.875 15.625 11.875Z" fill="#1D1D1D"/>
</svg>
