<svg width="32" height="32" viewBox="0 0 32 32" fill="none" xmlns="http://www.w3.org/2000/svg">
<path opacity="0.5" d="M13.364 2.6665C12.7452 2.6665 12.1517 2.91234 11.7141 3.34992C11.2765 3.78751 11.0307 4.381 11.0307 4.99984C11.0307 5.61868 11.2765 6.21217 11.7141 6.64975C12.1517 7.08734 12.7452 7.33317 13.364 7.33317H18.6973C19.3162 7.33317 19.9097 7.08734 20.3473 6.64975C20.7848 6.21217 21.0307 5.61868 21.0307 4.99984C21.0307 4.381 20.7848 3.78751 20.3473 3.34992C19.9097 2.91234 19.3162 2.6665 18.6973 2.6665H13.364ZM5.18268 21.6065C4.03868 17.0305 3.46668 14.7438 4.66668 13.2052C5.86668 11.6665 8.22668 11.6665 12.944 11.6665H19.1173C23.8347 11.6665 26.192 11.6665 27.3933 13.2052C28.5947 14.7425 28.0227 17.0318 26.8787 21.6065C26.1507 24.5172 25.788 25.9718 24.7027 26.8198C23.6173 27.6665 22.1173 27.6665 19.1173 27.6665H12.944C9.94401 27.6665 8.44401 27.6665 7.35868 26.8198C6.27335 25.9718 5.90935 24.5172 5.18268 21.6065Z" fill="#FF7D01"/>
<path d="M20.8053 6.0028C20.9548 5.69048 21.0327 5.3487 21.0331 5.00243C21.0336 4.65617 20.9567 4.31418 20.808 4.00146C21.7187 4.00813 22.4293 4.04947 23.0627 4.29747C23.8203 4.59383 24.4792 5.09748 24.964 5.7508C25.4533 6.40947 25.684 7.25346 26 8.41613L26.0613 8.6428L26.7453 12.5935C26.2 12.2175 25.4973 11.9935 24.588 11.8601L24.108 9.07747C23.728 7.6908 23.5907 7.2548 23.3587 6.9428C23.0976 6.59094 22.7427 6.31971 22.3347 6.16013C22.0413 6.04546 21.688 6.01346 20.8053 6.0028ZM11.2547 4.00146C11.106 4.31418 11.0291 4.65617 11.0295 5.00243C11.03 5.3487 11.1078 5.69048 11.2573 6.0028C10.3747 6.01213 10.0213 6.04546 9.72799 6.16013C9.31994 6.31971 8.96507 6.59094 8.70399 6.9428C8.47199 7.2548 8.33466 7.6908 7.95599 9.07613L7.47466 11.8615C6.56532 11.9948 5.86266 12.2175 5.31732 12.5921L6.00132 8.6428L6.06266 8.41613C6.37866 7.25346 6.60932 6.40946 7.09866 5.74946C7.58381 5.09713 8.24268 4.59443 8.99999 4.2988C9.63332 4.0508 10.344 4.00947 11.2547 4.0028" fill="#FF7D01"/>
</svg>
