<svg width="12.000000" height="12.000000" viewBox="0 0 12 12" fill="none" xmlns="http://www.w3.org/2000/svg" xmlns:xlink="http://www.w3.org/1999/xlink">
	<defs>
		<clipPath id="clip1_3577">
			<rect id="ph:star-fill" width="12.000000" height="12.000000" fill="white" fill-opacity="0"/>
		</clipPath>
	</defs>
	<rect id="ph:star-fill" width="12.000000" height="12.000000" fill="#FFFFFF" fill-opacity="0"/>
	<g clip-path="url(#clip1_3577)">
		<path id="Vector" d="M10.99 5.36L8.87 7.2L9.51 9.95C9.54 10.09 9.53 10.24 9.48 10.38C9.43 10.52 9.34 10.64 9.22 10.73C9.1 10.81 8.96 10.86 8.81 10.87C8.66 10.87 8.52 10.84 8.39 10.76L5.99 9.31L3.6 10.76C3.48 10.84 3.33 10.87 3.18 10.87C3.04 10.86 2.89 10.81 2.77 10.73C2.66 10.64 2.56 10.52 2.51 10.38C2.46 10.24 2.45 10.09 2.48 9.95L3.12 7.2L1 5.36C0.89 5.26 0.81 5.13 0.77 4.99C0.73 4.85 0.73 4.7 0.78 4.56C0.82 4.42 0.91 4.29 1.03 4.2C1.14 4.11 1.28 4.05 1.43 4.04L4.22 3.8L5.31 1.2C5.36 1.07 5.46 0.95 5.58 0.87C5.7 0.79 5.85 0.75 6 0.75C6.14 0.75 6.29 0.79 6.41 0.87C6.53 0.95 6.63 1.07 6.69 1.2L7.78 3.8L10.56 4.04C10.71 4.05 10.85 4.11 10.97 4.2C11.08 4.29 11.17 4.42 11.21 4.56C11.26 4.7 11.26 4.85 11.22 4.99C11.18 5.13 11.1 5.26 10.99 5.36L10.99 5.36Z" fill="#FF7D01" fill-opacity="1.000000" fill-rule="nonzero"/>
	</g>
</svg>
