<svg width="16" height="16" viewBox="0 0 16 16" fill="none" xmlns="http://www.w3.org/2000/svg">
<path d="M14.8086 3.77062C14.2997 3.99575 13.7599 4.1436 13.2073 4.20928C13.7893 3.86071 14.2248 3.31244 14.4326 2.66662C13.886 2.99195 13.2866 3.21995 12.6626 3.34328C12.243 2.89434 11.6869 2.59659 11.0806 2.49634C10.4743 2.39609 9.85192 2.49895 9.31014 2.78892C8.76836 3.07889 8.33755 3.53974 8.0847 4.09981C7.83186 4.65989 7.77113 5.2878 7.91196 5.88595C6.80325 5.83048 5.71861 5.54244 4.72846 5.04053C3.7383 4.53862 2.86479 3.83406 2.16463 2.97262C1.91682 3.39825 1.7866 3.8821 1.78729 4.37462C1.78729 5.34128 2.27996 6.19528 3.02729 6.69528C2.58464 6.68132 2.15173 6.56178 1.76463 6.34662V6.38062C1.76461 7.02453 1.98732 7.64863 2.39498 8.14707C2.80265 8.6455 3.37017 8.98758 4.00129 9.11528C3.59039 9.22676 3.15949 9.24317 2.74129 9.16328C2.91924 9.71755 3.2661 10.2023 3.73329 10.5496C4.20048 10.8968 4.7646 11.0893 5.34663 11.1C4.7682 11.5543 4.10589 11.8901 3.39757 12.0882C2.68925 12.2863 1.94882 12.3429 1.21863 12.2546C2.49311 13.0742 3.9767 13.5093 5.49196 13.5079C10.6213 13.5079 13.4253 9.25928 13.4253 5.57462C13.4253 5.45462 13.4226 5.33328 13.4173 5.21395C13.9629 4.81952 14.4338 4.33099 14.808 3.77128" fill="#FF7D01"/>
</svg>
