<svg width="89" height="82" fill="none" xmlns="http://www.w3.org/2000/svg"><path d="M37.16 61.54c-.13-.332-.229-.741-.437-1.106a4 4 0 01.438 1.105z" fill="#fff"/><mask id="a" fill="#fff"><path d="M82.374 1.403l-.197-.497C81.98.409 81.42.439 81.155.735c-1.594.311-3.287.853-5.432 1.702-.99.391-2.035.805-3.003 1.252-.934.37-1.847.795-2.782 1.165l-14.001 5.603c-3.63 1.436-7.259 2.872-10.867 4.363-.77.305-1.671.598-2.606.967l-1.54.61-1.54.609c-.934.37-1.814.718-2.562 1.078-3.63 1.436-7.26 2.872-10.91 4.252l-13.935 5.45c-.935.37-1.87.74-2.826 1.054-1.012.336-2.057.75-3.047 1.141-2.09.827-3.75 1.612-5.126 2.476a.566.566 0 00-.573.802l.197.497c.798 2.177 1.639 4.465 2.767 6.511.164.255.471.389.746.28.055-.022.165-.065.199-.142.241-.032.406-.097.648-.13.185.95.557 1.89.907 2.774l.35.884c.677 1.714 1.3 3.448 1.978 5.161 1.3 3.449 2.656 6.875 4.012 10.301l1.202 3.04c1.028 2.597 2.022 5.272 3.127 7.902.284.719.59 1.492.93 2.19.393.994.82 1.912 1.213 2.906l.372.94c.481 1.216.929 2.508 1.718 3.538.12.144.351.245.571.158.055-.022.132.012.242-.032 2.99-.8 5.927-1.897 8.512-2.92l2.64-1.044 1.43-.566 12.152-4.808 4.4-1.741 1.594-.63a81.394 81.394 0 003.838-1.392c1.1-.435 2.145-.848 3.223-1.339l.935-.37.935-.37c1.1-.434 2.166-.793 3.266-1.228a77.27 77.27 0 003.75-1.611l1.595-.631 4.4-1.741 12.329-5.006 1.43-.566 2.64-1.044c2.529-1 5.476-2.23 8.15-3.672a.444.444 0 00.198-.142c.22-.087.341-.263.309-.506-.13-1.291-.632-2.562-1.169-3.756l-.371-.94c-.394-.994-.765-1.934-1.104-2.95-.284-.719-.535-1.514-.82-2.233-.994-2.674-2.099-5.305-3.126-7.902l-1.203-3.04c-1.355-3.426-2.766-6.83-4.122-10.257-.677-1.713-1.41-3.405-2.088-5.118l-.35-.884c-.35-.884-.721-1.824-1.236-2.643.22-.087.363-.207.56-.35.078.034.188-.01.243-.031.275-.109.407-.417.353-.715-.644-2.11-1.596-4.354-2.503-6.488zM1.822 33.465c1.627-.388 3.376-.952 5.52-1.8.99-.392 1.98-.784 2.948-1.23.99-.392 1.903-.817 2.838-1.187l12.615-4.928L36.3 20.143c.902-.293 1.892-.684 2.991-1.12l2.365-.935 2.365-.936c1.1-.435 2.09-.826 2.947-1.23l10.559-4.177 12.57-5.038c.936-.37 1.925-.761 2.882-1.076.99-.391 2.002-.728 2.992-1.12 2.2-.87 3.805-1.633 5.257-2.463.634 1.922 1.29 3.9 2.12 5.68-1.462.323-3.023.877-4.948 1.638-.99.392-2.035.805-2.947 1.23-.935.37-1.848.796-2.728 1.144l-13.858 5.482c-3.684 1.458-7.314 2.894-11.031 4.429-.77.305-1.672.597-2.607.967l-1.485.588-1.484.587c-.935.37-1.815.718-2.563 1.078-3.684 1.458-7.314 2.894-11.02 4.296l-13.88 5.428c-.935.37-1.815.718-2.771 1.032-.99.392-2.002.728-2.992 1.12a42.526 42.526 0 00-4.73 2.19c-.776-1.801-1.63-3.636-2.483-5.472zm50.12 32.963a1.27 1.27 0 00.188-.33c.1-.23.122-.495.034-.716a1.099 1.099 0 00-.537-.555c-.538-.234-1.21.16-1.31.71-.01.132-.022.264.022.375.054.298.197.497.394.675.176.122.363.112.495.124-1.87.74-3.762 1.424-5.631 2.164L33.18 73.66c-.88.348-1.815.718-2.717 1.01-.825.327-1.704.675-2.551.946.165-.065.253-.164.297-.373a.677.677 0 00-.01-.508c-.13-.331-.482-.576-.922-.402-.22.087-.363.208-.407.417a.677.677 0 00.01.508c.109.276.405.542.812.445l-.88.348c-2.2.87-3.992 1.644-5.521 2.44-.24-.927-.612-1.867-.962-2.75l-.656-1.659-.065-.165c2.903-1.021 5.84-2.12 9.16-3.37-.088.1-.12.176-.209.275-.066.154-.034.397.032.563.153.387.504.631 1 .435.22-.087.34-.262.462-.438.066-.154.033-.397-.032-.563-.11-.276-.329-.509-.648-.51 2.255-.893 4.642-1.773 7.281-2.817 3.245-1.284 6.49-2.568 9.657-3.885 3.244-1.284 6.412-2.6 9.656-3.884l4.62-1.828 16.222-6.418c1.925-.762 3.85-1.523 5.796-2.23 2.034-.805 4.146-1.576 6.18-2.381a277.57 277.57 0 007.05-2.917c.22.552.438 1.105.657 1.657.35.885.721 1.824 1.181 2.665-1.715.487-3.497 1.128-5.696 1.998-1.21.479-2.42.957-3.553 1.47-.88.348-1.793.773-2.673 1.12l-12.329 5.007c-3.244 1.284-6.522 2.644-9.766 3.928l-4.158 1.709-4.201 1.598c-1.21.479-2.42.957-3.651 1.38a.787.787 0 00.296-.053zM39.09 27.03c.902-.293 1.892-.684 2.992-1.12.77-.304 1.54-.608 2.364-.935.77-.305 1.54-.61 2.365-.935 1.1-.436 2.09-.827 2.947-1.23l10.559-4.178 12.57-5.038c.936-.37 1.925-.761 2.882-1.076.99-.391 2.002-.728 2.992-1.12a42.588 42.588 0 003.783-1.688c.163.894.513 1.778.896 2.585l.35.885c.678 1.713 1.3 3.448 1.978 5.161l4.067 10.279c1.356 3.426 2.712 6.853 4.122 10.257.569 1.437 1.05 2.653 1.564 3.792-2.299.781-4.773 1.76-7.743 2.935l-.605.24c.652-1.729.327-3.837-.263-5.329-.24-.608-.57-1.117-.843-1.648-.624-1.095-1.16-1.97-.905-3.413.111-.683.354-1.354.597-2.026.277-.748.586-1.574.687-2.444.324-2.557-1.22-5.334-3.613-6.56-.714-.357-1.67-.682-2.68-.985-2.998-.987-6.435-2.12-5.857-5.48a.51.51 0 00-.153-.387c-.175-.123-.494-.124-.615.051-1.4 1.768-2.8 3.856-1.112 6.512.558.93 1.513 1.575 2.468 2.22.35.244.702.489 1.075.788 1.942 1.533 1.62 3.45.99 5.234-.742 2.146-1.46 4.348.15 6.65.713.997 1.975 1.776 3.292 2.533 2.327 1.38 4.577 2.727 3.55 5.435-.034.077-.012.132-.067.154l-1.155.457-5.004 1.98-4.234 1.675c-.011-.188-.022-.375-.142-.52a20.879 20.879 0 01-.92-1.68c-1.15-2.102-2.398-4.293-3.998-6.088.552-1.177-.226-2.66-.686-3.5-1.007-1.583-2.126-2.482-3.61-2.854-.493-.124-1.164-.05-1.714.167-.715.283-1.177.721-1.387 1.316-.11.363-.21.914-.124 1.455a6.72 6.72 0 00-2.86 1.131c-.602-1.04-1.61-2.303-3.424-2.224a2.09 2.09 0 00-.648.129c-1.595.63-2.358 3.042-2.922 4.67-.1.232-.144.441-.188.65l-.22.407c-.664 1.86-1.493 4.106-.123 5.8.844 1.009 1.988.684 2.758.38.33-.13.66-.261 1.023-.469.33-.13.638-.316.968-.447.098.409.196.818.349 1.204-.418.23-.77.625-1.09 1.263-.387.792-.378 1.939.159 2.813 1.182 2.025 3.885 2.105 5.59 1.111.231.1.44.146.67.247l-3.189 1.261c-3.85 1.523-7.83 3.035-11.625 4.536-1.595.63-3.244 1.284-4.86 1.86.815-1.154 1.048-2.653.612-4.398-.348-1.524-1.191-2.852-1.958-4.146-1.073-1.749-2.125-3.442-2.021-5.592.055-.341.034-.717.035-1.036.17-2.305.294-4.08-1.35-6.305-1.38-1.883-3.257-3.57-5.034-5.167-.79-.71-1.58-1.42-2.292-2.097-.318-.322-.868-.104-1.034.281a.962.962 0 00.032.563c1.347 2.279 1.749 4.74 1.193 7.837-.077-.034-.176-.123-.252-.156-.758-.468-1.658-.814-2.636-1.195-2.953-1.196-6.006-2.48-5.636-5.887a.761.761 0 00-.262-.663c-.351-.245-.89-.16-1.11.248-1.291 2.364-1.571 5.031-.687 7.75.437 1.424 1.401 2.577 2.279 3.508 1.732 1.807 2.279 3.188 2.307 5.35.016 3.254.538 5.54 3.348 7.496a19.193 19.193 0 003.073 1.66c2.12 1.015 4.161 1.997 5.08 4.318l-.88.348c-5.775 2.285-10.537 4.233-14.816 6.117-.382-1.127-.863-2.342-1.431-3.78-1.356-3.426-2.712-6.852-4.012-10.3l-4.068-10.28c-.678-1.713-1.356-3.426-2.089-5.118l-.35-.884c-.327-.829-.677-1.713-1.115-2.498 1.143-.325 2.43-.77 3.915-1.358.99-.391 1.98-.783 2.947-1.23.99-.392 1.903-.817 2.838-1.187l12.615-4.927c3.541-1.337 7.06-2.73 10.58-4.122zm1.13 32.597c-.458-1.48-1.18-2.665-2.441-4.084-1.875-2.006-2.574-4.094-2.414-7.226a.51.51 0 00-.153-.386c-.099-.09-.23-.1-.396-.035-.11.043-.143.12-.23.219-1.17 2.188-.956 4.98.446 6.917l1.151 1.462c.767.975 1.568 1.873 2.082 3.011.219.553.36 1.072.425 1.558a11.567 11.567 0 00-1.05-2.333c-.558-.93-1.425-1.673-2.215-2.383-.197-.178-.471-.389-.669-.566-1.524-1.442-1.477-2.931-1.419-4.872.023-.264.024-.584.046-.849.027-2.183-.86-3.942-2.703-5.386.795-1.848.843-3.976.254-6.108a407.294 407.294 0 013.795 3.804c1.294 1.341 1.983 2.602 2.156 4.004.098.728-.025 1.544-.17 2.304l-.2 1.422c-.125 2.094.882 3.997 2.054 5.834.91 1.494 2.662 4.316 1.998 6.496.045-.85-.051-1.898-.346-2.803zm-3.058 1.913c-.131-.332-.23-.74-.437-1.105.186.31.339.696.437 1.105zm-11.963-7.73l.002-.64c-.009-1.147-.017-2.294-.345-3.443-.316-1.281-1.369-2.335-2.224-3.21-.197-.178-.34-.377-.537-.555-1.535-1.63-2.267-3.96-1.966-6.253 1.051 2.013 3.4 3.129 5.706 4.134 2.328 1.06 4.81 2.188 5.75 4.244.427.918.325 2.109.202 3.244a9.502 9.502 0 00-.07 1.753c.054.938.404 1.822 1.116 2.819-.67-.567-1.372-1.056-1.953-1.72-.778-.843-.995-2.355-1.212-3.867-.346-2.484-.747-5.265-3.945-5.15-.132-.012-.253.164-.265.296-.033.077.088.221.165.255 2.12.695 2.323 2.98 2.571 5.374.107 1.555.29 3.144 1.013 4.328.58.985 1.58 1.74 2.556 2.44.373.3.724.545 1.02.812 1.832 1.576 2.63 3.753 3.296 5.918-.843-1.648-2.478-2.727-3.697-3.395a15.547 15.547 0 00-1.756-.903c-2.91-1.406-5.38-2.665-5.427-6.481zm59.448-13.87c.329.51.657 1.018.876 1.571-.296-.586-.723-1.184-1.128-1.727a9.458 9.458 0 00-.823-.953c-.701-.808-1.326-1.584-1.885-2.513-.547-1.062-.403-1.822-.17-2.681.122-.496.277-1.069.223-1.687-.052-1.257-.292-2.185-1.522-2.72-.076-.034-.131-.013-.186.01a.448.448 0 00-.177.197c-.033.077.011.187.033.242 1.008 1.263.632 2.563.278 3.917-.09.419-.233.86-.322 1.278-.167 1.025.249 2.075.675 2.992.514 1.14 1.26 2.058 1.928 2.944.263.344.505.632.768.975-.022-.055-.077-.033-.1-.088-.668-.567-1.48-1.012-2.238-1.48-.582-.345-1.141-.635-1.69-1.057-1.7-1.244-2.093-2.878-1.33-5.29l.11-.363c.653-2.048 1.328-4.04-.03-6.187-.58-.985-1.634-1.719-2.567-2.308-.253-.156-.505-.312-.702-.49-1.877-1.366-2.4-3.012-1.573-4.938.272 1.49 1.357 2.787 3.102 3.822.966.513 1.944.893 2.92 1.273 2.22.784 4.305 1.557 5.245 4.253.535 1.514.038 2.989-.46 4.464-.453 1.266-.884 2.587-.69 4.044.405.862.92 1.681 1.435 2.5zM66.72 41.408c-.021-.055-.01-.187-.054-.298l.131.332c-.055.022-.077-.034-.077-.034zm-1.018-1.77c-.614-.588-1.306-.89-1.811-.881-.187.01-.352.075-.517.14-.385.153-.671.394-.749.68-.077-.033-.187.01-.263-.023-.043-.75.068-1.114.936-1.33.704-.15 1.44.262 2.372 1.171.219.233.383.488.548.742-.198-.177-.34-.377-.516-.499zm-9.106 8.972c-.044-.43-.395-.675-.823-.633a4.06 4.06 0 00-1.99.596l-.199.142c-.253.164-.56.35-.836.459-.385.152-.703.15-.934.05-.23-.101-.395-.355-.515-.82-.054-.297-.02-.694.068-1.113.153.387.361.752.69.941.33.19.726.225 1.242.084l.055-.021c1.265-.5 2.17-2.393 1.821-3.597-.022-.055-.066-.166-.142-.2-.077-.033-.264-.023-.352.076-.21.275-.419.55-.606.879-.155.253-.31.506-.485.703-.155.253-.463.439-.75.68l-.054.022c-.044-.11-.11-.277-.12-.784-.064-.806.246-1.631.654-2.368.165-.385.408-.736.617-1.01l.033-.078c.364-.527.595-.747.76-.812l.044.11c.044.111.143.2.22.233.23.1.56-.03.637-.316.155-.573-.03-.882-.228-1.06-.296-.266-.824-.313-1.374-.096.474-.57 1.035-.6 1.715-.167.505.312.79 1.03 1.085 1.616l.109.277a.785.785 0 001 .435.729.729 0 00.307-.186 4.551 4.551 0 011.607-1.083c2.53-1 5.361.691 7.05 2.388 1.612 1.663 2.784 3.82 3.933 5.922.252.475.504.951.81 1.405a15.18 15.18 0 01-2.003 1.687l-5.664 2.241c-4.263-.486-6.907-2.828-7.382-6.602zm.593 5.198a.451.451 0 01-.032-.243c.142.2.34.377.537.554-.242.032-.395-.035-.505-.311zm-1.03-.998c-.243.351-.332.77-.245 1.31-.23-.42-.24-.927-.063-1.444.044-.21.187-.33.309-.506.065.166.164.255.23.42-.055.022-.144.12-.232.22z"/></mask><path d="M82.374 1.403l-.197-.497C81.98.409 81.42.439 81.155.735c-1.594.311-3.287.853-5.432 1.702-.99.391-2.035.805-3.003 1.252-.934.37-1.847.795-2.782 1.165l-14.001 5.603c-3.63 1.436-7.259 2.872-10.867 4.363-.77.305-1.671.598-2.606.967l-1.54.61-1.54.609c-.934.37-1.814.718-2.562 1.078-3.63 1.436-7.26 2.872-10.91 4.252l-13.935 5.45c-.935.37-1.87.74-2.826 1.054-1.012.336-2.057.75-3.047 1.141-2.09.827-3.75 1.612-5.126 2.476a.566.566 0 00-.573.802l.197.497c.798 2.177 1.639 4.465 2.767 6.511.164.255.471.389.746.28.055-.022.165-.065.199-.142.241-.032.406-.097.648-.13.185.95.557 1.89.907 2.774l.35.884c.677 1.714 1.3 3.448 1.978 5.161 1.3 3.449 2.656 6.875 4.012 10.301l1.202 3.04c1.028 2.597 2.022 5.272 3.127 7.902.284.719.59 1.492.93 2.19.393.994.82 1.912 1.213 2.906l.372.94c.481 1.216.929 2.508 1.718 3.538.12.144.351.245.571.158.055-.022.132.012.242-.032 2.99-.8 5.927-1.897 8.512-2.92l2.64-1.044 1.43-.566 12.152-4.808 4.4-1.741 1.594-.63a81.394 81.394 0 003.838-1.392c1.1-.435 2.145-.848 3.223-1.339l.935-.37.935-.37c1.1-.434 2.166-.793 3.266-1.228a77.27 77.27 0 003.75-1.611l1.595-.631 4.4-1.741 12.329-5.006 1.43-.566 2.64-1.044c2.529-1 5.476-2.23 8.15-3.672a.444.444 0 00.198-.142c.22-.087.341-.263.309-.506-.13-1.291-.632-2.562-1.169-3.756l-.371-.94c-.394-.994-.765-1.934-1.104-2.95-.284-.719-.535-1.514-.82-2.233-.994-2.674-2.099-5.305-3.126-7.902l-1.203-3.04c-1.355-3.426-2.766-6.83-4.122-10.257-.677-1.713-1.41-3.405-2.088-5.118l-.35-.884c-.35-.884-.721-1.824-1.236-2.643.22-.087.363-.207.56-.35.078.034.188-.01.243-.031.275-.109.407-.417.353-.715-.644-2.11-1.596-4.354-2.503-6.488zM1.822 33.465c1.627-.388 3.376-.952 5.52-1.8.99-.392 1.98-.784 2.948-1.23.99-.392 1.903-.817 2.838-1.187l12.615-4.928L36.3 20.143c.902-.293 1.892-.684 2.991-1.12l2.365-.935 2.365-.936c1.1-.435 2.09-.826 2.947-1.23l10.559-4.177 12.57-5.038c.936-.37 1.925-.761 2.882-1.076.99-.391 2.002-.728 2.992-1.12 2.2-.87 3.805-1.633 5.257-2.463.634 1.922 1.29 3.9 2.12 5.68-1.462.323-3.023.877-4.948 1.638-.99.392-2.035.805-2.947 1.23-.935.37-1.848.796-2.728 1.144l-13.858 5.482c-3.684 1.458-7.314 2.894-11.031 4.429-.77.305-1.672.597-2.607.967l-1.485.588-1.484.587c-.935.37-1.815.718-2.563 1.078-3.684 1.458-7.314 2.894-11.02 4.296l-13.88 5.428c-.935.37-1.815.718-2.771 1.032-.99.392-2.002.728-2.992 1.12a42.526 42.526 0 00-4.73 2.19c-.776-1.801-1.63-3.636-2.483-5.472zm50.12 32.963a1.27 1.27 0 00.188-.33c.1-.23.122-.495.034-.716a1.099 1.099 0 00-.537-.555c-.538-.234-1.21.16-1.31.71-.01.132-.022.264.022.375.054.298.197.497.394.675.176.122.363.112.495.124-1.87.74-3.762 1.424-5.631 2.164L33.18 73.66c-.88.348-1.815.718-2.717 1.01-.825.327-1.704.675-2.551.946.165-.065.253-.164.297-.373a.677.677 0 00-.01-.508c-.13-.331-.482-.576-.922-.402-.22.087-.363.208-.407.417a.677.677 0 00.01.508c.109.276.405.542.812.445l-.88.348c-2.2.87-3.992 1.644-5.521 2.44-.24-.927-.612-1.867-.962-2.75l-.656-1.659-.065-.165c2.903-1.021 5.84-2.12 9.16-3.37-.088.1-.12.176-.209.275-.066.154-.034.397.032.563.153.387.504.631 1 .435.22-.087.34-.262.462-.438.066-.154.033-.397-.032-.563-.11-.276-.329-.509-.648-.51 2.255-.893 4.642-1.773 7.281-2.817 3.245-1.284 6.49-2.568 9.657-3.885 3.244-1.284 6.412-2.6 9.656-3.884l4.62-1.828 16.222-6.418c1.925-.762 3.85-1.523 5.796-2.23 2.034-.805 4.146-1.576 6.18-2.381a277.57 277.57 0 007.05-2.917c.22.552.438 1.105.657 1.657.35.885.721 1.824 1.181 2.665-1.715.487-3.497 1.128-5.696 1.998-1.21.479-2.42.957-3.553 1.47-.88.348-1.793.773-2.673 1.12l-12.329 5.007c-3.244 1.284-6.522 2.644-9.766 3.928l-4.158 1.709-4.201 1.598c-1.21.479-2.42.957-3.651 1.38a.787.787 0 00.296-.053zM39.09 27.03c.902-.293 1.892-.684 2.992-1.12.77-.304 1.54-.608 2.364-.935.77-.305 1.54-.61 2.365-.935 1.1-.436 2.09-.827 2.947-1.23l10.559-4.178 12.57-5.038c.936-.37 1.925-.761 2.882-1.076.99-.391 2.002-.728 2.992-1.12a42.588 42.588 0 003.783-1.688c.163.894.513 1.778.896 2.585l.35.885c.678 1.713 1.3 3.448 1.978 5.161l4.067 10.279c1.356 3.426 2.712 6.853 4.122 10.257.569 1.437 1.05 2.653 1.564 3.792-2.299.781-4.773 1.76-7.743 2.935l-.605.24c.652-1.729.327-3.837-.263-5.329-.24-.608-.57-1.117-.843-1.648-.624-1.095-1.16-1.97-.905-3.413.111-.683.354-1.354.597-2.026.277-.748.586-1.574.687-2.444.324-2.557-1.22-5.334-3.613-6.56-.714-.357-1.67-.682-2.68-.985-2.998-.987-6.435-2.12-5.857-5.48a.51.51 0 00-.153-.387c-.175-.123-.494-.124-.615.051-1.4 1.768-2.8 3.856-1.112 6.512.558.93 1.513 1.575 2.468 2.22.35.244.702.489 1.075.788 1.942 1.533 1.62 3.45.99 5.234-.742 2.146-1.46 4.348.15 6.65.713.997 1.975 1.776 3.292 2.533 2.327 1.38 4.577 2.727 3.55 5.435-.034.077-.012.132-.067.154l-1.155.457-5.004 1.98-4.234 1.675c-.011-.188-.022-.375-.142-.52a20.879 20.879 0 01-.92-1.68c-1.15-2.102-2.398-4.293-3.998-6.088.552-1.177-.226-2.66-.686-3.5-1.007-1.583-2.126-2.482-3.61-2.854-.493-.124-1.164-.05-1.714.167-.715.283-1.177.721-1.387 1.316-.11.363-.21.914-.124 1.455a6.72 6.72 0 00-2.86 1.131c-.602-1.04-1.61-2.303-3.424-2.224a2.09 2.09 0 00-.648.129c-1.595.63-2.358 3.042-2.922 4.67-.1.232-.144.441-.188.65l-.22.407c-.664 1.86-1.493 4.106-.123 5.8.844 1.009 1.988.684 2.758.38.33-.13.66-.261 1.023-.469.33-.13.638-.316.968-.447.098.409.196.818.349 1.204-.418.23-.77.625-1.09 1.263-.387.792-.378 1.939.159 2.813 1.182 2.025 3.885 2.105 5.59 1.111.231.1.44.146.67.247l-3.189 1.261c-3.85 1.523-7.83 3.035-11.625 4.536-1.595.63-3.244 1.284-4.86 1.86.815-1.154 1.048-2.653.612-4.398-.348-1.524-1.191-2.852-1.958-4.146-1.073-1.749-2.125-3.442-2.021-5.592.055-.341.034-.717.035-1.036.17-2.305.294-4.08-1.35-6.305-1.38-1.883-3.257-3.57-5.034-5.167-.79-.71-1.58-1.42-2.292-2.097-.318-.322-.868-.104-1.034.281a.962.962 0 00.032.563c1.347 2.279 1.749 4.74 1.193 7.837-.077-.034-.176-.123-.252-.156-.758-.468-1.658-.814-2.636-1.195-2.953-1.196-6.006-2.48-5.636-5.887a.761.761 0 00-.262-.663c-.351-.245-.89-.16-1.11.248-1.291 2.364-1.571 5.031-.687 7.75.437 1.424 1.401 2.577 2.279 3.508 1.732 1.807 2.279 3.188 2.307 5.35.016 3.254.538 5.54 3.348 7.496a19.193 19.193 0 003.073 1.66c2.12 1.015 4.161 1.997 5.08 4.318l-.88.348c-5.775 2.285-10.537 4.233-14.816 6.117-.382-1.127-.863-2.342-1.431-3.78-1.356-3.426-2.712-6.852-4.012-10.3l-4.068-10.28c-.678-1.713-1.356-3.426-2.089-5.118l-.35-.884c-.327-.829-.677-1.713-1.115-2.498 1.143-.325 2.43-.77 3.915-1.358.99-.391 1.98-.783 2.947-1.23.99-.392 1.903-.817 2.838-1.187l12.615-4.927c3.541-1.337 7.06-2.73 10.58-4.122zm1.13 32.597c-.458-1.48-1.18-2.665-2.441-4.084-1.875-2.006-2.574-4.094-2.414-7.226a.51.51 0 00-.153-.386c-.099-.09-.23-.1-.396-.035-.11.043-.143.12-.23.219-1.17 2.188-.956 4.98.446 6.917l1.151 1.462c.767.975 1.568 1.873 2.082 3.011.219.553.36 1.072.425 1.558a11.567 11.567 0 00-1.05-2.333c-.558-.93-1.425-1.673-2.215-2.383-.197-.178-.471-.389-.669-.566-1.524-1.442-1.477-2.931-1.419-4.872.023-.264.024-.584.046-.849.027-2.183-.86-3.942-2.703-5.386.795-1.848.843-3.976.254-6.108a407.294 407.294 0 013.795 3.804c1.294 1.341 1.983 2.602 2.156 4.004.098.728-.025 1.544-.17 2.304l-.2 1.422c-.125 2.094.882 3.997 2.054 5.834.91 1.494 2.662 4.316 1.998 6.496.045-.85-.051-1.898-.346-2.803zm-3.058 1.913c-.131-.332-.23-.74-.437-1.105.186.31.339.696.437 1.105zm-11.963-7.73l.002-.64c-.009-1.147-.017-2.294-.345-3.443-.316-1.281-1.369-2.335-2.224-3.21-.197-.178-.34-.377-.537-.555-1.535-1.63-2.267-3.96-1.966-6.253 1.051 2.013 3.4 3.129 5.706 4.134 2.328 1.06 4.81 2.188 5.75 4.244.427.918.325 2.109.202 3.244a9.502 9.502 0 00-.07 1.753c.054.938.404 1.822 1.116 2.819-.67-.567-1.372-1.056-1.953-1.72-.778-.843-.995-2.355-1.212-3.867-.346-2.484-.747-5.265-3.945-5.15-.132-.012-.253.164-.265.296-.033.077.088.221.165.255 2.12.695 2.323 2.98 2.571 5.374.107 1.555.29 3.144 1.013 4.328.58.985 1.58 1.74 2.556 2.44.373.3.724.545 1.02.812 1.832 1.576 2.63 3.753 3.296 5.918-.843-1.648-2.478-2.727-3.697-3.395a15.547 15.547 0 00-1.756-.903c-2.91-1.406-5.38-2.665-5.427-6.481zm59.448-13.87c.329.51.657 1.018.876 1.571-.296-.586-.723-1.184-1.128-1.727a9.458 9.458 0 00-.823-.953c-.701-.808-1.326-1.584-1.885-2.513-.547-1.062-.403-1.822-.17-2.681.122-.496.277-1.069.223-1.687-.052-1.257-.292-2.185-1.522-2.72-.076-.034-.131-.013-.186.01a.448.448 0 00-.177.197c-.033.077.011.187.033.242 1.008 1.263.632 2.563.278 3.917-.09.419-.233.86-.322 1.278-.167 1.025.249 2.075.675 2.992.514 1.14 1.26 2.058 1.928 2.944.263.344.505.632.768.975-.022-.055-.077-.033-.1-.088-.668-.567-1.48-1.012-2.238-1.48-.582-.345-1.141-.635-1.69-1.057-1.7-1.244-2.093-2.878-1.33-5.29l.11-.363c.653-2.048 1.328-4.04-.03-6.187-.58-.985-1.634-1.719-2.567-2.308-.253-.156-.505-.312-.702-.49-1.877-1.366-2.4-3.012-1.573-4.938.272 1.49 1.357 2.787 3.102 3.822.966.513 1.944.893 2.92 1.273 2.22.784 4.305 1.557 5.245 4.253.535 1.514.038 2.989-.46 4.464-.453 1.266-.884 2.587-.69 4.044.405.862.92 1.681 1.435 2.5zM66.72 41.408c-.021-.055-.01-.187-.054-.298l.131.332c-.055.022-.077-.034-.077-.034zm-1.018-1.77c-.614-.588-1.306-.89-1.811-.881-.187.01-.352.075-.517.14-.385.153-.671.394-.749.68-.077-.033-.187.01-.263-.023-.043-.75.068-1.114.936-1.33.704-.15 1.44.262 2.372 1.171.219.233.383.488.548.742-.198-.177-.34-.377-.516-.499zm-9.106 8.972c-.044-.43-.395-.675-.823-.633a4.06 4.06 0 00-1.99.596l-.199.142c-.253.164-.56.35-.836.459-.385.152-.703.15-.934.05-.23-.101-.395-.355-.515-.82-.054-.297-.02-.694.068-1.113.153.387.361.752.69.941.33.19.726.225 1.242.084l.055-.021c1.265-.5 2.17-2.393 1.821-3.597-.022-.055-.066-.166-.142-.2-.077-.033-.264-.023-.352.076-.21.275-.419.55-.606.879-.155.253-.31.506-.485.703-.155.253-.463.439-.75.68l-.054.022c-.044-.11-.11-.277-.12-.784-.064-.806.246-1.631.654-2.368.165-.385.408-.736.617-1.01l.033-.078c.364-.527.595-.747.76-.812l.044.11c.044.111.143.2.22.233.23.1.56-.03.637-.316.155-.573-.03-.882-.228-1.06-.296-.266-.824-.313-1.374-.096.474-.57 1.035-.6 1.715-.167.505.312.79 1.03 1.085 1.616l.109.277a.785.785 0 001 .435.729.729 0 00.307-.186 4.551 4.551 0 011.607-1.083c2.53-1 5.361.691 7.05 2.388 1.612 1.663 2.784 3.82 3.933 5.922.252.475.504.951.81 1.405a15.18 15.18 0 01-2.003 1.687l-5.664 2.241c-4.263-.486-6.907-2.828-7.382-6.602zm.593 5.198a.451.451 0 01-.032-.243c.142.2.34.377.537.554-.242.032-.395-.035-.505-.311zm-1.03-.998c-.243.351-.332.77-.245 1.31-.23-.42-.24-.927-.063-1.444.044-.21.187-.33.309-.506.065.166.164.255.23.42-.055.022-.144.12-.232.22z" fill="#fff" stroke="#FF7D01" stroke-width=".8" mask="url(#a)"/><path d="M21.545 74.684a.71.71 0 01.407-.949c.38-.15.81.069.969.469a.71.71 0 01-.408.948c-.38.15-.81-.068-.968-.468zm15.834-5.35h0l.008.002c.383.083.638.319.678.693-.013.416-.235.725-.52.838l-.008.001a.207.207 0 01-.02.004l-.062.004h-.002c-.022.001-.048.002-.072.005a.36.36 0 00-.06.011c-.185.01-.334.013-.474-.085l-.008-.005-.01-.004a.641.641 0 01-.311-.284c-.08-.15-.12-.376-.017-.717.057-.127.196-.269.37-.367.177-.1.364-.14.508-.096zm4.402-2.337l-.004-.009-.005-.008a.785.785 0 01-.078-.767.7.7 0 01.412-.363.697.697 0 01.57.031h0l.008.004a.812.812 0 01.448.691.687.687 0 01-.063.283l-.004.01-.002.009c-.033.158-.189.282-.401.366h0-.001 0l-.001.001h0-.001 0-.001 0v.001h-.001 0-.001 0l-.001.001h0-.001 0-.001 0v.001h-.001 0-.001 0-.001v.001h0-.001 0-.001 0v.001h-.001 0-.001 0l-.001.001h0-.001 0-.001 0v.001h0-.001 0-.001 0-.001v.001h0-.001 0-.001 0v.001h-.001 0-.001 0-.001v.001h0-.001 0-.001 0l-.001.001h0-.001 0-.001 0v.001h0-.001 0-.001 0v.001h-.001 0-.001 0-.001 0v.001h0-.001 0-.001 0l-.001.001h0-.001 0-.001 0v.001h0-.001 0-.001 0l-.001.001h0-.001 0-.001 0v.001h0-.001 0-.001 0l-.001.001h0-.001 0-.001 0v.001h0-.001 0-.001 0l-.001.001h0-.001 0-.001 0v.001h0-.001 0-.001 0-.001v.001h0-.001 0-.001 0v.001h0-.001 0-.001 0-.001v.001h0-.001 0-.001 0v.001h-.001 0-.001 0-.001 0v.001h0-.001 0-.001 0v.001h-.001 0-.001 0-.001 0v.001h0-.001 0-.001 0l-.001.001h0-.001 0-.001 0v.001h0-.001 0-.001 0l-.001.001h0-.001 0-.001 0v.001h0-.001 0-.001 0l-.001.001h0-.001 0-.001 0v.001h0-.001 0-.001 0l-.001.001h0-.001 0-.001 0v.001h0-.001 0-.001 0l-.001.001h0-.001 0-.001 0v.001h-.001 0-.001 0-.001v.001h0-.001 0-.001 0v.001h-.001 0-.001 0l-.001.001h0-.001 0-.001 0l-.016.007-.012.01a.376.376 0 01-.439.025l-.008-.006-.01-.004a.577.577 0 01-.286-.322zm10.131-4.775a.629.629 0 01-.036-.414c.035-.113.121-.215.29-.282.167-.066.3-.05.404.008.107.06.196.174.256.326.06.152.073.296.036.413-.035.114-.122.216-.29.283a.453.453 0 01-.392-.037.615.615 0 01-.268-.297zm8.018.219h0l-.004-.003a.85.85 0 01-.402-.58c-.039-.39.162-.75.5-.884.205-.082.418-.106.615-.02.194.085.345.309.43.521a.68.68 0 01.023.344 1.06 1.06 0 01-.137.38c-.117.17-.19.248-.327.302a.816.816 0 01-.385.045.704.704 0 01-.312-.105zm4.929-4.464l-.004-.007-.005-.006a.394.394 0 01-.083-.16.817.817 0 01-.013-.067v-.003l-.001-.002a.44.44 0 00-.014-.06c-.039-.236.128-.468.37-.564a.574.574 0 01.315-.045c.088.016.173.06.262.14a.627.627 0 01.177.234c.03.078.041.17.03.292a.55.55 0 01-.355.464c-.24.095-.523.043-.68-.216zm12.681-4.089h-.001v.008c0 .272-.178.514-.477.633 0 0 0 0 0 0l-.007.001a.278.278 0 01-.02.003l-.062.005h-.002a1.326 1.326 0 00-.072.005.341.341 0 00-.065.012.68.68 0 01-.357-.05c-.133-.059-.281-.172-.426-.386-.137-.214-.106-.384-.063-.587a1 1 0 01.29-.36.943.943 0 01.403-.197c.254-.046.452.035.63.192.155.243.248.492.228.721zm4.226-3.329l-.002-.01-.003-.009c-.017-.043-.01-.115.034-.206a.715.715 0 01.166-.217.565.565 0 01.57-.061.573.573 0 01.345.46c.009.164-.03.328-.181.442h0-.001 0-.001 0l-.001.001h0-.001 0-.001 0v.001h-.001 0-.001 0l-.001.001h0-.001 0-.001 0v.001h-.001 0-.001 0-.001v.001h0-.001 0-.001 0v.001h-.001 0-.001 0l-.001.001h0-.001 0-.001 0v.001h-.001 0-.001 0-.001v.001h0-.001 0-.001 0l-.001.001h0-.001 0-.001v.001h0-.001 0-.001 0v.001h-.001 0-.001 0-.001v.001h0-.001 0-.001 0l-.001.001h0-.001 0-.001v.001h0-.001 0-.001 0l-.001.001h0-.001 0-.001 0v.001h-.001 0-.001 0-.001v.001h0-.001 0-.001v.001h0-.001 0-.001 0l-.001.001h0-.001 0-.001 0v.001h-.001 0-.001 0-.001v.001h0-.001 0-.001 0v.001h-.001 0-.001 0-.001v.001h0-.001 0-.001 0v.001h-.001 0-.001 0l-.001.001h0-.001 0-.001 0v.001h-.001 0-.001 0-.001v.001h0-.001 0-.001 0l-.001.001h0-.001 0-.001v.001h0-.001 0-.001 0l-.001.001h0-.001 0-.001v.001h0-.001 0-.001 0l-.001.001h0-.001 0-.001v.001h0-.001 0-.001 0l-.001.001h0-.001 0-.001 0v.001h-.001 0-.001 0-.001v.001h0-.001 0-.001v.001h0-.001 0-.001 0l-.001.001h0-.001 0-.001 0v.001h-.001 0-.001 0-.001V51h0-.001 0-.001 0v0h-.001 0-.001 0-.001v.001h0-.001 0-.001 0v.001h-.001 0-.001 0-.001v.001h0-.001 0-.001 0v.001h-.001 0-.001 0-.001v.001h0-.001 0-.001 0l-.001.001h0-.001 0-.001v.001h0-.001 0-.001 0l-.001.001h0-.001 0-.001v.001h0-.001 0-.001 0l-.001.001h0-.001 0-.001v.001h0-.001 0-.001 0l-.001.001h0-.001 0-.001 0v.001h-.001 0-.001 0-.001v.001h0-.001 0-.001v.001h0-.001 0-.001 0l-.001.001h0-.001 0-.001 0v.001h-.001 0-.001 0-.001v.001h0a.417.417 0 01-.2.018l-.054-.005c-.058-.006-.126-.014-.196-.012a.532.532 0 01-.21-.157.685.685 0 01-.117-.303zm8.205.268l-.022.009-.016.018a1.004 1.004 0 01-.303.236.814.814 0 01-.385.045.704.704 0 01-.312-.104.878.878 0 01-.33-.55.82.82 0 01.091-.499.725.725 0 01.376-.309.768.768 0 01.278-.061.68.68 0 01.282.064c.042.018.086.026.107.03 0 0 0 0 0 0l.005.01.025.017c.173.12.337.277.363.474a.766.766 0 01-.116.558l-.006.008-.004.008v.001l-.003.005a.2.2 0 01-.01.019.086.086 0 01-.02.021s0 0 0 0zM56.49 24.824h0l.002.004c.517.842.504 1.894.027 2.698a2.48 2.48 0 01-1.24 1.043c-1.122.445-2.628.171-3.233-1.05-.392-.837-.41-1.818.015-2.6h0l.004-.007c.095-.222.208-.383.336-.49l.008-.008.007-.009c.397-.52 1.114-.869 1.91-.876.869.027 1.723.489 2.164 1.295zm-3.378 1.744l.002.013.004.011a.463.463 0 00.1.152l.017.018.018.02.008.01.004.01.007.01c.158.222.412.38.681.46.268.081.564.088.81-.009a.698.698 0 00.258-.193 2.6 2.6 0 00.193-.257l.002-.003.006-.008.004-.01c.09-.209.125-.463.104-.709-.022-.245-.1-.49-.245-.68a.906.906 0 00-.31-.287.944.944 0 00-.549-.088h0c-.735.08-1.218.764-1.114 1.54zm2.735 5.922v.001a1.816 1.816 0 01-1.16 1.49c-.57.225-1.14.153-1.677-.122-.455-.378-.87-.995-.789-1.68.045-.211.087-.399.194-.554l.01-.014.004-.017c.147-.54.53-.928 1.008-1.06.459-.117 1.19-.22 1.741.274.497.481.742 1.114.669 1.683zm-2.105-.44a.046.046 0 01-.008.007l-.022.008-.016.018a.356.356 0 00-.089.16.198.198 0 000 .082.16.16 0 00.002.009l.002.003v.002h0v.001h0l.086-.033-.085.033.002.006a.72.72 0 00.088.172.291.291 0 00.197.116c.108.041.191.008.245-.013l.004-.002a.554.554 0 00.2-.138c.047-.053.096-.137.076-.231a.214.214 0 00-.01-.096.444.444 0 00-.219-.249.311.311 0 00-.263.01l-.055.021a.29.29 0 00-.105.083l-.004.004a.377.377 0 01-.026.028zm4.081 3.006l.01-.009.007-.011a.728.728 0 01.64-.367c.292.001.553.122.665.404.023.06.07.179.198.332a.48.48 0 01.05.35.745.745 0 01-.164.337l-.225.214c-.13.108-.227.147-.334.19a.504.504 0 01-.229.021 2.39 2.39 0 01-.285-.05c-.28-.125-.468-.332-.514-.587h0v-.003c-.073-.334-.016-.634.181-.82z" fill="#fff" stroke="#FF7D01" stroke-width=".2"/></svg>