<svg width="44" height="48" fill="none" xmlns="http://www.w3.org/2000/svg"><g clip-path="url(#clip0_1_144)" fill="#fff" fill-opacity=".6"><path d="M41.34 47.057c-.717 0-1.74.257-2.252-.41-.46-.667.307-1.54.767-1.95.512-.462 1.33-.77 2.047-.616.358.102.665.308.767.667.103.36.051.718-.05 1.026-.103.36-.359.667-.666.873-.154.102-.307.205-.512.256-.204.052-.409.103-.562.103-.256 0-.256.359-.052.462.256.102.41.154.717.154.256-.052.511-.103.716-.257.41-.205.767-.616.972-1.026.46-.873.358-2.207-.614-2.72-.92-.462-2.098-.205-2.865.41-.767.565-1.637 1.643-1.279 2.669.154.513.665.872 1.177.975a2.649 2.649 0 001.79-.36c.051-.153 0-.256-.102-.256zm-12.638-11.7c-.665-.873-1.484-1.642-2.25-2.412-.615-.616-1.178-1.232-2.047-1.488-.87-.257-1.893-.308-2.763-.257-.819.052-1.586.257-2.2.77-1.381 1.078-1.842 2.874-1.586 4.567.256 1.694 1.074 3.233 2.865 3.592.87.206 1.79.103 2.66-.205.972-.36 2.098-.872 2.814-1.59.358-.309-.102-.77-.46-.617-.716.308-1.33.822-2.047 1.13-.665.307-1.381.513-2.148.513-.665 0-1.33-.206-1.791-.667-.563-.514-.819-1.283-.972-1.95-.307-1.437-.051-3.08 1.125-4.055.563-.513 1.28-.667 2.047-.667.716 0 1.586 0 2.302.206.87.205 1.484.975 2.098 1.54.716.615 1.432 1.282 2.2 1.846.102.154.256-.102.153-.256z"/><path d="M27.781 36.794c-1.125-.719-2.507-1.078-3.837-1.232-.614-.051-1.279-.102-1.944 0-.307.052-.563.103-.819.257-.255.154-.358.359-.46.616-.051.205.205.359.358.256.41-.256.921-.308 1.381-.36a9.28 9.28 0 011.689 0c1.177.104 2.353.411 3.479.72.204.102.256-.155.153-.257zm8.902-4.927c-.102-1.385-.05-2.77.41-4.105.409-1.232 1.227-2.617 2.353-3.336 1.381-.872 2.712.206 3.019 1.591.255 1.232-.052 2.566-.666 3.695-.358.616-.818 1.18-1.38 1.59a5.06 5.06 0 01-.87.565c-.308.154-.512.257-.614.565-.052.102 0 .205.102.256.563.36 1.432-.359 1.842-.667.562-.462 1.074-.975 1.483-1.59.819-1.283 1.228-2.874.972-4.414-.256-1.54-1.535-3.079-3.223-2.77-1.586.256-2.711 1.95-3.274 3.335-.716 1.642-1.023 3.592-.512 5.388.051.154.358.103.358-.103z"/><path d="M38.27 32.586c.204-.975.409-1.899.767-2.823.204-.462.41-.923.665-1.334.102-.205.256-.41.358-.616.102-.205.256-.359.358-.615.051-.154-.153-.308-.307-.206-.204.103-.358.308-.46.513-.154.206-.307.41-.41.668-.255.461-.46.923-.665 1.385-.358.975-.614 2.001-.563 3.028 0 .102.205.102.256 0zm-7.317 5.644c-1.125-.461-2.456.309-3.018 1.335-.563 1.078-.41 2.463.409 3.387.819.924 2.251 1.231 3.377.77 1.228-.514 1.688-1.9 1.432-3.182a2.62 2.62 0 00-1.125-1.796c-.512-.36-1.382-.616-1.944-.154-.103.102-.052.36.102.36.46.05.92 0 1.381.307.41.257.716.718.819 1.18.256.873.102 2.053-.717 2.566-.818.513-1.944.36-2.66-.257-.716-.615-.972-1.693-.614-2.565.358-1.027 1.484-1.54 2.507-1.642.154-.103.154-.257.051-.308z"/><path d="M30.698 40.232c0 .051 0 .051 0 0 .05.051.05.102 0 0 .05.051.05.051 0 0a.16.16 0 01.05.102c0-.05 0-.05 0 0v-.05.255c0-.05 0 .052 0 0v.103c0 .052.052-.05 0 0 0 0 0 .052-.05.052h-.205s-.051 0-.051-.052c-.052 0 .05.052 0 0l-.052-.05c-.05-.052.052.05 0 0v-.052c0-.051 0 .051 0 0v-.256l.052-.052.05-.051h.154c.052 0 .103 0 .103-.052.05 0 .102-.102.102-.154 0-.051 0-.102-.051-.154-.102-.102-.307-.102-.41-.051a1.072 1.072 0 00-.306.205c-.103.103-.154.206-.154.308 0 .154 0 .257.051.36.102.153.307.307.46.359a.59.59 0 00.615-.206.743.743 0 00.102-.359v-.205c0-.051-.051-.103-.102-.154l.05.051c-.05-.051-.05-.102-.102-.154-.05-.051-.102-.102-.204-.102-.051 0-.102 0-.154.051-.05.205 0 .308.052.308zm-.154 1.693a.283.283 0 00-.154-.256c-.05-.052-.153-.052-.255-.052-.205 0-.41.103-.46.308-.052.103-.052.257-.052.36.051.102.102.205.205.307.153.154.409.257.614.206.102 0 .153 0 .204-.103.052-.051.052-.103.052-.103.05-.05.05-.154.05-.205 0-.102.052-.154.052-.256v-.154c0-.052-.051-.103-.102-.154-.052-.052-.103-.052-.154 0-.102.051-.102.154-.102.205 0 .051 0 .103-.052.154 0 .051-.05.102-.05.154v.051s-.052.051-.052.103c.051-.052.102-.052.154-.103h-.102c-.052 0-.052 0-.103-.051h-.102l-.052-.051v-.154l.052-.052c-.052.052-.052.052 0 0 .05 0 .05-.051.102-.051h.051c-.051 0 .051 0 0 0h.051c-.05 0 .052 0 0 0h.052-.052.052s.05.051.05 0c-.05 0 .052 0 0 0 0 .051.154 0 .103-.103zm9.465-6.517c.358.051.767.154 1.023.41.307.257.563.617.614.976.102.41.051.872-.102 1.283-.154.461-.41.82-.717 1.231-.204.308.256.667.512.41.819-.718 1.28-2.103.92-3.18-.306-.925-1.278-1.95-2.301-1.54-.103 0-.154.359.05.41zm-3.019-8.57c-.511-5.08-5.218-9.34-10.232-9.544-5.27-.206-10.232 3.49-11.05 8.775-.461 2.822.101 6.158 2.097 8.313.307.36.92-.103.665-.513-.716-1.027-1.28-2.053-1.637-3.233a11.779 11.779 0 01-.41-3.541c.154-2.412 1.228-4.721 3.07-6.363 3.633-3.284 9.21-3.49 13.046-.462 2.149 1.693 3.428 4.003 4.042 6.62.051.205.41.154.41-.052z"/><path d="M23.177 39.822c1.483 2.463 4.246 4.259 6.753 5.49 1.33.616 2.66 1.078 4.093 1.437a29.81 29.81 0 002.098.36c.716.05 1.586.205 2.302.05.307-.05.307-.564 0-.666-.665-.154-1.33-.103-1.995-.206a31.275 31.275 0 01-2.15-.359 21.448 21.448 0 01-3.99-1.334c-1.228-.565-2.404-1.283-3.53-2.104-1.177-.924-2.2-1.95-3.274-2.874-.154-.154-.46 0-.307.206zm15.757-7.031c0 .821.512 1.642.768 2.412.307.872.563 1.745.767 2.668.205.873.41 1.745.563 2.617.154.924.205 1.848.41 2.772.102.359.664.256.664-.103.052-.924-.204-1.847-.358-2.771-.153-.924-.358-1.796-.562-2.72-.256-.872-.512-1.796-.819-2.668-.256-.77-.512-1.796-1.074-2.361-.103-.103-.359 0-.359.154zM19.493 19.86c.205-2.002-.87-3.952-2.302-5.286-1.688-1.59-3.786-2.155-6.037-2.155-2.405 0-4.963.461-7.06-1.078-.87-.667-1.433-1.642-1.33-2.771.102-1.232.818-2.31 1.022-3.541C4.145 3.13 3.02.257.82 0 .563-.051.41.36.614.513c.82.616 1.586 1.13 2.047 2.104.512 1.078.46 2.155.102 3.233-.358 1.078-.87 2.104-.767 3.284.051.873.41 1.643.972 2.31 3.274 3.592 8.697.564 12.534 2.873 2.047 1.232 3.172 3.336 3.786 5.594 0 .154.205.102.205-.052zm-1.228 14.009c.051-.41.051-.821.154-1.232.102-.41.204-.82.358-1.18.307-.77.818-1.437 1.228-2.155a.113.113 0 00-.154-.154c-.716.513-1.125 1.334-1.432 2.104-.307.77-.512 1.744-.358 2.566 0 .205.204.205.204.05zm-1.177-2.617c.154-.514.307-1.027.563-1.489.103-.256.205-.462.307-.667.103-.256.256-.462.358-.718.052-.103-.102-.206-.204-.103-.205.154-.307.41-.46.667a5.158 5.158 0 00-.359.77c-.204.513-.41 1.026-.46 1.54 0 .102.204.102.256 0zm-.511-2.31c.102-.667.41-1.283.87-1.796a4.72 4.72 0 01.716-.718c.256-.206.614-.41.819-.667.102-.103 0-.257-.154-.206-.307.154-.614.41-.92.616-.308.257-.564.462-.82.77-.46.564-.767 1.232-.716 1.95 0 .103.154.154.205.051zm20.209-2.771a4.199 4.199 0 00-1.023-.872c-.154-.103-.359-.205-.563-.308l-.307-.154c-.103-.051-.205-.103-.307-.103-.103 0-.154.103-.103.206.052.051.154.102.256.154.103.05.205.102.256.153.205.103.358.206.563.308.358.206.716.462 1.023.77.153.103.256-.051.205-.154zm-.921-2.309c-.103-.154-.256-.257-.41-.36-.153-.102-.306-.204-.46-.256a6.435 6.435 0 00-.512-.154h-.307c-.102 0-.204 0-.306.052-.103.05-.052.205.05.205.154.051.308.051.461.102.154 0 .307.052.46.103.154.051.307.103.41.205.153.103.307.154.41.257.153.051.255-.051.204-.154zm-1.791-2.412a2.14 2.14 0 00-.92-.564 1.813 1.813 0 00-.512-.103h-.256c-.103 0-.205 0-.256.051-.102.052-.051.154 0 .154a.46.46 0 01.256.052c.102 0 .153.05.256.05.153.052.307.052.46.104.307.102.614.256.87.41.05.103.204-.051.102-.154zm-2.2-1.745c-.307-.153-.665-.256-.972-.256-.153 0-.358-.052-.512 0-.102 0-.153.051-.255.051-.103 0-.154.052-.256.103-.102.051-.051.154.051.154h.972c.307.051.614.102.921.205.102 0 .205-.205.051-.257z"/><path d="M25.53 41.823l.154-1.078c.05-.154.05-.36.102-.513.051-.154.102-.36.153-.513 0-.103-.102-.154-.153-.052-.102.154-.205.36-.256.514-.051.154-.102.359-.153.564-.103.36-.103.77-.051 1.13-.052.102.153.102.204-.052z"/></g><defs><clipPath id="clip0_1_144"><path fill="#fff" transform="translate(.512)" d="M0 0h42.976v47.622H0z"/></clipPath></defs></svg>