<svg width="87" height="75" fill="none" xmlns="http://www.w3.org/2000/svg"><g clip-path="url(#clip0_1_84)" fill="#fff" fill-opacity=".6"><path d="M81.286-22.851c-1.555 3.086-2.793 6.28-4.291 9.399a84.196 84.196 0 01-4.81 8.724C68.81.464 64.443 5.009 58.935 7.992c-2.664 1.469-5.962 2.722-7.979 5.166-.317.418.21.948.584.563 1.114-1.011 2.219-1.877 3.551-2.61 1.276-.768 2.632-1.413 3.989-2.058 2.689-1.379 5.167-3.18 7.37-5.29 4.682-4.438 8.108-9.978 10.9-15.732 1.636-3.49 3.216-7.013 4.422-10.676-.016-.235-.356-.432-.486-.206z"/><path d="M50.907 13.506c-.21-.948-.452-1.84-.516-2.779-.087-1.028.003-2.103-.028-3.098-.013-2.338-.059-4.62-.072-6.957-.04-.324-.413-.464-.657-.304-1.544 1.363-1.953 3.382-2.183 5.354-.295 2.085-.476 4.235-.422 6.371.21-.103.422-.207.576-.343-3.034-1.301-5.141-3.946-7.826-5.721a.418.418 0 00-.6.254c-.206 1.535.596 2.9 1.65 3.96.665.684 1.451 1.289 2.214 1.804.876.58 1.776 1.25 2.847 1.494.406.083.52-.377.269-.597-.706-.483-1.533-.885-2.271-1.311-.763-.516-1.468-.998-2.166-1.626-1.005-.881-1.961-2.11-1.765-3.5-.21.104-.39.15-.6.254 2.651 1.832 4.758 4.477 7.793 5.778.316.107.617-.02.577-.344-.006-1.957.11-3.995.34-5.966.255-1.883.607-3.935 2.062-5.275-.227-.131-.43-.173-.657-.304.004 2.483-.048 4.934-.043 7.417-.01 1.723-.241 4.22 1.088 5.59.162.243.406.083.39-.151zm2.803 10.488c-1.08-.098-1.858-.848-2.58-1.565-.47-.497-.997-1.027-1.434-1.58-.357-.431-.657-.83-.891-1.341-.308-.78-.38-1.572-.687-2.351-.13-.3-.544-.239-.56.052-.116 1.512.556 3.102 1.577 4.218a34.18 34.18 0 001.743 1.833c.778.75 1.71 1.364 2.847 1.494.463.117.48-.7-.015-.76z"/><path d="M53.922 23.364c.024.09.08.122.105.211.057.033.024.09.081.122-.024-.089-.057-.032 0 0 0 0 .057.033.024.09l.025.089c-.025-.09.024.089 0 0l-.033.056-.032.056c.032-.056.024.09 0 0l-.033.057c-.033.056.09-.024 0 0l-.033.056-.032.056c-.033.057.09-.023 0 0l-.09.024-.089.024c.009-.146-.048-.179-.105-.211-.203-.042-.422.207-.374.385.016.235.154.39.39.375.235-.014.47-.029.681-.132a.899.899 0 00.472-.555c.138-.37-.04-.85-.315-1.159-.024-.09-.138-.155-.252-.22-.056-.033-.202-.042-.324.038-.13.225-.204.484-.066.638z"/><path d="M50.298 13.38c1.734 2.504 4.533 4.345 7.21 5.74.284.164.6.272.94.468l-.023-.089c-.09.024-.212.104-.358.095-.178.047-.357.094-.503.085-.682.132-1.413.086-2.11-.016-1.567-.303-2.995-.977-4.358-1.764-.284-.164-.593.109-.552.433.321 2.065 2.211 3.381 3.378 5.032.3.399.966.032.666-.367-1.142-1.562-2.975-2.845-3.273-4.821-.154.136-.398.296-.553.432 1.623.862 3.213 1.78 5.014 2.068.845.112 3.97.338 3.647-1.202-.137-.68-1.062-.913-1.573-1.209a22.305 22.305 0 01-2.555-1.475c-1.639-1.096-3.09-2.385-4.607-3.561-.218-.277-.552-.093-.39.15zm-4.553-.375c-16.76 3.328-28.972 16.874-38.577 29.97-1.334 1.785-2.7 3.627-3.75 5.577-.888 1.668-1.613 3.58-1.372 5.523.612 4.186 5.809 3.052 8.667 2.297 8.073-2.18 14.145-8.37 19.365-14.527 6.505-7.595 12.88-15.49 18.063-24.073.358-.62-.607-1.178-1.022-.59-4.54 7.075-9.354 13.842-14.737 20.28-5.131 6.133-10.465 12.75-17.882 16.286a23.856 23.856 0 01-5.174 1.748c-.86.18-1.689.303-2.574.393-1.03.082-2.33.234-3.132-.606-1.297-1.425-.417-3.998.283-5.474.871-1.902 2.14-3.575 3.352-5.28 4.97-6.903 10.336-13.576 16.725-19.134 3.088-2.727 6.542-5.168 10.173-7.13 3.664-2.02 7.53-3.47 11.583-4.588.682-.133.455-.79.009-.672z"/><path d="M50.794 12.914c-3.436 1.624-6.645 3.906-9.596 6.261-3.039 2.38-5.884 4.947-8.672 7.547-2.975 2.792-5.893 5.617-8.982 8.344-3.21 2.807-6.477 5.581-9.688 8.388-3.763 3.24-7.526 6.48-11.321 9.775-.586.489.25 1.272.802.84 6.6-5.662 13.167-11.266 19.628-17.082 5.877-5.327 11.421-10.996 17.379-16.2 3.3-2.83 6.9-5.263 10.718-7.418.22-.249.033-.582-.268-.455z"/><path d="M33.525 26.697c-.65-.45-1.485-.707-2.231-.988-.747-.28-1.47-.472-2.248-.696-.78-.225-1.534-.36-2.256-.551-.755-.135-1.648-.425-2.443-.358-.382.005-.472.554-.099.695.747.28 1.567.303 2.322.438a29.71 29.71 0 012.288.494c.78.224 1.501.416 2.28.64.78.225 1.493.562 2.28.64.171.099.277-.216.107-.314zm3.991-4.16c-.333.71-.294 1.559-.336 2.286l-.15 2.62c-.05.873-.156 1.714-.206 2.587-.074.784-.335 1.76-.117 2.563.073.268.479.352.641.07.391-.677.327-1.616.401-2.4l.15-2.62c.05-.873.067-1.69.117-2.563.018-.816.1-1.746-.207-2.525-.025-.089-.284-.164-.293-.018zm-9.339 8.439c-.384 2.108-.509 4.291-.601 6.418-.125 2.183-.282 4.422-.025 6.6.056.559.819.548.852-.034.125-2.183.014-4.352.05-6.511.035-2.16.16-4.343.163-6.445-.049-.179-.398-.23-.439-.028zm-3.885 3.845c-1.347-.552-2.792-.935-4.212-1.229-.722-.191-1.42-.294-2.118-.396a18.217 18.217 0 01-1.104-.186c-.35-.051-.722-.192-1.112-.04-.268.07-.285.361-.058.492.252.22.633.215.982.266a18 18 0 011.104.187c.755.135 1.51.27 2.175.428 1.42.294 2.808.644 4.237.793.178-.047.22-.25.106-.315zm-6.259 5.332c-.741 2.203-1.11 4.546-1.56 6.767l-.637 3.465c-.18 1.099-.45 2.22-.484 3.329-.025.437.617.506.788.079.27-1.123.425-2.31.605-3.41.18-1.098.36-2.197.63-3.32.45-2.22 1.077-4.488 1.38-6.719-.064-.413-.583-.562-.722-.191z"/><path d="M18.317 40.843c-.714-.338-1.502-.416-2.256-.551-.755-.136-1.453-.238-2.208-.373a67.13 67.13 0 01-2.15-.34c-.642-.07-1.34-.172-1.86.205a.289.289 0 00.145.535c.641.07 1.258.05 1.9.12a56.25 56.25 0 002.037.273l2.094.307c.698.103 1.453.238 2.16.195.202.041.397-.297.138-.371zm24.19-22.491c-.449 1.17-.523 2.48-.622 3.7-.066.639-.1 1.22-.165 1.86-.017.29-.066.638-.083.929-.016.29-.066.638.186.859.08.122.284.163.406.084.373-.386.269-1.123.302-1.705.066-.638.132-1.277.14-1.948.133-1.277.378-2.489.363-3.775-.016-.235-.454-.262-.527-.004z"/><path d="M42.937 18.525c-1.201-.543-2.532-.86-3.896-1.121-.665-.159-1.363-.261-1.972-.387-.349-.051-.608-.126-.958-.177-.292-.018-.608-.126-.941.058-.122.08-.196.338-.025.436.251.22.543.239.836.257l1.047.154c.64.07 1.25.195 1.858.321 1.307.228 2.573.658 3.88.887.202.042.398-.297.17-.428zM63.444 5.56c-4.583 3.217-8.51 7.79-11.536 12.507-2.872 4.58-4.925 9.71-5.703 15.123-.197 1.39-.337 2.813-.331 4.245-.026 1.488-.029 3.065.448 4.468.13.3.544.239.56-.053.076-1.31-.028-2.572-.043-3.858-.014-1.286.085-2.507.184-3.728.296-2.61.908-5.113 1.723-7.574 1.736-5.237 4.65-10.02 8.26-14.174 2.04-2.355 4.389-4.456 6.624-6.623.244-.16.025-.437-.186-.333z"/><path d="M46.972 41.827c-2.029-.42-4.247.93-5.142 2.744-.953 1.78-.68 4.193.698 5.74 1.378 1.547 3.724 2.075 5.592 1.199 1.958-.9 3.048-3.05 3.14-5.177.1-1.221-.207-2.526-.945-3.478-.875-1.106-2.32-1.49-3.684-1.225-.357.095-.358.62-.009.672.982.266 2.119.396 2.808 1.17.608.651.817 1.6.824 2.505.022 1.667-.638 3.465-2.01 4.402-1.407.992-3.33.783-4.587-.318-1.314-1.135-1.733-3.03-1.114-4.627.318-.944.976-1.692 1.83-2.251.853-.56 1.86-.73 2.81-.934.032-.056-.008-.38-.21-.422z"/><path d="M46.05 45.654c-.682.133-1.22.8-1.171 1.504.015.76.623 1.412 1.41 1.49a1.81 1.81 0 001.096-.193c.333-.184.585-.489.724-.86.22-.775-.022-1.666-.76-2.093-.398-.23-.95-.322-1.372-.115-.211.103-.423.207-.61.4-.186.192-.26.45-.277.742-.016.29.357.431.544.238l.033-.056c-.09.024.065-.113 0 0 .089-.024.154-.136.243-.16l.09-.023.089-.024s.032-.056.09-.024c-.09.024-.09.024 0 0 .089-.023.121-.08.178-.047l.09-.023c.089-.024.056.032 0 0 .032-.057.145.009.235-.015.056.033.056.033 0 0l.146.01.113.065.114.065c-.114-.065.114.066 0 0 .057.033.114.066.081.122.057.033.057.033 0 0 0 0 .024.09.081.122l.024.09a434.314 434.314 0 01.048.178l.025.089c.024.09-.008.145.016.235l-.033.056-.032.056-.033.057c-.032.056-.122.08-.154.136.122-.08-.033.056-.09.024l-.089.023-.178.047c-.09.024.089-.023 0 0-.057-.032-.09.024-.147-.009 0 0-.056-.033-.089.024-.09.024.057.033 0 0s-.146-.01-.203-.042l-.057-.033c-.113-.065.057.033 0 0l-.17-.098c-.114-.066.057.033 0 0l-.057-.033-.056-.033c-.057-.032-.025-.089-.082-.122l-.024-.089c.033-.056-.024-.089.008-.145-.024-.09.009-.146.041-.202 0 0 .033-.057-.024-.09.024.09.033-.056.033-.056.032-.056.008-.145.04-.202-.032.057 0 0 .033-.056l.065-.113.065-.113a.495.495 0 01.277-.216c.04-.202-.089-.502-.324-.488z"/><path d="M46.658 45.78c.01-.671.075-1.31.084-1.981-.04-.324.01-.671-.031-.995.017-.291.026-.963-.445-.934-.471.03-.448.644-.407.968.04.324-.01.671.03.995-.008.671.072 1.319.12 2.023.04.324.624.36.65-.076z"/></g><defs><clipPath id="clip0_1_84"><path fill="#fff" transform="rotate(30 99.758 81.202)" d="M0 0h41.044v107.932H0z"/></clipPath></defs></svg>