<svg width="68" height="48" fill="none" xmlns="http://www.w3.org/2000/svg"><g clip-path="url(#clip0_1_248)" fill="#fff" fill-opacity=".6"><path d="M50.81 18.904c.8-.533 1.547-1.12 2.241-1.815.694-.694 1.28-1.441 1.708-2.295.053-.107-.053-.16-.16-.107-.587.747-1.174 1.495-1.815 2.135a17.753 17.753 0 01-2.08 1.922c-.108.107 0 .267.106.16zM62.176 6.199c-.32 1.44-1.174 2.722-2.24 3.683-.054.054 0 .16.106.107 1.28-.854 2.081-2.242 2.348-3.737.053-.16-.16-.214-.214-.053zm-2.241 13.293c.32-.32.694-.587 1.014-.908.32-.32.694-.587.96-.96.054-.054 0-.214-.106-.16-.374.266-.694.586-1.014.907l-.96.96c-.054.16.053.268.106.16zm4.536-5.339c.32-.373.64-.8.907-1.228.107-.213.267-.427.374-.64.107-.214.267-.48.213-.694 0-.054-.106-.107-.16-.054-.213.107-.267.374-.373.587l-.32.641c-.214.427-.48.854-.747 1.281-.107.054 0 .16.106.107zm.16-2.509c.107-.214.214-.48.32-.694l.16-.32a.99.99 0 00.107-.374c0-.053-.106-.107-.16-.053-.107.106-.16.213-.213.32a2.473 2.473 0 00-.16.374c-.107.213-.214.48-.32.694 0 .053 0 .106.053.16.16-.054.213-.054.213-.107zm-4.909-5.606c.16-.32.32-.587.533-.907.107-.16.16-.267.267-.427.054-.16.16-.267.214-.427 0-.054-.054-.107-.107-.054-.16.107-.213.267-.267.374-.107.16-.16.32-.267.427-.16.32-.32.587-.48.908-.16.106 0 .213.107.106zm3.468 3.31c.16-.267.32-.48.48-.747a.86.86 0 00.214-.374c.054-.107.16-.267.214-.427 0-.107-.107-.16-.16-.107-.107.107-.214.214-.267.32-.107.107-.16.268-.267.374-.16.267-.32.534-.427.748-.053.213.107.32.213.213zm-9.125-3.737c.534-.48.96-1.014 1.28-1.601.16-.32.321-.588.481-.908.107-.267.32-.64.32-.96 0-.108-.106-.161-.16-.054-.213.213-.267.587-.427.854-.16.32-.267.64-.48.907a11.79 11.79 0 01-1.12 1.709c-.054.053.053.107.106.053zm2.455-1.388c.16-.213.373-.48.533-.694.107-.106.16-.213.267-.373.107-.107.16-.267.214-.374 0-.053-.054-.16-.107-.107-.213.16-.427.427-.587.64-.16.214-.32.481-.534.695-.053.16.16.32.214.213zm-3.415-.961c.16-.267.266-.534.426-.8.054-.107.16-.267.214-.374.053-.16.107-.267.16-.427.053-.107-.107-.16-.16-.054-.053.054-.107.107-.107.16-.053.054-.053.107-.107.214-.053.16-.16.267-.213.427-.107.267-.267.534-.374.8-.16.054.054.161.16.054zm12.967 14.094c.107-.106.16-.213.267-.32.053-.053.107-.107.107-.16.053-.053.106-.107.106-.214.054-.053-.053-.106-.106-.053l-.16.16-.16.16c-.107.107-.16.214-.267.32-.054.054-.054.107 0 .16.106 0 .16 0 .213-.053zm-36.074-3.79c.32.587.693 1.068 1.227 1.495.267.213.534.373.8.534.267.106.587.266.908.266.106 0 .16-.16.053-.213-.107-.053-.267-.107-.373-.16-.16-.054-.267-.107-.427-.16a5.81 5.81 0 01-.8-.427c-.481-.374-.908-.801-1.228-1.335-.107-.16-.267-.107-.16 0zm-.748 5.285c.374.32.748.587 1.175.854.427.214.853.48 1.334.48.106 0 .106-.106.053-.16-.373-.266-.8-.373-1.227-.587-.427-.213-.8-.427-1.174-.747-.107-.053-.267.053-.16.16zM37.736 4.01c.16.48.32.907.533 1.388.107.213.16.427.267.694.107.213.16.48.32.64.053.054.16 0 .16-.053 0-.213-.106-.48-.213-.694-.107-.213-.214-.48-.32-.694-.214-.427-.427-.907-.64-1.335.053-.16-.108-.053-.108.054zm4.589-1.602c.16.267.267.48.373.747.054.16.107.267.16.428 0 .053.054.106.054.213 0 .054.053.16.107.214 0 .053.16.053.106-.054v-.213c0-.107 0-.16-.053-.214-.053-.16-.107-.267-.16-.427a5.81 5.81 0 00-.427-.8c-.053-.107-.267 0-.16.106zm4.643-1.174l.48 1.12c.053.161.107.375.16.535.053.213.107.373.213.587.054.107.16.053.16-.053 0-.214-.053-.427-.106-.588a2.602 2.602 0 00-.214-.587c-.16-.374-.32-.747-.533-1.121-.054-.107-.214 0-.16.107zM36.562 4.917l.32.801c.053.16.106.267.16.427.053.054.053.16.106.214.054.053.107.106.107.213.054.107.214.054.16-.053 0-.054 0-.16-.053-.214a.405.405 0 00-.107-.213c-.053-.16-.107-.267-.16-.427-.107-.267-.213-.534-.373-.801 0-.16-.214-.053-.16.053zm8.751-3.63c.054.32.16.64.267.96l.16.481c.054.107.054.32.214.374.053.053.16 0 .16-.053.053-.16-.054-.32-.107-.48l-.16-.481c-.107-.32-.267-.588-.427-.908-.053 0-.16.054-.107.107zm-5.656 2.029c.053.16.106.32.213.48 0 .054.053.054.053.107s0 .107.054.16c.053.054.107.16.16.214h.053l.054-.054c0-.106-.054-.16-.054-.267 0-.053 0-.106-.053-.16 0-.053-.053-.053-.053-.107-.107-.16-.16-.32-.214-.48-.053-.107-.267 0-.213.107zm-10.46 20.607c.32 0 .64.053.96.053h.481c.16 0 .32 0 .48-.053.054-.054.054-.107 0-.16-.106-.054-.32-.054-.427-.054h-.48c-.32 0-.64.054-.96.054-.16 0-.16.16-.054.16zm.801 2.295c.267.054.533.107.854.054.16 0 .266 0 .426-.054.16-.053.267-.106.427-.16.107-.053.054-.213-.053-.213-.16 0-.267 0-.427.053-.107 0-.267.053-.373.053a2.02 2.02 0 01-.801 0c-.16.054-.16.214-.053.267zm2.294 4.538c.48-.107.907-.267 1.334-.534.214-.106.427-.213.64-.373.214-.107.374-.267.535-.48.053-.108-.054-.161-.16-.161a3.59 3.59 0 00-.588.374c-.213.107-.373.267-.587.373-.427.214-.8.428-1.28.534-.107.054-.054.267.106.267zm.961 2.029c.427-.213.854-.48 1.334-.694.213-.107.427-.213.64-.374.214-.106.427-.213.587-.427.054-.053 0-.16-.053-.107-.213.054-.48.214-.64.32-.214.108-.427.268-.64.375l-1.282.8c-.106 0-.053.16.054.107zm2.187.64c.321.054.641 0 .908-.106.267-.107.534-.32.694-.588.053-.106-.107-.213-.16-.16-.16.214-.374.374-.587.48-.214.108-.48.161-.747.161-.16 0-.214.213-.107.213zm4.163 1.602c.374-.107.747-.213 1.068-.427l.48-.32c.16-.107.32-.267.373-.427.054-.054-.053-.107-.106-.107-.16.053-.32.213-.427.267-.16.107-.32.213-.427.267-.32.213-.64.32-.96.427-.16.16-.107.32 0 .32zm3.095.534c.16-.053.32-.16.48-.267.054-.053.16-.107.214-.213l.107-.107c0-.054.053-.107.053-.107 0-.053 0-.107-.053-.16-.053-.054-.107-.054-.16 0l-.107.107-.107.106c-.053.054-.106.107-.16.214-.053 0-.053.053-.107.053 0 0-.053.054-.106.054-.054 0-.054.053-.107.053s-.053.053-.107.053c0 .054.054.214.16.214zm7.205.107c.32-.214.64-.427.907-.694.107-.107.267-.267.373-.427.107-.16.214-.32.267-.534.054-.107-.107-.16-.16-.107-.107.107-.267.267-.373.427-.107.16-.214.267-.374.427-.267.267-.48.48-.8.694-.054.107.053.267.16.214zm4.002-1.121c.32-.054.64-.214.854-.48.107-.108.213-.268.267-.428.053-.16.106-.32.106-.48 0-.107-.106-.107-.16 0 0 .053-.053.107-.053.213-.053.054-.053.107-.107.16-.053.107-.16.214-.267.32a2.03 2.03 0 01-.693.481c-.107.054-.054.214.053.214zm3.575-1.228c.214-.214.427-.48.587-.8.16-.268.267-.588.32-.909 0-.053-.106-.16-.106-.053-.267.587-.534 1.121-.907 1.602-.16.107 0 .213.106.16zm3.042-2.082c.107-.267.267-.534.374-.801.053-.16.106-.267.16-.427.053-.107.107-.267.107-.427 0-.107-.107-.16-.16-.054-.107.107-.16.267-.214.374-.053.16-.107.267-.16.427l-.32.801c0 .16.213.267.213.107zm2.242-9.289c.64.106 1.28.106 1.92.053.32-.053.641-.107.908-.16.267-.054.64-.16.8-.374.054-.053 0-.107-.053-.16-.267-.053-.534.107-.8.16-.32.053-.588.16-.908.214-.587.106-1.227.106-1.814.053-.107-.053-.16.16-.053.213zm.426 4.537c.267-.053.48-.053.748-.106.106 0 .266-.054.373-.054a.989.989 0 00.374-.107c.106-.053.106-.213-.054-.213h-.373c-.107 0-.267.053-.374.053-.267.054-.48.054-.747.107-.107.053-.107.32.053.32zM42.111 16.93c0-.535-.053-1.015-.106-1.549-.054-.267-.107-.534-.16-.747-.054-.214-.107-.48-.214-.641-.053-.053-.107 0-.107 0 0 .107 0 .213.054.32a.99.99 0 00.106.374c.054.213.107.48.16.694.107.48.16 1.014.16 1.548-.053.054.107.107.107 0zm5.284-.268c.106-.373.106-.8.053-1.174-.053-.427-.107-.8-.32-1.175-.054-.106-.214-.053-.214.107.107.374.16.748.214 1.121.053.374.053.748.053 1.121.053.107.214.107.214 0zm2.828-2.829v-1.014c0-.107 0-.214-.053-.32 0-.054-.107-.054-.107 0 0 .106-.054.213-.054.32v1.014c.054.107.214.107.214 0zm1.654-1.335c.053-.48 0-.96-.107-1.441-.053-.214-.16-.48-.213-.694-.107-.214-.267-.427-.374-.588-.053-.106-.16 0-.16.107.107.214.16.427.267.64.053.214.16.428.214.642.106.427.16.907.16 1.334-.054.16.16.16.213 0zm-11.74 4.004c0-.267 0-.534-.053-.8 0-.268-.054-.534-.107-.801-.053-.107-.214-.107-.214.053-.053.267 0 .534.054.8.053.268.106.535.106.802 0 .106.214.053.214-.054zm-.214 11.158c.32-.214.587-.48.908-.694.266-.214.587-.48.853-.748.054-.053 0-.213-.106-.16-.32.214-.587.48-.907.694-.267.267-.587.534-.854.748-.107.107 0 .213.106.16zm3.469.427a2174.496 2174.496 0 00.96-.961c.054-.053-.053-.214-.16-.16a2.05 2.05 0 00-.48.48l-.48.48c-.053.108.107.214.16.16zm5.87.801c.214-.16.48-.374.694-.534.107-.107.213-.16.374-.267l.32-.32c.053-.054-.054-.16-.107-.16-.16.053-.267.16-.373.213-.107.107-.214.16-.32.267-.214.213-.428.374-.641.587-.16.107-.053.32.053.214zm2.828.107l.48-.48.214-.214c.054-.107.16-.16.214-.267.053-.054-.054-.16-.107-.107-.107.053-.16.16-.267.213-.107.054-.16.16-.213.267l-.48.48c-.054.054.053.214.16.108zm4.643.8a4.6 4.6 0 00.96-.747c.268-.267.588-.64.695-1.014.053-.107-.107-.214-.16-.107-.107.16-.214.32-.374.48-.107.16-.213.32-.374.427-.266.267-.533.534-.853.801-.107.053 0 .214.106.16zm1.868.695c.48-.374.907-.801 1.334-1.282.214-.213.374-.48.534-.747.16-.267.32-.534.373-.855 0-.053-.106-.16-.16-.106-.213.213-.32.48-.48.747-.16.267-.32.534-.534.747-.373.48-.747.961-1.227 1.389 0 .053.107.16.16.106zM48.195 18.37c.213-.16.427-.266.587-.427.214-.16.427-.266.587-.427.107-.106 0-.213-.107-.16-.213.107-.427.267-.587.374-.213.16-.373.267-.587.427-.053.053-.107.107-.053.16.053.054.107.107.16.054zM34.48 13.94c.267-.16.534-.32.747-.48.214-.16.427-.375.587-.641.054-.054-.053-.16-.106-.107-.214.16-.427.373-.64.587-.214.16-.428.32-.694.48-.16.054-.054.214.106.16z"/><path d="M32.346 31.343c.907 1.602 2.401 2.51 4.055 3.15 1.975.748 4.11 1.175 6.19 1.442 4.43.587 9.02.267 13.182-1.388 3.629-1.442 6.884-3.844 9.018-7.207 2.082-3.257 3.096-7.208 2.775-11.051C66.82 8.6 60.842 2.195 53.265.753c-4.27-.8-9.072-.534-13.128 1.121-3.362 1.388-6.244 3.737-8.378 6.727-4.483 6.246-4.536 14.895-.427 21.355.48.8 1.067 1.548 1.654 2.242.374.427 1.067-.214.64-.64-4.749-5.5-5.87-13.721-2.401-20.18 1.601-2.99 4.056-5.553 6.937-7.315 3.47-2.082 7.525-2.776 11.527-2.616 3.896.16 7.738 1.281 10.833 3.79 2.669 2.19 4.643 5.18 5.55 8.49.907 3.523.587 7.313-.8 10.623-1.441 3.47-4.056 6.3-7.311 8.168-3.522 2.029-7.631 2.883-11.634 2.83-2.188 0-4.376-.32-6.51-.748-1.815-.374-3.63-.8-5.23-1.762-.747-.48-1.44-.96-2.028-1.708-.107-.053-.32.107-.213.213z"/><path d="M34.053 32.625c-1.6-1.709-4.215-1.976-6.35-1.442-2.455.64-4.536 2.403-6.19 4.271-1.922 2.136-3.416 4.591-5.497 6.62-1.974 1.975-4.376 3.47-6.99 4.485-1.548.587-3.363 1.014-5.017.587a4.174 4.174 0 01-1.868-.961c-.587-.48-.854-1.121-1.28-1.709-.054-.213-.427-.106-.427.107 0 1.068.907 1.922 1.76 2.51 1.015.693 2.242.96 3.47.907 2.721-.107 5.55-1.441 7.79-2.936 2.349-1.548 4.216-3.63 5.924-5.82 1.761-2.242 3.522-4.697 6.03-6.192 2.615-1.602 5.817-1.869 8.432-.107.16.107.373-.16.213-.32zm-4.909-11.639c3.895 2.403 8.378 4.111 12.807 5.286a57.107 57.107 0 0013.822 1.868c1.334 0 2.668 0 4.002-.107 1.28-.053 2.615-.106 3.842-.48.374-.107.32-.64-.106-.694-1.121-.053-2.242.107-3.362.213a69.987 69.987 0 01-3.416.107c-2.241 0-4.536-.106-6.777-.373-4.536-.534-9.019-1.549-13.341-3.097-2.508-.854-4.856-2.029-7.258-3.15-.267-.053-.427.267-.213.427z"/><path d="M28.984 16.022c.96.854 2.134 1.441 3.255 2.028 1.174.587 2.295 1.175 3.522 1.709 2.348 1.067 4.803 2.028 7.311 2.776 5.016 1.601 10.246 2.509 15.476 2.776 1.387.053 2.721.107 4.055-.107 1.068-.16 2.669-.534 3.256-1.602.16-.267-.107-.533-.374-.48-.534.107-1.014.427-1.547.587-.534.214-1.068.32-1.655.427-1.174.214-2.401.16-3.575.107a59.983 59.983 0 01-7.525-.8 64.843 64.843 0 01-14.461-4.112c-1.334-.587-2.669-1.174-4.003-1.868-1.227-.587-2.401-1.388-3.629-1.869-.106 0-.266.267-.106.428zm1.707-3.524c3.362 3.043 8.058 4.058 12.328 5.125 5.016 1.282 10.086 2.296 15.262 2.51 1.494.053 2.988.053 4.43-.054 1.333-.107 2.88-.053 4.055-.694.213-.107.213-.534-.053-.587-1.174-.16-2.455.16-3.63.213-1.227.107-2.454.107-3.681.107a61.304 61.304 0 01-7.632-.64c-4.749-.748-9.498-1.762-14.141-3.15-2.402-.694-4.696-1.709-6.724-3.204-.16-.16-.427.214-.214.374zm1.014 16.016c1.228-.32 2.295-.96 3.362-1.601.534-.32 1.014-.695 1.548-1.015.213-.16.48-.374.694-.534.266-.213.48-.373.587-.694.053-.107-.054-.267-.214-.267-.534.054-1.014.588-1.44.908-.481.374-1.015.747-1.495 1.068-1.014.64-2.135 1.174-3.148 1.868-.16.053-.054.32.106.267z"/><path d="M45.954 17.837c1.387-.747 2.614-1.869 3.789-2.883 1.227-1.068 2.401-2.242 3.522-3.417a65.518 65.518 0 003.095-3.63l1.44-1.922c.428-.587 1.068-1.281 1.228-2.029.053-.267-.267-.64-.534-.427-.587.427-.907 1.121-1.28 1.709-.427.64-.908 1.281-1.388 1.922a51.456 51.456 0 01-3.148 3.79 48.39 48.39 0 01-3.309 3.31c-1.174 1.121-2.562 2.082-3.682 3.257-.214.16 0 .48.267.32zm-9.232 16.71c1.014-.214 2.027-.801 2.935-1.282 1.014-.533 1.974-1.174 2.881-1.815.908-.587 1.761-1.281 2.562-1.922.427-.373.854-.694 1.28-1.067.427-.374.854-.694 1.121-1.175.16-.267-.16-.534-.427-.427-.48.214-.8.64-1.174 1.014-.373.374-.8.694-1.174 1.015a26.157 26.157 0 01-2.721 2.082c-.908.64-1.815 1.174-2.722 1.762-.907.533-1.868 1.014-2.668 1.708-.16-.053-.053.107.107.107zm18.464-15.215c.533-.16 1.014-.588 1.44-.908.428-.32.908-.694 1.281-1.068.908-.8 1.761-1.655 2.562-2.509.8-.854 1.494-1.762 2.188-2.67.373-.48.747-1.013 1.067-1.494.267-.374.747-.908.587-1.388-.053-.107-.16-.214-.32-.16-.48.107-.694.747-.96 1.12-.32.481-.641.962-1.015 1.442a37.467 37.467 0 01-2.188 2.723 34.63 34.63 0 01-2.4 2.456c-.428.373-.801.747-1.228 1.12-.427.375-.908.695-1.228 1.175-.053.054.054.214.214.16zm-9.819 16.443c1.92-.641 3.735-1.869 5.39-3.097.8-.587 1.6-1.228 2.348-1.922.373-.373.747-.694 1.12-1.067.374-.374.8-.748 1.067-1.175.16-.32-.16-.694-.48-.48-.373.266-.694.64-1.014.96-.373.374-.694.695-1.067 1.015a42.63 42.63 0 01-2.348 2.029c-1.601 1.227-3.415 2.188-5.07 3.363-.267.16-.16.48.054.373zm17.13-16.283c.48-.267.907-.694 1.28-1.068.427-.374.8-.8 1.174-1.228.374-.427.694-.854 1.068-1.281.32-.48.747-.908.96-1.441.107-.268-.32-.481-.48-.268-.373.374-.64.908-.96 1.335-.32.427-.694.908-1.014 1.335-.374.427-.694.8-1.068 1.228-.373.427-.8.8-1.12 1.228-.16.053-.054.267.16.16zM35.174 5.077c1.12 3.577 2.241 7.154 3.095 10.838.107.427.747.267.64-.16-.907-3.684-1.974-7.314-3.468-10.784-.053-.214-.32-.054-.267.106zm4.856-2.776c.267 1.282.96 2.456 1.388 3.684.427 1.175.854 2.402 1.174 3.63.693 2.51 1.174 5.019 1.6 7.635.054.427.855.373.801-.107-.267-2.616-.907-5.232-1.6-7.741a43.842 43.842 0 00-1.282-3.737c-.426-1.175-.853-2.563-1.654-3.577-.107-.214-.48-.107-.427.213z"/><path d="M43.926 1.447c.267 1.068.854 2.136 1.334 3.203.48 1.068.907 2.19 1.28 3.31.801 2.243 1.335 4.485 1.815 6.78.107.48.8.267.747-.213-.427-2.35-1.174-4.751-1.974-6.994-.374-1.067-.854-2.189-1.281-3.256-.427-1.015-.907-2.136-1.654-2.99-.107-.107-.32 0-.267.16zm5.176-.267c.214.854.64 1.655 1.014 2.403.374.854.694 1.761 1.014 2.616.32.854.587 1.708.854 2.562.107.427.213.8.373 1.228.107.374.107.854.427 1.121.16.16.374.054.427-.107.16-.373-.053-.854-.16-1.228-.107-.48-.267-.907-.427-1.388a48.941 48.941 0 00-.907-2.562c-.32-.801-.64-1.655-1.014-2.456-.373-.8-.747-1.708-1.334-2.402-.107-.16-.32 0-.267.213zM31.278 11.858c.961-.428 1.868-1.015 2.722-1.655.427-.32.8-.641 1.174-1.015.214-.16.374-.373.587-.587.16-.16.427-.374.427-.64a.23.23 0 00-.214-.214c-.266 0-.426.213-.586.427-.16.213-.374.374-.534.534-.374.373-.747.694-1.174 1.068-.8.694-1.654 1.28-2.508 1.868-.107.107 0 .267.106.214z"/><path d="M50.65 2.835c.213-.267.427-.48.64-.747.107-.107.214-.214.32-.374.107-.107.267-.267.267-.427 0-.107-.053-.213-.16-.16-.16.053-.267.214-.373.374a2.961 2.961 0 00-.32.427c-.214.267-.374.534-.588.8-.106.054.107.268.214.107z"/></g><defs><clipPath id="clip0_1_248"><path fill="#fff" transform="translate(.434 .326)" d="M0 0h67.133v47.674H0z"/></clipPath></defs></svg>