<svg width="30" height="29" fill="none" xmlns="http://www.w3.org/2000/svg"><g clip-path="url(#clip0_1_211)" fill="#fff" fill-opacity=".6"><path d="M.758 16.347c.474.188.995.281 1.516.235.474 0 .995-.094 1.469-.33.094-.046.047-.234-.095-.187-.474.094-.9.235-1.421.235-.474 0-.948-.047-1.422-.141-.094-.047-.142.14-.047.188zm.995 4.133c.947.047 1.99-.282 2.7-.94.048-.046 0-.187-.094-.14-.38.235-.806.47-1.232.658-.427.14-.9.234-1.374.234-.095 0-.095.188 0 .188zm1.469 3.335a8.355 8.355 0 001.516-.563c.236-.094.473-.235.71-.376.237-.141.474-.282.663-.517.048-.047 0-.188-.094-.14-.237.14-.474.281-.664.422-.236.14-.473.235-.663.376a13.72 13.72 0 01-1.468.61c-.19 0-.143.188 0 .188zM6.017 25.6a3.703 3.703 0 001.895.047c.568-.14 1.232-.422 1.61-.94a.104.104 0 00-.142-.14c-.236.14-.473.329-.71.47-.284.14-.521.235-.806.329a3.71 3.71 0 01-1.753 0c-.189 0-.236.234-.094.234zM25.346 4.65c.047.517 0 .987-.19 1.456a4.223 4.223 0 01-.331.658c-.142.235-.332.376-.474.61-.047.095.047.236.19.189.236-.141.379-.376.52-.564.143-.235.285-.47.38-.705.19-.516.237-1.033.19-1.597-.048-.188-.332-.188-.285-.047zm1.895 2.819c-.047.563-.142 1.127-.331 1.644a21.75 21.75 0 01-.664 1.55c-.047.094.095.235.19.14a5.05 5.05 0 001.09-3.334.148.148 0 00-.285 0zm.474 3.288a3.65 3.65 0 01-.38 1.221c-.094.188-.236.376-.33.517-.143.188-.285.329-.427.517-.095.093 0 .234.142.187.19-.094.379-.281.521-.47.142-.187.284-.375.38-.61.189-.423.33-.893.33-1.362 0-.141-.236-.141-.236 0zm.474 3.053a3.872 3.872 0 01-.285.986c-.094.142-.19.282-.284.423-.095.141-.237.235-.379.376-.095.094.047.282.142.188.332-.188.616-.517.758-.845.19-.33.285-.705.285-1.128.047-.188-.237-.188-.237 0z"/><path d="M6.964 2.771C1.753 5.261-.71 11.837.19 17.24c.948 5.919 6.112 10.334 11.94 11.368 2.984.516 6.016.188 8.764-1.08 2.89-1.316 5.306-3.618 6.87-6.342 3.22-5.684 2.084-13.153-2.749-17.615-4.548-4.18-12.08-4.744-17.292-1.456A8.726 8.726 0 005.97 3.57c-.237.282.095.752.427.517 2.369-1.691 4.974-2.866 7.911-3.1 2.843-.188 5.828.422 8.291 1.972 5.212 3.241 7.39 10.194 5.259 15.877-2.085 5.543-7.675 9.395-13.644 9.113-5.496-.188-11.039-3.617-12.84-8.925-1.752-5.073-.094-11.18 4.028-14.702.521-.47 1.09-.893 1.705-1.269.142-.14 0-.376-.142-.282z"/><path d="M.853 13.81c.142-.47 4.121 1.175 4.5 1.362 1.422.752 2.654 1.738 3.648 2.96a11.055 11.055 0 012.18 4.415c.379 1.644.19 3.241.047 4.932-.047.33.521.517.663.188 1.232-2.724.332-6.341-1.184-8.784-1.61-2.583-4.217-4.462-7.154-5.308-.758-.235-1.658-.47-2.416-.422-.426.046-.9.375-.569.798.095.047.285 0 .285-.14zM21.509 2.302c-2.322 1.832-2.464 5.543-2.132 8.22.379 3.053 1.61 6.06 3.648 8.408 1.042 1.221 2.605 2.678 4.358 2.067.474-.188.284-.892-.19-.752-1.847.47-3.505-1.738-4.405-3.006-.995-1.456-1.753-3.053-2.18-4.744-.9-3.288-.9-7.093 1.232-9.911.142-.235-.142-.423-.331-.282z"/></g><defs><clipPath id="clip0_1_211"><path fill="#fff" d="M0 0h29.563v28.841H0z"/></clipPath></defs></svg>