<svg width="50" height="37" fill="none" xmlns="http://www.w3.org/2000/svg"><path d="M37.42 14.745a10.719 10.719 0 001.664-1.348c.515-.515.951-1.07 1.268-1.704.04-.08-.04-.12-.118-.08-.437.555-.873 1.11-1.348 1.586-.476.515-.991.991-1.546 1.427-.08.08 0 .198.08.119zm8.442-9.435c-.238 1.071-.872 2.022-1.665 2.736-.04.04 0 .119.08.08.951-.635 1.545-1.666 1.744-2.776.04-.118-.12-.158-.159-.04zm-1.665 9.871c.238-.238.516-.436.753-.674.238-.238.516-.436.714-.713.04-.04 0-.159-.08-.12-.277.199-.515.437-.752.675l-.714.713c-.04.119.04.198.08.119zm3.37-3.964c.237-.277.475-.595.673-.912.08-.158.199-.317.278-.475.08-.159.198-.357.159-.516 0-.04-.08-.079-.12-.04-.158.08-.198.278-.277.437l-.238.475c-.158.318-.356.635-.555.952-.079.04 0 .119.08.079zm.119-1.863c.079-.159.158-.357.237-.515l.12-.238a.749.749 0 00.079-.278c0-.04-.08-.079-.12-.04-.079.08-.118.16-.158.239-.04.079-.08.158-.119.277-.08.159-.158.357-.238.515 0 .04 0 .08.04.12.119-.04.159-.04.159-.08zm-3.647-4.162c.119-.238.238-.436.396-.674.08-.119.12-.198.198-.317.04-.119.12-.198.159-.317 0-.04-.04-.08-.08-.04-.118.08-.158.198-.198.278-.079.119-.118.238-.198.317-.119.238-.238.436-.357.674-.118.079 0 .158.08.079zm2.576 2.458c.12-.199.238-.357.357-.555a.638.638 0 00.159-.278c.04-.08.118-.198.158-.317 0-.08-.08-.119-.119-.08-.079.08-.158.16-.198.239-.08.079-.119.198-.198.277a9.108 9.108 0 00-.317.555c-.04.159.079.238.158.159zm-6.778-2.775a4.49 4.49 0 00.951-1.19c.12-.237.238-.435.357-.673.08-.199.238-.476.238-.714 0-.08-.08-.119-.119-.04-.159.16-.198.437-.317.635-.119.238-.198.475-.357.674a8.73 8.73 0 01-.832 1.268c-.04.04.04.08.08.04zm1.823-1.031c.12-.158.278-.357.397-.515.08-.08.119-.159.198-.278.08-.079.119-.198.159-.277 0-.04-.04-.119-.08-.08-.158.12-.317.318-.436.476-.119.159-.238.357-.396.516-.04.119.119.237.158.158zm-2.536-.714c.118-.198.198-.396.317-.594.04-.08.119-.198.158-.277.04-.12.08-.199.12-.318.039-.079-.08-.118-.12-.04-.04.04-.079.08-.079.12-.04.04-.04.08-.08.158-.039.12-.118.199-.158.317-.08.199-.198.397-.277.595-.12.04.04.119.119.04zm9.632 10.465c.08-.079.119-.158.198-.238.04-.04.08-.079.08-.118.039-.04.079-.08.079-.159.04-.04-.04-.08-.08-.04l-.119.12-.119.118c-.079.08-.118.159-.198.238-.04.04-.04.08 0 .119.08 0 .12 0 .159-.04zM21.96 10.781c.238.436.515.793.912 1.11.198.159.396.277.594.396.198.08.436.199.674.199.08 0 .119-.12.04-.159-.08-.04-.198-.08-.278-.119-.119-.04-.198-.08-.317-.119a4.396 4.396 0 01-.594-.317 3.638 3.638 0 01-.912-.99c-.08-.12-.198-.08-.12 0zm-.555 3.924c.277.238.555.436.872.635.317.158.634.356.991.356.08 0 .08-.079.04-.119-.278-.198-.595-.277-.912-.436a4.056 4.056 0 01-.872-.555c-.08-.04-.198.04-.119.12zm6.303-11.019c.119.356.237.674.396 1.03.08.159.119.317.198.516.08.158.12.356.238.475.04.04.119 0 .119-.04 0-.158-.08-.356-.159-.515-.079-.158-.158-.356-.238-.515-.158-.317-.317-.674-.475-.99.04-.12-.08-.04-.08.039zm3.408-1.19c.12.199.199.357.278.555.04.12.08.199.119.317 0 .04.04.08.04.159a.3.3 0 00.079.159c0 .04.119.04.08-.04v-.159c0-.079 0-.119-.04-.158-.04-.12-.08-.198-.12-.317a4.326 4.326 0 00-.317-.595c-.04-.08-.198 0-.119.08zm3.449-.872l.357.833c.04.119.08.277.119.396.04.159.08.278.158.436.04.08.12.04.12-.04 0-.158-.04-.317-.08-.436a1.934 1.934 0 00-.159-.436 7.911 7.911 0 00-.396-.832c-.04-.08-.158 0-.119.08zm-7.73 2.736c.08.198.16.396.238.594.04.12.08.198.12.317.039.04.039.12.079.159.04.04.079.08.079.158.04.08.158.04.119-.04 0-.039 0-.118-.04-.158a.3.3 0 00-.08-.158c-.039-.12-.078-.199-.118-.317-.08-.199-.159-.397-.278-.595 0-.119-.158-.04-.119.04zm6.501-2.696c.04.238.12.476.199.713l.118.357c.04.08.04.238.159.278.04.04.119 0 .119-.04.04-.119-.04-.238-.08-.357l-.118-.356c-.08-.238-.198-.436-.317-.674-.04 0-.12.04-.08.079zM29.135 3.17c.04.12.079.238.158.357 0 .04.04.04.04.08s0 .079.04.118c.039.04.079.12.118.159h.04l.04-.04c0-.079-.04-.119-.04-.198 0-.04 0-.08-.04-.119 0-.04-.04-.04-.04-.08-.079-.118-.118-.237-.158-.356-.04-.08-.198 0-.158.08zm-7.77 15.301c.238 0 .476.04.714.04h.357c.119 0 .237 0 .356-.04.04-.04.04-.08 0-.119-.079-.04-.238-.04-.317-.04h-.357c-.237 0-.475.04-.713.04-.119 0-.119.12-.04.12zm.595 1.704c.198.04.396.08.634.04.12 0 .198 0 .317-.04.12-.04.198-.079.317-.119.08-.04.04-.158-.04-.158-.118 0-.197 0-.316.04-.08 0-.199.04-.278.04a1.5 1.5 0 01-.594 0c-.12.039-.12.158-.04.197zm1.704 3.37c.357-.08.674-.198.991-.397.159-.079.317-.158.476-.277.159-.08.277-.198.396-.357.04-.08-.04-.119-.119-.119-.158.08-.277.159-.436.278-.158.079-.277.198-.436.277-.317.159-.594.317-.95.397-.08.04-.04.198.078.198zm.714 1.506c.317-.159.634-.357.99-.515.16-.08.318-.159.477-.278.158-.079.317-.158.436-.317.04-.04 0-.119-.04-.08-.159.04-.357.16-.476.239-.158.079-.317.198-.475.277l-.952.595c-.079 0-.04.119.04.079zm1.625.476c.238.04.476 0 .674-.08.198-.079.396-.238.515-.436.04-.079-.079-.158-.119-.119a1.238 1.238 0 01-.436.357c-.158.08-.356.119-.555.119-.119 0-.158.159-.079.159zm3.092 1.189c.277-.08.555-.159.793-.317l.356-.238c.12-.08.238-.198.278-.317.04-.04-.04-.08-.08-.08-.118.04-.237.159-.316.199a3.65 3.65 0 01-.318.198c-.237.158-.475.238-.713.317-.119.119-.08.238 0 .238zm2.299.396c.119-.04.238-.119.357-.198.04-.04.119-.08.158-.159l.08-.079c0-.04.04-.08.04-.08 0-.039 0-.078-.04-.118-.04-.04-.08-.04-.12 0l-.079.08-.079.079c-.04.04-.08.079-.119.158-.04 0-.04.04-.08.04 0 0-.039.04-.078.04-.04 0-.04.039-.08.039s-.04.04-.079.04c0 .04.04.158.119.158zm5.351.08c.238-.159.476-.318.674-.516.08-.079.198-.198.278-.317a1.24 1.24 0 00.198-.396c.04-.08-.08-.12-.12-.08-.078.08-.197.199-.277.318a1.963 1.963 0 01-.277.317 3.7 3.7 0 01-.595.515c-.04.08.04.198.12.159zm2.973-.832a1.03 1.03 0 00.634-.358.864.864 0 00.199-.317c.04-.119.079-.238.079-.357 0-.079-.08-.079-.12 0 0 .04-.039.08-.039.16-.04.039-.04.078-.079.118-.04.08-.119.159-.198.238a1.508 1.508 0 01-.516.357c-.079.04-.04.158.04.158zm2.656-.912a2.35 2.35 0 00.436-.595 1.95 1.95 0 00.238-.674c0-.04-.08-.119-.08-.04-.198.436-.396.833-.673 1.19-.12.079 0 .158.079.119zm2.259-1.547c.08-.198.199-.396.278-.594.04-.119.08-.198.119-.317.04-.08.08-.198.08-.317 0-.08-.08-.12-.12-.04-.08.08-.119.198-.158.277-.04.12-.08.199-.12.318l-.237.594c0 .12.158.198.158.08zm1.665-6.897c.476.08.952.08 1.427.04.238-.04.476-.08.674-.119.198-.04.476-.119.595-.277.04-.04 0-.08-.04-.12-.198-.039-.396.08-.595.12-.237.04-.436.119-.673.158-.436.08-.912.08-1.348.04-.08-.04-.12.119-.04.158zm.317 3.37c.198-.04.357-.04.555-.08.08 0 .198-.04.278-.04a.726.726 0 00.277-.079c.08-.04.08-.158-.04-.158h-.277c-.08 0-.198.04-.277.04-.199.04-.357.04-.555.079-.08.04-.08.238.04.238zm-15.657-7.096c0-.396-.04-.753-.08-1.15a13.131 13.131 0 00-.118-.554c-.04-.159-.08-.357-.159-.476-.04-.04-.08 0-.08 0 0 .08 0 .159.04.238 0 .08.04.198.08.277.04.159.08.357.119.516.08.357.119.753.119 1.15-.04.039.079.079.079 0zm3.924-.198c.08-.277.08-.595.04-.872-.04-.317-.08-.595-.238-.872-.04-.08-.158-.04-.158.08.079.277.118.554.158.832.04.277.04.555.04.832.04.08.158.08.158 0zm2.101-2.1v-.754c0-.08 0-.159-.04-.238 0-.04-.079-.04-.079 0 0 .08-.04.159-.04.238v.753c.04.08.16.08.16 0zm1.229-.992c.04-.356 0-.713-.08-1.07-.039-.159-.118-.357-.158-.515-.08-.159-.198-.317-.277-.436-.04-.08-.12 0-.12.079.08.159.12.317.199.476.04.158.119.317.158.475.08.317.12.674.12.991-.04.12.118.12.158 0zm-8.721 2.973c0-.198 0-.396-.04-.594 0-.199-.039-.397-.079-.595-.04-.08-.158-.08-.158.04-.04.198 0 .396.04.594.04.198.079.397.079.595 0 .08.158.04.158-.04zm-.158 8.285c.238-.159.436-.357.674-.516.198-.158.436-.356.634-.555.04-.04 0-.158-.08-.118-.237.158-.435.356-.673.515a7.924 7.924 0 01-.635.555c-.079.08 0 .158.08.119zm2.577.317c.118-.12.237-.238.356-.357l.357-.357c.04-.04-.04-.158-.12-.119-.118.08-.237.199-.356.357l-.357.357c-.04.08.08.158.12.119zm4.36.594c.158-.119.356-.277.515-.396.08-.08.158-.119.277-.198l.238-.238c.04-.04-.04-.119-.08-.119-.118.04-.197.119-.277.159-.079.079-.158.119-.237.198-.159.158-.318.277-.476.436-.119.08-.04.238.04.158zm2.1.08l.357-.357.159-.159c.04-.079.119-.119.158-.198.04-.04-.04-.119-.079-.08-.08.04-.119.12-.198.16-.08.04-.12.118-.159.198l-.356.356c-.04.04.04.159.118.08zm3.449.594c.277-.158.515-.356.713-.555.199-.198.437-.475.516-.753.04-.079-.08-.158-.12-.079a2.104 2.104 0 01-.277.357c-.079.119-.158.238-.277.317a9.3 9.3 0 01-.634.594c-.08.04 0 .159.079.12zm1.387.515a7.44 7.44 0 00.991-.95c.159-.16.278-.358.397-.556.119-.198.238-.396.277-.634 0-.04-.079-.119-.119-.08-.158.16-.238.357-.356.556-.12.198-.238.396-.397.555-.277.356-.555.713-.912 1.03 0 .04.08.12.12.08zm-7.729-8.997c.158-.12.317-.199.436-.318.158-.118.317-.198.436-.317.08-.079 0-.158-.08-.119-.158.08-.316.199-.435.278-.159.119-.278.198-.437.317-.04.04-.079.08-.04.119.04.04.08.08.12.04zm-10.187-3.29c.198-.12.396-.238.555-.357a1.69 1.69 0 00.436-.476c.04-.04-.04-.119-.08-.08a4.84 4.84 0 00-.475.437c-.159.119-.317.238-.516.357-.119.04-.04.158.08.119z" fill="#fff" fill-opacity=".6"/><path d="M23.704 23.98c.674 1.19 1.784 1.864 3.013 2.34 1.466.554 3.052.872 4.598 1.07 3.29.436 6.699.198 9.79-1.03 2.696-1.071 5.114-2.855 6.7-5.352 1.545-2.418 2.299-5.351 2.06-8.205-.554-5.708-4.994-10.465-10.623-11.535-3.17-.595-6.738-.397-9.75.832-2.498 1.03-4.638 2.775-6.224 4.995-3.33 4.637-3.37 11.059-.317 15.855.357.595.793 1.15 1.229 1.665.277.317.793-.159.475-.476-3.527-4.082-4.36-10.187-1.783-14.983a14.409 14.409 0 015.153-5.43c2.576-1.547 5.589-2.062 8.562-1.943 2.893.119 5.747.951 8.046 2.814 1.982 1.626 3.449 3.845 4.123 6.303.674 2.616.436 5.43-.595 7.888-1.07 2.577-3.012 4.677-5.43 6.065-2.616 1.506-5.669 2.14-8.642 2.1-1.625 0-3.25-.237-4.835-.554-1.348-.278-2.696-.595-3.885-1.308-.555-.357-1.07-.714-1.506-1.269-.08-.04-.238.08-.159.159z" fill="#fff" fill-opacity=".6"/><path d="M24.973 24.932c-1.19-1.268-3.132-1.466-4.717-1.07-1.824.476-3.37 1.784-4.599 3.171-1.427 1.585-2.537 3.409-4.082 4.915-1.467 1.467-3.25 2.577-5.193 3.33-1.15.436-2.497.753-3.726.436A3.101 3.101 0 011.268 35c-.436-.356-.634-.832-.95-1.268-.04-.159-.318-.08-.318.08 0 .792.674 1.426 1.308 1.862.753.516 1.665.714 2.577.674 2.021-.08 4.122-1.07 5.787-2.18 1.744-1.15 3.131-2.695 4.4-4.32 1.308-1.665 2.616-3.489 4.479-4.599 1.942-1.189 4.32-1.387 6.263-.08.119.08.277-.118.159-.237zm-3.647-8.642c2.893 1.785 6.223 3.053 9.513 3.925a42.438 42.438 0 0010.267 1.387c.99 0 1.981 0 2.972-.079.952-.04 1.943-.08 2.854-.357.278-.079.238-.475-.079-.515-.832-.04-1.665.08-2.497.159-.833.04-1.665.079-2.537.079-1.665 0-3.37-.08-5.034-.278a44.97 44.97 0 01-9.91-2.299c-1.863-.634-3.607-1.506-5.39-2.338-.199-.04-.318.198-.16.317z" fill="#fff" fill-opacity=".6"/><path d="M21.207 12.604c.713.635 1.585 1.07 2.418 1.507.872.436 1.704.872 2.616 1.268 1.744.793 3.567 1.507 5.43 2.061 3.727 1.19 7.611 1.863 11.496 2.062 1.03.04 2.021.079 3.012-.08.793-.119 1.982-.396 2.418-1.189.12-.198-.079-.396-.277-.357-.397.08-.753.317-1.15.436-.396.159-.793.238-1.229.318-.872.158-1.783.119-2.655.079a44.577 44.577 0 01-5.59-.595 48.18 48.18 0 01-10.741-3.052c-.991-.436-1.982-.872-2.973-1.387-.912-.436-1.784-1.03-2.696-1.388-.08 0-.198.198-.08.317zm1.268-2.616c2.497 2.26 5.986 3.013 9.157 3.806 3.726.951 7.492 1.704 11.337 1.863 1.11.04 2.22.04 3.29-.04.99-.08 2.14-.04 3.012-.515.159-.08.159-.397-.04-.436-.872-.12-1.823.119-2.695.158-.912.08-1.823.08-2.735.08a45.56 45.56 0 01-5.668-.476c-3.528-.555-7.056-1.308-10.505-2.339-1.783-.515-3.488-1.268-4.994-2.378-.12-.119-.317.158-.159.277zm.753 11.892c.912-.238 1.705-.714 2.498-1.19.396-.237.753-.515 1.15-.753.158-.118.356-.277.514-.396.199-.158.357-.277.436-.515.04-.08-.04-.198-.158-.198-.396.04-.753.436-1.07.674-.357.277-.753.554-1.11.792-.753.476-1.586.872-2.339 1.388-.119.04-.04.238.08.198z" fill="#fff" fill-opacity=".6"/><path d="M33.812 13.952c1.03-.555 1.942-1.387 2.814-2.14.912-.793 1.784-1.665 2.617-2.537a48.632 48.632 0 002.298-2.696l1.07-1.427c.318-.436.794-.951.913-1.506.04-.198-.199-.476-.397-.317-.436.317-.674.832-.951 1.268-.317.476-.674.952-1.03 1.427a38.238 38.238 0 01-2.34 2.815 35.957 35.957 0 01-2.457 2.457c-.872.833-1.903 1.546-2.735 2.418-.159.12 0 .357.198.238zM26.954 26.36c.754-.16 1.507-.595 2.18-.952.754-.396 1.467-.872 2.141-1.348.674-.436 1.308-.951 1.903-1.427.317-.277.634-.515.951-.793.317-.277.634-.515.833-.872.118-.198-.12-.396-.318-.317-.356.159-.594.476-.872.753-.277.278-.594.516-.872.753a19.455 19.455 0 01-2.021 1.546c-.674.476-1.348.872-2.022 1.309-.674.396-1.387.753-1.982 1.268-.119-.04-.04.08.08.08zM40.67 15.062c.396-.119.753-.436 1.07-.674.317-.238.674-.515.951-.793a28.227 28.227 0 001.903-1.863c.594-.634 1.11-1.308 1.625-1.982a19.2 19.2 0 00.793-1.11c.198-.277.555-.673.436-1.03-.04-.08-.12-.159-.238-.119-.357.08-.515.555-.714.832a17.63 17.63 0 01-.753 1.07 27.872 27.872 0 01-1.625 2.022 25.74 25.74 0 01-1.784 1.824c-.317.277-.594.555-.911.832-.318.277-.674.515-.912.872-.04.04.04.159.158.119zM33.376 27.27c1.427-.475 2.775-1.386 4.004-2.298a19.734 19.734 0 001.744-1.427c.277-.278.554-.516.832-.793.277-.277.595-.555.793-.872.119-.238-.12-.515-.357-.357-.277.198-.515.476-.753.714-.278.277-.515.515-.793.753-.555.515-1.15 1.03-1.744 1.506-1.19.912-2.537 1.625-3.766 2.497-.198.12-.119.357.04.278zM46.1 15.18c.357-.197.674-.514.951-.792.317-.277.595-.595.872-.912.278-.317.516-.634.793-.95.238-.358.555-.675.714-1.071.079-.198-.238-.357-.357-.198-.278.277-.476.674-.714.99-.237.318-.515.674-.753.992-.277.317-.515.594-.793.911-.277.317-.594.595-.832.912-.119.04-.04.198.119.119zM25.805 4.478c.832 2.656 1.665 5.312 2.299 8.047.08.317.555.198.476-.119-.674-2.735-1.467-5.43-2.577-8.007-.04-.158-.238-.04-.198.08zm3.607-2.061c.198.952.714 1.824 1.03 2.735.318.872.635 1.784.873 2.696.515 1.863.872 3.726 1.189 5.668.04.317.634.278.595-.08-.199-1.941-.674-3.884-1.19-5.747a32.69 32.69 0 00-.951-2.774c-.317-.872-.634-1.903-1.229-2.656-.08-.159-.357-.08-.317.158z" fill="#fff" fill-opacity=".6"/><path d="M32.306 1.783c.198.793.634 1.585.99 2.378.357.793.675 1.625.952 2.458.595 1.665.991 3.33 1.348 5.034.079.357.594.198.555-.159-.318-1.744-.872-3.527-1.467-5.192-.277-.793-.634-1.625-.951-2.418-.317-.753-.674-1.586-1.23-2.22-.078-.08-.237 0-.197.119zm3.844-.198c.16.634.476 1.229.754 1.784.277.634.515 1.308.753 1.942.238.634.436 1.268.634 1.903.08.317.159.594.278.911.079.278.079.634.317.833.119.119.277.04.317-.08.119-.277-.04-.634-.12-.911-.078-.357-.197-.674-.316-1.031-.198-.634-.436-1.268-.674-1.903-.238-.594-.476-1.228-.753-1.823-.278-.595-.555-1.268-.991-1.784-.08-.119-.238 0-.198.159zM22.911 9.513c.714-.317 1.388-.753 2.022-1.23a7.93 7.93 0 00.872-.752c.159-.12.277-.278.436-.436.119-.12.317-.278.317-.476a.17.17 0 00-.159-.159c-.198 0-.317.159-.436.318-.118.158-.277.277-.396.396-.277.277-.555.515-.872.793-.595.515-1.229.951-1.863 1.387-.08.08 0 .198.08.159z" fill="#fff" fill-opacity=".6"/><path d="M37.3 2.814c.159-.199.317-.357.476-.555.08-.08.158-.159.238-.278.079-.079.198-.198.198-.317 0-.08-.04-.158-.119-.119-.119.04-.198.159-.278.278-.079.079-.158.198-.237.317-.159.198-.278.396-.436.594-.08.04.079.199.158.08z" fill="#fff" fill-opacity=".6"/></svg>