<svg width="57" height="72" fill="none" xmlns="http://www.w3.org/2000/svg"><path d="M18.803 43.377c.918.262 1.77.59 2.687.918.851.328 1.703.722 2.62 1.05.197.066.328-.262.131-.328-.786-.525-1.703-.787-2.555-1.115a21.659 21.659 0 00-2.752-.788c-.262-.131-.327.197-.13.263zm3.342-1.247c.852.131 1.638.328 2.424.656s1.507.788 2.228 1.116c.196.065.393-.132.196-.263-.655-.59-1.507-.984-2.293-1.312a8.945 8.945 0 00-2.62-.59c-.197-.067-.197.327.065.393zm1.9-2.757c.851.197 1.703.394 2.49.722.851.328 1.572.722 2.358 1.182.197.065.393-.132.197-.263-1.442-1.116-3.276-1.706-5.045-1.969-.131 0-.197.328 0 .328zm1.703-2.69c1.835.788 3.735 1.575 5.766 1.903.196.066.327-.262.065-.328-1.9-.656-3.8-1.181-5.634-1.969-.262-.13-.459.263-.197.394zm1.966-2.363c1.9.722 3.734 1.576 5.7 2.1.196.066.393-.262.13-.393-1.834-.919-3.8-1.575-5.7-2.297-.327-.131-.458.46-.13.59zm.458-3.15c1.114.526 2.228 1.05 3.407 1.51 1.114.46 2.228 1.05 3.407 1.378.197.066.328-.197.131-.328-1.048-.656-2.227-1.05-3.341-1.51-1.18-.459-2.293-.918-3.473-1.377-.196-.066-.327.197-.13.328zm1.769-2.427c.852.525 1.704.984 2.621 1.312.852.394 1.769.722 2.752.853.262 0 .262-.328.065-.393-.851-.329-1.769-.591-2.62-.985-.852-.328-1.704-.787-2.556-1.247-.327-.13-.59.263-.262.46zm1.442-2.691c1.048.525 2.162 1.05 3.21 1.575l1.572.788c.525.262 1.049.59 1.638.656.197 0 .328-.197.197-.328-.393-.394-.917-.59-1.441-.853s-1.114-.525-1.638-.788c-1.049-.525-2.162-1.05-3.21-1.575-.394-.197-.721.328-.328.525zm1.572-3.215c.983.459 1.966.918 2.948 1.312 1.049.394 2.097.788 3.145.984.197.066.393-.262.131-.328-.983-.459-1.965-.787-3.014-1.115a60.42 60.42 0 01-3.079-1.247c-.13-.131-.393.262-.13.394zm0-3.216c1.114.722 2.359 1.378 3.604 1.838 1.244.459 2.555.918 3.93.984.197 0 .263-.328.066-.394-1.245-.394-2.555-.656-3.8-1.116a22.676 22.676 0 01-3.603-1.706c-.262-.13-.459.263-.197.394zm1.048-3.018a33.076 33.076 0 003.473 1.574c1.18.46 2.424.985 3.603 1.116.197 0 .262-.328.131-.394-.524-.262-1.114-.393-1.638-.59-.59-.197-1.179-.394-1.769-.656-1.179-.46-2.358-.92-3.472-1.51-.393-.197-.655.263-.328.46zm.59-1.51c1.18.263 2.293.59 3.472.92.59.13 1.114.327 1.704.524.59.197 1.18.394 1.769.46.197.065.393-.263.197-.394-1.049-.525-2.294-.722-3.473-1.05a31.925 31.925 0 00-3.603-.788c-.197-.065-.328.263-.066.328zm.59-2.887c1.245.328 2.555.722 3.8 1.116.59.196 1.179.459 1.834.721.59.263 1.245.591 1.835.722.196 0 .393-.197.196-.328-.458-.394-1.114-.59-1.703-.853-.59-.262-1.245-.46-1.9-.722-1.31-.46-2.62-.853-3.931-1.181-.328-.066-.459.46-.131.525zm.852-1.969c1.113.394 2.227.722 3.34.984 1.05.197 2.294.46 3.342.263.197-.066.197-.394 0-.394-.524-.131-1.114-.131-1.638-.197-.59-.065-1.114-.131-1.638-.262-1.113-.197-2.162-.525-3.21-.919-.393-.131-.524.394-.197.525zm-.263-3.347c1.114.525 2.228 1.05 3.342 1.444.59.197 1.18.394 1.703.59.59.198 1.18.395 1.77.395.196 0 .327-.329.13-.394-.524-.263-1.048-.328-1.638-.525-.59-.197-1.179-.328-1.769-.59-1.179-.395-2.293-.854-3.341-1.444-.197-.066-.459.393-.197.524zm.066-1.443c1.048.197 2.096.393 3.08.59 1.047.197 2.03.394 3.078.46.263 0 .328-.394.066-.46a24.433 24.433 0 00-3.014-.59c-1.048-.197-2.03-.328-3.08-.525-.327-.066-.458.459-.13.525zm-1.114-3.019c1.114.525 2.162 1.05 3.276 1.575a28.79 28.79 0 003.276 1.378c.196.066.393-.262.13-.394-1.047-.59-2.161-1.05-3.275-1.575-1.114-.459-2.162-.984-3.276-1.443-.196 0-.327.328-.13.46zM25.617 6.3a47.197 47.197 0 004.193-1.772 31.073 31.073 0 002.097-1.05c.655-.328 1.376-.656 1.9-1.05.13-.066 0-.262-.131-.197-.72.197-1.376.656-1.966.985-.655.328-1.31.656-2.03.984-1.377.656-2.752 1.312-4.128 1.903-.197 0-.066.197.065.197zm-1.703 3.347c1.9-.788 3.8-1.51 5.634-2.297.918-.394 1.835-.788 2.752-1.116.917-.393 1.9-.656 2.686-1.247.131-.065.066-.262-.065-.196-.983.196-1.9.721-2.818 1.05-.917.393-1.769.721-2.686 1.115-1.9.788-3.734 1.64-5.634 2.428-.066.066 0 .328.13.263zm-1.442 3.083c2.031-.852 4.063-1.64 6.093-2.493.983-.394 1.966-.787 3.014-1.181.524-.197 1.049-.394 1.573-.656.458-.197.983-.394 1.441-.657.131-.065.066-.262-.131-.262-.524.066-1.048.328-1.507.46l-1.572.59a60.532 60.532 0 00-3.08 1.247c-1.965.853-3.996 1.706-5.962 2.559-.065.197 0 .394.131.394zm-.786 3.02c2.228-1.116 4.455-2.1 6.683-3.085 1.114-.46 2.227-.853 3.341-1.312 1.114-.394 2.293-.722 3.407-1.247-.065 0-.196-.066-.262-.066.131.197.066.328-.13.46-.066.065 0 .197.065.13.327-.13.524-.393.393-.787 0-.13-.131-.13-.197-.13-1.18.262-2.358.721-3.538 1.18a48.707 48.707 0 00-3.276 1.313 122.14 122.14 0 00-6.617 3.15c-.196.262-.065.525.131.393zm-3.341 4.068c2.49-.984 4.914-2.166 7.403-3.216 1.245-.524 2.49-.984 3.735-1.509 1.245-.46 2.49-.853 3.669-1.51.13-.065.065-.262-.066-.196-1.31.262-2.62.853-3.865 1.312-1.245.46-2.49.985-3.735 1.51-2.424 1.05-4.914 2.034-7.272 3.346-.066.132 0 .329.13.263zm-1.965 3.74c1.31-.59 2.555-1.246 3.865-1.903l3.93-1.771c1.311-.591 2.687-1.116 4.063-1.641 1.31-.46 2.686-.853 3.865-1.51.131-.065.066-.262-.13-.262-1.377.263-2.752.853-4.063 1.313-1.31.525-2.62 1.05-3.93 1.64-1.311.59-2.621 1.181-3.866 1.772-1.31.656-2.62 1.313-3.8 2.1-.131.197 0 .328.065.262zm1.113 2.428c2.49-1.246 4.98-2.362 7.469-3.477 1.245-.526 2.49-.985 3.735-1.51 1.244-.46 2.555-.853 3.734-1.51.131-.065.066-.262-.066-.196-1.375.262-2.686.788-3.996 1.312-1.245.46-2.424.985-3.669 1.51-2.49 1.115-4.98 2.23-7.403 3.543-.197.132 0 .46.196.328zm-1.441 3.019c2.62-1.05 5.176-1.968 7.796-2.953 1.31-.46 2.555-.918 3.866-1.378 1.31-.46 2.686-.853 3.93-1.444.132-.065.066-.262-.13-.262-1.376.262-2.752.722-4.062 1.181-1.31.46-2.556.919-3.866 1.378a155.64 155.64 0 00-7.6 3.15c-.13.131-.065.328.066.328zm-.524 3.741a233.2 233.2 0 017.14-3.019l3.539-1.378c.59-.197 1.18-.46 1.769-.656.59-.197 1.18-.394 1.703-.722.131-.066.066-.328-.065-.328-.59.065-1.18.328-1.77.525-.589.197-1.244.46-1.834.656-1.179.46-2.424.919-3.603 1.444-2.359.984-4.717 2.1-7.01 3.215-.263.066-.066.328.13.263zm.72 1.771a68.922 68.922 0 016.486-2.296c1.114-.328 2.162-.657 3.276-.985 1.049-.262 2.162-.525 3.145-.984.131-.066.066-.262-.065-.262-1.114.065-2.162.393-3.276.721-1.114.329-2.228.657-3.276.985-2.162.721-4.324 1.509-6.42 2.428-.132.131-.066.525.13.393zm-2.489 5.25c2.162-1.05 4.39-1.968 6.682-2.822l3.342-1.18c1.113-.395 2.227-.723 3.276-1.182.13-.066.065-.262-.131-.262-1.18.196-2.36.59-3.473.918-1.114.394-2.293.788-3.407 1.247-2.227.853-4.39 1.903-6.42 3.019-.132.065 0 .328.13.262zm-.131 2.888c1.834-.525 3.669-1.181 5.503-1.903.852-.328 1.703-.722 2.555-1.05.852-.394 1.835-.788 2.62-1.378.132-.066.066-.263-.13-.263-.917.263-1.704.657-2.555 1.05-.918.394-1.835.788-2.686 1.181a130.275 130.275 0 01-5.373 2.035c-.262 0-.196.394.066.328z" fill="#fff" fill-opacity=".4"/><path d="M14.152 37.274c.458 1.18 1.048 2.23 1.572 3.346.262.525.524 1.116.786 1.641.262.525.524 1.181.918 1.64.065.132.262 0 .196-.13-.13-.591-.393-1.116-.655-1.641-.262-.59-.59-1.116-.852-1.706-.59-1.116-1.048-2.232-1.703-3.282-.131-.065-.328 0-.262.132zm.196-3.675a45.91 45.91 0 002.62 4.593c.46.722.918 1.444 1.442 2.1.262.328.459.722.787.985.262.197.458.262.72.13.197-.065.066-.327-.065-.327-.328 0-.59-.525-.721-.788-.197-.328-.459-.59-.655-.918l-1.376-1.97c-.852-1.312-1.638-2.624-2.424-3.936-.131-.197-.393 0-.328.13zm1.9-3.216c.59 1.575 1.442 3.019 2.359 4.397.459.656.917 1.378 1.376 1.969.458.656.982 1.378 1.638 1.837a.145.145 0 00.196-.197c-.327-.722-.983-1.312-1.441-1.968-.459-.657-.983-1.313-1.442-1.969-.917-1.378-1.637-2.822-2.424-4.2-.065-.131-.393 0-.262.131zm1.114-4.003c.786 1.772 1.638 3.61 2.555 5.316l1.376 2.559c.197.394.459.853.72 1.247.263.393.46.853.787 1.247.131.13.328 0 .328-.197-.131-.46-.393-.853-.59-1.247-.197-.394-.459-.853-.655-1.247-.459-.853-.983-1.772-1.442-2.625-.917-1.772-1.834-3.478-2.686-5.25-.196-.197-.524 0-.393.197zm.721-3.15c.983 2.035 1.965 4.069 3.079 6.103.524.985 1.114 1.969 1.704 2.953.524.919 1.048 1.969 1.834 2.756.131.132.328 0 .262-.13-.328-.985-1.048-1.97-1.638-2.888-.59-.985-1.18-1.969-1.703-2.953-1.114-1.969-2.228-3.938-3.21-5.972-.132-.262-.46-.131-.328.131zm1.441-3.674c.852 2.23 1.77 4.462 2.752 6.562.524 1.05 1.048 2.165 1.638 3.215.262.525.59 1.05.917 1.575.262.46.524 1.05.917 1.444.131.131.393 0 .328-.197-.131-.525-.524-1.05-.786-1.51-.262-.459-.524-.983-.852-1.443-.59-1.05-1.114-2.1-1.703-3.15-1.049-2.165-2.097-4.33-3.014-6.562.065-.197-.262-.131-.197.066zm1.638-3.61c.983 2.56 2.031 5.053 3.341 7.481a47.83 47.83 0 001.966 3.544c.655 1.181 1.376 2.428 2.293 3.412.131.131.328-.065.262-.197-.524-1.247-1.376-2.362-2.03-3.478a164.374 164.374 0 01-1.966-3.478c-1.31-2.428-2.425-4.856-3.473-7.35-.13-.196-.459-.13-.393.066zm1.769-2.756a58.721 58.721 0 002.555 6.694c.459 1.115.983 2.165 1.507 3.28.262.526.59 1.116.852 1.641.262.46.524 1.116.917 1.444.131.131.393 0 .328-.197-.131-.525-.524-1.05-.787-1.575-.262-.525-.524-.984-.786-1.51-.524-1.05-1.048-2.165-1.572-3.215a101.9 101.9 0 01-2.752-6.693c0-.197-.328-.066-.262.131zm1.114-2.56c.917 2.1 1.9 4.135 3.014 6.104.524.984 1.048 1.968 1.637 2.953.525.918 1.049 1.968 1.835 2.756.066.131.328 0 .262-.131-.393-.985-1.048-1.97-1.572-2.888-.59-.984-1.114-1.968-1.704-2.953-1.114-1.969-2.096-4.003-3.08-6.037-.13-.197-.458-.066-.392.197zm2.686-3.149c.852 1.903 1.703 3.806 2.62 5.71.46.918.852 1.902 1.311 2.82.393.92.786 1.97 1.441 2.692.131.13.328 0 .328-.197-.197-.92-.786-1.904-1.18-2.757-.458-.984-.917-1.903-1.375-2.887-.917-1.903-1.835-3.74-2.752-5.644-.196-.065-.524.066-.393.263zm1.507-2.953c.72 1.64 1.441 3.216 2.162 4.856.328.788.72 1.575 1.114 2.362.393.788.72 1.641 1.245 2.363.13.131.393.066.327-.131-.262-.788-.59-1.64-.983-2.363-.393-.787-.786-1.64-1.179-2.428a327.864 327.864 0 00-2.358-4.79c-.131-.263-.46-.066-.328.131zm2.358-1.313c.46 1.379.918 2.757 1.442 4.069.524 1.313 1.048 2.69 1.9 3.806.065.131.328.066.262-.131-.459-1.313-1.18-2.56-1.704-3.806a43.51 43.51 0 01-1.572-4.069c-.065-.197-.393-.131-.328.131zm1.9.132c.263.787.525 1.64.852 2.428.262.787.524 1.64.918 2.362.065.131.262.066.262-.131-.131-.853-.46-1.64-.787-2.363-.262-.787-.59-1.574-.851-2.362-.066-.262-.459-.131-.394.066zM15.462 45.608c.59.131 1.18.394 1.835.59.655.197 1.244.394 1.9.591.655.197 1.244.394 1.9.59.524.132 1.179.526 1.768.198.132-.066.132-.263.066-.329-.328-.525-1.048-.59-1.572-.721-.656-.197-1.31-.394-1.966-.525-1.245-.329-2.49-.788-3.8-.788-.262 0-.328.328-.131.394z" fill="#fff" fill-opacity=".4"/><path d="M35.052 1.378c1.048 3.412.327 6.89-.524 10.303-.918 3.478-1.835 7.021-2.752 10.5-.852 3.346-1.77 6.496-3.67 9.45a102.474 102.474 0 01-5.961 8.07c-1.049 1.248-2.162 2.429-3.342 3.479-.982.918-3.407 3.215-4.193.918-.59-1.509-.59-3.412-.59-4.987 0-1.772.132-3.61.46-5.381.589-3.478 1.637-6.825 2.751-10.106.983-2.822 2.097-5.71 3.472-8.4 1.442-2.887 3.21-5.709 5.438-8.071 2.294-2.494 5.504-5.316 9.107-5.119.59 0 .59-.853 0-.918-3.341-.394-6.42 2.034-8.648 4.2-2.228 2.165-4.128 4.724-5.635 7.415-1.572 2.822-2.882 5.84-3.996 8.924-1.245 3.478-2.359 7.022-3.08 10.697-.72 3.675-.982 7.48-.327 11.156.197 1.181.786 2.493 2.228 2.493 1.507-.065 2.817-1.443 3.865-2.362 2.62-2.362 4.783-5.184 6.88-7.94 2.227-2.953 4.193-5.906 5.24-9.516 1.246-4.2 2.163-8.596 3.211-12.862.983-3.871 2.293-8.137.72-12.074-.13-.394-.785-.263-.654.131z" fill="#fff" fill-opacity=".4"/><path d="M35.183 1.838c1.179.59 2.424.918 3.669 1.378.59.196 1.245.393 1.834.656.59.197 1.245.46 1.9.46.393 0 .459-.46.197-.657-.524-.394-1.245-.525-1.835-.722l-1.769-.59c-1.245-.394-2.49-.854-3.734-1.05-.328-.066-.59.393-.262.525z" fill="#fff" fill-opacity=".4"/><path d="M23.062 47.642c5.241-3.478 9.893-8.203 13.431-13.453 3.669-5.512 6.224-11.812 7.01-18.44.263-1.903.328-3.871.263-5.774-.066-1.838-.066-4.003-.787-5.71-.196-.459-.851-.393-.851.132 0 1.64.393 3.28.458 4.856.066 1.64.066 3.28-.13 4.921-.263 3.347-1.05 6.628-2.097 9.778-2.097 6.037-5.7 11.419-9.959 16.209-2.359 2.625-4.98 4.856-7.665 7.022-.328.197 0 .656.327.459zm27.976-42.72c.328-.132.655-.263 1.048-.46.328-.13.655-.262.983-.393.328-.132.72-.263 1.048-.394.197-.066.328-.131.524-.197.262-.066.394-.197.525-.328.065-.066.065-.197-.066-.263a1.233 1.233 0 00-.524-.13c-.197 0-.393.065-.59.13-.393.066-.786.263-1.114.394a5.804 5.804 0 00-1.113.525c-.328.197-.721.394-1.049.656-.262.132 0 .59.328.46zm.655 2.888c.72-.067 1.442-.329 2.162-.526.328-.131.72-.197 1.048-.328.263-.066.852-.263.721-.656-.13-.394-.72-.197-.983-.131-.327.065-.72.196-1.048.328-.72.262-1.441.393-2.097.787-.196.066-.065.525.197.525zm.262 3.674c.786-.131 1.507-.328 2.293-.46.393-.065.787-.13 1.114-.196.393-.066.72-.132 1.048-.394.131-.066.066-.263-.065-.328-.328-.197-.72-.197-1.114-.131-.393.065-.852.13-1.245.196-.786.132-1.572.329-2.293.657a.316.316 0 00-.131.393c.131.263.262.263.393.263zm-.262 3.675c.852.328 1.704.46 2.555.525.393 0 .852.065 1.31.065.46 0 .918 0 1.31-.262.197-.131.132-.46-.065-.525-.393-.131-.786-.131-1.244-.131h-1.31c-.852 0-1.639-.066-2.49-.131-.263.065-.328.393-.066.459zm-.59 4.003c.262.197.59.46.918.59l.982.394c.328.131.656.197.983.263.197.065.393.065.59.065.196 0 .393 0 .59-.131.196-.131.196-.328.065-.46-.131-.13-.328-.196-.524-.262-.131-.066-.328-.066-.459-.131-.327-.066-.655-.197-.982-.263-.328-.065-.656-.197-.983-.328-.328-.131-.655-.197-.983-.262-.131-.066-.262.065-.328.131-.065.197 0 .328.131.394zm-1.703 4.79c.72.328 1.376.59 2.096.919.328.131.656.328.983.46.393.196.721.393 1.18.393.327 0 .524-.46.262-.656-.262-.263-.655-.394-1.049-.59-.327-.132-.72-.263-1.048-.395-.72-.262-1.441-.524-2.162-.721-.328-.066-.59.459-.262.59zm-1.9 3.872c.197.131.328.328.524.394.197.131.328.197.524.328.328.197.72.46 1.048.656.328.197.721.394 1.114.59.197.066.393.198.59.263.197.066.393.066.655.131.197 0 .262-.196.131-.328a1.533 1.533 0 00-.458-.459c-.132-.131-.328-.197-.525-.328-.327-.197-.72-.394-1.113-.59-.394-.198-.721-.329-1.114-.526-.197-.065-.328-.196-.524-.262a8.295 8.295 0 00-.655-.197c-.263-.197-.394.131-.197.328zm-2.359 3.74l.983.788c.328.262.655.46 1.048.722.328.262.656.46 1.049.656.196.131.327.197.524.328.196.131.393.263.59.197a.357.357 0 00.327-.46c-.066-.196-.262-.393-.459-.524-.196-.132-.327-.263-.524-.394-.327-.197-.655-.46-1.048-.656-.328-.197-.72-.46-1.048-.656-.393-.197-.721-.394-1.114-.591-.262 0-.59.394-.328.59zm-2.817 4.135c.524.59 1.114 1.05 1.77 1.51.327.196.589.458.916.59.328.197.852.525 1.18.328-.066 0-.131 0-.197.066.262 0 .459-.263.262-.46 0 .066 0 .131.066.197 0-.394-.524-.656-.852-.853l-.983-.59c-.655-.394-1.245-.854-1.834-1.313-.131-.131-.393-.066-.459.066 0 .13 0 .328.131.459zM39.9 39.308c.524.656 1.114 1.181 1.834 1.706.328.263.656.46.983.656.197.132.328.197.524.263.131.066.262.066.328.131h.328c.196-.066.262-.262.196-.46-.065-.065-.065-.196-.131-.262-.066-.065-.197-.131-.262-.197-.131-.13-.328-.197-.524-.262l-.983-.59c-.655-.395-1.245-.92-1.834-1.379-.328-.328-.721.066-.459.394zm-2.752 3.806c.066.066.066.131.131.263l.197.197c.13.13.262.262.327.393l.787.788c.262.262.59.525.851.721.328.197.655.526 1.049.526.327.065.458-.329.327-.591a1.13 1.13 0 00-.393-.394c-.13-.131-.328-.197-.459-.328-.262-.197-.59-.394-.851-.656-.262-.197-.524-.394-.852-.59-.131-.066-.262-.198-.393-.263-.066-.066-.131-.132-.197-.132-.065-.065-.196-.065-.262-.13-.13-.198-.327 0-.262.196zm-2.555 3.281c.066.197.131.328.197.46.13.13.196.328.327.459.197.263.459.525.655.722.263.262.525.46.787.722.065.065.13.13.196.13a.496.496 0 00.262.132c.131.066.328.197.524.197.262 0 .394-.197.328-.46-.066-.196-.197-.327-.328-.459l-.065-.065c0-.066-.066-.066-.066-.066l-.196-.197c-.262-.197-.524-.393-.72-.656-.263-.197-.46-.394-.722-.656-.13-.132-.262-.263-.393-.328-.065-.066-.13-.066-.196-.132a.496.496 0 00-.262-.13c-.131-.132-.459.065-.328.327zm-2.424 2.494c.131.262.262.59.459.853l.59.787c.196.263.392.525.654.788.131.131.197.262.328.394.131.13.262.328.459.328.262.065.524-.132.524-.394 0-.197-.131-.394-.197-.525-.13-.131-.196-.262-.327-.46-.197-.262-.459-.524-.656-.787-.196-.262-.393-.46-.655-.722-.262-.262-.524-.459-.786-.656-.197-.197-.59.131-.393.394z" fill="#fff" fill-opacity=".4"/><path d="M17.493 45.936c-1.9 5.315-4.062 10.368-7.338 14.962-2.883 4.068-6.486 7.743-8.583 12.271-1.769 3.74-2.882 10.106 1.376 12.666 1.9 1.115 4.062.721 5.504-.854 1.638-1.706 2.424-4.2 3.21-6.365 1.966-5.25 3.407-10.697 5.635-15.88 2.096-4.922 5.175-9.122 8.713-13.125 3.407-3.806 7.142-7.35 10.483-11.287 3.603-4.2 6.42-8.86 8.714-13.912 2.162-4.856 3.8-10.237 3.08-15.684-.328-2.363-1.05-4.922-2.752-6.76C44.093.46 41.997-.393 39.9.198c-.983.262-1.703.787-2.293 1.64-.328.46.393.985.786.591 1.441-1.64 3.997-1.51 5.635-.197 1.9 1.51 2.686 4.069 3.079 6.366.917 5.25-.786 10.63-2.883 15.355-2.096 4.725-4.783 9.187-8.124 13.125-3.08 3.675-6.486 7.021-9.762 10.5-3.21 3.477-6.159 7.152-8.386 11.287-2.359 4.462-3.866 9.384-5.438 14.174-.786 2.428-1.573 4.856-2.555 7.284-.787 1.903-1.77 4.462-3.997 5.119-2.62.787-4.586-1.903-4.98-4.135-.392-2.296.066-4.724.918-6.89 1.703-4.331 4.848-7.875 7.6-11.55 3.014-4.002 5.503-8.465 7.403-13.124a37.425 37.425 0 001.18-3.544c.262-.59-.459-.721-.59-.262z" fill="#fff" fill-opacity=".4"/><path d="M7.01 87.934c6.814-1.903 8.976-9.712 10.287-15.749.851-3.872 1.703-7.743 3.734-11.221 1.835-3.216 4.324-6.038 7.01-8.597 2.752-2.56 5.897-4.725 8.583-7.35 2.62-2.559 4.848-5.578 6.814-8.596 4.062-6.103 7.141-13.06 8.78-20.278.85-3.871 1.178-8.4-1.115-11.877-1.769-2.69-5.175-4.922-8.517-3.807-.458.132-.393.985.131.92 3.145-.395 6.028 1.246 7.6 3.937 1.9 3.28 1.507 7.35.655 10.827-1.572 6.76-4.455 13.322-8.19 19.162-1.9 3.019-4.061 5.906-6.485 8.465-2.425 2.56-5.307 4.66-7.994 7.022-2.555 2.231-4.848 4.79-6.748 7.612-2.03 2.953-3.407 6.169-4.258 9.647-1.704 6.956-2.556 16.471-10.352 19.358-.393.132-.262.591.065.525z" fill="#fff" fill-opacity=".4"/></svg>