<svg width="103" height="105" fill="none" xmlns="http://www.w3.org/2000/svg"><path d="M11.813 59.268c.797 2.957 2.5 5.618 4.793 7.64.638.585 1.341 1.099 2.136 1.486.111.05.187-.117.076-.166-.775-.579-1.534-1.117-2.243-1.767-.709-.65-1.392-1.354-1.97-2.145a14.98 14.98 0 01-2.59-5.125c-.045-.12-.248-.043-.202.077zm3.679 12.148c1.13 1.271 2.405 2.44 3.863 3.357 1.402.891 2.966 1.722 4.62 2.059.097.01.132-.142.036-.151-1.584-.64-3.112-1.254-4.53-2.186-1.402-.892-2.703-2.005-3.857-3.22-.071-.065-.258.052-.132.141zm2.906 6.934a9.491 9.491 0 002.89 2.622c.588.328 1.2.601 1.838.819.581.192 1.26.394 1.902.38.096.01.09-.126-.005-.136-.623-.177-1.255-.258-1.852-.491-.582-.193-1.154-.481-1.726-.77-1.118-.631-2.136-1.485-2.886-2.486-.1-.145-.247-.044-.161.061zm3.202 6.13c.932.75 1.889 1.442 2.936 2.01 1.008.582 2.096 1.133 3.244 1.478.112.05.172-.157.06-.206-1.032-.527-2.114-.943-3.122-1.525a19.481 19.481 0 01-2.96-1.954c-.152-.034-.284.108-.157.197zm-6.698-16.696a11.6 11.6 0 001.63 1.861c.284.26.623.544.947.789.324.244.664.529 1.038.662.111.05.162-.06.076-.166-.284-.26-.648-.489-.972-.733-.324-.245-.608-.505-.891-.764a14.434 14.434 0 01-1.681-1.75c-.112-.05-.218.036-.147.101zm37.925-18.828a18.83 18.83 0 011.121-1.435c.197-.212.38-.465.576-.677.197-.213.395-.425.536-.662.025-.056-.046-.12-.127-.09-.227.132-.45.4-.647.612-.197.213-.419.48-.616.693-.379.465-.702.955-1.01 1.485-.025.055.101.145.167.074zm-.34-1.019c.343-.314.672-.668 1-1.022.157-.197.329-.354.485-.55.066-.072.172-.158.223-.269.066-.07.172-.157.166-.292-.015-.04-.045-.12-.086-.105a.63.63 0 00-.252.187c-.066.07-.172.157-.223.268-.156.197-.328.354-.485.551-.328.354-.642.748-.914 1.127-.066.071.02.176.086.105zm-.3-1.034c.258-.419.571-.813.86-1.152.312-.394.656-.708.97-1.102.065-.07-.021-.176-.142-.13-.4.29-.713.683-1.026 1.078a6.053 6.053 0 00-.773 1.256c-.04.016.086.106.111.05zm26.737-7.333l1.392.62.668.297.334.15c.111.049.263.083.359.093.08-.031.106-.086.076-.167a1.306 1.306 0 00-.309-.204l-.334-.149c-.223-.1-.486-.183-.709-.282-.485-.183-.93-.382-1.416-.565-.071-.065-.188.117-.06.206zm.323-1.224c.38.269.744.498 1.189.696l.612.273c.112.05.208.06.32.109.055.025.095.01.151.034.056.025.136-.006.192.02.096.009.091-.127.035-.152-.055-.025-.07-.065-.126-.09-.056-.024-.071-.065-.127-.09-.111-.049-.207-.059-.318-.108a4.816 4.816 0 01-.598-.233 9.454 9.454 0 01-1.159-.617c-.182-.114-.298.068-.171.157zm.303-1.033c.374.133.733.226 1.107.36.167.075.375.134.542.208.207.06.374.133.566.152.097.01.107-.086.076-.166-.142-.13-.309-.204-.476-.279-.207-.059-.374-.133-.581-.192a8.454 8.454 0 00-1.19-.33c-.192-.019-.197.212-.045.247zm.6-1.1c.344.053.663.161.982.27.151.035.318.109.485.183l.223.1c.096.01.167.074.263.084.096.009.162-.062.091-.127a.897.897 0 00-.197-.154c-.071-.066-.167-.075-.223-.1a2.787 2.787 0 00-.486-.183 6.18 6.18 0 00-1.022-.255c-.223-.1-.268.147-.116.182zM17.313 75.73c.177.346.516.63.8.89.283.26.607.505.972.734.658.393 1.427.836 2.236.897a.095.095 0 00.076-.167c-.35-.189-.708-.282-1.098-.456-.334-.148-.683-.337-1.032-.526a19.703 19.703 0 01-.957-.694l-.85-.78c-.112-.049-.178.022-.147.102zm3.487 7.126c.511.495 1.17.888 1.797 1.2.627.314 1.376.581 2.059.552.096.01.091-.127.035-.151a6.18 6.18 0 00-1.022-.256 10.854 10.854 0 01-.971-.366c-.668-.298-1.23-.681-1.792-1.065-.086-.105-.177.02-.106.086zm50.357-61.093c-.35-.923-.685-1.806-.913-2.776a12.656 12.656 0 01-.301-2.87c-.006-.135-.223-.099-.218.037-.064 1.907.343 3.956 1.23 5.686.086.105.248.044.202-.077zm-7.631 2.571c-.497-1.189-1.261-2.23-2.248-3.004-.071-.065-.203.077-.132.142a7.85 7.85 0 012.178 2.939c.02.175.263.083.202-.077zM47.6 36.752a14.372 14.372 0 00-4.188-4.702c-.071-.065-.203.077-.132.141 1.65 1.303 3.079 2.873 4.133 4.678.06.16.247.043.187-.117zm-4.857 15.384c-1.003-1.916-2.224-3.794-3.773-5.319-.071-.065-.218.037-.132.142 1.378 1.681 2.715 3.378 3.759 5.278.015.04.177-.021.146-.102zm21.747 6.355c.953 1.292 3.113 1.254 4.306.25.677-.531 1.253-1.576.635-2.352-.345-.42-.85-.412-1.326-.324-.612.095-1.168.214-1.78.308-.597.134-1.219.324-1.623.845-.313.394-.47.958-.125 1.378.142.13.4.079.364-.137-.026-.312.03-.655.252-.922.288-.34.748-.468 1.127-.566l1.427-.265c.298-.067.864-.282 1.148-.022.511.495-.196 1.314-.62 1.659-.466.36-1.088.55-1.69.548-.682.03-1.391-.253-1.912-.652-.071-.065-.284.107-.182.252z" fill="#fff" fill-opacity=".4"/><path d="M67.875 58.999c-.13.876.422 2.09 1.126 2.603.931.749 2.383.428 3.44.166 1.315-.315 2.776-.732 3.939-1.448.748-.467 1.84-1.615 1.419-2.603-.092-.241-.39-.174-.45.033-.147.468-.131.876-.43 1.31-.297.434-.737.738-1.207.963-.981.463-2.088.837-3.17 1.155-.921.258-2.383.674-3.228.03-.734-.594-.715-1.52-1.221-2.246-.112-.05-.192-.019-.218.037z" fill="#fff" fill-opacity=".4"/><path d="M61.474 61.517c.256-1.52.892-3.139 1.801-4.401 1.147-1.49 2.74-2.049 4.586-2.06 1.654-.03 3.425.125 5.09.367.84.14 1.614.352 2.352.715.74.362 1.225.913 1.808 1.472.157.17.435-.073.318-.258-.7-1.48-2.653-2.116-4.14-2.379-.951-.19-1.938-.23-2.884-.284-.905-.07-1.866-.165-2.782-.14-1.79.037-3.56.616-4.738 2.026-1.111 1.34-1.782 3.109-2.059 4.82-.08.398.567.52.648.122z" fill="#fff" fill-opacity=".4"/><path d="M62.8 62.575a.619.619 0 00-.273.012c-.04.015.04-.015 0 0s-.056-.025-.096-.01c-.04.016-.096-.009-.137.006-.096-.01-.192-.019-.303-.068-.04.015.056.025 0 0l-.056-.025-.111-.05-.056-.024c.056.024-.015-.04-.015-.04-.056-.025-.071-.066-.086-.106-.071-.065.015.04 0 0l-.015-.04-.03-.08c.014.04-.016-.04-.016-.04l-.03-.08s-.03-.08-.016-.04c-.015-.04-.005-.137-.02-.177-.005-.135.02-.19.015-.327.035-.15-.081-.336-.274-.355-.192-.019-.339.083-.359.274-.07.302-.03.654.077.935.107.28.32.475.557.615.42.254.926.246 1.432.238.177-.021.308-.163.288-.339-.157-.17-.284-.26-.476-.279z" fill="#fff" fill-opacity=".4"/><path d="M67.81 59.437c.33.38.39.908.204 1.392-.197.58-.662.94-1.213 1.194-.592.27-1.26.34-1.886.394-.709.084-1.392.114-2.074.143-.41.017-.344.68.066.663.82-.035 1.664-.125 2.478-.296.734-.14 1.548-.311 2.175-.733.96-.64 1.505-2.131.528-3-.182-.115-.42.113-.278.243zm-7.932-5.67c-.045.614-.05 1.212.244 1.743.208.427.578.791 1.089.92 1.133.304 2.027-.999 2.376-1.911.186-.484.418-1.215.22-1.737-.091-.24-.39-.173-.45.033-.086.262-.075.534-.105.82-.046.247-.09.494-.192.716-.227.5-.535 1.03-.975 1.334-.465.36-.991.192-1.32-.189-.416-.485-.441-1.164-.574-1.756-.045-.12-.293-.165-.313.027zm10.62-3.107c.072 1.166.477 2.481 1.631 2.962a1.8 1.8 0 001.518-.024c.495-.28.819-.77.99-1.294.07-.302.126-.644.1-.956-.025-.312-.081-.703-.269-.954-.101-.145-.303-.068-.339.083-.035.15-.014.327-.01.463.021.175.026.311.006.502a1.71 1.71 0 01-.13.876c-.187.484-.581.91-1.128.933-.465-.008-.94-.286-1.23-.682-.445-.566-.582-1.294-.785-1.952-.077-.2-.334-.148-.355.043zm-15.781-3.43c-1.066 1.093-1.97 2.491-2.657 3.853-.646 1.347-1.07 2.793-1.053 4.301.027 1.413.494 2.89 1.45 3.95.943 1.02 2.198 1.646 3.548 1.914 1.791.332 3.663-.102 5.316-.867.43-.209.171-.89-.274-.722-1.694.78-3.58 1.173-5.401.762-1.726-.402-3.154-1.606-3.696-3.282-.584-1.661-.328-3.549.349-5.182.66-1.674 1.797-3.069 2.57-4.693.04-.015-.086-.105-.152-.034zm21.533 9.696c.825.101 1.73-.196 2.499-.487.89-.338 1.749-.755 2.568-1.158 1.557-.773 3.11-1.683 4.317-3.013 1.01-1.118 1.738-2.495 1.898-4.025.155-1.666-.494-3.256-1.608-4.486-.643-.72-1.433-1.34-2.233-1.863-.84-.508-1.695-1.055-2.677-1.326-.303-.069-.424.344-.227.5.592.463 1.26.76 1.918 1.154.714.418 1.387.852 2.01 1.396 1.19 1.064 2.107 2.507 2.129 4.151.013 3.209-2.858 5.399-5.432 6.788a29.24 29.24 0 01-2.457 1.206c-.874.378-1.785.54-2.69.837-.202.076-.151.332-.015.326zM50.455 44.53c.648.122 1.305.148 1.938.23.688.106 1.35.268 1.963.54.597.234 1.118.633 1.6 1.047.227.235.415.486.602.736.188.25.269.587.497.822a.27.27 0 00.485-.184c-.026-.68-.598-1.334-1.094-1.79a5.91 5.91 0 00-1.742-1.175 7.481 7.481 0 00-2.115-.576c-.728-.091-1.482-.127-2.16.038-.146.102-.11.318.026.312z" fill="#fff" fill-opacity=".4"/><path d="M49.643 41.9c.01.638.27 1.32.457 1.938.203.658.462 1.34.786 1.952a17.952 17.952 0 002.118 3.512c.203.29.643-.014.44-.304-.78-1.082-1.535-2.219-2.103-3.473a28.8 28.8 0 01-.765-1.775c-.244-.643-.406-1.316-.675-1.902-.101-.145-.263-.084-.258.052z" fill="#fff" fill-opacity=".4"/><path d="M49.72 42.1c.45-.033.91-.161 1.33-.275.475-.088.91-.16 1.36-.194.94-.081 1.887-.026 2.823.124.895.165 1.78.427 2.616.799.445.198.85.412 1.27.666.309.204.694.61 1.103.592.137-.006.268-.148.222-.268-.07-.432-.587-.696-.936-.885-.42-.254-.84-.508-1.286-.706-.89-.397-1.887-.708-2.864-.843a12.877 12.877 0 00-2.984-.062c-.885.106-2.028.264-2.746.811a.134.134 0 00.091.241zm27.52-2.213c.151-.333.247-.69.343-1.048.136-.373.288-.706.439-1.04a9.396 9.396 0 011.227-1.888c.47-.59 1.026-1.077 1.638-1.538a8.78 8.78 0 01.975-.6c.309-.163.673-.3.895-.568a.2.2 0 00-.122-.322c-.384-.037-.733.14-1.026.344a6.101 6.101 0 00-1.041.67c-.653.477-1.218 1.058-1.729 1.665a7.748 7.748 0 00-1.222 2.024c-.303.666-.585 1.507-.57 2.282-.01.095.142.13.193.019z" fill="#fff" fill-opacity=".4"/><path d="M59.579 42.724c2.366-1.447 5.096-2.298 7.792-2.999 1.259-.34 2.533-.639 3.828-.762.668-.07 1.295-.124 1.953-.098.506-.008 1.24.22 1.68-.085.065-.071.115-.182.044-.247-.329-.38-.997-.31-1.462-.318a17.26 17.26 0 00-2.048.088c-1.336.139-2.65.454-3.975.864-2.706.796-5.614 1.668-7.873 3.397-.202.077-.045.247.06.16z" fill="#fff" fill-opacity=".4"/><path d="M73.43 38.622c.722-.779 1.318-1.647 2.04-2.426.764-.794 1.542-1.548 2.407-2.197a19.097 19.097 0 012.684-1.707c.47-.224.98-.463 1.491-.703.445-.168 1.002-.287 1.401-.576.132-.142.121-.414-.127-.457-.48-.048-.976.232-1.42.4-.527.2-1.078.455-1.573.734a17.221 17.221 0 00-2.831 1.808 15.112 15.112 0 00-2.35 2.222c-.708.819-1.49 1.804-1.89 2.828-.065.07.062.16.168.074z" fill="#fff" fill-opacity=".4"/><path d="M82.998 30.91c-.572.079-.687 1.362-.737 1.84l-.376 3.035c-.126 1.011-.21 2.008-.336 3.02-.05.477-.1.955-.136 1.474-.05.478-.14.971-.028 1.388.06.16.334.149.369-.002.176-.389.17-.892.196-1.314.05-.478.1-.956.135-1.474.1-.957.185-1.953.285-2.91l.301-2.868c.065-.438.09-.86.211-1.273.07-.302.237-.595.05-.846.106-.086.066-.07.066-.07zM61.667 41.52c.589-2.84 2.904-4.544 5.554-5.365 2.811-.882 5.881-1.449 8.82-1.14.44.063.551-.621.111-.684-1.543-.287-3.177-.081-4.74.19-1.643.301-3.312.658-4.89 1.256-2.427.92-5.141 2.913-5.073 5.78.015.04.208.058.218-.037z" fill="#fff" fill-opacity=".4"/><path d="M82.133 36.563c.228.235.537.44.765.674.283.26.516.63.719.921.436.661.79 1.353 1.145 2.045s.67 1.4.822 2.168c.096.376.167.808.183 1.216 0 .367-.055.71.042 1.086.06.16.323.244.44.063.414-.617.195-1.681.033-2.354-.183-.85-.543-1.677-.928-2.449a24.79 24.79 0 00-1.247-2.19c-.405-.581-.998-1.412-1.767-1.488-.151-.034-.308.163-.207.308zm-15.256-.093c-.405.152-.89.336-1.036.805-.162.428.006.87.436 1.028.845.277 2.048-.455 1.915-1.414-.05-.257-.263-.451-.486-.55a.55.55 0 00-.425-.023c-.12.046-.212.172-.262.283-.091.126.106.281.228.235.04-.015.096.01.136-.006.04-.015.096.01.137-.006.055.025.055.025.126.09l.016.04.03.08c.091.241-.131.51-.303.666-.253.188-.576.31-.92.257-.137.006-.248-.044-.35-.189a.485.485 0 010-.367c.096-.358.485-.551.809-.674.202-.076.126-.277-.051-.256zm5.143-.71c-.07-.066-.07-.066-.11-.05-.056-.025-.097-.01-.153-.035l-.288-.028a.85.85 0 00-.51.24.845.845 0 00-.228.498.872.872 0 00.168.442c.202.29.536.44.89.397.395-.058.728-.276.865-.649.055-.342-.214-.93-.633-.816-.097-.01-.162.061-.172.157-.01.096.005.136.076.2.015.04.056.026.07.066.016.04.016.04.056.024l.016.04.03.08.015.041.03.08c-.014-.04.016.04 0 0l.016.04.015.04c-.015-.04.015.04 0 0 .015.04-.025.056-.01.096l-.025.056s-.04.015-.025.055c0 0-.04.015-.026.056-.04.015-.065.07-.065.07l-.04.016-.041.015c-.04.016-.081.03-.081.03l-.04.016-.041.016c-.04.015-.08.03-.096-.01 0 0-.056-.025-.04.015l-.041.016c-.04.015-.056-.025-.096-.01 0 0-.04.016-.056-.025l-.056-.024s-.015-.04-.055-.025c-.015-.04-.056-.025-.071-.065l-.015-.04c-.015-.04-.015-.04-.071-.065l-.015-.04.015.04-.015-.04-.03-.08-.016-.04s-.015-.041.025-.056c-.025.055-.015-.04 0 0l.025-.056.026-.055.04-.016s.04-.015.025-.055l.04-.015.041-.016.04-.015c-.04.015.041-.015 0 0a8.5 8.5 0 00.203-.077l.04-.015.041-.015c.04-.016.096.01.177-.022l.121-.046.081-.03.04-.016c-.004-.135.005-.23-.065-.296z" fill="#fff" fill-opacity=".4"/><path d="M83.127 39.308c-.106.086-.197.212-.191.348.005.136.066.296.07.432.107.281.214.562.492.686a.616.616 0 00.814-.17c.182-.253.222-.636.035-.886a2.614 2.614 0 00-.385-.405c-.142-.13-.34-.285-.557-.248-.177.02-.197.212-.11.317.085.105.278.124.39.174.11.05.222.1.293.164.157.17.192.386.091.608-.05.111-.131.142-.212.172-.08.031-.137.006-.192-.019l-.016-.04-.055-.025c-.056-.024-.071-.064-.086-.105a.725.725 0 01-.147-.265l-.122-.321a.388.388 0 01.015-.327c.066-.071-.046-.12-.127-.09zM63.762 37.65c.105-1.188 1.05-2.235 1.798-3.069.839-.96 1.748-1.856 2.719-2.591a25.434 25.434 0 013.083-1.995c.536-.295 1.103-.51 1.654-.765.526-.2 1.163-.349 1.628-.709.066-.07.045-.247-.05-.256-.603-.001-1.194.269-1.76.483-.648.246-1.24.516-1.816.826a19.736 19.736 0 00-3.321 2.223c-.98.83-1.93 1.742-2.74 2.783-.691.859-1.596 1.89-1.428 3.066.046.12.238.14.233.004zM77.906 59.1c2.12-.024 4.365-.691 6.302-1.563a22.04 22.04 0 005.409-3.427c2.87-2.557 5.442-6.149 5.164-10.175-.148-2.102-1.106-4.264-2.888-5.425-.309-.204-.703.22-.38.465a6.938 6.938 0 012.575 4.717c.235 1.84-.244 3.628-1.097 5.282-1.798 3.436-5.073 6.147-8.567 7.792-2.123.989-4.293 1.49-6.518 1.966-.273.012-.288.339 0 .367zM60.554 42.125c.08-.765-.214-1.663-.569-2.355a7.877 7.877 0 00-1.474-2.058 7.115 7.115 0 00-2.12-1.446c-.724-.322-1.65-.568-2.398-.101-.106.086-.07.302.066.296.81.06 1.507.072 2.231.394a6.155 6.155 0 011.883 1.306 7.859 7.859 0 011.342 1.833c.178.346.3.667.436 1.028.137.361.193.753.33 1.115.127.09.263.084.273-.012z" fill="#fff" fill-opacity=".4"/><path d="M94.98 44.456c1.813-2.294 2.69-5.473 2.814-8.32.113-3.119-.755-6.141-2.442-8.761-1.743-2.645-4.41-4.434-7.406-5.503-3.051-1.093-6.456-1.776-9.729-1.5-2.018.169-4 .553-5.998.897-.991.192-1.983.384-2.944.656-.96.273-2.002.576-2.856 1.13-.253.187-.035.517.263.45.8-.211 1.552-.542 2.392-.769.92-.257 1.816-.458 2.726-.62 1.684-.317 3.328-.618 5.017-.8 1.674-.221 3.354-.307 5.058-.08 1.513.206 3.016.51 4.523.948 2.864.842 5.557 2.209 7.491 4.506 1.99 2.321 3.101 5.251 3.271 8.263a15.542 15.542 0 01-.541 4.796c-.419 1.582-1.171 3.014-1.852 4.512-.157.197.08.337.212.195z" fill="#fff" fill-opacity=".4"/><path d="M51.444 57.514c-3.091-.71-6.927-1.92-8.412-4.983-1.485-3.064-.674-6.539.886-9.38 1.57-2.936 3.738-5.64 6.052-8.078a49.977 49.977 0 017.642-6.57 41.815 41.815 0 014.975-2.987c.844-.457 1.678-.82 2.538-1.237.875-.378 1.724-.7 2.528-1.142.227-.132.075-.533-.183-.482-1.709.373-3.372 1.233-4.914 2.047-1.583.83-3.15 1.699-4.616 2.713-3.003 1.965-5.773 4.3-8.259 6.895-2.476 2.5-4.734 5.33-6.42 8.448-1.571 2.936-2.448 6.482-1.094 9.688 1.46 3.486 5.691 5.372 9.277 5.435.193.02.208-.308 0-.367z" fill="#fff" fill-opacity=".4"/><path d="M43.854 54.699c-.02.19.03.447.05.623l.108.648c.096.377.208.793.4 1.18a3.7 3.7 0 00.593.83c.228.236.567.52.906.438.121-.046.187-.117.101-.222-.147-.266-.466-.374-.678-.57a3.103 3.103 0 01-.563-.75 4.814 4.814 0 01-.395-1.044c-.02-.176-.097-.377-.117-.553-.036-.216-.056-.392-.132-.592.06-.207-.269-.22-.273.012zm33.506 4.056c.278.124.566.153.83.236.263.084.54.209.794.388.532.303 1.028.758 1.443 1.244.446.565.826 1.202 1.165 1.853.162.306.3.667.421.988.106.281.228.603.522.767.111.05.217-.037.268-.148.11-.317-.138-.728-.26-1.05a11.23 11.23 0 00-.506-1.093c-.355-.691-.735-1.328-1.277-1.903-.415-.485-.896-.9-1.468-1.188-.516-.263-1.255-.626-1.852-.492-.217.037-.303.299-.08.398z" fill="#fff" fill-opacity=".4"/><path d="M80.118 60.418c.672-.668 1.603-1.02 2.523-1.277.936-.217 1.927-.41 2.868-.49.956-.041 1.785.195 2.545.733.688.474 1.235 1.185 1.949 1.603.126.09.37-.002.293-.203-.831-1.705-2.78-2.94-4.692-2.858-1.052.031-2.15.31-3.15.597-1.002.288-1.927.776-2.523 1.645-.197.212.056.392.187.25z" fill="#fff" fill-opacity=".4"/><path d="M87.259 58.63c.47-.959.914-1.861 1.58-2.665a16.442 16.442 0 012.189-2.16c1.577-1.333 3.31-2.495 4.817-3.892 2.986-2.74 5.148-6.313 6.232-10.167.327-1.088.544-2.226.705-3.389.135-1.107.306-2.365.072-3.47-.051-.257-.506-.36-.521-.033-.126 1.012-.059 2.043-.144 3.039a26.044 26.044 0 01-.528 3c-.484 2.02-1.286 3.931-2.311 5.743a22.202 22.202 0 01-3.915 4.927c-1.507 1.397-3.2 2.544-4.721 3.901-1.496 1.302-3.235 3.062-3.582 5.076-.035.151.076.2.127.09z" fill="#fff" fill-opacity=".4"/><path d="M101.38 41.57c-.643-.72-1.19-1.43-1.524-2.313a8.028 8.028 0 01-.499-2.658c-.032-1.916.624-3.725 1.477-5.38.879-1.71 1.939-3.306 3.086-4.796.561-.718 1.162-1.45 1.809-2.063.697-.724 1.552-1.277 2.305-1.976.197-.212.029-.654-.279-.49-1.426.632-2.593 1.946-3.589 3.104-1.061 1.228-1.98 2.587-2.843 3.97-1.612 2.585-3.015 5.596-2.582 8.691.224 1.568.95 3.359 2.336 4.21.208.06.46-.128.303-.298zm-8.444-16.907c-.82-1.433-.635-3.018-.105-4.55.272-.746.585-1.508.858-2.253.312-.762.666-1.538.73-2.343-.004-.136-.187-.25-.278-.124-.56.717-.853 1.654-1.176 2.511-.297.802-.636 1.618-.877 2.445-.464 1.46-.6 3.302.434 4.564.228.235.561.016.414-.25zm-8-3.532c-.006-.87-.174-1.678-.099-2.579.09-.86.236-1.696.519-2.538.282-.841.635-1.618 1.004-2.354.434-.808.883-1.575 1.262-2.407.076-.167-.162-.306-.293-.164-1.233 1.385-2.066 3.216-2.616 4.94a9.436 9.436 0 00-.488 2.617c-.05.845-.039 1.851.29 2.599.158.17.441.062.42-.114zM41.282 57.556c-.957-6.065-3.17-12.755-8.585-16.303a10.77 10.77 0 00-1.969-1.044c-.557-.248-1.478-.726-2.11-.44-.121.046-.156.197-.07.302.258.315.602.369.977.502.43.158.804.292 1.25.49a11.92 11.92 0 012.196 1.28c1.407 1.027 2.577 2.282 3.575 3.694 2.457 3.43 3.477 7.589 4.63 11.605-.066.07.111.05.106-.086z" fill="#fff" fill-opacity=".4"/><path d="M41.52 57.695c-1.353-2.471-4.203-4.008-6.854-4.656a14.963 14.963 0 00-4.8-.338c-.805.076-1.65.166-2.449.377-.718.18-1.74.292-2.296.779-.146.101-.095.357.097.376.713.051 1.507-.296 2.16-.405.733-.14 1.507-.296 2.27-.356 1.553-.175 3.116-.08 4.66.208 2.813.587 5.1 2.107 7 4.187.1.146.313-.027.212-.172z" fill="#fff" fill-opacity=".4"/><path d="M26.721 60.274c3.22-1.634 6.543-2.755 10.165-2.843 3.348-.075 6.647.694 9.946 1.097.865.085 1.73.17 2.62.2.835.005 2.004.159 2.782-.228.268-.147.227-.5-.076-.568-.76-.171-1.654.03-2.433.05-.875.01-1.74-.075-2.605-.16-1.65-.201-3.274-.458-4.938-.7-3.466-.476-6.86-.521-10.258.4-1.882.53-3.793 1.345-5.405 2.462-.091.126.015.407.202.29z" fill="#fff" fill-opacity=".4"/><path d="M66.262 7.505c3.792-1.346 7.666-2.355 11.657-2.812 3.773-.42 7.562-.433 11.36-.174 3.704.249 7.417.77 11.065 1.361 3.303.538 6.607 1.444 9.659 2.904 1.478.725 2.92 1.601 4.166 2.69 1.104.96 2.192 1.878 3.164 2.978 1.003 1.181 1.996 2.458 2.599 3.928.619 1.51 1.01 3.152 1.249 4.76.978 6.607-.69 13.437-3.775 19.335-1.747 3.324-4.081 6.32-6.572 9.147-2.425 2.756-4.946 5.502-7.655 7.998-2.684 2.44-5.636 4.66-8.882 6.35-3.099 1.588-6.436 2.67-9.845 3.319-3.288.603-6.661.734-9.915.085a19.643 19.643 0 01-4.726-1.606c-1.685-.784-3.27-1.79-5.005-2.464-6.76-2.58-14.047-.322-20.616 1.754-6.57 2.077-14.185 4.32-20.78 1.082-3.122-1.525-5.472-4.307-7.184-7.239-1.495-2.601-2.555-5.642-2.356-8.656.07-1.403.453-2.834 1.144-4.06.283-.475-.496-.822-.78-.348-3.175 5.657-.159 12.64 3.761 17.122 2.289 2.621 5.164 4.47 8.584 5.193 3.324.715 6.804.497 10.157-.177 7.586-1.59 14.892-5.506 22.794-4.92 1.81.14 3.562.486 5.216 1.19 1.807.738 3.447 1.77 5.188 2.578 3.061 1.365 6.42 1.928 9.754 1.812 7.147-.184 14.227-2.867 19.949-7.056 3.007-2.196 5.711-4.827 8.248-7.533 2.642-2.792 5.295-5.68 7.513-8.862 4.011-5.652 6.609-12.467 6.835-19.439.093-3.295-.315-6.813-1.649-9.842-.628-1.415-1.581-2.706-2.599-3.927-.987-1.14-2.131-2.085-3.25-3.084-2.521-2.257-5.775-3.64-9.014-4.617-3.486-1.02-7.088-1.491-10.69-1.962-7.71-.934-15.5-1.103-23.076.758a59.08 59.08 0 00-5.937 1.792c-.404.153-.176.755.244.642z" fill="#fff" fill-opacity=".4"/><path d="M40.04 23.274c6.338-4.881 12.706-9.682 19.906-13.146 2.028-.998 4.157-1.85 6.275-2.608.405-.153.161-.795-.243-.642-7.54 2.812-14.425 6.982-20.834 11.799-1.835 1.384-3.614 2.793-5.394 4.202-.293.203.052.623.29.395z" fill="#fff" fill-opacity=".4"/><path d="M14.422 48.088c5.076-7.846 12.238-14.096 19.486-19.873 2.057-1.652 4.13-3.264 6.202-4.876.359-.273-.031-.814-.39-.54-7.344 5.767-14.81 11.58-20.883 18.749a59.975 59.975 0 00-4.668 6.36c-.131.142.137.361.253.18zm-.973 2.802c-2.692 4.004-1.54 9.122-.377 13.41 1.443 5.513 3.036 11.06 5.636 16.09.71 1.383 1.5 2.736 2.397 4.003a37.67 37.67 0 001.484 1.962c.243.276.501.59.744.866.299.3.623.544.962.829.284.26.734-.14.475-.456-.445-.565-.835-1.106-1.306-1.616a34.377 34.377 0 01-1.267-1.632 39.105 39.105 0 01-2.153-3.361c-1.338-2.431-2.407-5.01-3.34-7.594-.95-2.625-1.72-5.27-2.452-7.932-.634-2.284-1.294-4.513-1.59-6.88-.316-2.543-.141-5.134 1.11-7.445.142-.237-.207-.426-.323-.244z" fill="#fff" fill-opacity=".4"/><path d="M24.032 87.599c1.57 2.802 5.168 3.504 8.122 3.853 4.083.519 8.19.982 12.293.942 4.431-.027 8.837-.733 13.211-1.519 4.416-.8 8.81-1.778 13.17-2.971 8.622-2.396 17.005-5.665 24.913-9.948 6.982-3.794 13.766-8.11 19.805-13.291 2.927-2.533 5.721-5.29 8.222-8.213 1.324-1.511 2.522-3.113 3.719-4.714.934-1.319 1.788-2.606 2.388-4.073.253-.555.49-1.15.535-1.764.045-.614-.891-.764-.936-.15-.045.614-.323 1.224-.56 1.819a22.43 22.43 0 01-.929 1.821c-.979 1.565-2.152 3.111-3.314 4.561-2.374 3.012-5.057 5.82-7.872 8.402-5.671 5.179-12.111 9.548-18.78 13.315-7.537 4.28-15.476 7.748-23.804 10.308-4.218 1.323-8.526 2.405-12.856 3.312-4.248.876-8.582 1.646-12.917 2.05-4.294.388-8.543.162-12.828-.28-1.69-.186-3.405-.316-5.125-.582-1.583-.272-3.172-.68-4.503-1.507-.658-.393-1.24-.953-1.701-1.559-.117-.185-.37.003-.253.188z" fill="#fff" fill-opacity=".4"/></svg>